<svg width="33" height="30" viewBox="0 0 33 30" fill="none" xmlns="http://www.w3.org/2000/svg">
<path d="M32.3157 14.7592L18.2509 1.22811L17.3081 0.320671C17.0933 0.115276 16.8028 0 16.5001 0C16.1973 0 15.9068 0.115276 15.692 0.320671L0.684462 14.7592C0.464358 14.9702 0.290406 15.2215 0.172874 15.4984C0.0553426 15.7752 -0.00338744 16.0718 0.000150875 16.3708C0.0147107 17.6041 1.08122 18.5886 2.36248 18.5886H3.90946V30H29.0907V18.5886H30.6704C31.2928 18.5886 31.8789 18.3539 32.3193 17.93C32.5362 17.7219 32.708 17.4745 32.8248 17.202C32.9417 16.9296 33.0012 16.6375 33 16.3428C33 15.7472 32.7561 15.1831 32.3157 14.7592ZM18.5384 27.4774H14.4617V20.33H18.5384V27.4774ZM26.4699 16.066V27.4774H20.868V19.4891C20.868 18.7148 20.2165 18.0876 19.412 18.0876H13.5881C12.7837 18.0876 12.1321 18.7148 12.1321 19.4891V27.4774H6.53023V16.066H3.03587L16.5037 3.11307L17.3445 3.92241L29.9679 16.066H26.4699Z" fill="#7C7C7C"/>
</svg>
