<svg width="30" height="30" viewBox="0 0 30 30" fill="none" xmlns="http://www.w3.org/2000/svg">
<path d="M25.9581 23.9279L30 28.0578L28.0096 30L23.9677 25.8701L25.9581 23.9279Z" fill="#7C7C7C"/>
<path fill-rule="evenodd" clip-rule="evenodd" d="M14.8427 29.6406C23.0401 29.6406 29.6854 23.0054 29.6854 14.8203C29.6854 6.63528 23.0401 0 14.8427 0C6.6453 0 0 6.63528 0 14.8203C0 23.0054 6.6453 29.6406 14.8427 29.6406ZM14.8428 26.8618C21.5032 26.8618 26.9025 21.4707 26.9025 14.8203C26.9025 8.16998 21.5032 2.77881 14.8428 2.77881C8.18242 2.77881 2.78312 8.16998 2.78312 14.8203C2.78312 21.4707 8.18242 26.8618 14.8428 26.8618Z" fill="#7C7C7C"/>
</svg>