<svg width="30" height="30" viewBox="0 0 30 30" fill="none" xmlns="http://www.w3.org/2000/svg">
<defs>
<linearGradient id="paint0_linear_24_202" x1="25.0562" y1="-32.2603" x2="-16.1229" y2="-22.6172" gradientUnits="userSpaceOnUse">
<stop stop-color="#74EBD5"/>
<stop offset="1" stop-color="#9FACE6"/>
</linearGradient>
</defs>
<path d="M0 15C0 6.71625 6.71625 0 15 0C23.2838 0 30 6.71625 30 15C30 23.2838 23.2838 30 15 30C6.71625 30 0 23.2838 0 15ZM2.52125 15C2.52125 21.8913 8.1075 27.4788 15 27.4788C21.8925 27.4788 27.4788 21.8925 27.4788 15C27.4788 8.10875 21.8925 2.52125 15 2.52125C8.10875 2.52125 2.52125 8.1075 2.52125 15ZM12.8688 13.84V13.8375C12.9482 13.7035 13.0398 13.5771 13.1425 13.46L13.14 13.4625C13.165 13.4325 13.1913 13.405 13.2175 13.3775C13.3063 13.2825 13.4013 13.195 13.5025 13.1163L13.5075 13.1125C13.5413 13.0862 13.5775 13.0663 13.6112 13.0413C13.645 13.0163 13.705 12.9737 13.755 12.9437L21.8588 8.2L17.13 16.28V16.2825C17.0505 16.4167 16.9584 16.5431 16.855 16.66L16.8575 16.6575C16.8325 16.6875 16.8063 16.715 16.7813 16.7425C16.6929 16.8366 16.5971 16.9235 16.495 17.0025L16.49 17.0063C16.4563 17.0325 16.4213 17.0538 16.3863 17.0775C16.3513 17.1013 16.2925 17.145 16.2425 17.175L8.13875 21.92L12.8688 13.84Z" fill="url(#paint0_linear_24_202)"/>
</svg>
