<svg width="29" height="29" viewBox="0 0 29 29" fill="none" xmlns="http://www.w3.org/2000/svg">
<defs>
<linearGradient id="paint0_linear_5_1069" x1="24.221" y1="-31.1849" x2="-15.5855" y2="-21.8633" gradientUnits="userSpaceOnUse">
<stop stop-color="#74EBD5"/>
<stop offset="1" stop-color="#9FACE6"/>
</linearGradient>
</defs>
<path d="M14.5 14.5C16.4228 14.5 18.2669 13.7362 19.6265 12.3765C20.9862 11.0169 21.75 9.17282 21.75 7.25C21.75 5.32718 20.9862 3.48311 19.6265 2.12348C18.2669 0.763837 16.4228 0 14.5 0C12.5772 0 10.7331 0.763837 9.37348 2.12348C8.01384 3.48311 7.25 5.32718 7.25 7.25C7.25 9.17282 8.01384 11.0169 9.37348 12.3765C10.7331 13.7362 12.5772 14.5 14.5 14.5ZM19.3333 7.25C19.3333 8.53188 18.8241 9.76126 17.9177 10.6677C17.0113 11.5741 15.7819 12.0833 14.5 12.0833C13.2181 12.0833 11.9887 11.5741 11.0823 10.6677C10.1759 9.76126 9.66667 8.53188 9.66667 7.25C9.66667 5.96812 10.1759 4.73874 11.0823 3.83232C11.9887 2.92589 13.2181 2.41667 14.5 2.41667C15.7819 2.41667 17.0113 2.92589 17.9177 3.83232C18.8241 4.73874 19.3333 5.96812 19.3333 7.25ZM29 26.5833C29 29 26.5833 29 26.5833 29H2.41667C2.41667 29 0 29 0 26.5833C0 24.1667 2.41667 16.9167 14.5 16.9167C26.5833 16.9167 29 24.1667 29 26.5833ZM26.5833 26.5737C26.5809 25.9792 26.2112 24.1908 24.5727 22.5523C22.997 20.9767 20.0318 19.3333 14.5 19.3333C8.96583 19.3333 6.003 20.9767 4.42733 22.5523C2.78883 24.1908 2.4215 25.9792 2.41667 26.5737H26.5833Z" fill="url(#paint0_linear_5_1069)"/>

</svg>
