<svg width="151" height="39" viewBox="0 0 151 39" fill="none" xmlns="http://www.w3.org/2000/svg">
<defs>
<linearGradient id="paint0_linear_0_1" x1="32.573" y1="-41.9384" x2="-20.9598" y2="-29.4023" gradientUnits="userSpaceOnUse">
<stop stop-color="#74EBD5"/>
<stop offset="1" stop-color="#9FACE6"/>
</linearGradient>
</defs>
<path d="M54.8545 29.24C53.6225 29.24 52.4785 29.024 51.4225 28.592C50.3665 28.16 49.4465 27.56 48.6625 26.792C47.8945 26.008 47.2945 25.088 46.8625 24.032C46.4305 22.976 46.2145 21.832 46.2145 20.6C46.2145 19.368 46.4305 18.224 46.8625 17.168C47.2945 16.112 47.8945 15.2 48.6625 14.432C49.4465 13.648 50.3665 13.04 51.4225 12.608C52.4785 12.176 53.6225 11.96 54.8545 11.96C55.7025 11.96 56.5185 12.064 57.3025 12.272C58.1025 12.464 58.8145 12.76 59.4385 13.16C59.5505 13.24 59.6305 13.336 59.6785 13.448C59.7425 13.544 59.7745 13.648 59.7745 13.76C59.7745 13.984 59.7025 14.168 59.5585 14.312C59.4145 14.44 59.2625 14.504 59.1025 14.504C59.0225 14.504 58.9425 14.496 58.8625 14.48C58.7985 14.448 58.7345 14.416 58.6705 14.384C58.1265 14.08 57.5345 13.84 56.8945 13.664C56.2545 13.488 55.5745 13.4 54.8545 13.4C53.4785 13.4 52.2545 13.712 51.1825 14.336C50.1105 14.96 49.2705 15.816 48.6625 16.904C48.0545 17.992 47.7505 19.224 47.7505 20.6C47.7505 21.976 48.0545 23.208 48.6625 24.296C49.2705 25.384 50.1105 26.24 51.1825 26.864C52.2545 27.488 53.4785 27.8 54.8545 27.8C55.5745 27.8 56.2945 27.696 57.0145 27.488C57.7505 27.28 58.3825 27 58.9105 26.648L58.7905 27.152V21.632L59.1505 21.968H54.9985C54.7905 21.968 54.6145 21.896 54.4705 21.752C54.3265 21.608 54.2545 21.44 54.2545 21.248C54.2545 21.024 54.3265 20.848 54.4705 20.72C54.6145 20.592 54.7905 20.528 54.9985 20.528H59.5825C59.7905 20.528 59.9585 20.6 60.0865 20.744C60.2305 20.872 60.3025 21.04 60.3025 21.248V27.032C60.3025 27.16 60.2705 27.28 60.2065 27.392C60.1425 27.504 60.0545 27.6 59.9425 27.68C59.2385 28.16 58.4465 28.544 57.5665 28.832C56.7025 29.104 55.7985 29.24 54.8545 29.24ZM69.19 29.24C67.958 29.24 66.87 28.976 65.926 28.448C64.982 27.92 64.246 27.184 63.718 26.24C63.19 25.296 62.926 24.192 62.926 22.928C62.926 21.568 63.19 20.408 63.718 19.448C64.262 18.488 64.958 17.752 65.806 17.24C66.67 16.712 67.582 16.448 68.542 16.448C69.246 16.448 69.926 16.576 70.582 16.832C71.254 17.072 71.846 17.44 72.358 17.936C72.886 18.416 73.302 19.008 73.606 19.712C73.926 20.416 74.102 21.232 74.134 22.16C74.118 22.352 74.038 22.52 73.894 22.664C73.75 22.792 73.582 22.856 73.39 22.856H63.766L63.478 21.56H72.934L72.622 21.848V21.368C72.558 20.616 72.318 19.976 71.902 19.448C71.486 18.92 70.982 18.52 70.39 18.248C69.798 17.976 69.182 17.84 68.542 17.84C68.062 17.84 67.566 17.936 67.054 18.128C66.558 18.32 66.102 18.624 65.686 19.04C65.286 19.44 64.958 19.96 64.702 20.6C64.446 21.224 64.318 21.968 64.318 22.832C64.318 23.776 64.51 24.632 64.894 25.4C65.278 26.168 65.83 26.776 66.55 27.224C67.286 27.672 68.158 27.896 69.166 27.896C69.726 27.896 70.23 27.816 70.678 27.656C71.126 27.496 71.518 27.288 71.854 27.032C72.19 26.76 72.47 26.48 72.694 26.192C72.87 26.048 73.046 25.976 73.222 25.976C73.382 25.976 73.518 26.04 73.63 26.168C73.758 26.296 73.822 26.44 73.822 26.6C73.822 26.792 73.742 26.96 73.582 27.104C73.102 27.68 72.478 28.184 71.71 28.616C70.942 29.032 70.102 29.24 69.19 29.24ZM83.0003 16.448C84.0563 16.448 84.8963 16.664 85.5203 17.096C86.1603 17.512 86.6163 18.088 86.8883 18.824C87.1763 19.544 87.3203 20.344 87.3203 21.224V28.28C87.3203 28.472 87.2483 28.64 87.1043 28.784C86.9603 28.928 86.7923 29 86.6003 29C86.3763 29 86.2003 28.928 86.0723 28.784C85.9443 28.64 85.8803 28.472 85.8803 28.28V21.296C85.8803 20.656 85.7763 20.072 85.5683 19.544C85.3603 19.016 85.0163 18.592 84.5363 18.272C84.0723 17.952 83.4563 17.792 82.6883 17.792C82.0003 17.792 81.3443 17.952 80.7203 18.272C80.1123 18.592 79.6163 19.016 79.2323 19.544C78.8483 20.072 78.6563 20.656 78.6563 21.296V28.28C78.6563 28.472 78.5843 28.64 78.4403 28.784C78.2963 28.928 78.1283 29 77.9363 29C77.7123 29 77.5363 28.928 77.4083 28.784C77.2803 28.64 77.2163 28.472 77.2163 28.28V17.528C77.2163 17.336 77.2803 17.168 77.4083 17.024C77.5523 16.88 77.7283 16.808 77.9363 16.808C78.1443 16.808 78.3123 16.88 78.4403 17.024C78.5843 17.168 78.6563 17.336 78.6563 17.528V19.544L78.1043 20.408C78.1363 19.896 78.2963 19.408 78.5843 18.944C78.8883 18.464 79.2723 18.04 79.7363 17.672C80.2003 17.288 80.7123 16.992 81.2723 16.784C81.8483 16.56 82.4243 16.448 83.0003 16.448ZM96.6353 29.24C95.4033 29.24 94.3153 28.976 93.3713 28.448C92.4273 27.92 91.6913 27.184 91.1633 26.24C90.6353 25.296 90.3713 24.192 90.3713 22.928C90.3713 21.568 90.6353 20.408 91.1633 19.448C91.7073 18.488 92.4033 17.752 93.2513 17.24C94.1153 16.712 95.0273 16.448 95.9873 16.448C96.6913 16.448 97.3713 16.576 98.0273 16.832C98.6993 17.072 99.2913 17.44 99.8033 17.936C100.331 18.416 100.747 19.008 101.051 19.712C101.371 20.416 101.547 21.232 101.579 22.16C101.563 22.352 101.483 22.52 101.339 22.664C101.195 22.792 101.027 22.856 100.835 22.856H91.2113L90.9233 21.56H100.379L100.067 21.848V21.368C100.003 20.616 99.7633 19.976 99.3473 19.448C98.9313 18.92 98.4273 18.52 97.8353 18.248C97.2433 17.976 96.6273 17.84 95.9873 17.84C95.5073 17.84 95.0113 17.936 94.4993 18.128C94.0033 18.32 93.5473 18.624 93.1313 19.04C92.7313 19.44 92.4033 19.96 92.1473 20.6C91.8913 21.224 91.7633 21.968 91.7633 22.832C91.7633 23.776 91.9553 24.632 92.3393 25.4C92.7233 26.168 93.2753 26.776 93.9953 27.224C94.7313 27.672 95.6033 27.896 96.6113 27.896C97.1713 27.896 97.6753 27.816 98.1233 27.656C98.5713 27.496 98.9633 27.288 99.2993 27.032C99.6353 26.76 99.9153 26.48 100.139 26.192C100.315 26.048 100.491 25.976 100.667 25.976C100.827 25.976 100.963 26.04 101.075 26.168C101.203 26.296 101.267 26.44 101.267 26.6C101.267 26.792 101.187 26.96 101.027 27.104C100.547 27.68 99.9233 28.184 99.1553 28.616C98.3873 29.032 97.5473 29.24 96.6353 29.24ZM119.23 16.472C119.406 16.472 119.566 16.536 119.71 16.664C119.87 16.792 119.95 16.968 119.95 17.192C119.95 17.24 119.942 17.296 119.926 17.36C119.91 17.424 119.894 17.472 119.878 17.504L116.182 28.544C116.118 28.688 116.014 28.808 115.87 28.904C115.742 28.984 115.606 29.016 115.462 29C115.174 28.984 114.958 28.832 114.814 28.544L111.43 20.576L111.862 20.672L108.862 28.544C108.734 28.832 108.518 28.984 108.214 29C108.07 29.016 107.926 28.984 107.782 28.904C107.638 28.808 107.542 28.688 107.494 28.544L103.702 17.504C103.654 17.392 103.63 17.288 103.63 17.192C103.63 16.984 103.694 16.816 103.822 16.688C103.966 16.544 104.15 16.472 104.374 16.472C104.518 16.472 104.646 16.512 104.758 16.592C104.886 16.672 104.974 16.792 105.022 16.952L108.43 27.176L107.974 27.152L111.07 19.352C111.198 19.048 111.422 18.896 111.742 18.896C111.902 18.896 112.038 18.936 112.15 19.016C112.262 19.096 112.35 19.208 112.414 19.352L115.702 27.176L115.174 27.2L118.558 16.952C118.654 16.632 118.878 16.472 119.23 16.472ZM124.101 28.28C124.101 28.472 124.029 28.64 123.885 28.784C123.741 28.928 123.573 29 123.381 29C123.173 29 122.997 28.928 122.853 28.784C122.725 28.64 122.661 28.472 122.661 28.28V17.24C122.661 17.048 122.725 16.88 122.853 16.736C122.997 16.592 123.173 16.52 123.381 16.52C123.589 16.52 123.757 16.592 123.885 16.736C124.029 16.88 124.101 17.048 124.101 17.24V28.28ZM123.381 14.912C123.045 14.912 122.789 14.84 122.613 14.696C122.453 14.536 122.373 14.312 122.373 14.024V13.784C122.373 13.496 122.461 13.28 122.637 13.136C122.829 12.976 123.085 12.896 123.405 12.896C123.709 12.896 123.941 12.976 124.101 13.136C124.277 13.28 124.365 13.496 124.365 13.784V14.024C124.365 14.312 124.277 14.536 124.101 14.696C123.941 14.84 123.701 14.912 123.381 14.912ZM127.145 27.056C127.017 26.864 126.953 26.68 126.953 26.504C126.969 26.312 127.073 26.16 127.265 26.048C127.393 25.936 127.537 25.888 127.697 25.904C127.873 25.92 128.033 26 128.177 26.144C128.609 26.704 129.129 27.16 129.737 27.512C130.361 27.848 131.097 28.016 131.945 28.016C132.393 28.016 132.833 27.944 133.265 27.8C133.713 27.64 134.081 27.408 134.369 27.104C134.657 26.784 134.801 26.384 134.801 25.904C134.801 25.408 134.657 25.008 134.369 24.704C134.081 24.4 133.705 24.16 133.241 23.984C132.793 23.808 132.313 23.656 131.801 23.528C131.257 23.384 130.729 23.224 130.217 23.048C129.705 22.856 129.249 22.624 128.849 22.352C128.465 22.064 128.153 21.72 127.913 21.32C127.673 20.92 127.553 20.432 127.553 19.856C127.553 19.184 127.737 18.592 128.105 18.08C128.473 17.568 128.969 17.168 129.593 16.88C130.233 16.592 130.953 16.448 131.753 16.448C132.153 16.448 132.585 16.504 133.049 16.616C133.513 16.712 133.969 16.88 134.417 17.12C134.865 17.36 135.265 17.688 135.617 18.104C135.761 18.248 135.833 18.416 135.833 18.608C135.833 18.784 135.753 18.944 135.593 19.088C135.465 19.184 135.313 19.232 135.137 19.232C134.977 19.232 134.841 19.168 134.729 19.04C134.345 18.608 133.889 18.28 133.361 18.056C132.833 17.832 132.265 17.72 131.657 17.72C131.193 17.72 130.753 17.8 130.337 17.96C129.937 18.104 129.601 18.328 129.329 18.632C129.057 18.936 128.921 19.336 128.921 19.832C128.953 20.296 129.113 20.672 129.401 20.96C129.705 21.248 130.097 21.488 130.577 21.68C131.073 21.872 131.625 22.048 132.233 22.208C132.745 22.336 133.233 22.488 133.697 22.664C134.177 22.84 134.593 23.064 134.945 23.336C135.313 23.592 135.601 23.92 135.809 24.32C136.033 24.72 136.145 25.224 136.145 25.832C136.145 26.536 135.945 27.144 135.545 27.656C135.161 28.168 134.641 28.56 133.985 28.832C133.329 29.104 132.601 29.24 131.801 29.24C130.937 29.24 130.097 29.072 129.281 28.736C128.481 28.4 127.769 27.84 127.145 27.056ZM149.335 16.736C149.543 16.736 149.711 16.808 149.839 16.952C149.983 17.096 150.055 17.272 150.055 17.48V28.28C150.055 28.472 149.983 28.64 149.839 28.784C149.695 28.928 149.527 29 149.335 29C149.127 29 148.951 28.928 148.807 28.784C148.679 28.64 148.615 28.472 148.615 28.28V25.424L149.023 25.232C149.023 25.68 148.895 26.136 148.639 26.6C148.399 27.064 148.063 27.496 147.631 27.896C147.199 28.296 146.687 28.624 146.095 28.88C145.519 29.12 144.895 29.24 144.223 29.24C143.135 29.24 142.159 28.96 141.295 28.4C140.447 27.84 139.775 27.072 139.279 26.096C138.799 25.12 138.559 24.024 138.559 22.808C138.559 21.56 138.807 20.464 139.303 19.52C139.799 18.56 140.471 17.808 141.319 17.264C142.167 16.72 143.127 16.448 144.199 16.448C144.887 16.448 145.527 16.568 146.119 16.808C146.727 17.048 147.255 17.376 147.703 17.792C148.151 18.208 148.495 18.688 148.735 19.232C148.991 19.76 149.119 20.312 149.119 20.888L148.615 20.528V17.48C148.615 17.272 148.679 17.096 148.807 16.952C148.951 16.808 149.127 16.736 149.335 16.736ZM144.343 27.896C145.191 27.896 145.943 27.68 146.599 27.248C147.255 26.8 147.767 26.192 148.135 25.424C148.519 24.64 148.711 23.768 148.711 22.808C148.711 21.864 148.519 21.016 148.135 20.264C147.767 19.512 147.255 18.912 146.599 18.464C145.943 18.016 145.191 17.792 144.343 17.792C143.511 17.792 142.759 18.008 142.087 18.44C141.431 18.872 140.911 19.464 140.527 20.216C140.159 20.968 139.975 21.832 139.975 22.808C139.975 23.768 140.159 24.64 140.527 25.424C140.911 26.192 141.431 26.8 142.087 27.248C142.743 27.68 143.495 27.896 144.343 27.896Z" fill="black"/>
<path d="M39 19.5C39 30.2696 30.2696 39 19.5 39C8.73045 39 0 30.2696 0 19.5C0 8.73045 8.73045 0 19.5 0C30.2696 0 39 8.73045 39 19.5Z" fill="url(#paint0_linear_0_1)"/>
<path d="M19.1421 29.8629C17.7752 29.8629 16.4678 29.6251 15.2198 29.1497C13.9916 28.6545 12.9021 27.9413 11.9512 27.0103C11.0004 26.0594 10.2476 24.9204 9.69293 23.5931C9.15807 22.2461 8.89065 20.7109 8.89065 18.9874C8.89065 17.5017 9.16798 16.125 9.72265 14.8571C10.2773 13.5893 11.04 12.48 12.0106 11.5291C13.0011 10.5585 14.1501 9.80571 15.4575 9.27086C16.7649 8.736 18.1813 8.46857 19.7066 8.46857C21.6084 8.46857 23.3318 8.88457 24.8769 9.71657C26.4221 10.5288 27.571 11.648 28.3238 13.0743L24.0152 16.3726C23.5992 15.5406 22.9752 14.877 22.1432 14.3817C21.3112 13.8667 20.4297 13.6091 19.4986 13.6091C18.8053 13.6091 18.1714 13.7478 17.5969 14.0251C17.0225 14.3025 16.5173 14.6888 16.0815 15.184C15.6655 15.6792 15.3386 16.2735 15.1009 16.9669C14.883 17.6404 14.7741 18.3832 14.7741 19.1954C14.7741 20.0274 14.8929 20.7802 15.1306 21.4537C15.3684 22.1272 15.6952 22.7116 16.1112 23.2069C16.547 23.6823 17.0621 24.0587 17.6564 24.336C18.2506 24.5935 18.9143 24.7223 19.6472 24.7223C20.5783 24.7223 21.4697 24.4945 22.3215 24.0389C23.1733 23.5634 23.9459 22.8998 24.6392 22.048V27.6937C23.0545 29.1398 21.2221 29.8629 19.1421 29.8629ZM24.3421 22.6423H20.4495V18.4823H29.1261V29.7143H24.3421V22.6423Z" fill="white"/>
</svg>
