<svg width="197" height="140" viewBox="0 0 197 140" fill="none" xmlns="http://www.w3.org/2000/svg">
    <path fill-rule="evenodd" clip-rule="evenodd" d="M103.157 52.7743C103.003 52.5539 102.731 52.816 102.845 52.9752C102.949 52.9083 103.053 52.8413 103.157 52.7743ZM107.372 53.999C107.201 53.9138 107.143 54.048 107.075 54.2027C107.055 54.2481 107.035 54.2953 107.01 54.3393C107.164 54.4238 107.235 54.2753 107.307 54.125C107.328 54.0814 107.349 54.0374 107.372 53.999ZM104.403 48.7101C104.059 48.2713 104.034 48.4186 104.005 48.9186C104.072 48.8839 104.138 48.8491 104.205 48.8142C104.271 48.7796 104.337 48.7448 104.403 48.7101ZM151.443 24.9802C151.009 25.1829 150.963 25.3302 151.314 25.5783C151.355 25.3853 151.386 25.2438 151.443 24.9802ZM103.004 45.4385C103.106 45.7737 103.526 45.8459 103.526 45.4385H103.004ZM135.483 28.1619C135.733 28.2414 135.86 28.2821 135.973 28.2564C136.09 28.2297 136.191 28.131 136.397 27.9294C136.295 27.9553 136.204 27.9785 136.117 28.0006C136.047 28.0185 135.979 28.0355 135.911 28.053C135.78 28.0864 135.645 28.1206 135.483 28.1619ZM123.889 62.5267C123.741 62.3182 123.593 62.1098 123.446 61.9013C123.396 62.0545 123.346 62.208 123.296 62.3612L123.259 62.4752C123.469 62.4923 123.679 62.5094 123.889 62.5267ZM153.846 19.855C153.787 20.1335 153.758 20.2711 153.813 20.3499C153.867 20.4269 154.001 20.4474 154.267 20.4883L154.043 20.1509C153.982 20.0595 153.918 19.9639 153.846 19.855ZM151.501 20.726C151.482 20.6354 151.464 20.5446 151.445 20.4539L151.443 20.4401C151.425 20.3541 151.408 20.2681 151.39 20.1818C151.359 20.3203 151.239 20.3128 151.122 20.3053C151.021 20.299 150.923 20.2928 150.886 20.3798C150.701 20.8103 151.289 20.7519 151.501 20.726ZM106.834 52.8486C106.706 52.5938 106.677 52.574 106.396 52.5207C106.469 52.7749 106.468 52.9734 106.468 53.2279V53.2807C106.927 53.2158 107.071 53.1824 107.08 52.6944L106.834 52.8486ZM105.496 53.7486C105.435 53.9742 105.263 53.9197 105.117 53.873C104.985 53.8308 104.873 53.7953 104.883 53.9806C104.877 53.8734 105.41 54.5774 105.379 54.5547C105.647 54.7565 105.803 54.7375 106.107 54.5059C105.674 54.4896 105.624 54.2734 105.557 53.9831C105.54 53.9091 105.521 53.8302 105.496 53.7486ZM154.843 20.5152C154.749 20.7322 154.654 20.9493 154.56 21.1663L154.539 21.2143C154.452 21.4154 154.364 21.6164 154.277 21.8173C154.237 21.9085 154.206 21.9889 154.18 22.0584C154.054 22.3875 154.02 22.4768 153.561 22.3326C153.577 22.3057 153.614 22.2526 153.661 22.1859C153.803 21.9853 154.031 21.6623 154.006 21.5646C153.982 21.4726 153.756 21.3589 153.551 21.256C153.424 21.1922 153.306 21.1327 153.248 21.0849C153.082 20.9466 153.021 20.8207 152.957 20.6874C152.92 20.6091 152.881 20.5279 152.818 20.4403C152.885 20.2206 152.833 20.1179 152.662 20.1327C152.612 20.2654 152.563 20.3979 152.514 20.5303L152.511 20.5388L152.472 20.6417C152.481 20.8458 152.582 20.9238 152.702 21.0154C152.793 21.0859 152.895 21.1642 152.973 21.3142L152.988 21.3428C153.102 21.5599 153.134 21.6225 153.116 21.6621C153.109 21.678 153.093 21.6901 153.071 21.7072C153.025 21.7427 152.952 21.7994 152.869 21.9555C152.793 22.0993 152.74 22.257 152.689 22.4102C152.591 22.7019 152.498 22.9782 152.259 23.1157C152.455 23.2015 152.65 23.2873 152.846 23.373C152.389 23.8738 153.339 23.6299 153.496 23.5813L153.495 23.5832C153.334 23.9235 153.174 24.2636 153.014 24.6038C152.658 24.4047 152.435 24.0735 152.214 23.744C152.136 23.6282 152.058 23.5124 151.975 23.4027C151.731 23.8559 151.487 24.3093 151.243 24.7626C151.354 24.7524 151.465 24.7421 151.576 24.7319C151.708 24.7198 151.84 24.7077 151.971 24.6954C151.963 24.71 151.942 24.7436 151.913 24.788C151.814 24.9402 151.633 25.22 151.653 25.2955C151.702 25.475 151.897 25.5278 152.088 25.5795C152.32 25.6424 152.547 25.7037 152.496 25.989C152.484 26.0557 151.744 26.802 151.617 26.874C151.695 26.9092 151.764 26.9338 151.824 26.9551C152.047 27.0344 152.129 27.0639 152.024 27.4105C151.851 27.3063 151.679 27.2018 151.506 27.0974C151.473 27.1555 151.44 27.2133 151.406 27.2713C151.287 27.4764 151.168 27.683 151.095 27.9084C151.113 28.0976 151.079 28.2767 150.993 28.4461C150.891 28.5976 150.777 28.7389 150.649 28.8699C150.548 29.1358 150.516 30.5875 150.637 30.8242C150.909 30.4734 151.516 31.0927 150.491 31.0927C150.406 31.0927 150.338 31.0894 150.282 31.0865C150.047 31.0748 150.04 31.0744 149.901 31.3934C149.766 31.7035 149.693 31.974 150.076 32.0038C149.845 32.4589 149.839 32.83 149.832 33.2713C149.831 33.3792 149.829 33.4913 149.824 33.6098C149.808 33.9883 149.722 34.3648 149.637 34.7381C149.612 34.8472 149.587 34.9559 149.564 35.0644C149.61 34.9991 149.655 34.9338 149.701 34.8683C149.746 34.803 149.792 34.7377 149.837 34.6723C150.038 35.1014 149.949 35.4751 149.846 35.9044C149.823 35.9983 149.8 36.0951 149.779 36.1955C149.633 36.0026 149.56 36.118 149.484 36.2397C149.427 36.3299 149.368 36.4236 149.275 36.3971C149.013 36.3223 149.022 36.2591 149.035 36.1598C149.045 36.0911 149.057 36.005 148.983 35.8858C148.949 35.8309 148.923 35.7844 148.9 35.7437C148.819 35.5982 148.78 35.5275 148.554 35.4069C148.279 35.2604 147.855 35.2149 147.478 35.1744C147.328 35.1582 147.186 35.1431 147.063 35.1225C146.343 35.0025 145.621 34.9712 144.893 34.9395L144.864 34.9382C142.099 34.8184 139.345 34.7877 136.581 34.9395C134.038 35.0793 131.433 35.4357 128.94 35.9184C128.762 35.9528 128.585 35.9872 128.408 36.0214C125.938 36.4976 123.517 36.9644 121.118 37.7754C120.897 37.8503 120.676 37.9613 120.454 38.0721C120.179 38.2104 119.903 38.3488 119.627 38.417C119.433 38.4652 119.239 38.4932 119.043 38.5216C118.764 38.562 118.482 38.6027 118.193 38.7029C117.542 38.9287 116.879 39.1244 116.216 39.32C115.68 39.4781 115.144 39.6363 114.614 39.8103C114.275 39.9218 113.929 40.0284 113.58 40.1357C112.615 40.4326 111.632 40.7348 110.739 41.1617C110.472 41.2898 110.217 41.4409 109.961 41.592C109.713 41.7391 109.464 41.8864 109.204 42.0123C109.095 42.0653 108.97 42.1172 108.838 42.1717C108.368 42.366 107.813 42.5953 107.608 43.0296C107.506 43.2466 107.524 43.4039 107.587 43.6287C107.705 44.045 107.8 44.0358 108.086 44.008C108.11 44.0055 108.135 44.0032 108.162 44.0007C108.465 43.974 108.825 43.8154 109.167 43.6648C109.368 43.5761 109.563 43.4903 109.736 43.4355C111.018 43.0319 112.315 42.7088 113.618 42.3854C114.602 42.1413 115.588 41.818 116.571 41.4954C117.928 41.0507 119.28 40.6071 120.619 40.3738C121.307 40.254 121.977 40.0307 122.648 39.8072C123.312 39.5856 123.978 39.3636 124.664 39.2417C124.762 39.2242 124.921 39.1668 125.099 39.1025C125.469 38.969 125.921 38.8056 126.089 38.906C126.133 38.9325 126.219 39.1532 126.289 39.3302C126.323 39.4176 126.353 39.4944 126.372 39.5316C126.575 39.9379 126.809 40.3302 127.082 40.6941C127.686 41.4996 128.442 42.1901 129.191 42.8745C129.463 43.1222 129.733 43.3693 129.995 43.6205C130.821 44.4133 131.569 45.2662 132.318 46.1223C132.59 46.4324 132.862 46.7432 133.138 47.0514C133.187 46.9948 133.236 46.938 133.285 46.8813L133.409 46.7377C133.321 47.4117 133.779 47.9126 134.202 48.3756C134.22 48.3952 134.238 48.4146 134.256 48.4342C134.274 48.4545 134.293 48.4749 134.311 48.495C134.843 49.0857 135.271 49.6408 135.691 50.3142C135.93 50.6969 136.215 51.0467 136.497 51.3928C136.622 51.546 136.746 51.6986 136.865 51.853C137.088 52.141 137.267 52.4636 137.448 52.788C137.577 53.0214 137.708 53.2557 137.855 53.4788C138.163 53.9456 138.469 54.4157 138.775 54.8857C139.272 55.6498 139.769 56.4134 140.274 57.1617C140.658 57.7307 140.961 58.3709 141.265 59.0185C141.337 59.1737 141.454 59.3776 141.582 59.6004C141.877 60.1163 142.231 60.7342 142.231 61.0823C142.214 61.1641 142.261 61.3834 142.312 61.6129C142.411 62.0685 142.519 62.564 142.143 62.1035C142.117 62.1431 142.091 62.1826 142.066 62.2222L142.028 62.2802C142.003 62.3187 141.978 62.3573 141.953 62.3957C141.926 62.4382 141.899 62.4806 141.871 62.5229C142.026 62.458 142.181 62.3931 142.336 62.3282C142.039 62.5966 142.279 62.7176 142.501 62.8299C142.632 62.8958 142.756 62.9586 142.763 63.0465C142.727 63.0811 142.692 63.1154 142.656 63.1498L142.528 63.2729C142.395 63.5482 142.221 63.584 142.007 63.38C141.909 63.386 141.843 63.3668 141.782 63.3485C141.695 63.3228 141.615 63.2992 141.461 63.3505C141.57 63.5208 141.693 63.5703 141.808 63.6162C141.956 63.6759 142.091 63.7299 142.163 64.0356C142.253 64.4192 142.041 64.5604 141.76 64.7478C141.684 64.7981 141.604 64.8517 141.523 64.9143L141.512 64.9121C141.533 64.6116 141.387 64.3904 141.122 64.2504V64.8409C141.195 64.8541 141.268 64.8674 141.34 64.8806L141.342 64.881L141.512 64.9121C141.512 64.9156 141.512 64.9192 141.512 64.9227L141.523 64.9143C141.46 65.1522 141.278 65.1084 141.061 65.0561C141.022 65.0469 140.983 65.0375 140.943 65.0293C140.474 64.9327 139.967 64.7685 139.486 64.6132C139.336 64.5644 139.188 64.5166 139.045 64.4718C137.747 64.0673 136.439 63.7262 135.097 63.4495C132.818 62.9797 130.554 62.876 128.271 62.7713C127.485 62.7352 126.698 62.6991 125.907 62.6481C125.911 62.6312 125.915 62.6152 125.919 62.6001C125.958 62.4388 125.974 62.3731 125.964 62.3115C125.957 62.2692 125.939 62.2291 125.907 62.1611C125.903 62.1513 125.898 62.1409 125.893 62.1298C125.942 62.2364 125.854 62.2456 125.765 62.2548C125.63 62.2688 125.493 62.2832 125.833 62.6415C124.946 62.7865 124.015 62.7746 123.089 62.7627C122.517 62.7554 121.947 62.7481 121.39 62.7779C121.405 62.7446 121.424 62.7101 121.444 62.6755C121.512 62.5534 121.582 62.4293 121.468 62.3441C120.974 63.058 119.651 63.0411 118.522 63.0265C118.075 63.021 117.659 63.0156 117.336 63.0559C116.946 63.1049 116.56 63.1799 116.173 63.2548C115.896 63.3086 115.619 63.3624 115.341 63.4063C115.294 63.4138 115.248 63.4211 115.201 63.4282C114.92 63.472 114.638 63.516 114.364 63.5901C114.263 63.6172 114.14 63.6727 114.011 63.7312C113.76 63.8447 113.484 63.9695 113.299 63.9196C113.582 63.3508 113.444 63.5152 113.311 63.6742C113.251 63.7454 113.193 63.8155 113.173 63.8184C113.134 63.8242 113.09 63.8313 113.042 63.8391C112.848 63.8704 112.589 63.9123 112.366 63.9123C112.497 63.3866 112.667 62.8779 112.836 62.3694C113.078 61.6448 113.319 60.9207 113.448 60.1488C113.465 60.0493 113.485 59.9425 113.506 59.8306C113.659 59.0206 113.863 57.9407 113.151 57.4309C112.799 57.1782 112.267 57.0828 111.806 57.0001C111.687 56.9787 111.572 56.9582 111.467 56.9359C111.291 56.8991 111.075 56.8741 110.846 56.8476C110.338 56.7892 109.767 56.7232 109.429 56.5041C109.285 56.4106 109.184 56.3199 109.087 56.2331C108.926 56.0889 108.777 55.9555 108.464 55.8368C108.35 55.7934 108.248 55.7502 108.153 55.7101C107.768 55.5469 107.504 55.4349 107.035 55.577C107.073 55.5296 107.114 55.4841 107.153 55.4399C107.359 55.2079 107.531 55.014 107.14 54.7586C107.063 54.7091 106.958 54.706 106.855 54.7028C106.699 54.698 106.547 54.6933 106.507 54.5297C106.253 54.7089 106.229 54.8629 106.198 55.0641C106.187 55.1375 106.175 55.2172 106.15 55.3066C106.158 55.4484 106.196 55.5835 106.262 55.7118L105.713 55.933C105.782 55.7464 105.688 55.7375 105.587 55.7279C105.518 55.7216 105.447 55.7149 105.419 55.6529C105.344 55.4829 105.357 55.2467 105.37 55.0342C105.374 54.9595 105.378 54.8877 105.378 54.8228C105 54.942 104.605 55.0895 104.44 55.4823C104.074 55.2642 104.113 55.207 104.263 54.9873C104.302 54.9295 104.349 54.8606 104.398 54.7746C104.01 54.6828 103.928 54.8825 103.869 55.2039C103.722 55.1584 103.575 55.1131 103.427 55.0678L103.423 55.0662L103.254 55.0142C103.716 55.0109 103.827 54.6503 103.838 54.2586C103.761 54.2838 103.683 54.3089 103.606 54.3341L103.603 54.3348C103.502 54.3679 103.4 54.4009 103.299 54.4339L103.188 55.0025C102.931 55.2204 102.299 54.8823 102.007 54.7262C101.978 54.7106 101.952 54.6968 101.93 54.6855L101.856 54.6469C101.08 54.2457 100.797 54.0994 100.91 53.1488C100.951 52.8104 101.011 52.4713 101.072 52.1316C101.159 51.6468 101.246 51.161 101.274 50.675C101.321 49.8652 101.243 49.006 101.169 48.1866C101.159 48.0774 101.149 47.9689 101.14 47.8612C101.082 47.2064 101.012 46.5549 100.941 45.9041C100.82 44.7958 100.7 43.6888 100.645 42.569C100.632 42.3113 100.619 42.0536 100.606 41.7957C100.57 41.091 100.534 40.3861 100.507 39.681C100.502 39.5547 100.49 39.4264 100.479 39.2997C100.423 38.6587 100.37 38.0623 101.168 38.0055C101.051 37.6349 101.401 37.2063 101.762 37.0033C101.888 36.7159 102.026 36.6902 102.176 36.9265C102.306 36.9674 102.427 36.9482 102.539 36.8685C102.861 36.7958 103.221 36.4887 103.561 36.1996C103.777 36.0156 103.984 35.839 104.168 35.7343C104.294 35.6629 104.46 35.5824 104.641 35.4945C105.129 35.2583 105.73 34.967 105.971 34.6434C106.15 34.4032 106.077 34.3126 105.996 34.2104C105.932 34.1298 105.862 34.0422 105.905 33.8687C106.03 33.3648 106.464 34.0108 106.58 34.183C106.587 34.1945 106.594 34.2041 106.599 34.2108C106.65 34.1588 106.749 34.0922 106.859 34.0179C107.093 33.8596 107.379 33.6665 107.374 33.5052L106.918 33.4239C106.967 33.3959 107.033 33.3514 107.107 33.3016C107.285 33.1816 107.509 33.0309 107.645 33.0042C107.715 32.9906 107.765 32.976 107.802 32.965C107.848 32.9516 107.874 32.9435 107.898 32.9497C107.931 32.9581 107.956 32.9952 108.019 33.0848C108.044 33.1206 108.074 33.1645 108.113 33.2183C108.139 33.1785 108.175 33.1131 108.217 33.0376C108.323 32.8444 108.466 32.5844 108.566 32.5167C108.606 32.4902 108.758 32.4688 108.894 32.45C108.989 32.4366 109.076 32.4245 109.111 32.4124C109.349 32.3281 109.442 32.1874 109.532 32.0518C109.603 31.9433 109.673 31.8379 109.813 31.7672C109.895 31.7261 109.987 31.7407 110.075 31.7547C110.151 31.767 110.224 31.7785 110.284 31.7524C110.392 31.7054 110.443 31.5984 110.494 31.4915C110.541 31.3945 110.588 31.2975 110.676 31.2447C110.764 31.1927 110.923 31.1921 111.082 31.1915C111.217 31.1912 111.351 31.1906 111.44 31.1583C111.653 31.0804 111.718 31.0061 111.808 30.9018C111.853 30.8501 111.904 30.7912 111.983 30.7205C112.174 30.5498 112.357 30.4911 112.548 30.4294C112.691 30.3835 112.838 30.3361 112.997 30.2395C113.186 30.1249 113.268 29.9396 113.344 29.7687C113.423 29.5909 113.495 29.4286 113.673 29.3772C113.875 29.3194 114.011 29.3685 114.122 29.4083C114.269 29.4609 114.37 29.4972 114.515 29.2483C114.538 29.209 114.51 29.1617 114.478 29.1091C114.432 29.0306 114.378 28.9403 114.475 28.8461C114.649 28.6778 114.735 28.8297 114.814 28.9714C114.826 28.9929 114.839 29.0143 114.851 29.0342L114.851 29.0331L114.852 29.0319C114.957 28.8332 115.063 28.6345 115.168 28.4357C115.479 28.606 115.52 28.5379 115.594 28.4156C115.641 28.3378 115.701 28.2381 115.851 28.1638C115.934 28.1231 116.01 28.1406 116.087 28.1584C116.171 28.1776 116.256 28.1974 116.354 28.144C116.438 28.0991 116.479 28.0223 116.521 27.9463C116.549 27.895 116.577 27.8441 116.617 27.8032C116.675 27.7441 116.725 27.6782 116.776 27.6125C116.891 27.4616 117.005 27.3118 117.212 27.2469C117.104 27.2803 117.984 27.255 117.906 27.2174C117.82 27.0918 117.734 26.9662 117.649 26.8406C117.742 26.8406 117.833 26.8425 117.922 26.8445C118.274 26.8516 118.601 26.8585 118.957 26.7481L118.964 26.746C119.122 26.697 119.363 26.6225 119.492 26.5238L119.503 26.5157C119.662 26.3938 119.732 26.3406 119.761 26.2705C119.783 26.216 119.781 26.1513 119.776 26.0365C119.774 25.9764 119.771 25.9026 119.771 25.8093C120.269 26.1257 120.902 26.0151 121.393 25.6482C121.502 25.5662 121.595 25.4773 121.688 25.3888C121.811 25.2705 121.934 25.1532 122.094 25.0541C122.215 24.9917 122.338 24.9333 122.462 24.8792C122.618 24.7179 122.774 24.7163 122.931 24.8748C123.087 24.8329 123.132 24.8002 123.205 24.7471C123.235 24.7248 123.271 24.6989 123.321 24.6672C123.37 24.57 123.423 24.4746 123.479 24.3811C123.663 24.3619 123.844 24.3286 124.023 24.2814C124.224 24.2275 124.403 24.1501 124.57 24.0775C124.98 23.8995 125.324 23.7501 125.782 24.0418L125.833 23.939L125.835 23.9354C125.9 23.8027 125.965 23.67 126.03 23.5373C126.224 23.8409 126.375 23.7242 126.576 23.5685C126.659 23.5043 126.75 23.4337 126.856 23.383C126.934 23.3459 127.024 23.3231 127.111 23.3008C127.195 23.2793 127.277 23.2583 127.345 23.2257C127.422 23.2439 127.5 23.2624 127.578 23.2808C127.644 23.0773 127.71 22.8737 127.775 22.6702C127.81 22.6838 127.872 22.7134 127.948 22.7493C128.159 22.8499 128.476 23.0005 128.592 22.9893C128.717 22.9776 128.854 22.857 128.99 22.7386C129.101 22.641 129.21 22.5448 129.309 22.5122C129.5 22.4494 129.544 22.4695 129.606 22.4991C129.654 22.5216 129.712 22.549 129.853 22.55C129.887 22.5502 129.917 22.5511 129.946 22.5519C130.139 22.5569 130.254 22.56 130.444 22.3753C129.831 22.2161 130.369 22.1268 130.748 22.0638C130.825 22.0509 130.896 22.0392 130.949 22.0281C131.083 22.0002 131.2 21.9881 131.305 21.9774C131.579 21.9492 131.777 21.9288 132.021 21.6519H131.671C131.927 21.4194 131.929 21.42 132.061 21.4484C132.107 21.4582 132.169 21.4716 132.264 21.4795C132.289 21.4816 132.333 21.4966 132.386 21.5148C132.574 21.5788 132.876 21.6815 132.877 21.3977C133.347 21.6744 133.352 21.675 133.836 21.5502C133.924 21.5275 134.006 21.4839 134.089 21.4401C134.209 21.377 134.33 21.3132 134.469 21.3107C134.578 21.3088 134.673 21.3314 134.764 21.3531C134.865 21.3771 134.961 21.4 135.069 21.3883C135.179 21.3766 135.536 21.2456 135.713 21.1807C135.734 21.1732 135.751 21.1667 135.766 21.1613C135.878 21.1204 135.972 21.0571 136.064 20.9946C136.161 20.929 136.256 20.8645 136.369 20.8289C136.498 20.7882 136.646 20.795 136.794 20.8017C136.925 20.8076 137.055 20.8136 137.174 20.7875C137.422 20.7331 137.636 20.6482 137.84 20.567C138.262 20.3994 138.644 20.2477 139.196 20.413C139.281 19.6999 140.148 19.8341 140.649 19.9117L140.691 19.9182C140.783 19.9324 140.862 19.9526 140.937 19.9716C141.14 20.0232 141.303 20.0649 141.563 19.9418C141.689 19.8825 141.791 19.808 141.893 19.7339C142.025 19.6373 142.157 19.5413 142.338 19.4796C142.546 19.4094 142.813 19.3552 143.046 19.308C143.091 19.2989 143.134 19.2903 143.175 19.2817C143.334 19.2313 143.497 19.2152 143.663 19.2335C143.84 19.2584 143.987 19.3389 144.104 19.4746C144.101 19.4821 144.103 19.4862 144.113 19.4854C144.11 19.4817 144.107 19.4783 144.104 19.4746C144.129 19.4147 144.517 19.1271 144.473 19.1626C144.564 19.0898 144.639 19.0487 144.706 19.0125C144.852 18.9333 144.954 18.8777 145.076 18.5681C144.973 18.5464 144.869 18.5245 144.766 18.5026C144.662 18.4809 144.559 18.4591 144.455 18.4372C144.492 18.4347 144.528 18.4322 144.563 18.4295C144.831 18.4093 145.048 18.3932 145.299 18.503C145.383 18.5395 145.49 18.6424 145.602 18.7488C145.752 18.8932 145.91 19.0439 146.023 19.0441C146.379 19.0445 146.504 18.5432 146.468 18.2822C146.767 18.9775 147.022 19.0933 147.693 18.7379C147.732 18.7169 147.771 18.6962 147.811 18.6753L147.816 18.6726C147.854 18.6526 147.891 18.6326 147.929 18.6125C148.089 18.4452 148.247 18.4483 148.405 18.6219C148.499 18.673 148.593 18.7239 148.687 18.7749L148.758 18.6566C148.847 18.5086 148.936 18.3606 149.025 18.2123C149.264 18.5418 149.492 18.5579 149.882 18.4809C150.015 18.4548 150.216 18.3231 150.41 18.1962C150.61 18.0656 150.801 17.9404 150.902 17.9404C150.957 17.9404 151.019 18.0042 151.09 18.0767C151.167 18.1564 151.255 18.2469 151.356 18.2755C151.673 18.3665 152.167 18.1376 152.28 17.8338C152.34 17.9606 152.4 18.0875 152.46 18.2144C152.498 18.1797 152.535 18.1447 152.572 18.11C152.685 18.0047 152.798 17.8993 152.91 17.7933C152.95 18.1392 153.214 18.1338 153.444 18.1292C153.614 18.1257 153.765 18.1226 153.795 18.2607C153.83 18.4224 153.358 18.7732 153.076 18.9821C153.002 19.0376 152.941 19.0833 152.906 19.1125C153.35 19.3806 153.897 18.9124 154.3 18.5681C154.381 18.4984 154.457 18.4337 154.524 18.3813C154.731 18.6054 154.801 18.7231 154.611 18.9794C154.437 19.2148 154.357 19.1657 154.265 19.1085C154.18 19.0557 154.084 18.9961 153.893 19.1472C154.025 19.3688 154.144 19.3132 154.293 19.2434C154.332 19.2254 154.372 19.2066 154.415 19.1912C154.362 19.5036 154.409 19.5186 154.49 19.544C154.548 19.5622 154.623 19.5858 154.69 19.7271C154.788 19.9355 154.803 20.1027 154.822 20.3047C154.828 20.3704 154.834 20.4397 154.843 20.5152ZM93.5554 47.5292C93.7346 47.5138 93.7853 47.5966 93.8308 47.6711C93.8694 47.7341 93.9042 47.7909 94.0099 47.7771C94.0996 47.7654 94.1718 47.6705 94.2458 47.5731C94.3101 47.4887 94.3758 47.4023 94.4555 47.3675C94.8178 47.2091 95.344 47.1847 95.8267 47.1624C96.0534 47.152 96.2703 47.1419 96.4564 47.1186C96.7632 47.0804 97.0519 46.9906 97.3378 46.9017C97.6061 46.8183 97.8716 46.7354 98.1474 46.6968C98.382 46.6641 98.553 46.7066 98.7752 46.7715C98.7914 46.7763 98.8069 46.7807 98.8219 46.7851C99.0296 46.8456 99.1319 46.8753 99.1938 46.9424C99.2537 47.0075 99.2756 47.1079 99.3187 47.3059L99.3204 47.3139C99.5475 48.3606 99.3721 49.4737 99.1967 50.5861C98.9671 52.0433 98.7378 53.499 99.4136 54.8022C95.9297 54.774 92.4387 54.8435 88.9752 55.2515C88.9752 54.9455 88.9775 54.6396 88.9798 54.3337C88.9875 53.3243 88.9952 52.316 88.9189 51.3071C88.884 50.8457 88.8357 50.3856 88.7875 49.9254C88.7733 49.7908 88.7593 49.6558 88.7454 49.521C88.673 48.8111 88.6901 48.8076 89.2063 48.7016C89.2391 48.6949 89.2741 48.6878 89.3112 48.6799C89.4952 48.6413 89.6124 48.5584 89.7357 48.471C89.83 48.4042 89.9282 48.3347 90.0627 48.2803C90.2188 48.2172 90.3172 48.2485 90.4344 48.2857C90.492 48.304 90.554 48.3237 90.6299 48.3343C90.9259 48.3762 91.0112 48.352 91.1768 48.3053C91.241 48.2871 91.317 48.2656 91.4223 48.2431C91.6186 48.2012 91.8079 48.1732 91.9909 48.1461C92.5613 48.0616 93.072 47.9858 93.5554 47.5292ZM154.794 26.0209C154.744 25.9915 154.694 25.9623 154.643 25.933C154.048 27.1935 153.658 28.5073 153.262 29.8384C153.205 30.0323 153.147 30.2267 153.089 30.4214C152.851 31.2154 152.614 32.0095 152.377 32.8041C152.333 32.9502 152.28 33.1017 152.226 33.2565C152.047 33.7705 151.855 34.3203 151.953 34.8232C152.705 33.6645 153.421 32.4823 154.101 31.2801C154.432 30.6938 154.755 30.103 155.071 29.5083C155.112 29.4313 155.163 29.3493 155.215 29.2648C155.33 29.0813 155.451 28.8854 155.496 28.6988C155.552 28.4593 155.61 28.3885 155.593 28.3453C155.578 28.3051 155.499 28.289 155.297 28.1842C155.459 28.0014 155.564 28.0519 155.651 28.0939C155.701 28.1177 155.745 28.139 155.791 28.1125C155.903 28.0475 156.056 27.8455 156.177 27.6855C156.226 27.6196 156.271 27.5607 156.305 27.5217C156.211 27.495 156.056 27.466 155.876 27.4322C155.413 27.3452 154.785 27.2275 154.612 27.0384C154.336 26.736 154.631 26.4723 154.92 26.2137C154.948 26.1895 154.974 26.1655 155.001 26.1413C154.932 26.1012 154.863 26.061 154.794 26.0209Z" fill="#FF5678"/>
    <path fill-rule="evenodd" clip-rule="evenodd" d="M76.1861 77.1364C76.1047 77.5555 75.9011 77.7529 76.1145 78.1379C76.2956 78.4649 76.815 78.679 77.1637 78.5963L76.1861 77.1364ZM66.7399 62.227L65.0201 62.8163C65.4902 63.2773 65.9381 63.762 66.4564 64.1714L66.7399 62.227ZM95.1087 63.7362C94.2884 63.323 93.3696 63.2764 92.4704 63.2234C92.607 63.9613 92.7439 64.6994 92.8809 65.4373C93.6234 64.8703 94.3662 64.3033 95.1087 63.7362ZM75.4124 120.861C75.2487 120.571 74.1322 118.332 73.9002 118.447C73.777 118.508 73.7674 119.754 73.7494 119.932C73.6854 120.562 73.6212 121.193 73.5573 121.823C74.2177 121.59 74.9231 121.397 75.4124 120.861ZM67.6117 102.762C67.7805 103.257 67.9496 103.752 68.1184 104.246C68.1987 104.482 68.2458 104.829 68.3879 105.036C68.5725 105.305 68.4333 105.464 68.6797 105.169C68.9444 104.852 69.0236 104.008 69.1385 103.62C69.3131 103.031 69.4875 102.442 69.6619 101.853C68.8396 101.846 68.3411 102.523 67.6117 102.762ZM50.3302 73.6253C49.319 74.3162 48.2953 75.0015 47.4155 75.8602C48.1895 75.812 49.2672 76.3443 49.9962 76.0943C50.3327 76.1661 50.4439 76.0384 50.3302 75.7108V73.6253ZM65.3238 78.5126V82.5463C66.2679 81.7421 67.2617 80.9952 68.1701 80.1495C67.2213 79.6038 66.2728 79.0583 65.3238 78.5126ZM99.0755 88.9643C98.7775 90.76 98.761 92.608 98.6794 94.4253C98.665 94.7478 98.5407 95.2335 98.7556 95.5159C98.9713 95.7991 99.5859 95.956 99.8982 96.1073C100.777 96.5332 101.65 96.9712 102.526 97.4023C101.376 94.5896 100.226 91.7769 99.0755 88.9643ZM121.388 77.9208C123.556 76.8554 125.724 75.7901 127.892 74.7246C125.766 73.825 123.64 72.9256 121.515 72.026C121.472 73.9909 121.43 75.956 121.388 77.9208ZM99.0708 82.9365C99.4671 82.9649 99.5298 81.4562 99.5953 81.0572C99.7201 80.2999 99.8481 79.5431 99.9793 78.7868C100.242 77.2748 100.518 75.7652 100.808 74.2584C101.389 71.2453 102.03 68.2435 102.74 65.2582C101.977 65.1207 101.276 65.0218 100.531 64.7998C99.9288 64.6205 99.212 64.718 98.6747 64.3451C98.605 65.744 98.9544 67.2311 99.0837 68.63C99.2336 70.2485 99.314 71.8586 99.3008 73.4844C99.2747 76.6352 99.155 79.7868 99.0708 82.9365ZM49.1675 125.626C49.5432 125.526 49.0316 120.377 49.0088 119.634C48.9435 117.485 48.9308 115.334 48.9692 113.183C46.9449 114.452 44.8735 115.621 42.7351 116.675C43.2847 117.387 43.7997 118.156 44.4079 118.819C45.0345 119.502 45.7533 120.062 46.334 120.798C47.5031 122.279 48.304 123.961 49.1675 125.626ZM97.8808 95.1682C97.9749 93.6196 98.0621 92.0742 98.2185 90.5302C98.2852 89.8731 98.9204 86.3816 97.9033 86.4636C97.3247 86.5103 96.3098 87.3567 95.7793 87.6534C95.0785 88.0451 94.3768 88.4357 93.6725 88.8214C92.2829 89.5826 90.8841 90.3268 89.4894 91.079C92.2866 92.4421 95.0837 93.8052 97.8808 95.1682ZM91.8417 62.967C90.6831 62.8806 89.5632 62.7946 88.4204 62.5789C87.8042 62.4626 87.1879 62.4787 86.5684 62.4002C86.1247 62.3439 85.2573 61.9797 84.8439 62.0989C84.3245 62.2487 84.1359 64.8507 84.0644 65.5038C83.9493 66.5556 83.8717 67.8318 84.3418 68.8199C85.2477 70.7247 87.6887 69.2379 88.8763 68.4389C89.8942 67.7538 91.0473 67.0601 91.9502 66.2284C92.7499 65.4917 92.032 63.919 91.8417 62.967ZM97.8499 83.6809C98.7228 83.328 98.7089 82.8848 98.747 81.972C98.7931 80.8629 98.82 79.7524 98.8517 78.6428C98.9081 76.6654 98.9616 74.687 98.9439 72.7085C98.9268 70.7758 98.8321 68.8462 98.6108 66.9255C98.5326 66.2463 98.6104 65.0863 98.2523 64.507C97.9256 63.9786 96.9113 63.973 96.3579 64.0056C95.7339 64.0423 95.2285 64.6347 94.7681 65.0091C94.2581 65.4241 93.2102 66.0082 93.1266 66.6269C93.0329 67.3177 93.4126 68.3036 93.5598 68.9737C94.0978 71.4194 94.7525 73.8412 95.4421 76.2479C96.1575 78.7449 96.8825 81.2671 97.8499 83.6809ZM75.6726 77.8267C75.7289 77.2771 75.9335 76.8182 75.6569 76.2948C75.4193 75.8447 75.0324 75.3925 74.7417 74.9664C73.91 73.7459 72.9771 72.5769 72.071 71.411C71.2412 70.3432 70.3909 69.2867 69.5211 68.2511C69.0366 67.6745 68.5372 67.1104 68.0408 66.5439C67.6772 66.1293 67.3326 65.5468 66.8183 65.3298C66.4393 67.7102 66.1262 70.101 65.8818 72.4992C65.7639 73.6584 65.6621 74.8193 65.5766 75.9814C65.5524 76.3094 65.2979 77.4171 65.4606 77.7226C65.6317 78.0435 66.6777 78.4728 66.9979 78.6694C67.8931 79.2194 68.5887 80.0479 69.4401 79.1439C70.0261 78.5214 70.4981 77.6439 71.1532 77.1007C71.4945 76.8176 71.8159 76.8309 72.1988 76.6629C72.6438 76.4678 72.6579 76.2798 73.1898 76.5453C74.0859 76.9926 74.6303 77.6535 75.6726 77.8267ZM30.8085 90.0745C30.8085 91.7226 30.6958 93.0775 31.8134 94.4116C32.79 95.5776 33.8049 95.8473 35.1786 96.3074C35.9875 96.5782 36.044 96.3285 36.6994 95.8712C37.3224 95.4368 38.0007 95.0883 38.615 94.6401C39.9391 93.6743 41.2623 92.6781 42.5491 91.6621C42.9817 91.3205 42.918 91.4371 42.8523 91.0271C42.7921 90.6536 42.524 90.1782 42.3774 89.823C42.1123 89.1803 41.7999 88.5584 41.4874 87.9376C41.1326 87.2332 40.8235 86.4682 40.3829 85.8115C40.2 85.5391 39.9829 85.2925 39.7695 85.044C39.3202 84.5208 39.3361 84.5402 38.7988 84.9678C37.6645 85.8709 36.6091 86.8484 35.3324 87.5545C33.822 88.3901 32.3152 89.2314 30.8085 90.0745ZM65.0112 77.3082C65.1751 74.9422 65.3599 72.5892 65.6436 70.2339C65.7894 69.0246 65.9591 67.8185 66.1241 66.6117C66.1913 66.1203 66.4506 65.2956 66.3062 64.8183C66.1642 64.3484 65.5376 63.9012 65.1937 63.5613C65.1013 63.4699 64.8172 63.0864 64.6951 63.0692C64.5642 63.0509 64.0719 63.4113 63.9299 63.4926C63.4278 63.7804 62.9347 64.083 62.4491 64.3979C61.5339 64.9915 60.6472 65.6284 59.7795 66.2891C57.9599 67.6745 56.2247 69.1653 54.4438 70.5993C56.0755 72.0287 58.0838 73.1388 59.9082 74.2964C60.9868 74.981 62.071 75.658 63.1692 76.3107C63.7261 76.6414 64.3719 77.1469 65.0112 77.3082ZM42.7061 119.618C41.3885 120.489 40.1302 121.408 38.6401 121.967C37.1568 122.523 35.6907 122.737 34.1576 123.068C33.3844 123.235 32.6577 123.417 31.8685 123.534C31.4263 123.599 30.7419 123.574 30.3387 123.761C29.9796 123.684 29.8517 123.806 29.9552 124.128C29.9591 124.228 29.9629 124.327 29.9668 124.427C30.0684 125.816 30.9614 127.487 31.7404 128.616C32.1951 129.276 32.7745 129.889 33.3502 130.444C34.0002 131.069 34.375 131.511 35.2811 131.248C36.8085 130.806 38.1564 129.917 39.7046 129.525C40.9292 129.214 41.9463 128.564 43.1406 128.227C44.6134 127.812 46.0709 127.339 47.564 126.992C46.8971 125.705 46.3006 124.365 45.4467 123.187C44.571 121.977 43.6053 120.814 42.7061 119.618ZM50.787 76.3143C53.5425 76.8626 56.529 77.3701 58.9951 78.7919C59.9576 79.3469 61.1776 80.2046 61.4594 81.3523C61.7963 82.7241 60.4716 83.5738 59.3651 84.002C58.0366 84.516 56.5905 84.713 55.1828 84.8751C54.4376 84.9609 53.689 85.0078 52.9404 85.0502C52.3346 85.0848 51.307 84.9517 50.7532 85.1917C50.4063 85.1226 50.286 85.2631 50.3925 85.6136C50.3859 85.7393 50.3796 85.8653 50.3732 85.9911L50.3158 87.1221C50.2776 87.8751 50.2394 88.6284 50.2009 89.3815C50.1178 91.0221 50.0344 92.6629 49.9512 94.3035C51.3944 93.4097 52.5576 92.1299 53.9682 91.1763C54.6388 90.723 55.3046 90.2687 55.9725 89.8168C56.2526 89.6275 56.4237 89.3619 56.6994 89.1855C57.065 88.9514 57.389 88.8107 57.7319 88.504C59.1323 87.2521 60.6896 86.1698 62.1749 85.0206C62.8496 84.4983 63.5882 84.0183 64.2302 83.4582C64.9025 82.8714 64.8096 82.3883 64.793 81.5447C64.7757 80.6516 65.1036 79.5427 64.9515 78.6815C65.0793 78.3893 64.9811 78.2074 64.6574 78.136C64.4411 77.9978 64.225 77.8595 64.0087 77.7213C63.5774 77.4455 63.1462 77.1698 62.7149 76.8942C60.9993 75.7976 59.2839 74.7008 57.5683 73.6042C56.7113 73.0564 55.8544 72.5086 54.9972 71.9607C54.7579 71.8079 53.9772 71.1166 53.7086 71.137C53.4347 71.1577 52.9595 71.6923 52.7541 71.8624C52.4391 72.1232 52.1332 72.3976 51.7929 72.6259C51.6232 72.7434 51.4461 72.8482 51.2617 72.9406C50.9668 72.969 50.8644 73.1309 50.9542 73.426C50.6952 74.2563 50.8376 75.4422 50.787 76.3143ZM88.9975 115.456C88.3735 112.541 87.5688 109.088 85.1352 107.105C82.6669 105.093 79.0584 105.87 77.1276 108.232C76.1606 109.416 75.561 110.815 75.1158 112.264C74.6586 113.752 73.9849 115.69 74.1082 117.264C74.1622 117.953 74.7535 118.695 75.0914 119.297C75.44 119.918 75.6715 120.809 76.4933 120.594C77.7675 120.26 79.0634 119.494 80.2557 118.945C81.4617 118.39 82.7314 117.933 83.982 117.397C84.8122 117.041 85.6742 116.771 86.5023 116.41C87.2876 116.068 88.3238 115.985 88.9975 115.456ZM125.867 98.0897C127.607 98.7124 128.512 97.7157 129.736 96.5935C130.897 95.5305 132.153 94.5082 133.222 93.3528C134.324 92.1616 135.195 90.7537 136.042 89.3777C136.898 87.9871 138.056 86.4851 138.583 84.9363C138.851 84.1485 138.966 83.2756 139.135 82.4612C139.175 82.2652 139.448 81.5357 139.362 81.3708C139.242 81.144 138.482 81.12 138.274 81.087C136.613 80.8245 134.853 80.8114 133.188 81.046C129.965 81.5 127.269 83.3067 126.251 86.4657C125.057 90.169 125.63 94.2851 125.867 98.0897ZM114.583 65.9686C114.556 66.6098 116.093 66.788 116.492 66.9376C117.413 67.2828 118.328 67.6474 119.223 68.0561C121.064 68.8975 123.028 69.4457 124.792 70.463C128.593 72.656 132.72 74.202 136.56 76.2996C137.159 76.6266 138.328 77.414 139.011 77.3474C139.375 77.3121 139.104 77.6043 139.34 77.0271C139.424 76.8194 139.453 76.5492 139.5 76.3266C139.642 75.6598 139.752 74.9867 139.912 74.3235C140.175 73.2319 140.444 72.2192 140.555 71.0972C140.602 70.6218 140.653 70.1469 140.659 69.6688C140.665 69.1842 140.776 67.9698 140.557 67.5503C140.412 67.272 140.383 67.3675 140.02 67.2889C139.813 67.244 139.595 67.1505 139.394 67.0881C138.924 66.9418 138.453 66.8012 137.96 66.7582C137.472 66.7156 137.161 66.5673 136.704 66.4813C136.225 66.3911 135.732 66.5005 135.244 66.3746C134.716 66.2384 134.465 66.1142 133.914 66.1662C133.38 66.2165 133.226 66.0982 132.703 65.9527C132.266 65.8313 131.746 65.9162 131.291 65.8793C130.74 65.8344 130.191 65.7657 129.64 65.7221C127.162 65.526 124.655 65.8168 122.171 65.7937C120.82 65.7812 119.498 65.9805 118.15 65.9189C116.971 65.8651 115.753 65.8778 114.583 65.9686ZM121.029 79.0237C119.824 79.4826 118.706 80.228 117.588 80.87C116.299 81.6102 115.066 82.3967 113.873 83.2844C111.868 84.7771 109.528 86.5669 109 89.1717C108.458 91.8449 110.781 94.0353 112.958 95.129C115.442 96.3762 118.331 97.0211 121.051 97.4975C120.76 91.3436 120.828 85.1794 121.029 79.0237ZM84.9663 93.5118C84.235 93.7138 83.6159 94.1464 82.9374 94.4665C82.3298 94.7532 81.7418 94.9694 81.1741 95.3385C80.2492 95.9401 79.1769 96.4551 78.2099 96.9203C75.8171 98.0711 73.4941 99.5003 71.1251 100.776C70.4974 101.114 70.2916 101.327 70.079 102.023C69.8481 102.779 69.6304 103.54 69.408 104.298C69.2005 105.006 68.8693 105.762 68.9566 106.509C69.0326 107.159 69.3688 107.771 69.6222 108.364C70.2603 109.855 70.952 111.322 71.6668 112.778C72.3082 114.085 72.8936 115.472 73.7169 116.673C74.3568 113.337 74.9309 109.599 77.4115 107.057C79.8901 104.516 83.8445 104.48 86.233 107.103C87.3677 108.348 88.0583 109.917 88.6012 111.493C88.8862 112.321 89.0778 113.165 89.2612 114.021C89.4572 114.934 89.4089 115.419 90.4174 115.142C91.2183 114.922 92.0674 114.747 92.8525 114.496C93.2597 114.366 93.657 114.22 93.6754 113.898C93.6989 113.492 93.1518 112.661 92.9902 112.278C92.1559 110.306 91.3215 108.334 90.487 106.362C89.5809 104.22 88.6746 102.079 87.768 99.9371C87.3158 98.8685 86.8635 97.8002 86.4111 96.7318C85.9984 95.7579 85.6548 94.3116 84.9663 93.5118ZM121.097 76.8576C121.11 75.8838 121.126 74.9101 121.139 73.9362C121.147 73.3559 121.406 72.2338 120.9 71.8192C120.587 71.5623 119.657 71.3653 119.26 71.1894C118.478 70.8426 117.631 70.6878 116.843 70.3434C113.761 68.9937 110.553 67.8696 107.38 66.7818C106.695 66.5472 105.996 66.3552 105.307 66.1242C104.935 65.9995 103.558 65.2672 103.214 65.4588C102.912 65.6265 102.685 67.6234 102.589 68.038C102.36 69.0196 102.142 70.0037 101.932 70.9895C101.117 74.8168 100.434 78.671 99.7985 82.5317C101.487 81.8909 103.105 80.7807 104.7 79.9224C106.357 79.0308 108.008 78.1414 109.676 77.2704C110.147 77.0244 111.803 75.8942 112.191 76.3378C112.813 77.0496 111.331 77.8845 110.942 78.1894C109.437 79.369 107.848 80.3972 106.239 81.426C104.572 82.4925 102.837 83.4346 101.161 84.4814C100.556 84.8593 99.5903 85.3194 99.3525 85.9577C99.0466 86.7787 99.2674 87.7766 99.5459 88.561C100.23 90.4887 100.979 92.3926 101.771 94.2782C102.131 95.1355 102.5 95.9891 102.877 96.8393C103.325 97.852 103.913 98.0661 104.889 98.5321C109.049 100.518 113.37 102.402 117.365 104.699C116.696 105.47 115.067 104.205 114.407 103.884C113.185 103.291 111.961 102.7 110.74 102.105C108.465 100.996 106.202 99.8655 103.914 98.7837C105.38 102.117 107.11 105.329 109.029 108.424C108.545 108.588 108.663 108.596 108.359 108.305C108.103 108.06 107.931 107.579 107.757 107.271C107.399 106.635 107.045 105.996 106.683 105.362C105.934 104.045 105.157 102.748 104.473 101.395C103.958 100.377 103.559 98.5989 102.501 98.0861C101.183 97.4466 99.8467 96.8243 98.5284 96.1759C98.5284 101.244 98.8928 106.2 99.4276 111.237C99.4547 111.491 99.6982 112.241 99.207 112.167C98.9856 112.134 98.9108 110.744 98.872 110.454C98.6934 109.124 98.5418 107.79 98.4179 106.453C98.1711 103.786 98.0368 101.109 98.0195 98.4305C97.7031 101.035 97.3867 103.638 97.0703 106.242L96.6206 109.944C96.5419 110.592 96.4631 111.24 96.3844 111.888C96.3483 112.186 96.3711 112.575 96.2664 112.859C96.1018 113.306 96.1571 113.272 95.641 113.476C96.1345 110.085 96.5903 106.688 96.9935 103.285C97.1904 101.625 97.3748 99.9632 97.5448 98.3C97.5905 97.8528 97.6353 97.4052 97.6791 96.9578C97.7012 96.7297 97.8981 95.9962 97.7888 95.8066C97.6806 95.6188 96.9635 95.423 96.757 95.3272C96.305 95.1175 95.853 94.908 95.4014 94.6972C93.9353 94.0122 92.4704 93.3217 91.0204 92.6034C90.3861 92.2891 89.7209 91.8034 89.0311 91.6358C88.3443 91.469 87.8449 91.9467 87.2576 92.2505C86.8006 92.4868 85.7239 92.8016 85.4187 93.2031C85.1346 93.5767 86.0169 95.0722 86.2487 95.6234C86.9024 97.1788 87.5564 98.7343 88.2103 100.29C89.5359 103.443 90.8618 106.597 92.1876 109.751C92.5117 110.522 92.8358 111.293 93.1598 112.064C93.3675 112.558 93.7142 113.966 94.2181 114.021C94.4411 114.045 94.8072 113.803 95.0228 113.733C95.3444 113.629 95.6413 113.63 95.9641 113.576C96.5553 113.476 97.1693 113.171 97.75 112.957C99.2424 112.407 100.79 112.052 102.294 111.538C103.805 111.022 105.292 110.442 106.798 109.926C108.165 109.458 109.545 108.924 110.858 108.313C112.245 107.669 113.668 107.101 115.02 106.386C117.482 105.084 119.917 103.868 122.092 102.272C122.604 101.897 123.148 101.52 123.654 101.118C124.098 100.765 124.944 100.33 125.246 99.8659C125.361 99.689 125.46 99.3423 125.326 99.1324C125.181 98.9069 124.543 98.9275 124.244 98.8874C123.303 98.761 122.361 98.6345 121.42 98.5081C121.492 99.127 121.565 99.7453 121.618 100.366C121.654 100.805 121.914 101.963 121.564 102.307C121.083 101.85 121.238 100.485 121.195 99.8766C121.172 99.5516 121.255 98.9152 121.109 98.6268C120.949 98.3107 120.508 98.315 120.109 98.2286C118.414 97.862 116.734 97.5544 115.093 96.9735C112.322 95.9925 109.01 94.336 108.391 91.1408C107.746 87.8099 110.581 84.9238 112.969 83.0661C114.398 81.9539 115.919 80.9909 117.491 80.0969C118.226 79.6793 118.961 79.2614 119.701 78.8526C119.97 78.704 120.853 78.3977 120.995 78.1377C121.141 77.8718 121.066 77.1606 121.097 76.8576ZM61.8121 128.012C61.6776 128.078 61.5429 128.143 61.4087 128.209C62.9041 123.949 64.3858 119.708 65.6361 115.368C66.2397 113.274 66.8512 111.181 67.4753 109.092C67.7448 108.191 68.4066 106.951 68.2227 106.017C68.0237 105.007 67.5465 103.932 67.1773 102.972C64.814 104.457 62.401 105.866 59.9983 107.283C57.8443 108.555 55.6538 109.685 53.4846 110.943C52.3732 111.588 51.2265 112.023 50.0665 112.549C49.1239 112.977 49.4898 114.286 49.5034 115.16C49.5511 118.245 49.5488 121.341 49.7361 124.422C49.8043 125.544 49.7163 126.833 50.4311 127.767C51.3453 128.962 52.1932 130.179 53.0269 131.436C53.3392 131.907 54.6514 134.458 55.1407 134.402C55.4602 134.365 55.7543 133.333 55.9141 133.088C56.2585 132.56 56.762 132.106 57.2204 131.681C59.1997 129.845 61.3962 128.552 63.6789 127.211C65.9981 125.848 68.3714 124.579 70.7344 123.287C71.2682 122.995 71.8432 122.784 72.3736 122.486C72.5831 122.368 72.9987 122.18 73.1306 121.97C73.3279 121.655 73.2611 120.781 73.3022 120.404C73.3863 119.634 73.5375 118.834 73.5456 118.058C73.5534 117.292 73.0926 116.634 72.7585 115.966C71.2921 113.032 69.8673 110.091 68.5914 107.069C67.5853 110.579 66.5292 114.072 65.5424 117.587C65.0272 119.422 64.4061 121.227 63.8014 123.034C63.4927 123.957 63.1821 124.88 62.8738 125.803C62.6337 126.522 62.509 127.574 61.8121 128.012ZM82.8738 61.8683C82.0964 61.8769 81.3918 61.7627 80.6314 61.6004C80.3525 61.5411 80.1074 61.5159 79.8246 61.491C79.504 61.4627 79.2128 61.2892 78.9318 61.2552C78.7193 61.2296 78.3484 61.3187 78.1455 61.3867C77.6753 61.5442 77.6902 61.4647 77.6706 62.0104C77.6399 62.8535 77.6169 63.6969 77.5706 64.5393C77.3883 67.8552 77.036 71.1389 76.5532 74.4228C76.4554 75.0866 76.1819 75.9572 76.3323 76.6164C76.4679 77.2107 76.9816 77.8455 77.3208 78.344C78.0187 79.3692 79.6623 79.8757 80.8185 80.1664C82.0378 80.4731 83.3037 80.586 84.462 80.8594C84.783 80.9353 85.1515 80.8016 85.4936 80.8776C85.81 80.9479 86.0557 81.1215 86.3481 81.2471C87.0644 81.5545 87.8647 81.6112 88.6044 81.8485C90.0713 82.3191 91.6419 82.2909 93.1101 82.7429C93.4854 82.8583 93.8097 83.1494 94.1708 83.2491C94.5011 83.3401 94.8411 83.2329 95.1866 83.2838C95.9189 83.3916 96.6016 83.6417 96.7705 84.4275C97.2183 84.0732 97.2805 84.1663 97.2031 83.6183C97.1535 83.2669 96.9578 82.8391 96.8506 82.5004C96.5774 81.6367 96.3027 80.7736 96.0298 79.9099C95.4898 78.2007 94.9531 76.4902 94.4553 74.7684C94.0099 73.2282 93.6049 71.6764 93.2511 70.1126C93.0711 69.3174 92.9207 68.5188 92.7664 67.7195C92.7215 67.4875 92.766 67.1188 92.5328 66.9644C92.3213 66.8245 91.8276 67.3268 91.6042 67.4886C90.0438 68.6185 86.4649 71.9602 84.5139 69.9889C83.4633 68.9274 83.5248 67.0612 83.6389 65.6898C83.7088 64.8469 83.8569 64.0149 84.0225 63.1861C84.0638 62.9793 84.3168 62.3149 84.2242 62.1677C84.1242 62.0092 83.0826 61.9148 82.8738 61.8683ZM137.702 80.3125C138.117 80.359 138.533 80.4057 138.948 80.4523C138.91 80.1169 138.944 79.6124 138.817 79.3C138.641 78.8682 138.211 78.82 137.738 78.641C136.99 78.3582 136.226 78.1122 135.486 77.8077C133.88 77.1469 132.281 76.4768 130.674 75.8161C129.969 75.5263 129.142 75.0522 128.377 75.2888C127.552 75.5442 126.738 76.0642 125.967 76.4449C125.094 76.8762 124.221 77.3084 123.348 77.7407C122.939 77.9434 122.53 78.146 122.121 78.3488C121.478 78.6671 121.392 78.6994 121.342 79.4266C121.083 83.1463 121.102 87.0105 121.215 90.7353C121.273 92.636 121.208 94.5472 121.345 96.4447C121.355 96.5907 121.344 97.4142 121.436 97.5265C121.564 97.6848 122.47 97.7381 122.687 97.7779C123.531 97.9321 124.381 97.9833 125.234 98.0596C125.033 93.733 124.295 88.6183 126.518 84.6608C128.75 80.6849 133.523 79.8237 137.702 80.3125ZM98.8876 37.748C99.1379 37.1781 99.569 36.6969 99.9374 36.1969C100.137 35.9265 100.481 35.6034 100.609 35.2871C100.79 34.837 100.789 34.9334 100.518 34.5392C100.262 34.1667 100.267 34.1386 99.8704 34.072C99.5365 34.0159 99.1809 34.1112 98.8399 34.0501C98.4951 33.9883 97.5475 33.698 97.7648 33.1496C97.7554 33.1736 98.3036 32.9034 98.3463 32.8565C98.484 32.7066 98.5276 32.3869 98.5956 32.2056C98.8146 31.6246 98.8914 31.2484 98.6475 30.6297C98.2829 29.7059 96.8418 29.4325 95.9447 29.7434C95.4961 29.8985 95.2404 30.2276 95.0389 30.6412C94.9108 30.9039 94.881 31.2835 94.7154 31.5122C94.4657 31.8565 94.4503 31.8183 93.9326 31.7574C93.2735 31.6801 92.733 31.427 92.1085 31.2505C91.4283 31.0581 90.9859 31.4494 90.3915 31.7649C89.3185 32.3348 88.2821 32.5326 87.0801 32.6231C85.7416 32.7239 84.501 32.4013 83.1758 32.3181C83.5196 33.9013 84.4088 35.1867 85.1196 36.6203C85.2445 36.8724 85.4464 37.1301 85.4512 37.4218C85.4562 37.6965 85.0581 38.0704 85.1029 38.2977C85.1987 38.7828 86.2666 39.171 86.6712 39.3076C87.8155 39.6933 89.1185 40.4485 90.3779 40.1451C91.0685 39.9789 91.44 38.889 92.0898 38.8089C92.9616 38.701 92.3094 39.8231 92.1475 40.2091C93.3848 40.3971 94.9531 40.2377 96.1373 39.8183C96.7309 39.6083 97.2338 39.2947 97.7755 38.9838C98.4502 38.5967 98.5904 38.4903 98.8876 37.748ZM77.2354 61.3105C75.0295 61.3472 72.7914 61.0297 70.5805 61.3214C70.0684 61.3888 69.563 61.4975 69.0597 61.6131C68.698 61.6962 67.549 61.7665 67.3078 62.0353C67.088 62.2806 67.0865 63.4094 67.0411 63.7276C66.9403 64.4361 66.9672 64.6808 67.4192 65.2286C68.9064 67.0313 70.4553 68.7802 71.9208 70.6028C73.3285 72.3536 74.4839 74.3099 75.9068 76.0359C76.6667 73.8248 76.7123 71.1713 76.9209 68.8529C77.0321 67.6167 77.1334 66.3796 77.2284 65.1422C77.3189 63.9636 77.6267 62.4342 77.2354 61.3105ZM48.6841 84.6132C48.9392 84.6132 49.3461 84.693 49.5941 84.6132C49.9351 84.7216 50.049 84.5938 49.9362 84.2297C49.9416 84.1024 49.947 83.9749 49.9526 83.8474C49.9881 83.0261 50.0273 82.2051 50.0653 81.3838C50.1003 80.633 50.1343 79.882 50.1639 79.1311C50.1842 78.6184 50.4434 77.3474 50.2361 76.8845C50.0968 76.5732 49.767 76.6439 49.3657 76.5983C48.984 76.5551 48.6012 76.5152 48.2216 76.4561C47.7398 76.381 47.2058 76.2085 46.7155 76.3165C46.223 76.4249 45.8649 76.8795 45.4784 77.1686C44.8668 77.6258 44.2419 78.0661 43.6251 78.5162C42.504 79.3346 41.3942 80.1679 40.2826 80.9988C39.8235 81.3418 39.7353 81.2227 39.9591 81.7158C40.0976 82.0203 40.4124 82.365 40.6041 82.6402C40.9858 83.1882 41.366 84.0189 41.8557 84.4636C42.5682 85.1107 44.545 84.6998 45.4915 84.6952C46.5707 84.6898 47.6111 84.7065 48.6841 84.6132ZM51.4776 84.5596C52.4135 84.468 53.359 84.5075 54.2892 84.3818C55.3004 84.2449 56.3043 84.0423 57.3135 83.8904C58.3197 83.7393 61.3808 83.1277 61.0786 81.6265C60.7594 80.0397 58.416 79.0892 57.1193 78.5558C55.0942 77.7226 52.98 77.2765 50.8498 76.8055C50.5826 78.228 50.6211 79.7551 50.5723 81.1966C50.5458 81.9794 50.5225 82.7633 50.5229 83.5469C50.5229 83.7355 50.4582 84.1268 50.5352 84.3021C50.7161 84.7147 50.9267 84.5596 51.4776 84.5596ZM48.3998 85.2412H42.4264C43.3104 87.0704 44.146 88.9338 45.099 90.7283C46.0482 92.516 47.2703 94.2004 48.3472 95.9163C48.62 95.6196 49.0551 95.2978 49.2405 94.9447C49.4458 94.5541 49.44 93.9794 49.4737 93.5272C49.5609 92.3536 49.6006 91.1696 49.6302 89.9933C49.6562 88.9631 49.7015 87.9399 49.7806 86.9122C49.7979 86.6868 50.0467 85.516 49.9043 85.3236C49.7774 85.1524 48.6611 85.243 48.3998 85.2412ZM73.0008 49.3267C74.0085 49.3265 75.0174 49.3138 76.025 49.3307C76.9393 49.3462 78.1307 49.1871 78.9683 49.6577C80.6747 50.6163 77.2636 53.0781 76.5719 53.6978C77.6902 54.1029 79.4358 53.2987 80.5308 52.9303C81.8847 52.4748 83.2653 52.1689 84.6463 51.8121C84.9913 51.723 86.4723 51.5485 86.6594 51.2843C86.845 51.0222 86.4293 49.4409 86.3876 49.1074C86.3486 48.7938 86.3815 48.3049 86.2509 48.01C86.331 47.6557 86.2065 47.5315 85.8774 47.6379C85.7637 47.6375 85.6504 47.6369 85.5367 47.6365C84.6964 47.6432 83.8554 47.6822 83.0158 47.7101C80.1297 47.8061 77.3137 47.9342 74.4522 48.3844C73.122 48.5937 71.78 48.8512 70.4566 49.1081C69.3427 49.3244 69.5301 49.5058 70.5705 49.5085C71.3843 49.5106 72.1911 49.3898 73.0008 49.3267ZM155.791 28.1125C155.962 27.9157 156.134 27.7187 156.305 27.5217C155.887 27.4025 155.469 27.283 155.052 27.1638C154.607 27.0371 154.368 27.0661 154.566 26.5699C154.813 25.9483 155.944 25.8771 156.487 25.8537C158.357 25.7728 160.322 26.3677 162.099 26.8917C162.966 27.1475 163.645 27.5432 164.379 28.0695C164.699 28.2994 165.069 28.5152 165.349 28.7913C165.641 29.0782 165.762 29.4457 166.046 29.7334C166.513 30.205 167.111 30.4398 167.34 31.1205C167.603 31.9018 167.289 32.7963 166.9 33.4775C166.506 34.169 165.92 34.6919 165.444 35.3201C165.066 35.8186 164.277 37.1806 165.51 37.0228C166.162 36.9392 167.007 35.8278 167.476 35.385C168.149 34.75 168.811 34.1004 169.523 33.509C170.154 32.9846 170.882 32.447 171.727 32.3548C172.617 32.2576 173.062 32.8272 173.496 33.5198C173.905 34.173 173.97 34.8107 174.258 35.4793C174.397 35.8017 174.574 35.9814 174.656 36.3328C174.781 36.8734 174.794 37.4631 174.858 38.0141C174.959 38.8796 175.053 39.5601 174.886 40.408C174.729 41.2016 174.686 42.0446 174.553 42.852C174.403 43.7664 174.279 44.685 174.131 45.5998C174.006 46.3748 173.53 47.4785 173.997 48.1991C175.118 49.9309 176.464 47.3815 176.818 46.4291C177.441 44.7555 177.758 42.9259 178.307 41.218C178.602 40.3045 178.859 39.3825 179.027 38.4368C179.167 37.6547 179.098 36.7019 179.527 36.0052C179.86 35.4641 180.453 35.0532 181.104 35.2184C181.918 35.4252 182.231 36.6015 182.47 37.3165C183.102 39.2025 182.87 40.9011 182.612 42.8246C182.493 43.7151 182.379 44.6071 182.175 45.4829C182.037 46.0737 181.465 47.2696 182.315 47.5908C183.52 48.0467 184.798 44.59 185.142 43.8094C186.041 41.765 186.385 39.7375 186.756 37.547C186.841 37.0433 186.906 36.5289 187.034 36.0339C187.145 35.603 187.476 35.1675 187.505 34.7366C187.535 34.3053 187.25 34.0044 187.542 33.581C187.786 33.2287 188.226 33.2074 188.624 33.2043C189.558 33.197 190.451 33.6069 191.32 33.9044C192.128 34.1811 193.325 34.7882 194.197 34.5928C191.461 31.8168 188.733 29.0723 185.47 26.9103C183.956 25.9063 182.439 24.9414 180.802 24.1226C179.143 23.2933 177.243 22.7332 175.467 22.2314C174.5 21.9584 173.54 21.6491 172.586 21.3359C171.737 21.0571 170.882 21.0043 170.05 20.688C168.243 20.0012 166.225 19.735 164.354 19.2481C163.528 19.0332 162.693 18.8489 161.865 18.6497C160.995 18.4404 159.772 18.077 158.886 18.1123C158.129 18.1424 157.873 19.0098 157.509 19.6131C156.98 20.4889 156.529 21.3989 156.113 22.333C155.262 24.2471 154.362 26.2244 153.753 28.2241C153.419 29.3221 153.088 30.4212 152.76 31.5209C152.475 32.4729 151.764 33.8462 151.953 34.8232C153.354 32.6651 154.659 30.4239 155.791 28.1125ZM90.5673 47.5993C89.8241 47.6331 89.0806 47.6667 88.3374 47.7005C89.0785 50.1352 88.9752 52.7279 88.9752 55.2515C92.4387 54.8435 95.9297 54.774 99.4136 54.8022C98.7735 53.5679 99.0217 51.9667 99.204 50.6451C99.3108 49.8714 99.3703 49.1262 99.3548 48.3456C99.3402 47.6135 99.5513 46.9979 98.7752 46.7715C98.1595 46.5919 97.7704 46.8911 97.1839 47.0276C96.4814 47.191 95.7163 47.2108 95.0011 47.2997C93.5125 47.4846 92.0772 47.5931 90.5673 47.5993ZM70.6105 52.341C72.8425 51.7221 75.2143 51.9502 77.4574 51.4798C76.9472 51.0143 75.986 51.29 75.3084 51.3288C74.5381 51.3726 73.7684 51.4047 72.9981 51.4421C72.2468 51.4788 70.1629 51.422 69.8919 52.3774C70.1312 52.3653 70.371 52.3531 70.6105 52.341ZM152.279 17.8392C149.358 18.0954 146.299 18.0556 143.4 18.5651C140.079 19.1484 136.617 19.5144 133.398 20.5425C130.239 21.5511 127.018 22.2572 123.905 23.4415C120.878 24.5929 117.963 25.8178 115.113 27.3577C113.718 28.1114 112.36 28.9104 111.03 29.776C109.732 30.6211 108.309 31.3139 107.051 32.2096C105.931 33.0071 104.965 33.7385 103.988 34.7155C102.944 35.76 101.929 36.8328 100.884 37.8757C100.012 38.7457 100.564 40.8729 100.619 42.0308C100.696 43.636 100.828 45.2186 101.025 46.8133C101.213 48.333 101.405 49.9663 101.158 51.4826C101.054 52.1201 100.695 53.2214 100.866 53.8577C101.003 54.3673 101.913 54.741 102.377 54.9071C102.944 55.1102 103.524 55.0246 104.106 55.2831C104.756 55.572 105.304 55.9323 105.995 56.0841C106.846 56.2714 107.803 56.4288 108.678 56.4346C109.487 56.4398 110.299 56.7017 111.105 56.863C112.417 57.1256 113.698 57.2074 113.616 58.7891C113.522 60.614 112.797 62.1799 112.366 63.9123C112.949 63.9123 113.356 63.9496 113.89 63.7428C114.514 63.5016 115.179 63.4375 115.834 63.3334C117.282 63.1032 118.693 63.0294 120.15 62.8825C122.82 62.6133 125.536 62.6456 128.207 62.674C129.56 62.6882 131.027 62.7927 132.361 63.0031C133.729 63.2191 135.147 63.3541 136.473 63.7683C137.592 64.1178 138.747 64.3559 139.888 64.6646C140.402 64.8037 141.019 64.9166 141.505 65.0721C142.209 65.2977 142.585 65.7787 143.398 65.7678C143.169 64.2624 142.632 62.8658 142.308 61.3729C141.969 59.8137 141.294 58.4342 140.548 56.9634C140.216 56.3073 139.97 55.611 139.649 54.9493C139.293 54.2133 138.792 53.6037 138.361 52.9155C137.48 51.5078 136.54 50.1537 135.675 48.736C134.92 47.4983 134.057 46.3118 133.23 45.1171C132.321 43.8035 131.058 42.8121 130.026 41.607C129.59 41.0979 129.176 40.625 128.688 40.1578C128.239 39.7277 127.601 38.7757 126.913 38.7311C126.518 38.7054 125.833 38.9278 125.456 39.047C124.758 39.268 124.017 39.412 123.296 39.6065C122.507 39.8195 121.732 40.0966 120.942 40.299C120.625 40.3798 120.25 40.3414 119.95 40.433C119.636 40.529 119.386 40.7404 119.043 40.8374C117.352 41.317 115.67 41.8616 113.966 42.2982C112.212 42.7479 110.43 43.1308 108.73 43.7678C108.406 43.8893 108.045 44.1766 107.796 43.9878C107.61 43.8469 107.49 43.4488 107.539 43.2165C107.702 42.443 108.94 42.1636 109.536 41.8531C111.133 41.0209 112.719 40.4341 114.436 39.869C115.281 39.591 116.123 39.2941 116.98 39.0539C117.697 38.8533 118.443 38.5138 119.175 38.411C119.827 38.3196 120.29 38.0631 120.937 37.8359C121.889 37.5013 122.869 37.2265 123.838 36.9406C125.492 36.4517 127.247 36.2462 128.94 35.9184C132.863 35.159 136.936 34.7788 140.939 34.8259C142.957 34.8497 145.068 34.7907 147.063 35.1225C147.544 35.2024 148.555 35.1871 148.887 35.6185C149.065 35.8501 148.968 36.1948 149.014 36.4457C149.091 36.8693 149.322 37.0667 149.523 37.4527C149.949 35.3643 150.438 33.3203 150.988 31.2624C151.485 29.4 151.945 27.5039 152.609 25.6676C153.312 23.7248 154.164 21.6648 155.215 19.8867C155.431 19.5207 155.97 18.9393 156.017 18.5299C156.065 18.1075 155.472 17.7803 155.065 17.7332C154.153 17.6278 153.175 17.8083 152.279 17.8392ZM171.899 47.6797C172.196 44.7828 173.065 41.7525 172.58 38.844C172.374 37.6128 172.214 36.4375 171.598 35.3261C171.286 34.764 171.161 34.3512 170.567 34.6826C169.964 35.0181 169.41 35.8466 168.911 36.3269C167.994 37.2096 167.033 38.1186 165.935 38.7741C165.07 39.2903 163.351 39.7795 162.701 38.663C162.081 37.5988 162.908 36.1137 163.501 35.2358C164.18 34.2314 165.466 33.3011 164.744 32.0618C164.434 31.5284 163.987 31.3886 163.517 31.0385C163.11 30.7355 162.77 30.343 162.363 30.0347C161.184 29.1408 159.891 28.7579 158.53 28.2472C157.902 28.0112 157.819 27.7892 157.456 28.3286C157.062 28.9144 156.846 29.7355 156.561 30.3834C155.99 31.6812 155.381 32.9109 154.645 34.121C153.902 35.3422 153.244 36.618 152.542 37.8634C152.277 38.3333 152.028 38.8108 151.715 39.2519C151.544 39.4919 151.333 39.7058 151.194 39.9685C150.989 40.3569 151.081 40.711 150.953 41.0977C150.402 42.7664 149.6 40.437 149.446 39.8925C149.272 39.273 148.851 38.7901 148.578 38.2123C148.353 37.7351 148.199 37.026 147.655 36.8014C147.209 36.6174 146.635 36.8699 146.18 36.8945C145.345 36.9398 144.503 36.8722 143.664 36.9244C142.879 36.9732 142.096 37.0485 141.311 37.0965C140.526 37.1447 139.742 37.012 138.967 37.0946C137.576 37.2428 136.154 37.219 134.767 37.4244C133.139 37.6652 131.527 37.9222 129.894 38.1226C130.274 38.8398 131.06 39.1509 131.682 39.6626C132.238 40.12 132.678 40.6479 133.238 41.083C133.806 41.5246 134.143 42.1778 134.613 42.7086C135.074 43.2284 135.5 43.6643 135.904 44.2459C137.852 47.0543 139.861 49.7591 141.467 52.7945C142.28 54.3308 143.057 55.9745 143.612 57.6228C144.208 59.3907 144.5 61.2867 144.855 63.1147C145.031 64.0258 145.123 64.7948 144.93 65.7111C144.879 65.9293 144.826 66.147 144.772 66.3642C144.602 66.6242 144.665 66.7928 144.96 66.8702C145.132 67.1215 145.368 67.2158 145.383 67.5595C145.395 67.8206 145.249 68.1233 145.024 68.2705C144.59 68.5547 144.59 68.1709 144.142 68.256C143.974 68.3468 143.806 68.4374 143.639 68.528C143.55 68.3932 143.459 68.26 143.365 68.1286C143.08 67.8573 142.853 67.8821 142.48 67.816C142.669 69.9987 142.367 71.9475 141.886 74.0766C141.655 75.1004 141.259 76.1026 141.059 77.1281C140.836 78.2739 141.323 78.7958 142.078 79.56C141.886 79.6599 141.551 79.7684 141.393 79.9176C141.142 80.1555 141.206 80.1847 141.206 80.557C141.206 81.2386 141.076 81.9105 140.968 82.5808C140.77 83.8222 140.589 85.1068 140.161 86.2954C139.385 88.4543 138.129 90.6963 136.85 92.5978C136.135 93.662 135.417 94.8709 134.52 95.7892C133.62 96.7105 132.727 97.6402 131.829 98.5644C130.061 100.384 128.129 101.64 126.011 103.002C125.173 103.542 124.289 104.133 123.568 104.805C122.835 105.487 121.86 105.965 120.984 106.461C120.593 106.682 120.315 107 119.893 107.181C119.496 107.351 119.219 107.407 118.887 107.63C118.062 108.185 117.17 108.659 116.262 109.077C115.154 109.587 114.064 110.181 112.926 110.616C112.407 110.814 111.919 111.031 111.417 111.263C110.874 111.513 110.288 111.678 109.73 111.946C109.259 112.172 108.782 112.303 108.303 112.488C107.911 112.639 107.604 112.883 107.204 113.041C106.375 113.368 105.62 113.544 104.815 113.93C103.744 114.443 102.476 114.683 101.348 115.052C100.089 115.464 98.7829 115.874 97.4908 116.166C96.9411 116.291 96.4727 116.453 95.9418 116.642C95.5958 116.764 95.1991 116.832 94.8159 116.948C93.7569 117.271 92.6984 117.582 91.6338 117.856C89.5538 118.393 87.4288 119.037 85.4116 119.764C84.3539 120.146 83.281 120.606 82.2664 121.092C81.1194 121.641 79.8834 121.958 78.7322 122.501C76.5083 123.552 74.2918 124.633 72.0937 125.735C70.9394 126.314 69.8012 126.911 68.6742 127.541C68.2652 127.769 67.818 127.864 67.4117 128.088C66.8804 128.381 66.4443 128.811 65.9001 129.102C63.8024 130.222 61.6615 131.276 59.7347 132.693C58.7264 133.435 57.643 134.194 56.7716 135.097C56.4841 135.395 55.9858 135.856 55.9337 136.289C55.857 136.928 55.9289 136.34 56.1504 136.734C56.4572 136.771 56.5265 136.889 56.3592 137.087C56.282 137.18 56.183 137.228 56.0626 137.23C55.6751 137.308 54.9503 136.898 54.639 136.726C54.0994 136.429 53.8129 136.053 53.4664 135.554C52.7138 134.471 51.9794 133.379 51.2043 132.311C50.5071 131.352 49.8248 130.295 49.0316 129.413C48.4938 128.816 48.4534 129.077 47.8552 129.414C47.4101 129.664 46.8932 129.771 46.432 130.007C44.6745 130.907 42.7426 131.572 40.9399 132.199C40.5294 132.342 40.3106 132.568 39.9499 132.765C39.4904 133.017 38.9083 133.14 38.4169 133.318C37.0632 133.81 35.7162 134.321 34.3721 134.839C33.3344 135.239 32.3372 135.554 31.5249 136.292C31.2016 136.585 30.8103 136.796 30.4764 137.093C30.0876 137.438 29.5618 138.001 29.0724 138.196L28.7742 138.429C28.5725 138.289 28.3706 138.149 28.1684 138.009C27.9678 137.87 27.7671 137.732 27.5669 137.593C27.0642 137.243 26.5651 136.889 26.0655 136.535C24.9323 135.733 23.7918 134.938 22.7378 134.031C20.8654 132.422 18.9225 130.899 16.9646 129.392C14.9097 127.81 12.9064 126.154 10.781 124.667C8.85465 123.319 6.75292 122.181 4.88515 120.759C3.94503 120.043 3.00721 119.322 2.0473 118.628C1.99505 118.591 1.21399 118.112 1.20669 118.058C1.19286 117.96 1.44989 117.705 1.52576 117.623C1.88499 117.232 2.28301 116.885 2.64088 116.49C4.30886 114.652 6.48667 114.716 8.78857 114.629C9.83243 114.59 10.9645 115.071 11.9559 115.398C13.1682 115.799 14.3377 116.387 15.5087 116.895C17.922 117.941 20.4128 118.835 22.8505 119.804C23.8091 120.185 24.764 120.371 25.7385 120.633C26.7272 120.899 27.7457 120.645 28.8032 120.664C29.3521 120.674 29.8709 120.706 30.4236 120.675C30.7517 120.657 31.1297 120.594 31.4538 120.6C31.7164 120.605 31.989 120.713 32.2306 120.685C33.2885 120.566 34.4059 120.398 35.4971 120.26C36.5803 120.124 37.6981 120.056 38.7671 119.842C39.3054 119.735 39.8365 119.582 40.3544 119.4C40.8039 119.242 41.6211 119.062 41.9899 118.741C42.32 118.454 42.1757 118.45 41.9917 117.982C41.9189 117.796 41.8436 117.516 41.7356 117.337C41.4438 116.855 41.1618 116.704 41.3316 116.101C41.6307 115.038 42.6502 114.359 43.5229 113.836C45.4888 112.657 47.2868 111.144 49.3569 110.144C53.6222 108.083 57.5095 105.406 61.6691 103.143C66.2414 100.656 70.5667 97.7366 75.2026 95.354C79.5178 93.1364 83.8133 90.9058 88.1643 88.7579C90.2889 87.7094 92.6919 86.7499 94.6196 85.3753C93.5515 85.2428 92.4804 85.0717 91.4087 84.9768C90.9115 84.9329 90.4084 84.9736 89.9142 84.8946C89.3613 84.8063 88.8386 84.5828 88.2869 84.4899C87.3381 84.3297 86.485 84.0046 85.5355 83.8848C84.5174 83.7562 83.5202 83.457 82.4973 83.3733C80.3575 83.198 78.4264 82.4092 76.5505 81.4151C76.0862 81.1689 75.7047 81.3097 75.2598 81.1423C75.0147 81.0503 74.7544 80.6824 74.4791 80.4848C73.7209 79.9406 73.0701 79.2981 72.3496 78.7036C70.8347 82.102 67.8601 84.4133 65.0214 86.6929C63.5836 87.8473 62.023 88.826 60.5703 89.9587C59.4443 90.837 58.4215 91.6231 57.2194 92.3215C56.0651 92.9917 54.9807 93.8968 53.8802 94.702C53.1343 95.2477 52.26 95.6595 51.4669 96.1334C50.8187 96.5205 49.5534 97.098 49.3767 97.8002C49.232 98.3739 49.5142 99.0567 48.6382 98.7929C47.8539 98.5569 47.2853 97.6865 46.8285 97.0734C45.6471 95.4869 44.545 93.8467 43.4481 92.2019C42.859 93.3513 41.8428 94.1791 40.9034 95.0313C40.3327 95.5491 39.7403 96.0296 39.1238 96.4918C38.8249 96.716 38.5226 96.9359 38.2231 97.1596C38.1052 97.2479 37.8378 97.3837 37.7613 97.5081C37.5827 97.7992 37.6912 97.6673 37.719 98.0192C37.7625 98.5705 37.9465 99.0043 37.6343 99.5325C37.3412 100.029 36.7021 100.24 36.2541 100.579C35.1884 101.385 34.0677 102.242 32.8853 102.872C32.6169 103.015 32.3632 103.139 32.1133 103.314C31.696 103.605 31.7723 103.711 31.3518 103.431C30.6942 102.994 30.1262 102.267 29.5328 101.74C28.2896 100.634 27.0325 99.5425 25.7593 98.4716C23.3329 96.4305 20.8349 94.4909 18.4386 92.4133C16.1615 90.439 13.7203 88.7394 11.3694 86.8625C10.7245 86.3477 10.0875 85.8223 9.45111 85.2969C8.88443 84.8294 7.96486 84.314 7.5457 83.7157C6.93694 82.8466 9.31818 81.659 10.0366 81.4821C11.2755 81.1774 12.8774 81.3517 14.1181 81.6015C15.4205 81.8637 16.7468 82.7404 17.9629 83.2865C19.3338 83.9019 20.73 84.434 22.111 85.015C22.7268 85.2741 23.3798 85.4809 23.9514 85.83C24.5581 86.2004 25.0996 86.6226 25.7447 86.9333C26.4881 87.2908 27.2605 87.6246 28.0423 87.8892C28.3966 88.009 28.7779 88.1294 29.1502 88.1778C29.6773 88.2463 29.6058 88.0036 30.0436 87.868C30.4157 87.7528 30.5041 88.0572 30.8387 88.1419C31.1537 88.2217 31.3892 88.1409 31.662 87.9715C32.2702 87.5942 32.8115 87.0739 33.4199 86.681C33.9843 86.3164 34.6065 85.9757 35.1355 85.5629C35.3714 85.3789 35.5458 85.1268 35.7783 84.94C36.1508 84.6404 36.2985 84.7593 36.7334 84.553C37.089 84.3843 37.4115 84.0701 37.7498 83.862C37.9597 83.7328 38.469 83.5695 38.6044 83.3604C38.9602 82.8115 38.353 82.4301 37.8091 82.592C37.7277 82.1179 37.3095 80.9923 37.4901 80.5478C37.6499 80.1545 38.0694 80.2281 38.4223 80.0199C39.7485 79.2372 40.7273 77.8152 41.968 76.8956C43.1377 76.0286 44.1697 74.9937 45.3284 74.1108C46.321 73.3544 47.4057 72.6159 48.3096 71.8002C49.3782 70.8359 50.7463 70.0857 51.9081 69.2249C53.1083 68.3358 54.2237 67.3466 55.411 66.4473C56.5534 65.5823 57.6754 64.6787 58.8493 63.8551C59.9043 63.1149 61.0102 62.439 62.0433 61.6886C62.6093 61.2776 63.228 60.9167 63.874 60.6469C64.5164 60.3784 65.0783 60.0637 65.7055 59.7747C66.952 59.2004 68.5752 58.8035 69.9307 58.6389C71.421 58.4581 72.9174 58.2958 74.4219 58.2945C75.2233 58.2939 76.0017 58.4463 76.7983 58.4947C77.5302 58.5389 78.3217 58.724 79.0484 58.6996C79.3774 58.6887 79.6635 58.5495 79.9822 58.5944C80.2482 58.6318 80.4797 58.7924 80.7651 58.8204C81.4008 58.883 82.0399 58.8206 82.6826 58.9028C84.1593 59.0913 85.6379 59.3602 87.1176 59.5099C88.6941 59.6695 90.2571 59.6996 91.8253 59.9685C93.3579 60.231 94.9 60.503 96.4238 60.8066C99.6619 61.4518 102.934 62.0818 106.121 63.0398C106.866 63.2637 107.615 63.4766 108.331 63.7837C108.679 63.9325 109.013 64.113 109.375 64.2243C109.894 64.3837 109.996 64.4442 110.264 64.0089C110.724 63.2597 110.978 62.2686 111.312 61.4535C111.642 60.6469 112.043 59.8339 112.234 58.9915C111.678 58.9033 110.975 59.0746 110.401 59.0942C109.698 59.1184 109.003 59.1032 108.301 59.099C106.887 59.0906 105.781 58.6729 104.443 58.2346C103.315 57.8649 101.813 57.6529 100.953 56.8065C100.491 56.3528 100.338 56.2729 99.6443 56.3543C98.9446 56.4363 98.2537 56.5776 97.5473 56.6011C94.8852 56.6894 92.2353 57.1537 89.5611 57.2455C88.8376 57.2702 87.0283 57.613 87.1468 56.3866C87.1714 56.132 87.3666 55.9111 87.4046 55.649C87.4453 55.3681 87.375 55.083 87.331 54.8084C87.2263 54.1588 87.117 53.5096 87.0127 52.8598C84.5742 53.6421 82.105 54.2759 79.6201 54.8956C78.5896 55.1525 76.9341 55.7433 75.8694 55.4194C74.8399 55.1062 75.4362 53.6565 75.7568 52.9625C73.7115 53.4291 71.5301 54.1922 69.4445 54.3673C68.81 54.4207 68.1924 54.5611 68.0447 53.7943C67.9271 53.1833 68.3685 52.4362 68.5937 51.8995C66.9931 51.7566 65.3357 51.7703 65.6369 49.7195C65.913 47.838 67.4766 47.4633 69.1415 47.1196C71.1964 46.6951 73.2951 46.5535 75.3634 46.21C77.1629 45.9111 79.1264 45.5777 80.9641 45.7286C81.9371 45.8083 82.9159 45.8266 83.8885 45.9166C84.3474 45.9591 84.7886 46.0301 85.2327 46.1553C85.6425 46.2705 86.2155 46.6279 86.6354 46.6342C87.2694 46.6442 88.0335 45.7874 88.7153 45.5894C89.5597 45.344 90.4697 45.2995 91.3422 45.2394C92.3311 45.1716 93.3216 45.1338 94.3097 45.0537C94.5351 45.0355 95.3866 45.0911 95.5645 44.9592C95.8234 44.767 95.6511 43.7812 95.6331 43.3762C95.6162 43.0016 95.6884 42.3 95.4287 42.1531C95.1847 42.0152 94.4736 42.2043 94.2335 42.2427C93.2382 42.4021 92.2925 42.3839 91.3009 42.3434C90.8429 42.3247 90.403 42.4467 89.9495 42.3866C89.4629 42.3222 88.9731 42.1586 88.4884 42.0676C87.4386 41.8704 86.4821 41.625 85.5776 41.0371C84.7834 40.5211 83.8437 40.1718 83.3999 39.2682C83.0749 38.6065 82.9428 37.3296 83.8984 37.1414C83.2476 36.203 82.7985 35.1489 82.4535 34.0645C82.3909 33.8679 82.3494 33.5718 82.2558 33.4003C81.9254 32.7939 82.232 33.3318 81.7606 33.0893C81.2947 32.8498 80.959 32.6603 80.5949 32.2438C80.0146 31.5796 79.7703 30.7622 79.6969 29.8968C79.5974 28.7214 79.4114 27.3961 79.5832 26.2268C79.8803 24.2012 81.3614 22.6792 82.8663 21.4542C83.6833 20.789 84.7588 20.5413 85.717 20.1377C86.642 19.7479 87.6753 19.3393 88.6498 19.2479C89.5294 19.1653 90.3869 18.8782 91.2675 18.7625C92.4777 18.6031 93.6892 18.6626 94.9054 18.6142C95.4652 18.5919 96.0236 18.513 96.5809 18.4529C96.8955 18.4189 97.4277 18.4552 97.7158 18.3306C98.1874 18.1263 97.9327 18.5553 98.1011 17.9304C98.4216 16.7419 98.6832 15.6272 99.1686 14.4722C99.6208 13.3962 100.17 12.3673 100.896 11.4474C101.577 10.5844 102.46 9.95328 103.262 9.21613C103.856 8.67003 104.53 8.17674 105.208 7.73509C105.596 7.48259 106.027 7.34607 106.406 7.12313C106.876 6.84663 107.291 6.63695 107.82 6.46759C108.956 6.10429 110.082 5.71853 111.288 5.73754C112.588 5.75789 113.891 5.45546 115.157 5.83892C117.507 6.55111 118.658 9.09688 118.619 11.4347C119.422 11.2342 120.125 10.8483 120.976 10.8152C121.76 10.7849 122.692 10.8529 123.462 10.9984C124.957 11.2809 126.495 12.1116 127.386 13.3704C128.236 14.5711 128.364 16.1652 127.841 17.5274C127.591 18.1795 127.194 18.7596 126.772 19.3105C126.462 19.7145 125.771 20.1617 125.738 20.703C131.524 18.9547 137.334 17.7223 143.32 16.9247C146.354 16.5205 149.393 16.7228 152.43 16.4918C153.728 16.3931 155.138 16.5312 156.479 16.5364C157.045 16.5387 157.486 16.46 157.896 16.0936C158.312 15.723 158.644 15.2691 159.129 15.804C159.252 15.9406 159.278 16.2708 159.445 16.3736C159.646 16.498 160.233 16.4125 160.474 16.4273C161.318 16.4788 162.141 16.6218 162.969 16.7866C164.488 17.089 165.998 17.3947 167.5 17.7786C170.358 18.5096 173.179 19.2166 175.997 20.0843C178.872 20.9697 181.777 22.0621 184.428 23.4953C185.712 24.1894 186.994 25.056 188.175 25.9147C188.723 26.3141 189.215 26.7462 189.693 27.2277C190.203 27.7425 190.827 28.0899 191.332 28.6085C192.431 29.7366 193.526 30.9333 194.523 32.1555C195.044 32.7936 195.522 33.4666 195.985 34.1467C196.312 34.6239 197.169 35.4976 196.971 36.1139C196.867 36.443 196.498 36.6733 196.162 36.5926C196.049 36.5657 195.956 36.4198 195.86 36.406C195.534 36.3599 195.83 36.2455 195.451 36.3993C194.696 36.7052 194.456 37.3186 193.498 37.1791C191.869 36.9415 190.337 36.1727 188.856 35.5024C188.433 37.1191 188.373 38.7953 188.003 40.4314C187.641 42.0277 187.039 43.55 186.312 45.0141C185.674 46.2987 184.856 47.6678 183.727 48.5859C182.865 49.2863 180.739 50.1566 180.106 48.6652C179.838 48.0317 180.237 47.0474 180.351 46.3955C180.503 45.5207 180.67 44.6434 180.762 43.7597C180.836 43.0417 180.873 42.3196 180.942 41.6008C181.002 40.9825 181.167 39.6551 180.819 39.109C180.61 38.7799 180.592 39.1029 180.47 39.4314C180.322 39.8299 180.199 40.225 180.091 40.6354C179.86 41.5073 179.653 42.3852 179.435 43.2603C179.046 44.8237 178.618 46.3529 177.808 47.7586C177.088 49.007 176.076 50.3764 174.537 50.5809C173.816 50.6765 172.877 50.3472 172.327 49.862C171.71 49.3176 171.894 48.4198 171.899 47.6797Z" fill="black"/>
    <path fill-rule="evenodd" clip-rule="evenodd" d="M136.755 111.522C137.601 111.355 138.313 110.68 139.004 110.173C139.885 109.527 140.72 108.822 141.576 108.143C143.188 106.863 144.65 105.46 146.041 103.933C148.785 100.921 150.851 97.0447 151.79 93.084C152.265 91.0799 152.853 88.7317 152.583 86.6606C152.489 85.9411 152.347 85.8092 151.641 85.7274C151.322 85.6905 150.513 85.5989 150.226 85.7241C149.482 86.049 149.081 87.4314 148.86 88.1261C148.209 90.1772 147.825 92.3015 147.237 94.3695C146.659 96.3965 145.729 98.4532 144.81 100.349C142.763 104.566 139.918 108.094 136.755 111.522ZM153.534 88.2371C153.028 93.9801 151.433 99.4519 147.856 104.077C146.156 106.275 144.156 108.188 141.989 109.925C139.752 111.719 137.467 113.409 134.928 114.747C134.252 115.103 133.576 115.458 132.892 115.798C132.512 115.986 131.555 116.679 131.118 116.57C130.767 116.482 130.676 116.211 130.621 115.858C130.499 115.067 131.013 114.672 131.533 114.164C133.622 112.122 135.717 110.073 137.671 107.902C141.528 103.613 144.426 98.477 146.037 92.9354C146.533 91.2291 146.976 89.5038 147.511 87.8096C147.837 86.7775 148.3 84.9403 149.384 84.4257C149.965 84.1498 150.643 84.4182 151.254 84.2529C151.828 84.0978 152.208 83.7813 152.696 84.312C153.554 85.2433 153.592 87.07 153.534 88.2371Z" fill="black"/>
    <path fill-rule="evenodd" clip-rule="evenodd" d="M0.712708 121.374C0.284523 121.526 0.266658 121.676 0.0705275 121.236C-0.0282105 121.014 -0.00150901 120.71 0.0217348 120.479C0.077443 119.927 0.368277 119.417 0.607246 118.927C2.85631 120.782 5.19164 122.453 7.60323 124.091C10.1823 125.844 12.6448 127.792 15.0841 129.733C17.2684 131.471 19.479 133.158 21.6405 134.918C22.683 135.767 23.8715 136.425 24.8626 137.299C25.6634 138.006 26.9916 138.323 27.6743 139.155C26.5924 139.801 25.148 140.322 23.9491 139.762C22.6266 139.146 21.6121 138.342 20.4351 137.506C19.8287 137.075 19.198 136.684 18.582 136.268C18.0404 135.901 17.658 135.366 17.1097 135.022C15.9575 134.3 14.7756 133.504 13.6823 132.679C12.5593 131.831 11.318 131.157 10.2346 130.256C9.12387 129.333 7.88062 128.721 6.72092 127.881C4.26323 126.099 2.09907 124.096 0.712708 121.374Z" fill="black"/>
    <path fill-rule="evenodd" clip-rule="evenodd" d="M67.0214 26.7813C66.9908 26.9453 66.9603 27.1093 66.9298 27.2734C66.9484 27.2777 68.4191 24.4377 68.6627 24.0948C69.4891 22.9321 70.5644 21.9647 71.6012 20.9937C73.7972 18.9368 76.3675 17.2766 78.5196 15.183C79.2276 14.4943 80.4962 13.4507 80.2162 12.2861C79.9378 11.1286 77.5881 11.3638 76.7834 11.6987C75.5219 12.2239 74.4972 13.3222 73.5571 14.2792C72.5317 15.3232 71.498 16.3555 70.629 17.537C69.6919 18.811 68.8023 20.1909 68.2281 21.6694C67.5848 23.3257 67.3335 25.0399 67.0214 26.7813ZM67.5043 31.8628C66.5064 32.1705 67.7575 32.3782 67.3666 32.9113C66.9378 33.4958 66.2171 31.6948 66.1093 31.3548C65.474 29.3457 65.7582 26.9049 66.1051 24.8651C66.2803 23.8361 66.3934 22.7902 66.6297 21.7723C66.8602 20.7798 67.3622 19.8366 67.8259 18.9337C68.7543 17.1272 69.9837 15.4442 71.3789 13.9712C72.7783 12.4935 74.3382 11.0149 76.1848 10.1051C77.7106 9.35377 80.1291 9.8751 80.8434 11.5163C81.5731 13.1934 80.5861 15.0202 79.419 16.1994C77.8964 17.7373 76.2374 19.2648 74.5272 20.5908C73.6484 21.2725 72.9117 22.0968 72.0578 22.8081C71.149 23.5652 70.3627 24.3267 69.6908 25.3058C69.0399 26.2546 68.3701 27.2026 67.9471 28.2796C67.484 29.459 67.5043 30.6151 67.5043 31.8628Z" fill="black"/>
    <path fill-rule="evenodd" clip-rule="evenodd" d="M27.5873 104.185C25.294 102.709 22.9931 101.413 20.996 99.5306C19.0243 97.6721 17.3015 95.5762 15.107 93.9637C14.0121 93.1591 12.882 92.4039 11.8064 91.573C10.7856 90.7844 9.61227 90.1089 8.68963 89.2095C7.45982 88.0101 5.15734 85.7818 6.72851 83.9937C8.67868 86.3121 11.3544 88.1396 13.7938 89.8996C16.366 91.7555 18.7269 93.9204 21.1668 95.9424C23.5171 97.89 25.8595 99.8557 28.153 101.855C28.7552 102.38 29.3361 102.932 29.9454 103.449C30.02 103.512 30.6516 103.912 30.6516 104.018C30.6518 104.273 30.1621 104.433 29.9877 104.504C29.7124 104.616 28.9679 104.895 28.6557 104.801C28.492 104.751 28.4892 104.618 28.3712 104.539C28.3034 104.411 28.2243 104.29 28.1344 104.177C27.9519 104.18 27.7696 104.183 27.5873 104.185Z" fill="black"/>
    <path fill-rule="evenodd" clip-rule="evenodd" d="M162.59 78.4494C160.955 78.4074 158.467 78.4025 158.558 80.634C158.604 81.7388 159.203 82.5503 159.695 83.4954C160.212 84.4885 160.595 85.5145 160.747 86.6278C161.361 91.1339 159.714 95.5361 158.225 99.7017C161.423 97.1212 163.733 93.5304 164.946 89.5947C165.534 87.686 165.763 85.2328 165.573 83.2454C165.478 82.251 165.111 81.3594 164.669 80.4735C164.447 80.0284 164.226 79.5201 163.872 79.1599C163.517 78.7989 163.026 78.6787 162.59 78.4494ZM156.887 102.283C155.831 100.547 157.494 97.9904 158.037 96.2976C158.687 94.2738 159.287 92.1666 159.565 90.0557C159.856 87.8446 159.48 86.1255 158.455 84.1725C157.538 82.4265 156.994 80.1011 158.013 78.2537C158.424 77.5102 159.03 77.4188 159.75 77.1222C160.635 76.7583 160.878 76.1427 161.964 76.2402C163.9 76.414 164.796 78.2499 165.517 79.8141C167.196 83.4605 166.74 88.1662 165.307 91.8278C164.483 93.9346 163.542 96.1223 162.143 97.9163C161.456 98.796 160.649 99.5585 159.812 100.292C158.906 101.086 158.095 102.043 156.887 102.283Z" fill="black"/>
    <path fill-rule="evenodd" clip-rule="evenodd" d="M46.3012 38.9744C43.7482 39.4873 41.4184 40.6375 41.0095 43.5055C40.6378 46.1119 42.4139 48.5233 44.595 49.7433C46.9539 51.0633 49.9097 51.2825 52.2602 49.8198C54.7346 48.2798 55.2959 45.1937 53.7899 42.7725C52.1094 40.0706 49.2942 39.2732 46.3012 38.9744ZM47.9419 37.724C50.982 38.1693 53.8041 40.332 54.8282 43.2447C55.8839 46.2473 54.9138 49.5484 52.1188 51.1936C46.4702 54.5188 38.9206 48.9774 40.2839 42.6082C40.6301 40.991 41.613 39.7386 42.9485 38.7918C44.4228 37.7463 46.2057 37.7179 47.9419 37.724Z" fill="black"/>
    <path fill-rule="evenodd" clip-rule="evenodd" d="M156.032 7.23234C152.368 5.57677 148.705 3.92119 145.042 2.26562C144.892 3.92542 144.742 5.58502 144.591 7.24482C144.55 7.69395 144.384 8.30495 144.455 8.74813C144.531 9.22107 144.369 9.17057 144.986 9.10336C145.774 9.01714 146.566 8.82244 147.347 8.68323C148.75 8.43284 150.243 8.36141 151.616 7.99312C152.317 7.80513 152.989 7.78151 153.7 7.66784C154.482 7.54303 155.242 7.31184 156.032 7.23234ZM143.64 10.441C143.64 8.57128 143.848 6.72676 144.019 4.86573C144.173 3.19133 144.233 1.59528 144.779 0C145.29 0.927253 146.704 1.29785 147.58 1.77501C148.786 2.43248 150.07 2.91656 151.304 3.51546C152.517 4.10361 153.685 4.77893 154.899 5.36574C155.514 5.66337 156.139 5.94102 156.753 6.24095C157.138 6.42875 158.05 6.73098 158.289 7.07969C159.016 8.13809 156.53 8.24043 156.05 8.33376C154.611 8.61429 153.155 8.77232 151.719 9.06073C150.38 9.32994 149.038 9.57976 147.694 9.82381C146.364 10.0654 144.994 10.441 143.64 10.441Z" fill="black"/>
    <path fill-rule="evenodd" clip-rule="evenodd" d="M30.6906 56.7266C32.1329 56.5767 33.5692 56.3608 35.0099 56.2184C36.3742 56.0834 37.5809 55.9397 38.8273 55.3149C37.1251 54.8018 35.4191 54.316 33.7025 53.8525C32.8511 53.6227 32.0015 53.3794 31.1463 53.1647C30.4847 52.9984 29.908 52.9028 29.6537 52.181C29.3576 51.3407 30.1808 51.468 30.6939 51.6816C31.4015 51.9759 32.1724 52.1589 32.9059 52.4037C34.5429 52.95 36.19 53.4525 37.8424 53.9493C38.356 54.1037 41.3324 54.6747 40.2599 55.6673C39.801 56.0922 38.7769 56.3255 38.2158 56.6306C37.496 57.022 36.7125 57.1779 35.9118 57.3336C34.243 57.6581 32.5113 57.7827 30.822 58.0642C29.9593 58.208 29.0968 58.3519 28.2343 58.4957C27.7288 58.5798 27.5342 58.5715 27.4023 58.0081C27.3062 57.5988 27.4315 57.1892 27.5237 56.7927C27.7577 55.7852 28.0179 54.7828 28.2756 53.7813C28.3735 53.3992 28.547 51.7194 28.888 51.5356C29.6615 51.1188 29.0647 53.4443 29.0072 53.729C28.7902 54.8032 28.5324 55.8699 28.4164 56.9599C29.1761 56.8912 29.9337 56.8199 30.6906 56.7266Z" fill="black"/>
    <path fill-rule="evenodd" clip-rule="evenodd" d="M51.1409 65.2783C51.4271 65.9967 50.9519 66.1574 50.3752 66.4062C49.6272 66.729 48.8914 67.0697 48.1298 67.3604C46.5275 67.9716 44.9137 68.5392 43.3496 69.2464C40.3666 70.5949 37.3431 71.8899 34.4063 73.3339C33.6766 73.6927 32.9462 74.0503 32.2099 74.3959C31.4484 74.7534 30.5752 75.355 29.7605 75.5593C29.0499 75.7375 28.9758 75.2317 29.3968 74.7659C29.9397 74.1651 30.779 73.7166 31.4607 73.2989C34.2665 71.5798 37.3287 70.1803 40.3933 68.9977C43.9353 67.6305 47.487 66.3189 51.1409 65.2783Z" fill="black"/>
    <path fill-rule="evenodd" clip-rule="evenodd" d="M58.9295 24.527C58.8269 22.343 59.1191 20.1531 58.9448 17.9748C55.9489 20.6296 57.425 24.7325 59.1485 27.6131L58.9295 24.527ZM60.2263 24.4022C60.2453 25.4691 60.3058 26.5353 60.2021 27.5968C60.0932 28.7111 60.6161 29.285 61.2976 30.1057C60.7188 30.6929 59.3907 29.3238 59.024 28.9202C58.2688 28.0891 57.707 26.985 57.2069 25.9871C56.1419 23.8613 55.4085 21.5853 56.2609 19.2513C56.5769 18.3863 56.9634 17.2102 57.7999 16.7065C58.7185 16.1535 59.4212 16.9335 59.8024 17.7357C60.7329 19.6932 60.0235 22.3012 60.2263 24.4022Z" fill="black"/>
    <path fill-rule="evenodd" clip-rule="evenodd" d="M91.9646 132.965C93.346 133.074 94.7068 133.182 96.0883 133.27C95.8499 131.377 95.6114 129.484 95.373 127.59C94.5737 127.776 93.7743 127.96 92.975 128.145C92.5972 128.233 92.0176 128.256 91.6832 128.444C91.5581 128.473 91.4329 128.502 91.308 128.531C91.3045 128.777 91.3019 129.022 91.2996 129.268C91.2901 129.995 91.2692 130.721 91.239 131.448C91.2264 131.752 91.1201 132.198 91.1929 132.499C91.0637 132.804 91.1459 132.934 91.4404 132.888C91.6152 132.914 91.7898 132.939 91.9646 132.965ZM91.0135 134.333C89.9307 133.794 90.2267 132.148 90.2284 131.099C90.2298 130.433 90.2768 129.77 90.2943 129.104C90.3064 128.646 90.2017 128.08 90.3592 127.638C90.6395 126.851 92.0109 126.872 92.7161 126.927C93.239 126.968 93.6766 126.942 94.2125 126.907C94.4766 126.891 94.7713 126.941 95.0308 126.863C95.0869 126.846 95.615 126.478 95.5916 126.477C96.5388 126.513 96.5515 128.783 96.613 129.36C96.7649 130.78 96.9025 132.202 97.0262 133.625C97.059 134.001 97.1991 134.427 96.8412 134.642C96.5185 134.836 95.663 134.644 95.3061 134.633C93.8673 134.59 92.4366 134.366 91.0135 134.333Z" fill="black"/>
    <path fill-rule="evenodd" clip-rule="evenodd" d="M158.609 49.9772C159.235 50.5404 158.935 51.1215 158.73 51.825C158.606 52.2473 157.929 53.6336 158.116 54.0286C158.332 54.4852 159.347 54.5975 159.78 54.7418C160.536 54.9929 161.295 55.2452 162.011 55.5993C162.328 55.7566 163.473 56.1179 163.687 56.4113C163.81 56.5796 163.855 56.7113 163.762 56.9281C163.6 57.3086 163.369 57.1072 162.973 57.0256C161.166 56.6523 159.374 56.175 157.697 55.3877C157.23 56.472 156.834 57.5794 156.439 58.6919C156.323 59.018 156.212 59.7588 155.772 59.8116C155.236 59.8757 155.228 59.1572 155.264 58.7695C155.316 58.2034 155.61 57.5999 155.787 57.064C155.933 56.6216 156.446 55.7005 156.382 55.2446C156.339 54.9309 156.148 54.9528 155.807 54.8295C155.485 54.7131 155.162 54.5974 154.84 54.4796C154.324 54.2909 153.81 54.1016 153.308 53.8777C153.032 53.7548 152.455 53.6112 152.256 53.3562C152.14 53.2083 152.011 52.6755 152.157 52.528C152.499 52.1825 154.772 53.1123 155.239 53.2392C155.549 53.3235 155.861 53.3878 156.161 53.4982C156.275 53.5403 156.41 53.7108 156.533 53.7171C157.056 53.7436 157.098 53.3418 157.26 52.9107C157.636 51.9089 158.045 50.887 158.609 49.9772Z" fill="black"/>
    <path fill-rule="evenodd" clip-rule="evenodd" d="M28.2942 69.9077C28.0155 69.2247 30.974 68.3996 31.5232 68.1695C32.8636 67.6086 34.2997 67.2693 35.6876 66.841C37.0525 66.4197 38.4114 65.9661 39.7538 65.4786C40.1689 65.3277 43.1583 63.8728 43.3147 64.0855C43.8328 64.7894 37.5596 67.0007 36.9484 67.2208C34.1099 68.2423 31.1791 69.0267 28.2942 69.9077Z" fill="black"/>
    <path fill-rule="evenodd" clip-rule="evenodd" d="M155.539 16.4949C154.772 16.5026 153.666 16.72 152.962 16.4089C153.821 16.4375 154.68 16.4663 155.539 16.4949Z" fill="black"/>
    <path fill-rule="evenodd" clip-rule="evenodd" d="M47.9419 37.724L46.2367 37.7179C46.8057 37.5859 47.3742 37.5062 47.9419 37.724Z" fill="black"/>
    <path fill-rule="evenodd" clip-rule="evenodd" d="M136.743 37.2687C137.146 37.2666 137.548 37.2645 137.947 37.2622C137.544 37.2645 137.144 37.2666 136.743 37.2687Z" fill="black"/>
    <path fill-rule="evenodd" clip-rule="evenodd" d="M171.899 47.6797C171.896 48.1096 171.893 48.5396 171.89 48.9678C171.892 48.5373 171.895 48.1085 171.899 47.6797Z" fill="black"/>
    <path fill-rule="evenodd" clip-rule="evenodd" d="M140.002 37.1272C140.309 37.1266 140.615 37.126 140.92 37.1255C140.612 37.1262 140.307 37.1268 140.002 37.1272Z" fill="black"/>
    <path fill-rule="evenodd" clip-rule="evenodd" d="M95.0962 18.6131C94.7147 18.6154 94.3331 18.6177 93.9518 18.62C94.3322 18.4184 94.7139 18.4704 95.0962 18.6131Z" fill="black"/>
    <path fill-rule="evenodd" clip-rule="evenodd" d="M25.4667 84.5613C25.1494 84.5444 24.8908 84.6984 24.7118 84.3958C25.0047 84.1675 25.1738 84.4305 25.4667 84.5613Z" fill="black"/>
    <path fill-rule="evenodd" clip-rule="evenodd" d="M91.0135 134.333C91.2323 134.338 91.451 134.343 91.6673 134.348C91.4477 134.343 91.2306 134.338 91.0135 134.333Z" fill="black"/>
    <path fill-rule="evenodd" clip-rule="evenodd" d="M81.6243 45.8047C81.294 45.7666 80.964 45.7286 80.634 45.6906C80.9611 45.7546 81.3246 45.502 81.6243 45.8047Z" fill="black"/>
    <path fill-rule="evenodd" clip-rule="evenodd" d="M111.529 59.0533C111.734 59.0301 112.023 58.9579 112.234 58.9915C112.207 59.1125 111.608 59.0529 111.529 59.0533Z" fill="black"/>
    <path fill-rule="evenodd" clip-rule="evenodd" d="M90.5834 84.9444C90.8049 84.9486 91.0266 84.9529 91.2458 84.9565C91.0235 84.9525 90.8036 84.9484 90.5834 84.9444Z" fill="black"/>
    <path fill-rule="evenodd" clip-rule="evenodd" d="M34.3602 57.4743C34.5366 57.4792 34.7129 57.484 34.8869 57.4888C34.7098 57.484 34.535 57.4792 34.3602 57.4743Z" fill="black"/>
    <path fill-rule="evenodd" clip-rule="evenodd" d="M69.0572 54.3516C69.2299 54.3585 69.4026 54.3654 69.5732 54.3729C69.3995 54.3663 69.2284 54.3591 69.0572 54.3516Z" fill="black"/>
    <path fill-rule="evenodd" clip-rule="evenodd" d="M82.2347 83.3904C82.4101 83.3789 82.5853 83.3675 82.7584 83.3558C82.5824 83.3671 82.4086 83.3789 82.2347 83.3904Z" fill="black"/>
    <path fill-rule="evenodd" clip-rule="evenodd" d="M27.5873 104.185C27.7703 104.182 27.9534 104.18 28.1344 104.177C27.9507 104.18 27.7688 104.182 27.5873 104.185Z" fill="black"/>
    <path fill-rule="evenodd" clip-rule="evenodd" d="M162.575 37.2221C162.553 37.4698 162.53 37.7175 162.507 37.9642C162.53 37.7161 162.552 37.4692 162.575 37.2221Z" fill="black"/>
    <path fill-rule="evenodd" clip-rule="evenodd" d="M32.6681 120.546C32.3763 120.749 32.0847 120.761 31.7927 120.547C32.0845 120.546 32.3763 120.546 32.6681 120.546Z" fill="black"/>
    <path fill-rule="evenodd" clip-rule="evenodd" d="M60.2263 24.4022C60.2021 24.1512 60.1779 23.9005 60.1537 23.6505C60.1779 23.9018 60.2021 24.152 60.2263 24.4022Z" fill="black"/>
    <path fill-rule="evenodd" clip-rule="evenodd" d="M47.2603 52.1061C47.4382 52.1034 47.6161 52.1007 47.7914 52.0981C47.6128 52.1007 47.4366 52.1034 47.2603 52.1061Z" fill="black"/>
    <path fill-rule="evenodd" clip-rule="evenodd" d="M73.0008 49.3267C73.9443 49.1711 74.8877 49.1193 75.8309 49.3261L73.0008 49.3267Z" fill="black"/>
    <path fill-rule="evenodd" clip-rule="evenodd" d="M98.163 38.7183C98.3593 38.2056 98.4081 38.0134 98.8876 37.748C98.688 38.2463 98.6567 38.5126 98.163 38.7183Z" fill="black"/>
    <path fill-rule="evenodd" clip-rule="evenodd" d="M155.385 17.7261C154.958 17.7357 154.531 17.7455 154.106 17.7551C154.534 17.7455 154.959 17.7357 155.385 17.7261Z" fill="black"/>
    <path fill-rule="evenodd" clip-rule="evenodd" d="M82.8738 61.8683C82.6139 61.8708 82.3544 61.8731 82.0972 61.8763C82.3577 61.874 82.6156 61.8712 82.8738 61.8683Z" fill="black"/>
    <path fill-rule="evenodd" clip-rule="evenodd" d="M82.0276 47.7429C81.814 47.7356 81.6002 47.7283 81.3889 47.7218C81.6035 47.7293 81.8156 47.736 82.0276 47.7429Z" fill="black"/>
    <path fill-rule="evenodd" clip-rule="evenodd" d="M48.9051 85.2443C48.7351 85.2434 48.5651 85.2422 48.3974 85.2413C48.5681 85.2424 48.7366 85.2434 48.9051 85.2443Z" fill="black"/>
    <path fill-rule="evenodd" clip-rule="evenodd" d="M69.9668 52.286C70.1812 52.3043 70.3957 52.3225 70.6105 52.341C70.371 52.3531 70.1312 52.3653 69.8919 52.3774C69.8932 52.3283 69.9182 52.2979 69.9668 52.286Z" fill="black"/>
    <path fill-rule="evenodd" clip-rule="evenodd" d="M125.065 94.4179C125.051 94.1898 125.037 93.9615 125.024 93.7347C125.038 93.9634 125.051 94.1908 125.065 94.4179Z" fill="black"/>
    <path fill-rule="evenodd" clip-rule="evenodd" d="M73.8163 51.4156C73.6441 51.4191 73.4718 51.4223 73.3018 51.4256C73.4749 51.4221 73.6455 51.4189 73.8163 51.4156Z" fill="black"/>
    <path fill-rule="evenodd" clip-rule="evenodd" d="M77.2354 61.3105C77.0586 61.3132 76.8821 61.3156 76.7077 61.3187C76.885 61.3162 77.0602 61.3134 77.2354 61.3105Z" fill="black"/>
    <path fill-rule="evenodd" clip-rule="evenodd" d="M67.0214 26.7813C67.2068 26.8802 67.1105 27.3149 66.9298 27.2734C66.9603 27.1093 66.9908 26.9453 67.0214 26.7813Z" fill="black"/>
    <path fill-rule="evenodd" clip-rule="evenodd" d="M162.59 78.4494C162.419 78.445 162.249 78.4406 162.081 78.4361C162.252 78.4407 162.421 78.4452 162.59 78.4494Z" fill="black"/>
    <path fill-rule="evenodd" clip-rule="evenodd" d="M58.9295 24.527C58.9114 24.1439 58.8936 23.7611 58.8757 23.3791C58.8936 23.7626 58.9116 24.1447 58.9295 24.527Z" fill="black"/>
    <path fill-rule="evenodd" clip-rule="evenodd" d="M89.4441 34.2323C88.5192 34.4226 87.5693 34.5221 86.666 34.8023C86.4407 34.8721 85.7011 35.3015 85.4312 35.1884C85.0211 35.0162 85.2286 34.5743 85.4013 34.3385C85.8634 33.7079 86.6902 33.3546 87.4484 33.3625C88.2051 33.3706 89.244 33.3429 89.4441 34.2323Z" fill="black"/>
    <path fill-rule="evenodd" clip-rule="evenodd" d="M86.8743 35.9242C87.8928 36.6368 88.6707 36.9878 88.757 35.3862C89.8608 35.5365 89.3661 37.3135 88.5309 37.4475C87.6219 37.5932 87.0154 36.6856 86.8743 35.9242Z" fill="black"/>
</svg>
