<svg width="142" height="228" viewBox="0 0 142 228" fill="none" xmlns="http://www.w3.org/2000/svg">
<rect width="142" height="228" rx="30" fill="#FFEE57"/>
<mask id="mask0_138_2" style="mask-type:alpha" maskUnits="userSpaceOnUse" x="0" y="0" width="142" height="228">
<rect width="142" height="228" rx="30" fill="#FFF170"/>
</mask>
<g mask="url(#mask0_138_2)">
<path fill-rule="evenodd" clip-rule="evenodd" d="M89.533 55.0361C89.3732 54.8062 89.089 55.0795 89.208 55.2455C89.3163 55.1758 89.4246 55.1059 89.533 55.0361ZM93.9276 56.3132C93.749 56.2243 93.6881 56.3643 93.6178 56.5257C93.5972 56.573 93.5757 56.6222 93.5503 56.6681C93.7105 56.7562 93.7846 56.6014 93.8597 56.4446C93.8815 56.3991 93.9035 56.3533 93.9276 56.3132ZM90.8328 50.7976C90.4739 50.3401 90.4477 50.4937 90.4179 51.0151C90.4871 50.9789 90.5564 50.9426 90.6257 50.9062C90.6948 50.8701 90.7639 50.8339 90.8328 50.7976ZM139.868 26.0507C139.416 26.2622 139.368 26.4158 139.733 26.6745C139.776 26.4733 139.808 26.3257 139.868 26.0507ZM89.374 47.3858C89.4805 47.7355 89.9178 47.8108 89.9178 47.3858H89.374ZM123.231 29.3688C123.491 29.4517 123.624 29.4942 123.741 29.4673C123.863 29.4395 123.969 29.3366 124.183 29.1263C124.078 29.1534 123.983 29.1776 123.892 29.2006C123.819 29.2192 123.748 29.2371 123.677 29.2553C123.54 29.2901 123.4 29.3258 123.231 29.3688ZM111.145 65.2064C110.991 64.9889 110.837 64.7717 110.683 64.5542C110.631 64.714 110.579 64.874 110.527 65.0338L110.526 65.0348L110.488 65.1527C110.707 65.1706 110.926 65.1884 111.145 65.2064ZM142.373 20.7059C142.312 20.9963 142.281 21.1399 142.339 21.222C142.395 21.3023 142.535 21.3237 142.812 21.3664L142.604 21.0538L142.578 21.0145C142.514 20.9192 142.448 20.8195 142.373 20.7059ZM139.928 21.6143C139.909 21.5197 139.89 21.425 139.87 21.3305L139.867 21.3161C139.849 21.2264 139.831 21.1367 139.813 21.0468C139.78 21.1911 139.655 21.1833 139.533 21.1755C139.428 21.1689 139.326 21.1625 139.287 21.2532C139.095 21.7022 139.707 21.6413 139.928 21.6143ZM93.3667 55.1136C93.2325 54.8478 93.2029 54.8272 92.9101 54.7715C92.9854 55.0367 92.9852 55.2437 92.9848 55.509V55.5641C93.4632 55.4964 93.6136 55.4616 93.6224 54.9528L93.3667 55.1136ZM91.9712 56.0521C91.9079 56.2874 91.7291 56.2305 91.5767 56.1819C91.4385 56.1378 91.3218 56.1008 91.3324 56.294C91.3264 56.1823 91.8815 56.9164 91.8498 56.8927C92.1292 57.1032 92.292 57.0834 92.6086 56.8419C92.157 56.8249 92.1049 56.5994 92.035 56.2966C92.0172 56.2195 91.9982 56.1372 91.9712 56.0521ZM143.413 21.3944C143.314 21.6207 143.216 21.8472 143.117 22.0734L143.095 22.1235C143.004 22.3331 142.913 22.5428 142.822 22.7523C142.78 22.8474 142.748 22.9313 142.721 23.0038C142.59 23.347 142.554 23.4401 142.076 23.2897C142.092 23.2617 142.131 23.2062 142.18 23.1367V23.1365C142.328 22.9273 142.566 22.5907 142.539 22.4887C142.515 22.3928 142.279 22.2743 142.065 22.1669C141.933 22.1005 141.81 22.0384 141.75 21.9885C141.576 21.8443 141.513 21.713 141.447 21.574C141.407 21.4923 141.367 21.4076 141.301 21.3163C141.371 21.0872 141.317 20.9801 141.138 20.9955C141.087 21.1339 141.035 21.272 140.984 21.4102L140.981 21.419L140.941 21.5264C140.95 21.7392 141.056 21.8205 141.18 21.916C141.275 21.9895 141.381 22.0712 141.463 22.2276L141.479 22.2575C141.597 22.4839 141.631 22.5492 141.612 22.5905C141.605 22.6071 141.588 22.6197 141.565 22.6375C141.517 22.6746 141.441 22.7336 141.355 22.8964C141.275 23.0464 141.22 23.2108 141.166 23.3706C141.064 23.6748 140.968 23.963 140.719 24.1063C140.923 24.1958 141.126 24.2854 141.33 24.3747C140.854 24.8969 141.844 24.6426 142.008 24.5919L142.007 24.5929L142.007 24.5939C141.84 24.9488 141.673 25.3034 141.506 25.6582C141.135 25.4506 140.902 25.1052 140.672 24.7615C140.59 24.6408 140.509 24.52 140.422 24.4057C140.168 24.8783 139.914 25.3511 139.66 25.8239C139.775 25.8132 139.891 25.8024 140.007 25.7918C140.144 25.7792 140.282 25.7666 140.418 25.7538C140.41 25.769 140.388 25.804 140.358 25.8503L140.358 25.8505C140.255 26.0093 140.065 26.3008 140.087 26.3795C140.138 26.5668 140.341 26.6218 140.54 26.6757C140.782 26.7414 141.018 26.8053 140.966 27.1028C140.954 27.1723 140.182 27.9507 140.049 28.0258C140.131 28.0624 140.203 28.088 140.265 28.1103C140.497 28.193 140.583 28.2238 140.474 28.5853C140.294 28.4765 140.114 28.3676 139.933 28.2587C139.9 28.3193 139.865 28.3796 139.83 28.4401L139.83 28.4403C139.706 28.6541 139.581 28.8694 139.505 29.1045C139.523 29.3017 139.488 29.4886 139.399 29.6652C139.293 29.8232 139.173 29.9706 139.04 30.1071C138.935 30.3845 138.901 31.8983 139.028 32.1452C139.311 31.7794 139.944 32.4252 138.876 32.4252C138.787 32.4252 138.716 32.4218 138.658 32.4188C138.413 32.4066 138.406 32.4062 138.261 32.7388C138.12 33.0622 138.044 33.3443 138.443 33.3754C138.202 33.8499 138.196 34.237 138.189 34.6972C138.187 34.8097 138.186 34.9267 138.18 35.0502C138.163 35.4449 138.074 35.8376 137.985 36.2269C137.959 36.3406 137.933 36.454 137.909 36.5671C137.957 36.499 138.004 36.4309 138.052 36.3626C138.099 36.2946 138.146 36.2265 138.194 36.1582C138.404 36.6057 138.31 36.9954 138.203 37.4432C138.179 37.5411 138.155 37.642 138.133 37.7467C137.981 37.5455 137.905 37.6658 137.825 37.7928C137.766 37.8869 137.705 37.9846 137.608 37.957C137.334 37.8789 137.344 37.813 137.358 37.7095C137.368 37.6378 137.381 37.5481 137.304 37.4238C137.268 37.3665 137.241 37.318 137.217 37.2756C137.133 37.1238 137.092 37.0501 136.856 36.9243C136.569 36.7715 136.128 36.7241 135.734 36.6818C135.579 36.665 135.43 36.6492 135.302 36.6278C134.551 36.5026 133.799 36.47 133.04 36.4369L133.009 36.4355C130.128 36.3106 127.256 36.2785 124.375 36.4369C121.724 36.5827 119.009 36.9544 116.41 37.4578C116.225 37.4936 116.04 37.5295 115.855 37.5651C113.281 38.0617 110.757 38.5485 108.256 39.3944C108.026 39.4725 107.795 39.5882 107.565 39.7038V39.704C107.277 39.8481 106.99 39.9923 106.703 40.0634C106.5 40.1137 106.298 40.1429 106.094 40.1725C105.802 40.2146 105.508 40.257 105.207 40.3616C104.529 40.5971 103.838 40.8011 103.146 41.0052C102.588 41.17 102.029 41.335 101.477 41.5164C101.123 41.6327 100.762 41.7439 100.399 41.8558C99.3927 42.1654 98.368 42.4806 97.4373 42.9257C97.1584 43.0593 96.8924 43.2169 96.6263 43.3745C96.3674 43.5279 96.1085 43.6815 95.8371 43.8128C95.7234 43.8681 95.5928 43.9222 95.4551 43.979C94.9653 44.1817 94.3873 44.4208 94.1737 44.8737C94.0669 45.1 94.0852 45.264 94.1514 45.4985C94.2742 45.9326 94.3729 45.923 94.6711 45.894C94.6961 45.8914 94.7226 45.889 94.7506 45.8864C95.067 45.8586 95.4418 45.6931 95.7981 45.5361C96.0077 45.4436 96.2108 45.3541 96.3916 45.2971C97.7277 44.8761 99.0797 44.5391 100.438 44.2019C101.464 43.9474 102.492 43.6102 103.517 43.2738C104.931 42.81 106.34 42.3474 107.736 42.1041C108.453 41.9792 109.152 41.7463 109.851 41.5132C110.544 41.2821 111.238 41.0506 111.952 40.9235C112.055 40.9052 112.221 40.8454 112.407 40.7783C112.792 40.6391 113.263 40.4687 113.438 40.5734C113.484 40.6011 113.574 40.8312 113.646 41.0158C113.682 41.1069 113.714 41.187 113.733 41.2258C113.945 41.6496 114.188 42.0587 114.473 42.4381C115.103 43.2782 115.891 43.9983 116.672 44.7119L116.672 44.7121C116.955 44.9705 117.237 45.228 117.51 45.4899C118.372 46.3167 119.15 47.2062 119.932 48.0989V48.0991C120.215 48.4225 120.499 48.7465 120.787 49.0679C120.838 49.0088 120.889 48.9496 120.94 48.8905L121.069 48.7407C120.978 49.4436 121.455 49.966 121.896 50.4488C121.914 50.4692 121.933 50.4895 121.951 50.5099C121.971 50.5311 121.99 50.5523 122.009 50.5734C122.564 51.1893 123.01 51.7682 123.448 52.4705C123.697 52.8696 123.994 53.2344 124.288 53.5953C124.418 53.7551 124.547 53.9143 124.672 54.0753C124.904 54.3756 125.091 54.7121 125.279 55.0503C125.414 55.2938 125.55 55.5381 125.703 55.7708C126.024 56.2576 126.343 56.7478 126.662 57.238C127.181 58.0348 127.699 58.8311 128.225 59.6115C128.625 60.2048 128.941 60.8725 129.258 61.5479C129.334 61.7097 129.455 61.9224 129.588 62.1546V62.1548C129.897 62.6929 130.265 63.3371 130.265 63.7001C130.247 63.7854 130.297 64.0141 130.349 64.2534C130.453 64.7286 130.566 65.2452 130.173 64.7651C130.146 64.8063 130.12 64.8476 130.093 64.8888L130.054 64.9493C130.028 64.9895 130.002 65.0298 129.976 65.0698C129.947 65.1141 129.919 65.1583 129.89 65.2024C130.052 65.1347 130.213 65.067 130.374 64.9993C130.065 65.2793 130.315 65.4054 130.547 65.5226C130.683 65.5913 130.812 65.6568 130.82 65.7485C130.783 65.7845 130.745 65.8204 130.708 65.8562L130.575 65.9846C130.436 66.2717 130.254 66.309 130.031 66.0963C129.929 66.1025 129.861 66.0825 129.797 66.0635C129.706 66.0366 129.623 66.012 129.463 66.0655C129.577 66.2431 129.705 66.2947 129.824 66.3426C129.979 66.4049 130.119 66.4611 130.194 66.7799C130.288 67.18 130.067 67.3272 129.774 67.5227C129.695 67.5751 129.611 67.631 129.527 67.6963V67.6959L129.516 67.6941C129.538 67.3807 129.385 67.15 129.11 67.004V67.6198C129.185 67.6336 129.261 67.6474 129.337 67.6612L129.339 67.6616L129.516 67.6941C129.516 67.6977 129.516 67.7015 129.515 67.7051L129.527 67.6963C129.462 67.9444 129.272 67.8987 129.045 67.8442C129.005 67.8346 128.964 67.8248 128.923 67.8162C128.433 67.7155 127.905 67.5443 127.404 67.3823C127.247 67.3314 127.093 67.2816 126.944 67.2349C125.591 66.813 124.227 66.4573 122.828 66.1688C120.453 65.6788 118.092 65.5706 115.712 65.4615H115.712C114.894 65.4239 114.073 65.3862 113.249 65.333C113.253 65.3153 113.257 65.2987 113.261 65.2829C113.302 65.1147 113.318 65.0462 113.308 64.9819C113.301 64.9379 113.282 64.896 113.249 64.8251C113.244 64.8149 113.239 64.8041 113.234 64.7925C113.285 64.9036 113.194 64.9132 113.101 64.9228C112.96 64.9375 112.817 64.9525 113.171 65.3261C112.247 65.4773 111.276 65.4649 110.311 65.4525C109.715 65.4449 109.12 65.4373 108.54 65.4683C108.556 65.4337 108.576 65.3976 108.596 65.3616C108.667 65.2342 108.74 65.1049 108.621 65.016C108.106 65.7605 106.727 65.7429 105.55 65.7276C105.085 65.7218 104.651 65.7162 104.314 65.7583C103.908 65.8093 103.505 65.8876 103.101 65.9657C102.812 66.0218 102.524 66.0779 102.234 66.1237C102.186 66.1315 102.137 66.1391 102.088 66.1466C101.796 66.1922 101.502 66.2381 101.216 66.3154C101.111 66.3436 100.983 66.4015 100.848 66.4625C100.586 66.5809 100.298 66.7111 100.106 66.659C100.401 66.0659 100.257 66.2373 100.118 66.4031C100.056 66.4774 99.9947 66.5505 99.974 66.5535C99.9338 66.5595 99.8877 66.5669 99.8375 66.5751C99.6354 66.6077 99.3657 66.6514 99.133 66.6514C99.2696 66.1031 99.4464 65.5726 99.6232 65.0424C99.8751 64.2867 100.127 63.5315 100.261 62.7265C100.279 62.6228 100.3 62.5115 100.322 62.3947V62.3945C100.481 61.5499 100.694 60.4239 99.9518 59.8922C99.5841 59.6287 99.0299 59.5292 98.5491 59.4429H98.5489C98.4247 59.4207 98.3054 59.3992 98.1954 59.376C98.0126 59.3376 97.7873 59.3115 97.5482 59.2839C97.0194 59.223 96.4235 59.1541 96.0716 58.9257C95.9216 58.8281 95.8161 58.7336 95.715 58.6431C95.5474 58.4927 95.392 58.3535 95.066 58.2298C94.9468 58.1845 94.8403 58.1395 94.7414 58.0976C94.3405 57.9274 94.0649 57.8107 93.5763 57.9589C93.616 57.9094 93.658 57.8619 93.6989 57.8159C93.9138 57.574 94.0934 57.3717 93.6849 57.1054C93.6056 57.0537 93.4958 57.0505 93.3881 57.0471C93.2253 57.0421 93.0673 57.0373 93.0253 56.8667C92.7607 57.0535 92.7361 57.2141 92.7039 57.424C92.692 57.5005 92.6792 57.5836 92.6534 57.6769C92.6622 57.8247 92.7011 57.9657 92.7703 58.0994L92.5258 58.198L92.1974 58.3301C92.2699 58.1355 92.1722 58.1263 92.0665 58.1163C91.995 58.1096 91.9201 58.1026 91.8915 58.038C91.8132 57.8607 91.8272 57.6144 91.8398 57.3928C91.8442 57.3149 91.8484 57.24 91.8484 57.1723C91.4547 57.2966 91.043 57.4504 90.8708 57.8601C90.4891 57.6327 90.5298 57.573 90.686 57.3439C90.727 57.2836 90.7759 57.2117 90.8274 57.122C90.4227 57.0263 90.337 57.2346 90.2755 57.5698C90.1223 57.5223 89.9687 57.4751 89.8153 57.4278L89.8107 57.4262L89.6347 57.3719C90.1161 57.3685 90.2316 56.9925 90.243 56.584C90.1625 56.6102 90.082 56.6364 90.0013 56.6627L89.9987 56.6635C89.893 56.6979 89.7871 56.7324 89.6811 56.7668L89.5658 57.3597C89.2977 57.587 88.6389 57.2344 88.3345 57.0716L88.3341 57.0714C88.3038 57.0551 88.2772 57.0409 88.2546 57.0291L88.1769 56.9889C87.3679 56.5705 87.0729 56.418 87.1915 55.4265C87.2337 55.0737 87.2968 54.7201 87.3601 54.3658C87.4504 53.8602 87.5411 53.3536 87.5705 52.8468C87.6198 52.0023 87.5387 51.1062 87.4612 50.2518C87.451 50.1378 87.4406 50.0247 87.4308 49.9123C87.3707 49.2295 87.297 48.5501 87.2233 47.8714V47.8712C87.0978 46.7154 86.9726 45.5612 86.9147 44.3933C86.9015 44.1246 86.8879 43.8559 86.8743 43.5869L86.8741 43.5867C86.8368 42.8518 86.7994 42.1169 86.7705 41.3816C86.7653 41.2499 86.7535 41.1161 86.7419 40.9839C86.683 40.3155 86.6282 39.6936 87.4596 39.6343C87.3379 39.2478 87.7025 38.8008 88.0788 38.5892C88.2103 38.2894 88.3541 38.2626 88.5105 38.5091C88.6463 38.5517 88.7724 38.5317 88.8892 38.4486C89.2244 38.3727 89.6002 38.0525 89.9543 37.751C90.1796 37.5591 90.3958 37.3749 90.5873 37.2658C90.7182 37.1913 90.8912 37.1074 91.0805 37.0156H91.0807C91.5889 36.7693 92.2157 36.4656 92.4668 36.1282C92.6532 35.8776 92.5777 35.7831 92.4928 35.6766C92.4257 35.5925 92.353 35.5012 92.3979 35.3202C92.5281 34.7947 92.9806 35.4683 93.1014 35.648C93.1094 35.66 93.1162 35.67 93.121 35.677C93.175 35.6227 93.2778 35.5532 93.3923 35.4757C93.6364 35.3107 93.9342 35.1093 93.929 34.9411L93.454 34.8564C93.5049 34.8272 93.5737 34.7807 93.6508 34.7288C93.8367 34.6037 94.07 34.4465 94.2121 34.4186C94.2852 34.4044 94.3369 34.3892 94.3755 34.3778C94.423 34.3638 94.4508 34.3554 94.4751 34.3618C94.5095 34.3706 94.5363 34.4092 94.6014 34.5027C94.6272 34.54 94.6591 34.5859 94.6999 34.6419C94.7268 34.6005 94.7644 34.5322 94.8077 34.4535V34.4533C94.9188 34.2518 95.068 33.9809 95.1723 33.9102C95.2132 33.8826 95.3722 33.8604 95.5137 33.8407C95.6133 33.8267 95.704 33.8141 95.7396 33.8015C95.9885 33.7136 96.0852 33.5668 96.1786 33.4254C96.253 33.3123 96.3255 33.2023 96.4719 33.1287C96.5574 33.0858 96.6535 33.101 96.7449 33.1156C96.8244 33.1285 96.9002 33.1405 96.9625 33.1132C97.0751 33.0642 97.1285 32.9526 97.1822 32.8411C97.2308 32.74 97.2795 32.6389 97.3718 32.5838C97.4627 32.5295 97.6289 32.5289 97.7943 32.5283C97.9351 32.5279 98.0751 32.5273 98.1674 32.4937C98.3899 32.4124 98.4572 32.3349 98.5515 32.2261C98.5981 32.1723 98.6516 32.1108 98.7339 32.0371C98.9333 31.8591 99.1238 31.7978 99.3228 31.7335C99.4714 31.6857 99.6248 31.6362 99.7906 31.5355C99.9876 31.4159 100.073 31.2227 100.152 31.0445C100.235 30.8591 100.31 30.6899 100.496 30.6362C100.706 30.5759 100.848 30.6272 100.964 30.6686C101.116 30.7235 101.222 30.7613 101.373 30.5018C101.397 30.4608 101.368 30.4115 101.335 30.3566C101.286 30.2747 101.23 30.1806 101.332 30.0823C101.513 29.9069 101.602 30.0653 101.685 30.2131C101.698 30.2355 101.711 30.2577 101.723 30.2785L101.724 30.2773L101.725 30.2761C101.835 30.0689 101.944 29.8616 102.054 29.6544C102.378 29.832 102.421 29.7609 102.498 29.6333C102.547 29.5522 102.609 29.4483 102.766 29.3708C102.853 29.3284 102.931 29.3466 103.012 29.3652C103.099 29.3852 103.188 29.4059 103.291 29.3502C103.377 29.3033 103.421 29.2232 103.465 29.1439C103.494 29.0905 103.523 29.0374 103.564 28.9948C103.625 28.9331 103.677 28.8644 103.73 28.7959C103.85 28.6385 103.969 28.4823 104.184 28.4146C104.072 28.4495 104.99 28.4231 104.908 28.3838C104.819 28.2528 104.729 28.1219 104.64 27.9909C104.737 27.9909 104.832 27.9929 104.925 27.9949H104.925C105.292 28.0023 105.633 28.0095 106.003 27.8944L106.011 27.8922C106.176 27.8411 106.427 27.7634 106.562 27.6605L106.573 27.6521C106.739 27.5249 106.812 27.4695 106.842 27.3964C106.865 27.3395 106.863 27.272 106.858 27.1523C106.856 27.0896 106.853 27.0127 106.853 26.9154C107.371 27.2454 108.031 27.1301 108.543 26.7474C108.657 26.6619 108.754 26.5692 108.85 26.4769C108.979 26.3535 109.107 26.2312 109.274 26.1278C109.4 26.0627 109.528 26.0019 109.658 25.9454C109.82 25.7772 109.983 25.7756 110.146 25.9408C110.309 25.8971 110.356 25.8631 110.432 25.8076C110.463 25.7844 110.5 25.7574 110.553 25.7243C110.604 25.623 110.659 25.5235 110.717 25.426C110.909 25.4059 111.098 25.3713 111.285 25.322C111.494 25.2658 111.68 25.1851 111.854 25.1094C112.282 24.9237 112.641 24.7679 113.119 25.0721L113.171 24.965L113.173 24.9612C113.241 24.8228 113.309 24.6844 113.376 24.5461C113.579 24.8627 113.736 24.7409 113.946 24.5785C114.032 24.5116 114.127 24.4379 114.238 24.3851C114.319 24.3464 114.412 24.3226 114.504 24.2994C114.591 24.2769 114.677 24.2551 114.747 24.2211C114.828 24.2401 114.91 24.2593 114.991 24.2785C115.059 24.0663 115.128 23.854 115.196 23.6418C115.233 23.656 115.297 23.6868 115.376 23.7243C115.596 23.8292 115.926 23.9862 116.048 23.9746C116.177 23.9624 116.321 23.8366 116.462 23.7131C116.578 23.6113 116.692 23.511 116.795 23.477C116.994 23.4115 117.039 23.4325 117.105 23.4633C117.154 23.4868 117.215 23.5154 117.362 23.5164C117.397 23.5166 117.429 23.5176 117.459 23.5184C117.66 23.5236 117.78 23.5268 117.978 23.3342C117.339 23.1682 117.9 23.0751 118.295 23.0094C118.376 22.996 118.449 22.9837 118.504 22.9721C118.645 22.9431 118.766 22.9305 118.876 22.9193C119.161 22.8898 119.368 22.8686 119.622 22.5799H119.257C119.524 22.3374 119.526 22.338 119.664 22.3676C119.712 22.3778 119.777 22.3918 119.875 22.4C119.901 22.4022 119.947 22.4179 120.003 22.4369C120.199 22.5036 120.513 22.6107 120.514 22.3147C121.004 22.6033 121.009 22.6039 121.514 22.4737C121.605 22.4501 121.692 22.4046 121.778 22.359C121.903 22.2931 122.028 22.2266 122.173 22.224C122.288 22.222 122.386 22.2456 122.482 22.2683C122.586 22.2933 122.687 22.3171 122.799 22.3049C122.914 22.2927 123.287 22.1561 123.471 22.0884C123.492 22.0806 123.511 22.0738 123.526 22.0682C123.643 22.0256 123.741 21.9595 123.836 21.8944C123.937 21.8259 124.036 21.7586 124.154 21.7216C124.289 21.6791 124.443 21.6862 124.598 21.6932C124.734 21.6994 124.87 21.7056 124.994 21.6783C125.252 21.6217 125.475 21.5332 125.688 21.4485C126.128 21.2736 126.526 21.1154 127.102 21.2879C127.19 20.5441 128.094 20.6841 128.616 20.765L128.66 20.7718C128.755 20.7866 128.838 20.8077 128.916 20.8275C129.128 20.8814 129.298 20.9248 129.569 20.7965C129.7 20.7346 129.806 20.6569 129.912 20.5796C130.05 20.4789 130.187 20.3787 130.377 20.3145C130.593 20.2412 130.872 20.1847 131.115 20.1354C131.161 20.126 131.206 20.117 131.249 20.108C131.415 20.0555 131.585 20.0387 131.758 20.0577C131.943 20.0838 132.096 20.1677 132.217 20.3093C132.214 20.3171 132.217 20.3213 132.227 20.3205C132.224 20.3167 132.221 20.3131 132.217 20.3093C132.244 20.2468 132.648 19.9468 132.602 19.9839C132.697 19.908 132.776 19.8651 132.845 19.8273C132.997 19.7448 133.104 19.6867 133.231 19.3639C133.123 19.3413 133.015 19.3184 132.907 19.2956C132.799 19.273 132.692 19.2501 132.584 19.2273C132.622 19.2247 132.659 19.2221 132.696 19.2193C132.975 19.1983 133.201 19.1815 133.464 19.296C133.551 19.3341 133.663 19.4414 133.779 19.5523C133.936 19.7029 134.1 19.8601 134.218 19.8603C134.589 19.8607 134.719 19.3379 134.682 19.0657C134.993 19.7908 135.259 19.9116 135.958 19.5409C135.999 19.5191 136.04 19.4975 136.082 19.4756L136.087 19.4728C136.126 19.452 136.166 19.4312 136.205 19.4101C136.371 19.2357 136.537 19.2389 136.701 19.42C136.799 19.4732 136.897 19.5263 136.994 19.5796L137.069 19.4562C137.161 19.3018 137.254 19.1474 137.347 18.9928C137.597 19.3365 137.834 19.3533 138.241 19.273C138.379 19.2457 138.589 19.1084 138.791 18.976C138.999 18.8398 139.199 18.7093 139.304 18.7093C139.361 18.7093 139.426 18.7758 139.5 18.8515C139.581 18.9346 139.672 19.0289 139.777 19.0587C140.108 19.1536 140.623 18.9149 140.74 18.5981C140.803 18.7303 140.866 18.8627 140.928 18.995C140.967 18.9588 141.006 18.9223 141.045 18.8861C141.163 18.7764 141.28 18.6664 141.397 18.5559C141.439 18.9165 141.714 18.9109 141.954 18.9061C142.131 18.9025 142.289 18.8993 142.32 19.0433C142.356 19.2119 141.864 19.5778 141.571 19.7956C141.493 19.8535 141.429 19.9012 141.393 19.9316C141.856 20.2111 142.426 19.7229 142.846 19.3639C142.931 19.2912 143.009 19.2237 143.08 19.169C143.295 19.4027 143.368 19.5255 143.17 19.7928C142.989 20.0383 142.906 19.9871 142.81 19.9274C142.721 19.8723 142.621 19.8102 142.422 19.9678C142.56 20.1989 142.684 20.1408 142.839 20.0682C142.879 20.0493 142.921 20.0297 142.966 20.0137C142.911 20.3395 142.96 20.3551 143.044 20.3815C143.105 20.4006 143.182 20.4252 143.252 20.5726C143.355 20.7898 143.371 20.9643 143.39 21.1749C143.396 21.2434 143.403 21.3157 143.413 21.3944ZM79.5244 49.5661C79.7112 49.5501 79.7641 49.6364 79.8116 49.7141C79.8518 49.7798 79.8881 49.8391 79.9982 49.8246C80.0917 49.8124 80.167 49.7135 80.2441 49.612C80.3112 49.5239 80.3797 49.4338 80.4628 49.3975C80.8404 49.2323 81.3889 49.2069 81.8921 49.1836C82.1284 49.1728 82.3545 49.1622 82.5485 49.138C82.8683 49.0981 83.1693 49.0044 83.4673 48.9117V48.9115C83.747 48.8246 84.0238 48.7383 84.3113 48.698C84.5558 48.664 84.734 48.7083 84.9657 48.7759C84.9825 48.781 84.9988 48.7856 85.0144 48.7902C85.2309 48.8532 85.3376 48.8843 85.4021 48.9542C85.4645 49.022 85.4874 49.1268 85.5322 49.3332L85.534 49.3416C85.7707 50.4332 85.5879 51.594 85.4051 52.754C85.1658 54.2737 84.9267 55.7918 85.6312 57.1509C81.9995 57.1214 78.3604 57.1939 74.7499 57.6194C74.7499 57.3003 74.7523 56.9813 74.7547 56.6623C74.7627 55.6096 74.7708 54.5581 74.6913 53.506C74.6548 53.0248 74.6046 52.545 74.5543 52.065V52.0648C74.5395 51.9244 74.5249 51.7839 74.5104 51.6433C74.4349 50.903 74.4528 50.8994 74.9908 50.7888C75.0251 50.7818 75.0615 50.7744 75.1002 50.7662C75.292 50.7259 75.4141 50.6394 75.5427 50.5483C75.641 50.4786 75.7434 50.4062 75.8835 50.3495C76.0463 50.2836 76.1489 50.3162 76.271 50.3551C76.3311 50.3741 76.3958 50.3947 76.4749 50.4058C76.7834 50.4494 76.8723 50.4242 77.045 50.3755C77.1118 50.3565 77.1911 50.3341 77.3009 50.3106C77.5055 50.267 77.7028 50.2377 77.8936 50.2095C78.4881 50.1214 79.0206 50.0423 79.5244 49.5661ZM143.361 27.1361C143.309 27.1054 143.256 27.075 143.204 27.0444C142.583 28.359 142.177 29.7291 141.765 31.1172C141.705 31.3194 141.644 31.5221 141.584 31.7251C141.335 32.5531 141.088 33.3814 140.841 34.21C140.796 34.3624 140.741 34.5204 140.685 34.6818C140.498 35.2178 140.298 35.7911 140.399 36.3156C141.183 35.1073 141.93 33.8744 142.638 32.6206C142.984 32.0093 143.321 31.3931 143.65 30.773C143.693 30.6927 143.746 30.6071 143.8 30.519C143.919 30.3276 144.046 30.1234 144.092 29.9287C144.151 29.679 144.211 29.6051 144.194 29.5601C144.179 29.5182 144.096 29.5014 143.886 29.3921C144.054 29.2014 144.163 29.2541 144.254 29.2979C144.306 29.3228 144.353 29.345 144.4 29.3174C144.517 29.2495 144.676 29.0388 144.802 28.872C144.854 28.8033 144.901 28.7418 144.936 28.7012C144.839 28.6734 144.677 28.6431 144.489 28.6079C144.007 28.5172 143.351 28.3944 143.171 28.1972C142.884 27.8818 143.191 27.6068 143.493 27.3371C143.521 27.3119 143.549 27.2869 143.577 27.2616C143.505 27.2198 143.433 27.1779 143.361 27.1361Z" fill="#FF5678"/>
<path fill-rule="evenodd" clip-rule="evenodd" d="M61.4183 80.4422C61.3334 80.8793 61.1211 81.0852 61.3436 81.4867C61.5324 81.8277 62.0739 82.051 62.4373 81.9647L61.4183 80.4422ZM51.5713 64.8938L49.7785 65.5084C50.2685 65.9892 50.7355 66.4946 51.2758 66.9215L51.5713 64.8938ZM81.1436 66.4678C80.2885 66.0368 79.3308 65.9882 78.3934 65.9329C78.5358 66.7025 78.6786 67.4722 78.8213 68.2418C79.5953 67.6504 80.3696 67.0591 81.1436 66.4678ZM60.6117 126.04C60.4411 125.738 59.2772 123.403 59.0353 123.523C58.907 123.587 58.897 124.887 58.8782 125.071C58.8115 125.729 58.7446 126.386 58.6779 127.044C59.3663 126.801 60.1017 126.599 60.6117 126.04ZM52.4801 107.166C52.6561 107.682 52.8323 108.198 53.0083 108.714C53.092 108.959 53.1411 109.321 53.2893 109.538C53.4817 109.818 53.3365 109.984 53.5934 109.676C53.8694 109.346 53.9519 108.465 54.0716 108.061C54.2536 107.446 54.4355 106.832 54.6173 106.218C53.76 106.211 53.2404 106.916 52.4801 107.166ZM34.4655 76.7807C33.4114 77.5012 32.3442 78.2159 31.4271 79.1114C32.2339 79.0611 33.3573 79.6162 34.1172 79.3555C34.4681 79.4304 34.584 79.2972 34.4655 78.9556V78.2459V76.7807ZM50.0951 81.8774V86.084C51.0793 85.2453 52.1152 84.4664 53.0622 83.5845C52.0732 83.0154 51.0843 82.4465 50.0951 81.8774ZM85.2787 92.777C84.9681 94.6497 84.9509 96.5769 84.8658 98.472C84.8508 98.8084 84.7212 99.3149 84.9453 99.6094C85.1702 99.9048 85.8107 100.068 86.1363 100.226C87.0525 100.67 87.9624 101.127 88.8759 101.577C87.6768 98.6434 86.4778 95.7102 85.2787 92.777ZM108.538 81.2602C110.798 80.1492 113.058 79.0383 115.318 77.9271C113.102 76.9889 110.886 76.051 108.67 75.1128C108.626 77.162 108.582 79.2113 108.538 81.2602ZM85.2739 86.4909C85.687 86.5205 85.7523 84.9472 85.8206 84.531C85.9507 83.7413 86.0841 82.9521 86.2208 82.1633C86.4946 80.5866 86.7821 79.0122 87.0849 77.4409C87.6905 74.2986 88.3583 71.1682 89.0984 68.0549C88.303 67.9116 87.5723 67.8084 86.7956 67.5769C86.1682 67.3899 85.4211 67.4916 84.861 67.1028C84.7883 68.5616 85.1525 70.1125 85.2873 71.5713C85.4435 73.2591 85.5274 74.9382 85.5136 76.6337C85.4863 79.9196 85.3616 83.2062 85.2739 86.4909ZM33.2534 131.01C33.645 130.905 33.1118 125.536 33.088 124.762C33.0199 122.52 33.0067 120.276 33.0467 118.034C30.9365 119.357 28.7772 120.576 26.5481 121.675C27.121 122.418 27.6579 123.22 28.2918 123.911C28.9451 124.624 29.6944 125.207 30.2997 125.975C31.5184 127.519 32.3533 129.273 33.2534 131.01ZM84.0334 99.2468C84.1315 97.6318 84.2224 96.0202 84.3854 94.41C84.4549 93.7248 85.1171 90.0837 84.0568 90.1692C83.4536 90.2178 82.3957 91.1005 81.8427 91.4099C81.1122 91.8184 80.3807 92.2257 79.6466 92.628C78.198 93.4218 76.7398 94.198 75.286 94.9823C78.2018 96.4039 81.1176 97.8254 84.0334 99.2468ZM77.738 65.6656C76.5303 65.5755 75.3629 65.4858 74.1716 65.2609C73.5292 65.1395 72.8868 65.1564 72.241 65.0745C71.7785 65.0158 70.8743 64.6359 70.4434 64.7603C69.9019 64.9165 69.7053 67.63 69.6308 68.311C69.5109 69.408 69.43 70.7388 69.92 71.7693C70.8643 73.7558 73.4089 72.2052 74.6468 71.372C75.7079 70.6575 76.91 69.934 77.8511 69.0668C78.6848 68.2984 77.9364 66.6584 77.738 65.6656ZM84.0011 87.2672C84.911 86.8992 84.8966 86.437 84.9363 85.485C84.9843 84.3284 85.0124 83.1704 85.0454 82.0131C85.1043 79.951 85.16 77.8878 85.1415 75.8245C85.1237 73.809 85.025 71.7967 84.7943 69.7937C84.7128 69.0854 84.7939 67.8757 84.4206 67.2716C84.08 66.7205 83.0227 66.7147 82.4458 66.7487C81.7954 66.787 81.2685 67.4047 80.7886 67.7952C80.2569 68.2279 79.1646 68.8371 79.0774 69.4823C78.9797 70.2028 79.3756 71.2308 79.529 71.9297C80.0899 74.4802 80.7723 77.0058 81.4912 79.5157C82.2369 82.1197 82.9927 84.7499 84.0011 87.2672ZM60.883 81.1621C60.9417 80.589 61.155 80.1104 60.8666 79.5645C60.6189 79.0951 60.2156 78.6236 59.9126 78.1792C59.0456 76.9064 58.0732 75.6873 57.1286 74.4714C56.2635 73.3579 55.3772 72.2561 54.4705 71.1762C53.9655 70.5748 53.4449 69.9865 52.9274 69.3958C52.5483 68.9634 52.1891 68.3559 51.653 68.1296C51.258 70.6121 50.9316 73.1054 50.6768 75.6062C50.5539 76.8151 50.4478 78.0258 50.3587 79.2377C50.3334 79.5797 50.0681 80.735 50.2377 81.0536C50.4161 81.3882 51.5065 81.8359 51.8403 82.041C52.7734 82.6145 53.4985 83.4785 54.386 82.5358C54.997 81.8866 55.489 80.9715 56.1718 80.405C56.5277 80.1098 56.8627 80.1236 57.2618 79.9484C57.7257 79.7449 57.7403 79.5489 58.2948 79.8258C59.229 80.2922 59.7965 80.9815 60.883 81.1621ZM14.1156 93.9348C14.1156 95.6535 13.998 97.0665 15.1631 98.4578C16.1811 99.6737 17.239 99.9551 18.671 100.435C19.5142 100.717 19.5731 100.457 20.2563 99.9799C20.9057 99.5269 21.6128 99.1635 22.2532 98.6961C23.6335 97.6889 25.0128 96.65 26.3543 95.5905C26.8052 95.2342 26.7387 95.3558 26.6702 94.9283C26.6076 94.5388 26.328 94.043 26.1752 93.6725C25.8989 93.0023 25.5733 92.3537 25.2475 91.7063C24.8776 90.9718 24.5554 90.174 24.0961 89.4892C23.9054 89.205 23.6792 88.9479 23.4567 88.6888C22.9883 88.1431 23.0049 88.1633 22.4448 88.6093C21.2624 89.551 20.1622 90.5705 18.8314 91.3068C17.2568 92.1783 15.6861 93.0555 14.1156 93.9348ZM49.7693 80.6214C49.9401 78.154 50.1328 75.7001 50.4285 73.2439C50.5805 71.9828 50.7573 70.725 50.9294 69.4665C50.9994 68.954 51.2698 68.094 51.1192 67.5962C50.9712 67.1062 50.318 66.6398 49.9596 66.2853C49.8632 66.19 49.5671 65.7901 49.4397 65.7721C49.3033 65.7531 48.7901 66.129 48.6421 66.2137C48.1187 66.5138 47.6047 66.8294 47.0984 67.1578C46.1445 67.7768 45.2201 68.441 44.3156 69.1301C42.4189 70.5748 40.61 72.1295 38.7535 73.625C40.4544 75.1156 42.548 76.2733 44.4498 77.4805C45.5742 78.1944 46.7043 78.9005 47.8492 79.5811C48.4297 79.926 49.1029 80.4532 49.7693 80.6214ZM26.5179 124.744C25.1444 125.652 23.8328 126.611 22.2794 127.194C20.7331 127.774 19.2048 127.997 17.6067 128.342C16.8007 128.516 16.0431 128.706 15.2205 128.828C14.7596 128.896 14.0461 128.87 13.6258 129.065C13.2515 128.985 13.1181 129.112 13.2261 129.447C13.2301 129.552 13.2341 129.656 13.2381 129.76C13.344 131.208 14.275 132.951 15.087 134.129C15.561 134.816 16.1649 135.456 16.765 136.034C17.4427 136.687 17.8334 137.147 18.7779 136.873C20.3701 136.412 21.7752 135.485 23.389 135.076C24.6656 134.752 25.7259 134.074 26.9708 133.723C28.5061 133.29 30.0254 132.796 31.5819 132.435C30.8866 131.093 30.2649 129.695 29.3748 128.466C28.4619 127.204 27.4552 125.992 26.5179 124.744ZM34.9416 79.5849C37.814 80.1566 40.9272 80.6859 43.498 82.1687C44.5012 82.7474 45.773 83.6419 46.0668 84.8388C46.418 86.2694 45.0371 87.1555 43.8837 87.602C42.4988 88.1381 40.9913 88.3435 39.5239 88.5126C38.7471 88.6021 37.9668 88.6509 37.1864 88.6952C36.5548 88.7312 35.4837 88.5924 34.9064 88.8428C34.5448 88.7707 34.4194 88.9172 34.5303 89.2827C34.5235 89.4139 34.5169 89.5452 34.5103 89.6764L34.4504 90.8558C34.4106 91.6412 34.3707 92.4268 34.3307 93.2121C34.244 94.923 34.1571 96.6342 34.0704 98.3451C35.5748 97.4129 36.7873 96.0783 38.2577 95.0838C38.9568 94.6111 39.6509 94.1373 40.3471 93.6661C40.6391 93.4687 40.8175 93.1917 41.1048 93.0077C41.4859 92.7636 41.8237 92.6168 42.1812 92.297C43.641 90.9914 45.2644 89.8628 46.8127 88.6643C47.5159 88.1197 48.2859 87.619 48.9551 87.0349C49.656 86.423 49.5591 85.9192 49.5418 85.0395C49.5238 84.1081 49.8656 82.9517 49.707 82.0536C49.8402 81.7488 49.7379 81.5592 49.4005 81.4847C49.175 81.3405 48.9497 81.1963 48.7242 81.0521C48.2747 80.7646 47.8251 80.477 47.3756 80.1897C45.5872 79.0461 43.799 77.9023 42.0106 76.7587C41.1173 76.1874 40.224 75.616 39.3305 75.0447C39.0809 74.8853 38.2671 74.1645 37.9872 74.1857C37.7016 74.2073 37.2062 74.7648 36.9922 74.9422C36.6638 75.2141 36.345 75.5003 35.9901 75.7384C35.8133 75.861 35.6287 75.9703 35.4365 76.0666C35.1291 76.0962 35.0223 76.265 35.1159 76.5728C34.8459 77.4387 34.9943 78.6754 34.9416 79.5849ZM74.7731 120.404C74.1227 117.364 73.2839 113.763 70.747 111.695C68.174 109.597 64.4124 110.408 62.3997 112.871C61.3916 114.105 60.7667 115.564 60.3025 117.075C59.8259 118.627 59.1236 120.648 59.2522 122.289C59.3085 123.008 59.9248 123.782 60.2771 124.409C60.6405 125.057 60.8818 125.987 61.7385 125.762C63.0667 125.414 64.4176 124.615 65.6605 124.043C66.9177 123.464 68.2413 122.987 69.5449 122.428C70.4104 122.057 71.3089 121.775 72.1721 121.398C72.9907 121.042 74.0709 120.956 74.7731 120.404ZM113.207 102.294C115.021 102.943 115.964 101.903 117.24 100.733C118.45 99.6246 119.76 98.5585 120.874 97.3536C122.022 96.1113 122.93 94.6431 123.813 93.2081C124.706 91.7579 125.913 90.1916 126.462 88.5764C126.742 87.7548 126.861 86.8445 127.037 85.9952C127.08 85.7908 127.364 85.0301 127.274 84.858C127.149 84.6216 126.357 84.5965 126.14 84.5621C124.409 84.2883 122.574 84.2747 120.838 84.5194C117.478 84.9928 114.669 86.8769 113.607 90.1714C112.362 94.0334 112.96 98.3258 113.207 102.294ZM101.444 68.7958C101.416 69.4645 103.018 69.6503 103.434 69.8063C104.394 70.1663 105.348 70.5466 106.281 70.9727C108.2 71.8502 110.247 72.4219 112.086 73.4828C116.048 75.7698 120.35 77.382 124.354 79.5695C124.977 79.9105 126.196 80.7318 126.909 80.6623C127.287 80.6254 127.005 80.9302 127.251 80.3283C127.339 80.1116 127.369 79.8298 127.418 79.5978C127.567 78.9023 127.681 78.2004 127.848 77.5088C128.122 76.3704 128.402 75.3143 128.518 74.1442C128.567 73.6484 128.62 73.1532 128.626 72.6546C128.632 72.1492 128.748 70.8828 128.52 70.4453C128.369 70.1551 128.339 70.2546 127.961 70.1727C127.744 70.1259 127.517 70.0284 127.308 69.9633C126.817 69.8107 126.327 69.6641 125.812 69.6193C125.304 69.5748 124.98 69.4202 124.504 69.3305C124.004 69.2364 123.491 69.3505 122.981 69.2192C122.432 69.0772 122.169 68.9476 121.595 69.0019C121.038 69.0544 120.878 68.931 120.333 68.7792C119.878 68.6527 119.335 68.7412 118.861 68.7027C118.287 68.6559 117.714 68.5842 117.14 68.5387C114.557 68.3343 111.943 68.6374 109.354 68.6134C107.946 68.6004 106.568 68.8083 105.162 68.744C103.933 68.6879 102.663 68.7011 101.444 68.7958ZM108.164 82.4104C106.907 82.889 105.742 83.6664 104.577 84.3358C103.233 85.1077 101.948 85.928 100.704 86.8537C98.6139 88.4104 96.1745 90.2769 95.6242 92.9933C95.0598 95.7811 97.4807 98.0653 99.7505 99.2059C102.339 100.507 105.351 101.179 108.186 101.676C107.883 95.2583 107.954 88.8299 108.164 82.4104ZM70.571 97.5195C69.8086 97.7301 69.1632 98.1813 68.456 98.5151C67.8226 98.814 67.2096 99.0395 66.6179 99.4244C65.6537 100.052 64.5359 100.589 63.5279 101.074C61.0336 102.274 58.612 103.765 56.1426 105.095C55.4882 105.447 55.2737 105.67 55.052 106.396C54.8113 107.184 54.5845 107.977 54.3526 108.768C54.1363 109.506 53.7911 110.295 53.882 111.074C53.9613 111.751 54.3117 112.39 54.5758 113.008C55.2411 114.563 55.9622 116.093 56.7073 117.611C57.3759 118.974 57.986 120.42 58.8443 121.673C59.5113 118.194 60.1099 114.296 62.6956 111.645C65.2794 108.996 69.4015 108.958 71.8914 111.693C73.0742 112.992 73.7941 114.628 74.36 116.272C74.6572 117.135 74.8568 118.015 75.0481 118.907C75.2523 119.86 75.2021 120.366 76.2534 120.077C77.0882 119.848 77.9733 119.665 78.7917 119.403C79.2162 119.267 79.6303 119.115 79.6496 118.78C79.674 118.356 79.1037 117.489 78.9353 117.09C78.0656 115.034 77.1957 112.977 76.3259 110.92C75.3813 108.687 74.4365 106.453 73.4916 104.22C73.0202 103.106 72.5486 101.992 72.077 100.877C71.6469 99.8617 71.2886 98.3535 70.571 97.5195ZM108.234 80.1514C108.248 79.136 108.265 78.1205 108.278 77.1049C108.286 76.4997 108.556 75.3295 108.029 74.8972C107.702 74.6292 106.733 74.4238 106.32 74.2403C105.504 73.8787 104.621 73.7173 103.801 73.3581C100.587 71.9505 97.2434 70.7783 93.9352 69.6439C93.2219 69.3992 92.4928 69.1989 91.7747 68.958C91.387 68.8281 89.951 68.0643 89.5924 68.2642C89.2782 68.439 89.0413 70.5216 88.9408 70.9539C88.7027 71.9776 88.475 73.0038 88.2564 74.0319C87.4071 78.0232 86.6948 82.0426 86.0324 86.0687C87.7922 85.4005 89.4789 84.2427 91.1415 83.3476C92.8686 82.4178 94.5898 81.4903 96.3287 80.582C96.8195 80.3255 98.5462 79.1468 98.9503 79.6094C99.5985 80.3517 98.054 81.2224 97.6485 81.5404C96.0802 82.7705 94.4234 83.8428 92.7461 84.9157C91.0081 86.0279 89.1995 87.0103 87.4526 88.102C86.822 88.4961 85.8153 88.9759 85.5674 89.6415C85.2486 90.4978 85.4787 91.5385 85.7691 92.3565C86.482 94.3668 87.2627 96.3522 88.0884 98.3186C88.4638 99.2127 88.8489 100.103 89.2412 100.99C89.7083 102.046 90.3213 102.269 91.3392 102.755C95.6753 104.825 100.179 106.79 104.344 109.186C103.647 109.99 101.948 108.671 101.26 108.337C99.9864 107.718 98.7112 107.101 97.4383 106.48C95.0667 105.324 92.7072 104.145 90.3223 103.017C91.8508 106.494 93.6546 109.843 95.6547 113.07C95.1497 113.241 95.2728 113.25 94.9558 112.946C94.6889 112.691 94.5097 112.19 94.3288 111.869C93.955 111.205 93.5861 110.539 93.2095 109.877C92.4281 108.504 91.6183 107.151 90.9048 105.74C90.3682 104.679 89.9524 102.825 88.8495 102.29C87.4752 101.623 86.0827 100.974 84.7084 100.298C84.7084 105.583 85.0883 110.751 85.6458 116.004C85.674 116.269 85.9279 117.051 85.4159 116.974C85.185 116.94 85.1071 115.49 85.0666 115.188C84.8804 113.8 84.7224 112.409 84.5932 111.016C84.3359 108.234 84.196 105.442 84.1779 102.649C83.8481 105.365 83.5183 108.08 83.1885 110.796L82.7197 114.656C82.6376 115.332 82.5555 116.007 82.4734 116.683C82.4358 116.994 82.4596 117.4 82.3505 117.696C82.1789 118.162 82.2365 118.126 81.6985 118.339C82.2129 114.803 82.6881 111.26 83.1084 107.712C83.3137 105.98 83.5059 104.247 83.6831 102.513C83.7308 102.046 83.7774 101.58 83.8231 101.113C83.8461 100.875 84.0514 100.11 83.9374 99.9126C83.8247 99.7168 83.0772 99.5125 82.8619 99.4126C82.3907 99.1939 81.9196 98.9754 81.4488 98.7556C79.9205 98.0413 78.3934 97.3212 76.8819 96.5721C76.2207 96.2443 75.5273 95.7379 74.8082 95.563C74.0923 95.389 73.5717 95.8872 72.9595 96.204C72.4831 96.4505 71.3607 96.7787 71.0425 97.1975C70.7464 97.5871 71.6661 99.1467 71.9078 99.7216C72.5892 101.344 73.2709 102.966 73.9525 104.588C75.3344 107.877 76.7165 111.165 78.0986 114.455C78.4365 115.258 78.7743 116.062 79.1121 116.866C79.3286 117.382 79.69 118.85 80.2152 118.907C80.4477 118.933 80.8294 118.68 81.0541 118.607C81.3893 118.499 81.6989 118.5 82.0353 118.443C82.6516 118.339 83.2916 118.021 83.897 117.798C85.4527 117.224 87.0655 116.854 88.6338 116.318C90.2094 115.78 91.7593 115.176 93.3286 114.637C94.754 114.149 96.1921 113.592 97.5614 112.955C99.0074 112.283 100.49 111.691 101.899 110.945C104.466 109.588 107.004 108.32 109.272 106.655C109.805 106.264 110.373 105.871 110.9 105.451C111.363 105.084 112.245 104.629 112.56 104.146C112.68 103.961 112.783 103.6 112.643 103.381C112.492 103.146 111.826 103.167 111.515 103.125C110.534 102.994 109.552 102.862 108.571 102.73C108.646 103.375 108.723 104.02 108.777 104.668C108.815 105.125 109.086 106.333 108.721 106.692C108.22 106.215 108.381 104.791 108.337 104.157C108.312 103.818 108.399 103.154 108.247 102.854C108.081 102.524 107.621 102.528 107.204 102.438C105.437 102.056 103.686 101.735 101.976 101.13C99.0877 100.106 95.6349 98.3789 94.9897 95.0468C94.317 91.5731 97.2727 88.5634 99.7611 86.626C101.251 85.4662 102.836 84.462 104.476 83.5296C105.242 83.0941 106.008 82.6583 106.779 82.232C107.06 82.077 107.98 81.7576 108.128 81.4865C108.28 81.2091 108.202 80.4674 108.234 80.1514ZM46.4344 133.498C46.2942 133.567 46.1539 133.635 46.0139 133.704C47.5728 129.261 49.1173 124.839 50.4207 120.313C51.0499 118.128 51.6873 115.946 52.3379 113.768C52.6188 112.828 53.3087 111.534 53.1171 110.561C52.9096 109.507 52.4122 108.387 52.0273 107.385C49.5637 108.934 47.0484 110.403 44.5437 111.881C42.2983 113.207 40.0149 114.386 37.7537 115.698C36.5951 116.37 35.3998 116.824 34.1905 117.373C33.2079 117.819 33.5894 119.184 33.6036 120.095C33.6533 123.312 33.6509 126.541 33.8461 129.754C33.9172 130.925 33.8255 132.269 34.5706 133.243C35.5236 134.488 36.4075 135.758 37.2765 137.069C37.6021 137.561 38.97 140.22 39.48 140.162C39.813 140.124 40.1196 139.047 40.2862 138.792C40.6453 138.241 41.1701 137.768 41.6479 137.325C43.7113 135.41 46.0009 134.062 48.3804 132.663C50.798 131.241 53.272 129.918 55.7353 128.57C56.2918 128.266 56.8911 128.046 57.444 127.735C57.6625 127.612 58.0956 127.417 58.2332 127.197C58.4388 126.868 58.3691 125.957 58.412 125.564C58.4997 124.761 58.6573 123.927 58.6657 123.118C58.6739 122.319 58.1935 121.632 57.8453 120.936C56.3166 117.876 54.8314 114.81 53.5013 111.657C52.4526 115.318 51.3517 118.96 50.323 122.626C49.7859 124.54 49.1385 126.423 48.5082 128.307C48.1864 129.27 47.8626 130.232 47.5412 131.194C47.2909 131.944 47.1609 133.042 46.4344 133.498ZM68.3897 64.5198C67.5793 64.5288 66.8448 64.4096 66.0522 64.2404C65.7614 64.1785 65.5059 64.1523 65.2112 64.1263C64.8769 64.0968 64.5734 63.9158 64.2804 63.8804C64.0589 63.8537 63.6723 63.9467 63.4608 64.0175C62.9706 64.1818 62.9862 64.0989 62.9658 64.668C62.9337 65.5472 62.9097 66.4267 62.8615 67.3052C62.6714 70.7633 62.3042 74.1877 61.8009 77.6123C61.699 78.3046 61.4139 79.2125 61.5707 79.8999C61.712 80.5197 62.2475 81.1817 62.6011 81.7016C63.3286 82.7707 65.0419 83.2989 66.2472 83.6021C67.5182 83.9219 68.8378 84.0396 70.0453 84.3248C70.3799 84.4039 70.764 84.2645 71.1206 84.3438C71.4504 84.4171 71.7066 84.5981 72.0113 84.7291C72.7581 85.0497 73.5923 85.1087 74.3634 85.3563C75.8925 85.8471 77.5297 85.8176 79.0602 86.289C79.4515 86.4094 79.7895 86.7129 80.166 86.8169C80.5102 86.9118 80.8646 86.8 81.2249 86.8531C81.9882 86.9654 82.6999 87.2264 82.8759 88.0458C83.3427 87.6763 83.4076 87.7734 83.3269 87.2019C83.2752 86.8355 83.0712 86.3893 82.9594 86.0361C82.6747 85.1354 82.3883 84.2353 82.1038 83.3346C81.5409 81.5522 80.9814 79.7684 80.4626 77.9728C79.9982 76.3666 79.5761 74.7482 79.2072 73.1174C79.0196 72.2881 78.8628 71.4553 78.702 70.6217C78.6551 70.3798 78.7016 69.9953 78.4585 69.8343C78.238 69.6883 77.7234 70.2122 77.4905 70.381C75.8639 71.5592 72.1331 75.0441 70.0994 72.9884C69.0042 71.8814 69.0683 69.9352 69.1873 68.5051C69.2601 67.626 69.4145 66.7583 69.5872 65.8941C69.6302 65.6784 69.8939 64.9855 69.7974 64.832C69.6931 64.6668 68.6073 64.5682 68.3897 64.5198ZM125.544 83.7545C125.977 83.8029 126.41 83.8516 126.843 83.9003C126.803 83.5504 126.839 83.0244 126.706 82.6986C126.523 82.2482 126.075 82.198 125.582 82.0113C124.801 81.7164 124.006 81.4599 123.234 81.1423C121.56 80.4532 119.893 79.7543 118.218 79.0653C117.483 78.7631 116.621 78.2687 115.823 78.5154C114.963 78.7817 114.115 79.324 113.311 79.7211C112.401 80.1709 111.491 80.6216 110.581 81.0724C110.155 81.2838 109.728 81.4951 109.302 81.7066C108.631 82.0386 108.542 82.0722 108.49 82.8305C108.22 86.7097 108.24 90.7395 108.358 94.6239C108.418 96.6061 108.35 98.5992 108.493 100.578C108.504 100.73 108.492 101.589 108.587 101.706C108.722 101.871 109.666 101.927 109.892 101.968C110.772 102.129 111.658 102.183 112.547 102.262C112.337 97.7501 111.568 92.4162 113.885 88.2891C116.213 84.1428 121.188 83.2447 125.544 83.7545ZM85.0828 39.3658C85.3438 38.7714 85.7931 38.2696 86.1772 37.7482C86.3849 37.4662 86.7441 37.1292 86.8771 36.7994C87.0663 36.33 87.0653 36.4305 86.7825 36.0194C86.5152 35.631 86.5206 35.6017 86.1073 35.5322C85.7593 35.4738 85.3886 35.5731 85.0332 35.5094C84.6737 35.4449 83.6859 35.1422 83.9124 34.5702C83.9026 34.5953 84.4741 34.3135 84.5186 34.2647C84.6621 34.1083 84.7076 33.7749 84.7785 33.5858C85.0068 32.9799 85.0869 32.5876 84.8325 31.9424C84.4525 30.979 82.9502 30.6939 82.0151 31.0181C81.5475 31.1799 81.281 31.5231 81.0709 31.9544C80.9373 32.2284 80.9063 32.6242 80.7337 32.8627C80.4734 33.2218 80.4573 33.1819 79.9177 33.1185C79.2306 33.0378 78.6671 32.7738 78.0161 32.5898C77.3071 32.3892 76.8459 32.7973 76.2263 33.1263C75.1077 33.7206 74.0274 33.9269 72.7745 34.0212C71.3792 34.1263 70.086 33.7899 68.7045 33.7032C69.0629 35.3542 69.9898 36.6947 70.7308 38.1897C70.8609 38.4526 71.0714 38.7214 71.0764 39.0255C71.0816 39.3121 70.6667 39.702 70.7133 39.9391C70.8133 40.4449 71.9264 40.8498 72.3482 40.9922C73.541 41.3945 74.8993 42.182 76.2121 41.8656C76.932 41.6922 77.3193 40.5556 77.9967 40.4721C78.9054 40.3596 78.2256 41.5298 78.0568 41.9323C79.3466 42.1284 80.9814 41.9622 82.2159 41.5248C82.8347 41.3057 83.3589 40.9787 83.9236 40.6545C84.6269 40.2509 84.7731 40.1399 85.0828 39.3658ZM62.512 63.938C60.2126 63.9763 57.8795 63.6453 55.5749 63.9495C55.041 64.0198 54.5142 64.1331 53.9895 64.2536C53.6125 64.3403 52.4148 64.4136 52.1633 64.694C51.9342 64.9497 51.9326 66.1269 51.8853 66.4588C51.7802 67.1977 51.8082 67.4528 52.2794 68.0241C53.8297 69.904 55.4443 71.7279 56.972 73.6286C58.4394 75.4544 59.6439 77.4946 61.1271 79.2946C61.9193 76.9887 61.9668 74.2215 62.1842 71.8037C62.3002 70.5146 62.4057 69.2244 62.5048 67.934C62.5991 66.7049 62.9199 65.1099 62.512 63.938ZM32.7495 88.2394C33.0155 88.2394 33.4396 88.3227 33.6981 88.2394C34.0536 88.3526 34.1723 88.2192 34.0548 87.8395C34.0604 87.7068 34.066 87.5738 34.0718 87.4408C34.1088 86.5844 34.1497 85.7281 34.1893 84.8717C34.2258 84.0887 34.2612 83.3055 34.292 82.5224C34.3133 81.9877 34.5834 80.6623 34.3673 80.1795C34.2222 79.8549 33.8783 79.9286 33.46 79.8811C33.0621 79.8361 32.663 79.7944 32.2673 79.7327C31.7651 79.6544 31.2084 79.4746 30.6974 79.5871C30.184 79.7003 29.8107 80.1743 29.4078 80.4758C28.7702 80.9526 28.1188 81.4118 27.4758 81.8812C26.3072 82.7346 25.1504 83.6037 23.9915 84.4702C23.513 84.8278 23.421 84.7037 23.6543 85.2179C23.7987 85.5355 24.1269 85.8949 24.3268 86.1819C24.7247 86.7534 25.1209 87.6196 25.6314 88.0834C26.3741 88.7582 28.4348 88.3297 29.4214 88.3249C30.5464 88.3193 31.631 88.3367 32.7495 88.2394ZM35.6615 88.1835C36.6371 88.088 37.6227 88.1293 38.5923 87.9981C39.6464 87.8553 40.6929 87.6441 41.745 87.4857C42.7939 87.3281 45.9849 86.6903 45.6699 85.1248C45.3371 83.4699 42.8942 82.4787 41.5426 81.9224C39.4316 81.0536 37.2277 80.5884 35.0071 80.0972C34.7286 81.5806 34.7686 83.1732 34.7178 84.6764C34.6901 85.4928 34.6659 86.3102 34.6663 87.1274C34.6663 87.3241 34.5988 87.7322 34.6791 87.915C34.8678 88.3453 35.0872 88.1835 35.6615 88.1835ZM32.4532 88.8944H26.2263C27.1478 90.802 28.0189 92.7452 29.0123 94.6167C30.0018 96.481 31.2757 98.2375 32.3983 100.027C32.6827 99.7176 33.1362 99.382 33.3295 99.0137C33.5435 98.6064 33.5375 98.007 33.5726 97.5355C33.6635 96.3116 33.7049 95.0768 33.7358 93.8501C33.7628 92.7758 33.8101 91.7087 33.8926 90.637C33.9106 90.4019 34.1699 89.181 34.0215 88.9803C33.8891 88.8017 32.7255 88.8962 32.4532 88.8944ZM58.0978 51.4406C59.1483 51.4404 60.2 51.4272 61.2503 51.4449C62.2034 51.4611 63.4454 51.2951 64.3185 51.7859C66.0972 52.7855 62.5415 55.3529 61.8204 55.9991C62.9862 56.4216 64.8059 55.583 65.9473 55.1987C67.3586 54.7237 68.7978 54.4047 70.2374 54.0326C70.597 53.9397 72.1409 53.7577 72.3359 53.4822C72.5294 53.2088 72.096 51.5598 72.0526 51.212C72.0119 50.885 72.0462 50.3751 71.91 50.0676C71.9935 49.6981 71.8638 49.5685 71.5207 49.6795C71.4022 49.6791 71.284 49.6785 71.1655 49.6781C70.2896 49.6851 69.4129 49.7257 68.5377 49.7548C65.5291 49.8549 62.5937 49.9885 59.6108 50.458C58.2241 50.6763 56.8252 50.9448 55.4457 51.2128C54.2845 51.4382 54.4799 51.6275 55.5645 51.6303C56.4127 51.6325 57.2537 51.5065 58.0978 51.4406ZM144.4 29.3174C144.579 29.1121 144.758 28.9067 144.936 28.7012C144.501 28.5769 144.065 28.4523 143.63 28.3279C143.166 28.1958 142.917 28.226 143.123 27.7086C143.381 27.0604 144.559 26.9861 145.126 26.9617C147.075 26.8774 149.124 27.4977 150.976 28.0442C151.88 28.3109 152.588 28.7236 153.353 29.2725C153.687 29.5122 154.072 29.7373 154.364 30.0252C154.668 30.3244 154.794 30.7077 155.091 31.0077C155.578 31.4995 156.201 31.7444 156.439 32.4542C156.713 33.269 156.386 34.2018 155.981 34.9123C155.57 35.6334 154.959 36.1786 154.462 36.8338C154.068 37.3537 153.246 38.774 154.531 38.6094C155.211 38.5223 156.092 37.3633 156.582 36.9015C157.283 36.2393 157.972 35.5619 158.715 34.9451C159.373 34.3982 160.132 33.8375 161.012 33.7414C161.94 33.6401 162.404 34.234 162.856 34.9563C163.283 35.6376 163.351 36.3026 163.651 36.9998C163.796 37.3361 163.98 37.5235 164.065 37.8899C164.196 38.4536 164.21 39.0686 164.276 39.6433C164.381 40.5458 164.48 41.2555 164.305 42.1398C164.141 42.9674 164.097 43.8465 163.959 44.6885C163.802 45.6421 163.673 46.6001 163.519 47.5541C163.388 48.3622 162.892 49.5133 163.379 50.2648C164.548 52.0708 165.95 49.4121 166.32 48.4189C166.969 46.6736 167.299 44.7656 167.872 42.9844C168.179 42.0318 168.447 41.0703 168.622 40.084C168.768 39.2684 168.696 38.2748 169.143 37.5483C169.491 36.984 170.109 36.5555 170.787 36.7277C171.636 36.9434 171.962 38.1701 172.211 38.9158C172.87 40.8826 172.628 42.654 172.359 44.6599C172.235 45.5886 172.117 46.5188 171.903 47.4321C171.759 48.0483 171.163 49.2954 172.05 49.6304C173.306 50.1058 174.638 46.501 174.996 45.687C175.934 43.5549 176.293 41.4405 176.679 39.1561C176.768 38.6309 176.836 38.0944 176.969 37.5782C177.084 37.1288 177.429 36.6746 177.46 36.2253C177.491 35.7755 177.194 35.4617 177.499 35.0202C177.753 34.6527 178.211 34.6305 178.626 34.6273C179.6 34.6197 180.531 35.0472 181.437 35.3574C182.279 35.646 183.526 36.2792 184.436 36.0753C181.584 33.1803 178.74 30.3182 175.339 28.0636C173.76 27.0165 172.179 26.0103 170.473 25.1564C168.744 24.2916 166.762 23.7075 164.911 23.1842C163.904 22.8995 162.902 22.5769 161.908 22.2503C161.022 21.9595 160.131 21.9044 159.264 21.5746C157.381 20.8583 155.277 20.5808 153.327 20.073C152.466 19.8489 151.595 19.6567 150.732 19.449C149.825 19.2307 148.551 18.8517 147.627 18.8885C146.837 18.92 146.571 19.8245 146.191 20.4536C145.64 21.367 145.17 22.3159 144.736 23.2901C143.848 25.2862 142.911 27.3483 142.276 29.4337C141.927 30.5787 141.583 31.7249 141.24 32.8718C140.944 33.8646 140.202 35.2967 140.399 36.3156C141.86 34.065 143.22 31.7277 144.4 29.3174ZM76.4096 49.6392C75.6348 49.6745 74.8598 49.7095 74.0851 49.7448C74.8576 52.2839 74.7499 54.9876 74.7499 57.6195C78.3602 57.1939 81.9995 57.1214 85.6311 57.1509C84.9639 55.8637 85.2226 54.1938 85.4127 52.8155C85.524 52.0087 85.5861 51.2316 85.5698 50.4176C85.5546 49.654 85.7747 49.0121 84.9657 48.776C84.3239 48.5887 83.9182 48.9007 83.3069 49.0431C82.5746 49.2135 81.777 49.2341 81.0315 49.3268C79.4797 49.5197 77.9835 49.6328 76.4096 49.6392ZM55.6061 54.5841C57.9328 53.9387 60.4052 54.1766 62.7435 53.686C62.2117 53.2006 61.2096 53.4882 60.5033 53.5286C59.7004 53.5743 58.898 53.6077 58.095 53.6468C57.3118 53.685 55.1395 53.6257 54.857 54.6222C55.1065 54.6095 55.3564 54.5967 55.6061 54.5841ZM140.739 18.6038C137.694 18.8709 134.506 18.8294 131.483 19.3607C128.022 19.969 124.413 20.3507 121.057 21.4228C117.765 22.4747 114.407 23.211 111.161 24.4462C108.006 25.6468 104.967 26.9242 101.996 28.5302C100.542 29.3162 99.1268 30.1494 97.7405 31.0521C96.387 31.9334 94.904 32.6559 93.5925 33.59C92.4251 34.4217 91.4181 35.1844 90.4 36.2033C89.3119 37.2926 88.2532 38.4114 87.164 39.4989C86.2549 40.4062 86.8304 42.6246 86.8881 43.8321C86.968 45.5061 87.1059 47.1566 87.3112 48.8196C87.5064 50.4044 87.7075 52.1077 87.4494 53.689C87.341 54.3538 86.967 55.5023 87.1456 56.1659C87.2884 56.6973 88.2363 57.087 88.7199 57.2602C89.3115 57.4721 89.9156 57.3828 90.5225 57.6523C91.2004 57.9537 91.7719 58.3293 92.4918 58.4877C93.3791 58.683 94.3767 58.8472 95.2886 58.8532C96.1319 58.8586 96.9779 59.1317 97.8187 59.2999C99.1864 59.5739 100.521 59.6592 100.436 61.3086C100.338 63.2118 99.5829 64.8448 99.1332 66.6514C99.7413 66.6514 100.165 66.6902 100.722 66.4746C101.372 66.2231 102.065 66.1562 102.748 66.0476C104.257 65.8076 105.729 65.7307 107.248 65.5775C110.03 65.2967 112.861 65.3304 115.646 65.36C117.056 65.3748 118.586 65.4838 119.976 65.7032C121.403 65.9285 122.88 66.0693 124.263 66.5012C125.429 66.8657 126.633 67.114 127.823 67.436C128.359 67.5809 129.001 67.6987 129.508 67.8609C130.242 68.0962 130.634 68.5978 131.482 68.5864C131.243 67.0164 130.683 65.5601 130.345 64.0031C129.992 62.3771 129.288 60.9386 128.511 59.4047C128.165 58.7204 127.908 57.9943 127.574 57.3043C127.202 56.5367 126.68 55.9009 126.231 55.1833C125.313 53.7152 124.333 52.3031 123.431 50.8247C122.644 49.5339 121.744 48.2966 120.882 47.0506C119.934 45.6807 118.618 44.6469 117.542 43.3901C117.088 42.8593 116.656 42.3661 116.147 41.8789C115.679 41.4303 115.015 40.4375 114.297 40.391C113.885 40.3642 113.171 40.5961 112.778 40.7204C112.05 40.9509 111.278 41.1011 110.527 41.3039C109.704 41.526 108.896 41.815 108.072 42.026C107.743 42.1103 107.351 42.0703 107.039 42.1658C106.712 42.2659 106.451 42.4864 106.094 42.5875C104.33 43.0877 102.577 43.6556 100.801 44.111C98.9722 44.58 97.1153 44.9793 95.3429 45.6435C95.0049 45.7703 94.6288 46.0698 94.3691 45.873C94.1755 45.726 94.0505 45.3109 94.1016 45.0686C94.2716 44.262 95.5618 43.9706 96.1829 43.6468C97.8476 42.779 99.5014 42.167 101.29 41.5777C102.172 41.2877 103.05 40.9781 103.943 40.7276C104.69 40.5184 105.468 40.1643 106.231 40.0572C106.911 39.9619 107.393 39.6944 108.067 39.4575C109.06 39.1084 110.082 38.8219 111.091 38.5237C112.816 38.0139 114.645 37.7996 116.41 37.4578C120.5 36.6658 124.746 36.2693 128.918 36.3184C131.022 36.3432 133.223 36.2818 135.302 36.6278C135.804 36.7111 136.857 36.6951 137.203 37.145C137.389 37.3865 137.288 37.746 137.336 38.0077C137.416 38.4494 137.657 38.6553 137.866 39.0578C138.31 36.8799 138.82 34.7483 139.393 32.6022C139.911 30.66 140.391 28.6826 141.083 26.7676C141.816 24.7415 142.704 22.5933 143.8 20.739C144.025 20.3573 144.587 19.751 144.635 19.324C144.686 18.8835 144.068 18.5423 143.644 18.4932C142.692 18.3833 141.674 18.5715 140.739 18.6038ZM161.192 49.7231C161.501 46.702 162.407 43.5419 161.901 40.5088C161.687 39.2248 161.52 37.9991 160.878 36.84C160.553 36.2539 160.423 35.8234 159.803 36.169C159.175 36.5188 158.597 37.3829 158.077 37.8837C157.121 38.8043 156.12 39.7522 154.975 40.4359C154.073 40.9741 152.281 41.4844 151.603 40.3199C150.957 39.2102 151.819 37.6615 152.437 36.7459C153.145 35.6984 154.486 34.7282 153.734 33.4358C153.41 32.8796 152.944 32.7338 152.454 32.3687C152.03 32.0527 151.675 31.6434 151.251 31.3218C150.022 30.3897 148.674 29.9904 147.256 29.4577C146.601 29.2116 146.515 28.9802 146.136 29.5426C145.725 30.1536 145.5 31.0099 145.203 31.6855C144.608 33.039 143.973 34.3213 143.206 35.5833C142.431 36.8569 141.745 38.1873 141.013 39.4861C140.737 39.9761 140.477 40.4741 140.151 40.9341C139.973 41.1844 139.753 41.4075 139.609 41.6814C139.395 42.0865 139.49 42.4558 139.357 42.8591C138.783 44.5992 137.946 42.17 137.786 41.6021C137.604 40.9561 137.166 40.4525 136.881 39.85C136.646 39.3523 136.486 38.6128 135.919 38.3785C135.455 38.1867 134.856 38.45 134.382 38.4757C133.511 38.5229 132.633 38.4524 131.758 38.5069C130.94 38.5578 130.124 38.6363 129.306 38.6863C128.488 38.7366 127.67 38.5982 126.862 38.6843C125.413 38.8389 123.931 38.8141 122.484 39.0283C120.787 39.2794 119.107 39.5474 117.405 39.7564C117.801 40.5044 118.62 40.8288 119.269 41.3624C119.848 41.8394 120.307 42.3899 120.89 42.8436C121.482 43.3042 121.834 43.9855 122.324 44.5389C122.804 45.081 123.249 45.5356 123.67 46.1421C125.7 49.0709 127.794 51.8916 129.469 55.0571C130.316 56.6593 131.126 58.3734 131.705 60.0923C132.326 61.936 132.631 63.9132 133 65.8196C133.184 66.7697 133.28 67.5717 133.079 68.5273C133.026 68.7548 132.971 68.9819 132.914 69.2083C132.737 69.4795 132.802 69.6553 133.11 69.736C133.29 69.9981 133.535 70.0964 133.551 70.4549C133.563 70.7272 133.411 71.0428 133.177 71.1964C132.724 71.4928 132.724 71.0925 132.257 71.1812C132.082 71.2759 131.907 71.3704 131.732 71.4649C131.64 71.3244 131.545 71.1854 131.447 71.0484C131.15 70.7655 130.913 70.7913 130.524 70.7224C130.722 72.9986 130.407 75.0309 129.906 77.2513C129.665 78.319 129.251 79.3641 129.043 80.4336C128.811 81.6285 129.319 82.1727 130.105 82.9697C129.906 83.0738 129.556 83.187 129.391 83.3426C129.13 83.5907 129.196 83.6211 129.197 84.0094C129.197 84.7203 129.061 85.4209 128.949 86.12C128.742 87.4146 128.553 88.7542 128.108 89.9938C127.298 92.2451 125.989 94.5832 124.656 96.5663C123.91 97.676 123.162 98.9368 122.227 99.8944C121.288 100.855 120.358 101.825 119.422 102.789C117.579 104.686 115.565 105.996 113.357 107.417C112.483 107.979 111.562 108.596 110.81 109.296C110.046 110.008 109.03 110.506 108.116 111.023C107.709 111.254 107.419 111.585 106.979 111.774C106.566 111.952 106.277 112.01 105.93 112.243C105.07 112.822 104.141 113.316 103.194 113.752C102.039 114.284 100.903 114.903 99.7165 115.357C99.176 115.563 98.6676 115.789 98.1441 116.031C97.5777 116.293 96.9665 116.464 96.3854 116.743C95.8944 116.979 95.3972 117.116 94.8973 117.309C94.4893 117.466 94.1688 117.721 93.7525 117.885C92.8881 118.227 92.1013 118.411 91.2615 118.813C90.1455 119.348 88.8231 119.597 87.6476 119.982C86.3352 120.412 84.9737 120.84 83.6269 121.145C83.0537 121.275 82.5655 121.444 82.0121 121.641C81.6514 121.769 81.2379 121.839 80.8384 121.96C79.7345 122.297 78.6311 122.621 77.5213 122.907C75.3531 123.467 73.1379 124.138 71.0351 124.897C69.9326 125.295 68.8142 125.774 67.7565 126.281C66.5608 126.854 65.2724 127.184 64.0723 127.752C61.7541 128.847 59.4436 129.974 57.1522 131.124C55.9489 131.728 54.7625 132.35 53.5876 133.007C53.1613 133.245 52.6951 133.343 52.2716 133.577C51.7177 133.883 51.2632 134.332 50.6959 134.635C48.5092 135.802 46.2774 136.903 44.2689 138.38C43.2178 139.154 42.0885 139.946 41.1801 140.887C40.8804 141.198 40.3609 141.679 40.3067 142.129C40.2268 142.796 40.3017 142.183 40.5325 142.594C40.8523 142.633 40.9246 142.756 40.7502 142.962C40.6697 143.059 40.5666 143.109 40.441 143.111C40.0371 143.193 39.2816 142.765 38.957 142.586C38.3945 142.276 38.0959 141.884 37.7347 141.363C36.9501 140.234 36.1846 139.095 35.3766 137.982C34.6499 136.981 33.9386 135.879 33.1118 134.959C32.5511 134.336 32.509 134.608 31.8855 134.96C31.4215 135.221 30.8826 135.333 30.4018 135.579C28.5698 136.517 26.5559 137.21 24.6768 137.864C24.2489 138.013 24.0208 138.25 23.6447 138.455C23.1657 138.717 22.559 138.846 22.0467 139.032C20.6356 139.545 19.2315 140.077 17.8304 140.617C16.7486 141.034 15.7091 141.363 14.8623 142.133C14.5253 142.439 14.1174 142.658 13.7693 142.968C13.364 143.329 12.816 143.915 12.3057 144.119L11.995 144.361C11.7847 144.215 11.5742 144.069 11.3634 143.924C11.1543 143.779 10.9451 143.635 10.7364 143.49C10.2124 143.125 9.69212 142.756 9.17128 142.387C7.99002 141.55 6.80116 140.721 5.7024 139.776C3.7506 138.097 1.72524 136.509 -0.315674 134.937C-2.45771 133.287 -4.54609 131.561 -6.76162 130.01C-8.76969 128.604 -10.9606 127.417 -12.9076 125.934C-13.8876 125.187 -14.8652 124.436 -15.8658 123.712C-15.9203 123.673 -16.7345 123.173 -16.7421 123.118C-16.7565 123.016 -16.4886 122.749 -16.4095 122.664C-16.035 122.257 -15.6201 121.894 -15.2471 121.483C-13.5083 119.565 -11.2381 119.632 -8.83858 119.542C-7.75044 119.501 -6.57038 120.002 -5.53691 120.344C-4.27315 120.762 -3.05405 121.375 -1.83334 121.904C0.682358 122.995 3.27882 123.928 5.81995 124.938C6.81918 125.336 7.81461 125.53 8.83046 125.803C9.86113 126.08 10.9228 125.816 12.0252 125.836C12.5973 125.846 13.1382 125.879 13.7143 125.847C14.0563 125.828 14.4504 125.763 14.7882 125.768C15.0619 125.773 15.3461 125.886 15.598 125.858C16.7008 125.733 17.8656 125.557 19.003 125.414C20.1322 125.272 21.2974 125.201 22.4118 124.978C22.9729 124.866 23.5266 124.707 24.0664 124.517C24.535 124.352 25.3869 124.164 25.7713 123.83C26.1154 123.53 25.965 123.526 25.7731 123.038C25.6973 122.845 25.6188 122.552 25.5062 122.366C25.202 121.863 24.9081 121.705 25.0851 121.076C25.3969 119.968 26.4596 119.26 27.3693 118.714C29.4186 117.485 31.2929 115.908 33.4508 114.864C37.8971 112.715 41.9493 109.924 46.2854 107.564C51.0517 104.969 55.5605 101.925 60.393 99.4406C64.8914 97.128 69.3691 94.8017 73.9047 92.5617C76.1194 91.4684 78.6243 90.4678 80.6338 89.0342C79.5204 88.896 78.4038 88.7176 77.2866 88.6187C76.7684 88.5728 76.244 88.6153 75.7287 88.533C75.1524 88.4409 74.6075 88.2078 74.0324 88.1108C73.0434 87.9438 72.1541 87.6048 71.1643 87.4799C70.103 87.3457 69.0635 87.0337 67.9972 86.9464C65.7666 86.7636 63.7536 85.941 61.7981 84.9043C61.3141 84.6476 60.9165 84.7944 60.4527 84.6197C60.1972 84.5238 59.9258 84.1402 59.6389 83.9341C58.8485 83.3666 58.1701 82.6966 57.419 82.0766C55.8398 85.6206 52.739 88.031 49.7799 90.4083C48.2811 91.6122 46.6543 92.6328 45.14 93.8141C43.9662 94.73 42.9001 95.5498 41.6469 96.2781C40.4436 96.977 39.3132 97.9209 38.166 98.7606C37.3885 99.3297 36.4771 99.7592 35.6503 100.253C34.9747 100.657 33.6557 101.259 33.4714 101.992C33.3206 102.59 33.6148 103.302 32.7017 103.027C31.8841 102.781 31.2913 101.873 30.8152 101.234C29.5836 99.5792 28.4348 97.8687 27.2914 96.1534C26.6773 97.352 25.618 98.2153 24.6387 99.104C24.0438 99.6441 23.4263 100.145 22.7837 100.627C22.4721 100.861 22.1569 101.09 21.8447 101.324C21.7217 101.416 21.443 101.557 21.3633 101.687C21.1771 101.991 21.2902 101.853 21.3193 102.22C21.3645 102.795 21.5563 103.247 21.2309 103.798C20.9254 104.315 20.2591 104.536 19.7922 104.89C18.6812 105.73 17.513 106.624 16.2804 107.281C16.0007 107.43 15.7362 107.559 15.4757 107.741C15.0407 108.045 15.1202 108.156 14.6819 107.864C13.9964 107.408 13.4043 106.65 12.7857 106.1C11.4897 104.947 10.1793 103.809 8.85209 102.692C6.32277 100.563 3.71876 98.5405 1.22082 96.3738C-1.15291 94.3149 -3.69764 92.5425 -6.14826 90.5851C-6.82049 90.0482 -7.48451 89.5004 -8.14793 88.9525C-8.73866 88.4649 -9.69724 87.9274 -10.1342 87.3035C-10.7688 86.3971 -8.2865 85.1586 -7.53758 84.9742C-6.24618 84.6564 -4.57633 84.8382 -3.28293 85.0987C-1.92526 85.3721 -0.542755 86.2864 0.725008 86.8559C2.15403 87.4977 3.60942 88.0526 5.049 88.6585C5.69099 88.9287 6.37163 89.1443 6.96756 89.5084C7.59994 89.8946 8.16444 90.335 8.83687 90.659C9.61182 91.0319 10.417 91.3799 11.232 91.6558C11.6013 91.7808 11.9988 91.9063 12.3868 91.9568C12.9363 92.0283 12.8618 91.7752 13.3182 91.6338C13.7061 91.5136 13.7982 91.831 14.147 91.9193C14.4754 92.0026 14.7209 91.9184 15.0053 91.7417C15.6393 91.3482 16.2035 90.8056 16.8377 90.3959C17.4261 90.0156 18.0747 89.6604 18.6261 89.2298C18.872 89.038 19.0539 88.7751 19.2962 88.5802C19.6844 88.2678 19.8384 88.3918 20.2918 88.1767C20.6624 88.0007 20.9987 87.6731 21.3513 87.456C21.5702 87.3213 22.101 87.1511 22.2422 86.933C22.613 86.3605 21.9801 85.9628 21.4132 86.1316C21.3283 85.6372 20.8923 84.4634 21.0806 83.9998C21.2472 83.5897 21.6845 83.6664 22.0524 83.4493C23.4349 82.6331 24.4551 81.1501 25.7485 80.1911C26.9678 79.287 28.0435 78.2076 29.2514 77.2869C30.2861 76.4981 31.4169 75.728 32.3591 74.8773C33.473 73.8717 34.8992 73.0893 36.1103 72.1916C37.3614 71.2645 38.5241 70.2328 39.7618 69.2951C40.9527 68.3929 42.1223 67.4506 43.346 66.5917C44.4458 65.8198 45.5986 65.1149 46.6755 64.3323C47.2654 63.9038 47.9104 63.5273 48.5839 63.246C49.2535 62.9661 49.8392 62.6378 50.493 62.3365C51.7924 61.7375 53.4845 61.3236 54.8974 61.152C56.451 60.9634 58.0109 60.7942 59.5792 60.7928C60.4146 60.7922 61.226 60.9512 62.0565 61.0016C62.8194 61.0477 63.6444 61.2407 64.402 61.2153C64.745 61.2039 65.0432 61.0587 65.3754 61.1056C65.6527 61.1446 65.894 61.312 66.1916 61.3413C66.8542 61.4065 67.5204 61.3414 68.1904 61.4272C69.7297 61.6238 71.271 61.9041 72.8135 62.0603C74.4569 62.2267 76.0862 62.2582 77.721 62.5385C79.3186 62.8123 80.9261 63.096 82.5145 63.4126C85.89 64.0854 89.3008 64.7424 92.6229 65.7415C93.3995 65.975 94.1807 66.197 94.9272 66.5172C95.2894 66.6724 95.6375 66.8607 96.0153 66.9768C96.5564 67.143 96.6629 67.2061 96.9417 66.7521C97.4215 65.9708 97.6858 64.9373 98.034 64.0872C98.3782 63.246 98.7963 62.3982 98.996 61.5197C98.4155 61.4278 97.6832 61.6064 97.0842 61.6268C96.3519 61.652 95.6276 61.6362 94.8961 61.6318C93.4217 61.623 92.2689 61.1875 90.8738 60.7303C89.6979 60.3448 88.1324 60.1237 87.2355 59.2411C86.7545 58.7679 86.5945 58.6846 85.8716 58.7695C85.1423 58.855 84.422 59.0024 83.6857 59.0268C80.9107 59.1189 78.1483 59.6031 75.3607 59.6988C74.6065 59.7247 72.7204 60.0821 72.844 58.8031C72.8696 58.5376 73.0731 58.3073 73.1127 58.034C73.1552 57.741 73.0819 57.4436 73.036 57.1573C72.9269 56.4799 72.8129 55.8028 72.7042 55.1252C70.1623 55.941 67.5883 56.602 64.9979 57.2482C63.9238 57.5161 62.198 58.1323 61.0881 57.7945C60.015 57.4679 60.6365 55.956 60.9707 55.2323C58.8387 55.7189 56.5647 56.5147 54.3906 56.6973C53.7292 56.753 53.0854 56.8994 52.9314 56.0998C52.8089 55.4626 53.269 54.6834 53.5037 54.1238C51.8353 53.9748 50.1075 53.989 50.4215 51.8503C50.7093 49.8881 52.3393 49.4974 54.0748 49.139C56.2169 48.6963 58.4046 48.5487 60.5606 48.1904C62.4365 47.8787 64.4833 47.531 66.399 47.6884C67.4133 47.7715 68.4335 47.7905 69.4474 47.8845C69.9258 47.9287 70.3857 48.0028 70.8487 48.1334C71.2758 48.2535 71.8732 48.6262 72.3109 48.6328C72.9717 48.6432 73.7683 47.7497 74.479 47.5432C75.3593 47.2873 76.3078 47.2409 77.2174 47.1782C78.2482 47.1075 79.2807 47.0681 80.3108 46.9846C80.5457 46.9655 81.4333 47.0236 81.6188 46.886C81.8887 46.6856 81.7091 45.6575 81.6903 45.2352C81.6726 44.8445 81.7479 44.1128 81.4772 43.9596C81.2229 43.8158 80.4816 44.0131 80.2313 44.0531C79.1938 44.2193 78.208 44.2003 77.1743 44.1581C76.6969 44.1386 76.2383 44.2658 75.7656 44.2031C75.2583 44.136 74.7477 43.9654 74.2425 43.8705C73.1481 43.6649 72.1511 43.4089 71.2081 42.7958C70.3803 42.2577 69.4007 41.8935 68.9381 40.9511C68.5993 40.2611 68.4616 38.9294 69.4578 38.7332C68.7794 37.7546 68.3112 36.6552 67.9515 35.5244C67.8863 35.3194 67.843 35.0106 67.7455 34.8318C67.4011 34.1994 67.7206 34.7603 67.2292 34.5074C66.7436 34.2577 66.3936 34.06 66.0141 33.6257C65.4092 32.933 65.1545 32.0806 65.078 31.1781C64.9743 29.9524 64.7804 28.5702 64.9594 27.3507C65.2692 25.2383 66.8131 23.6512 68.3819 22.3736C69.2335 21.68 70.3547 21.4216 71.3535 21.0007C72.3177 20.5942 73.3948 20.1681 74.4107 20.0728C75.3276 19.9867 76.2215 19.6873 77.1395 19.5665C78.401 19.4003 79.664 19.4624 80.9317 19.412C81.5153 19.3887 82.0974 19.3064 82.6783 19.2437C83.0063 19.2083 83.561 19.2462 83.8613 19.1162C84.3529 18.9031 84.0874 19.3505 84.263 18.6989C84.5971 17.4593 84.8698 16.2969 85.3758 15.0925C85.8472 13.9703 86.4197 12.8973 87.1764 11.938C87.8861 11.0381 88.8064 10.3798 89.6425 9.61109C90.262 9.04159 90.9647 8.52716 91.6714 8.06659C92.0755 7.80327 92.5256 7.66089 92.9203 7.4284C93.4105 7.14005 93.8431 6.92138 94.3945 6.74476C95.578 6.36589 96.7524 5.9636 98.0094 5.98342C99.3644 6.00465 100.723 5.68926 102.042 6.08915C104.492 6.83187 105.692 9.48674 105.651 11.9247C106.489 11.7157 107.221 11.3132 108.109 11.2787C108.926 11.2471 109.897 11.318 110.7 11.4698C112.259 11.7643 113.861 12.6306 114.79 13.9434C115.677 15.1956 115.809 16.858 115.265 18.2786C115.004 18.9586 114.59 19.5635 114.15 20.1381C113.827 20.5594 113.107 21.0257 113.073 21.5902C119.104 19.767 125.16 18.4818 131.4 17.65C134.563 17.2285 137.731 17.4395 140.897 17.1986C142.25 17.0957 143.719 17.2397 145.117 17.2451C145.708 17.2475 146.167 17.1654 146.595 16.7833C147.028 16.3968 147.375 15.9235 147.88 16.4813C148.009 16.6237 148.036 16.9681 148.209 17.0753C148.419 17.205 149.031 17.1159 149.282 17.1313C150.161 17.185 151.02 17.3342 151.883 17.506C153.467 17.8214 155.04 18.1402 156.606 18.5405C159.586 19.3028 162.526 20.0401 165.463 20.945C168.46 21.8684 171.489 23.0076 174.252 24.5022C175.59 25.2261 176.927 26.1298 178.158 27.0253C178.73 27.4419 179.243 27.8924 179.74 28.3946C180.272 28.9315 180.923 29.2937 181.45 29.8346C182.595 31.0111 183.737 32.259 184.776 33.5336C185.319 34.199 185.817 34.9009 186.3 35.6101C186.64 36.1077 187.533 37.0189 187.327 37.6617C187.219 38.0049 186.834 38.245 186.484 38.1609C186.366 38.1328 186.27 37.9806 186.17 37.9662C185.829 37.9182 186.138 37.7988 185.743 37.9592C184.956 38.2782 184.706 38.918 183.707 38.7724C182.009 38.5247 180.412 37.7229 178.868 37.0239C178.427 38.7099 178.365 40.4579 177.979 42.1642C177.602 43.8289 176.974 45.4164 176.216 46.9433C175.552 48.283 174.698 49.7107 173.521 50.6681C172.623 51.3986 170.407 52.3061 169.747 50.7508C169.467 50.0902 169.884 49.0637 170.002 48.3839C170.16 47.4715 170.335 46.5566 170.43 45.6351C170.508 44.8864 170.547 44.1332 170.619 43.3837C170.681 42.7389 170.853 41.3546 170.491 40.7851C170.272 40.4419 170.253 40.7787 170.126 41.1213C169.972 41.5368 169.844 41.9489 169.731 42.3769C169.491 43.2862 169.275 44.2017 169.048 45.1142C168.642 46.7447 168.196 48.3394 167.351 49.8054C166.601 51.1072 165.546 52.5354 163.941 52.7487C163.19 52.8484 162.211 52.505 161.638 51.9989C160.994 51.4312 161.186 50.4949 161.192 49.7231Z" fill="black"/>
<path fill-rule="evenodd" clip-rule="evenodd" d="M124.557 116.301C125.439 116.127 126.181 115.423 126.901 114.895C127.819 114.221 128.69 113.486 129.582 112.778C131.262 111.443 132.787 109.979 134.237 108.387C137.097 105.247 139.251 101.204 140.23 97.0733C140.725 94.9833 141.338 92.5345 141.056 90.3746C140.959 89.6243 140.81 89.4867 140.074 89.4014C139.742 89.363 138.899 89.2674 138.599 89.398C137.824 89.7368 137.406 91.1784 137.176 91.9029C136.496 94.0419 136.097 96.2573 135.483 98.4139C134.881 100.528 133.912 102.673 132.953 104.649C130.82 109.047 127.854 112.727 124.557 116.301ZM142.047 92.0186C141.52 98.0078 139.857 103.714 136.129 108.537C134.356 110.83 132.272 112.824 130.013 114.636C127.681 116.507 125.299 118.269 122.652 119.665C121.948 120.036 121.242 120.406 120.529 120.76C120.134 120.957 119.136 121.68 118.68 121.566C118.315 121.474 118.22 121.191 118.163 120.824C118.035 119.998 118.571 119.586 119.113 119.057C121.291 116.928 123.475 114.791 125.511 112.526C129.532 108.053 132.553 102.697 134.232 96.9183C134.749 95.1389 135.211 93.3397 135.769 91.5729C136.109 90.4966 136.592 88.5806 137.722 88.0439C138.328 87.7562 139.034 88.0361 139.671 87.8637C140.269 87.7019 140.665 87.3719 141.174 87.9254C142.068 88.8966 142.108 90.8015 142.047 92.0186Z" fill="black"/>
<path fill-rule="evenodd" clip-rule="evenodd" d="M-17.2571 126.576C-17.7034 126.734 -17.722 126.891 -17.9265 126.431C-18.0294 126.2 -18.0016 125.883 -17.9773 125.642C-17.9193 125.067 -17.6161 124.535 -17.367 124.024C-15.0225 125.958 -12.5881 127.701 -10.0742 129.41C-7.3857 131.237 -4.81873 133.269 -2.276 135.293C0.00101089 137.105 2.30543 138.865 4.55861 140.7C5.64535 141.585 6.88428 142.271 7.91735 143.184C8.75218 143.921 10.1367 144.251 10.8484 145.119C9.72057 145.793 8.21492 146.335 6.96518 145.752C5.58648 145.109 4.52897 144.271 3.30206 143.399C2.66988 142.95 2.01249 142.542 1.3703 142.108C0.805803 141.725 0.407112 141.167 -0.164392 140.809C-1.36547 140.055 -2.59759 139.225 -3.7372 138.365C-4.90784 137.481 -6.20184 136.778 -7.33123 135.839C-8.48906 134.876 -9.78505 134.238 -10.9939 133.361C-13.5559 131.504 -15.8119 129.414 -17.2571 126.576Z" fill="black"/>
<path fill-rule="evenodd" clip-rule="evenodd" d="M51.8647 27.9291C51.8329 28.1001 51.8011 28.2711 51.7692 28.4423C51.7887 28.4467 53.3217 25.485 53.5757 25.1274C54.4371 23.9149 55.5581 22.9061 56.6388 21.8934C58.9281 19.7484 61.6074 18.017 63.8507 15.8337C64.5888 15.1155 65.9113 14.0271 65.6193 12.8126C65.3291 11.6055 62.8797 11.8508 62.0409 12.2001C60.7259 12.7477 59.6578 13.8932 58.6777 14.8912C57.6088 15.9799 56.5313 17.0565 55.6254 18.2886C54.6486 19.6172 53.7212 21.0562 53.1227 22.5981C52.4521 24.3254 52.1902 26.113 51.8647 27.9291ZM52.3682 33.2284C51.3279 33.5492 52.6321 33.7659 52.2246 34.3217C51.7776 34.9313 51.0263 33.0532 50.914 32.6985C50.2518 30.6034 50.5479 28.058 50.9096 25.9308C51.0922 24.8577 51.2101 23.7669 51.4564 22.7054C51.6967 21.6703 52.22 20.6867 52.7034 19.7452C53.6712 17.8612 54.9528 16.1061 56.4071 14.57C57.8659 13.0289 59.492 11.487 61.4169 10.5382C63.0075 9.75465 65.5286 10.2983 66.2731 12.0098C67.0338 13.7588 66.005 15.6639 64.7883 16.8937C63.2011 18.4974 61.4718 20.0904 59.689 21.4733C58.7729 22.1842 58.0049 23.0438 57.1148 23.7856C56.1674 24.5751 55.3478 25.3693 54.6474 26.3904C53.9689 27.3798 53.2707 28.3684 52.8297 29.4916C52.3469 30.7215 52.3682 31.9272 52.3682 33.2284Z" fill="black"/>
<path fill-rule="evenodd" clip-rule="evenodd" d="M10.7576 108.65C8.3671 107.111 5.96854 105.759 3.88678 103.796C1.83136 101.858 0.0355482 99.6723 -2.25207 97.9906C-3.39348 97.1516 -4.57153 96.364 -5.69271 95.4976C-6.75682 94.6752 -7.97993 93.9707 -8.94172 93.0327C-10.2237 91.782 -12.6239 89.4581 -10.986 87.5934C-8.95313 90.0112 -6.16389 91.917 -3.62096 93.7524C-0.939653 95.6878 1.52138 97.9456 4.0648 100.054C6.51481 102.085 8.95662 104.135 11.3474 106.22C11.9751 106.768 12.5807 107.343 13.2159 107.882C13.2936 107.948 13.952 108.365 13.952 108.476C13.9522 108.742 13.4418 108.909 13.2599 108.983C12.973 109.1 12.1968 109.39 11.8714 109.292C11.7008 109.24 11.6978 109.101 11.5749 109.019C11.5042 108.885 11.4217 108.76 11.3279 108.642C11.1377 108.645 10.9477 108.648 10.7576 108.65Z" fill="black"/>
<path fill-rule="evenodd" clip-rule="evenodd" d="M30.2655 40.6447C27.6042 41.1796 25.1756 42.3791 24.7493 45.37C24.3618 48.0881 26.2133 50.6028 28.4869 51.8752C30.9459 53.2517 34.0271 53.4804 36.4773 51.9549C39.0567 50.3489 39.6418 47.1305 38.0719 44.6056C36.3201 41.7879 33.3855 40.9563 30.2655 40.6447ZM31.9758 39.3407C35.1449 39.8051 38.0867 42.0605 39.1542 45.098C40.2548 48.2293 39.2435 51.6719 36.3299 53.3876C30.4417 56.8553 22.5718 51.0764 23.9929 44.4342C24.3538 42.7477 25.3784 41.4417 26.7706 40.4543C28.3074 39.364 30.1659 39.3343 31.9758 39.3407Z" fill="black"/>
<path fill-rule="evenodd" clip-rule="evenodd" d="M144.651 7.5423C140.833 5.81577 137.014 4.08924 133.195 2.36271C133.039 4.09365 132.882 5.82438 132.725 7.55531C132.683 8.02369 132.51 8.66088 132.583 9.12305C132.662 9.61625 132.494 9.56359 133.137 9.4935C133.959 9.40359 134.784 9.20054 135.598 9.05536C137.061 8.79424 138.617 8.71975 140.049 8.33568C140.779 8.13963 141.479 8.115 142.221 7.99646C143.035 7.8663 143.828 7.6252 144.651 7.5423ZM131.734 10.8884C131.734 8.93862 131.951 7.01505 132.129 5.07426C132.29 3.3281 132.352 1.66365 132.921 0C133.454 0.966992 134.928 1.35347 135.841 1.85108C137.098 2.53673 138.437 3.04155 139.723 3.66612C140.987 4.27948 142.205 4.98374 143.47 5.5957C144.112 5.90608 144.763 6.19564 145.404 6.50842C145.804 6.70426 146.755 7.01945 147.005 7.3831C147.762 8.48686 145.17 8.59359 144.67 8.69091C143.17 8.98347 141.653 9.14828 140.155 9.44905C138.759 9.72979 137.361 9.99031 135.96 10.2448C134.573 10.4967 133.145 10.8884 131.734 10.8884Z" fill="black"/>
<path fill-rule="evenodd" clip-rule="evenodd" d="M13.9926 59.1578C15.4961 59.0014 16.9933 58.7763 18.4952 58.6277C19.9173 58.4869 21.1753 58.3371 22.4745 57.6855C20.7001 57.1505 18.9217 56.6439 17.1323 56.1605C16.2448 55.9208 15.3591 55.667 14.4676 55.4432C13.778 55.2698 13.1768 55.17 12.9117 54.4173C12.6031 53.541 13.4612 53.6738 13.996 53.8965C14.7337 54.2034 15.5373 54.3943 16.3019 54.6496C18.0084 55.2193 19.7253 55.7433 21.4478 56.2614C21.9833 56.4224 25.0859 57.0179 23.9679 58.053C23.4895 58.4961 22.422 58.7394 21.8371 59.0576C21.0868 59.4657 20.27 59.6283 19.4353 59.7907C17.6958 60.1291 15.8906 60.2591 14.1296 60.5527C13.2303 60.7027 12.3312 60.8526 11.4321 61.0026C10.9052 61.0903 10.7024 61.0817 10.5648 60.4942C10.4647 60.0673 10.5952 59.6401 10.6914 59.2266C10.9353 58.1759 11.2066 57.1307 11.4751 56.0862C11.5772 55.6877 11.7581 53.9359 12.1135 53.7443C12.9199 53.3095 12.2977 55.7347 12.2379 56.0317C12.0116 57.1519 11.7429 58.2643 11.6219 59.4011C12.4139 59.3294 13.2037 59.2551 13.9926 59.1578Z" fill="black"/>
<path fill-rule="evenodd" clip-rule="evenodd" d="M35.3105 68.076C35.6089 68.8251 35.1135 68.9927 34.5123 69.2522C33.7326 69.5888 32.9656 69.9441 32.1716 70.2472C30.5014 70.8846 28.8191 71.4766 27.1887 72.2141C24.0791 73.6204 20.9274 74.9709 17.866 76.4767C17.1053 76.851 16.3439 77.2238 15.5764 77.5843C14.7826 77.9571 13.8723 78.5845 13.023 78.7976C12.2823 78.9834 12.205 78.456 12.644 77.9702C13.2099 77.3436 14.0847 76.8758 14.7954 76.4403C17.7202 74.6475 20.9124 73.1881 24.1069 71.9547C27.7993 70.529 31.5016 69.1611 35.3105 68.076Z" fill="black"/>
<path fill-rule="evenodd" clip-rule="evenodd" d="M43.4295 25.5782C43.3226 23.3006 43.6272 21.0167 43.4456 18.7451C40.3225 21.5138 41.8612 25.7924 43.6578 28.7965L43.4295 25.5782ZM44.7814 25.448C44.8012 26.5606 44.8643 27.6726 44.7562 28.7795C44.6426 29.9415 45.1877 30.5401 45.8982 31.3959C45.2948 32.0083 43.9103 30.5805 43.5281 30.1596C42.7409 29.2929 42.1552 28.1415 41.6339 27.1008C40.5238 24.8839 39.7592 22.5104 40.6477 20.0764C40.9771 19.1743 41.38 17.9478 42.2521 17.4225C43.2097 16.8458 43.9422 17.6592 44.3395 18.4958C45.3095 20.5372 44.57 23.2569 44.7814 25.448Z" fill="black"/>
<path fill-rule="evenodd" clip-rule="evenodd" d="M77.8661 138.663C79.3061 138.777 80.7246 138.89 82.1648 138.981C81.9163 137.007 81.6676 135.033 81.4191 133.059C80.5859 133.252 79.7526 133.445 78.9194 133.637C78.5255 133.728 77.9214 133.752 77.5728 133.949C77.4424 133.979 77.3118 134.009 77.1817 134.039C77.1781 134.296 77.1753 134.552 77.1729 134.808C77.1631 135.566 77.1412 136.324 77.1098 137.081C77.0966 137.399 76.9858 137.863 77.0617 138.178C76.927 138.496 77.0127 138.631 77.3196 138.583C77.5019 138.61 77.6839 138.637 77.8661 138.663ZM76.8747 140.09C75.7459 139.528 76.0545 137.811 76.0563 136.718C76.0577 136.022 76.1068 135.332 76.125 134.637C76.1376 134.16 76.0285 133.569 76.1927 133.108C76.4848 132.287 77.9144 132.31 78.6495 132.367C79.1946 132.41 79.6507 132.382 80.2094 132.346C80.4847 132.329 80.7919 132.381 81.0625 132.3C81.1209 132.282 81.6714 131.898 81.647 131.897C82.6344 131.935 82.6476 134.303 82.7117 134.903C82.8701 136.384 83.0135 137.868 83.1424 139.352C83.1767 139.744 83.3227 140.188 82.9496 140.412C82.6132 140.615 81.7215 140.415 81.3494 140.403C79.8496 140.358 78.3581 140.124 76.8747 140.09Z" fill="black"/>
<path fill-rule="evenodd" clip-rule="evenodd" d="M147.338 52.1191C147.991 52.7064 147.677 53.3124 147.464 54.0461C147.335 54.4864 146.629 55.9322 146.824 56.3441C147.049 56.8203 148.107 56.9374 148.559 57.0878C149.347 57.3497 150.138 57.6129 150.884 57.9821C151.215 58.1461 152.408 58.523 152.632 58.829C152.76 59.0044 152.806 59.1417 152.71 59.3678C152.541 59.7647 152.3 59.5546 151.887 59.4695C150.003 59.0803 148.135 58.5824 146.388 57.7614C145.9 58.8922 145.488 60.0471 145.076 61.2073C144.955 61.5473 144.84 62.3199 144.381 62.3749C143.821 62.4418 143.814 61.6925 143.851 61.2882C143.905 60.6979 144.211 60.0685 144.396 59.5096C144.548 59.0482 145.083 58.0876 145.017 57.6123C144.972 57.285 144.772 57.3079 144.417 57.1793C144.081 57.058 143.745 56.9372 143.409 56.8145C142.871 56.6176 142.335 56.4202 141.812 56.1867C141.524 56.0585 140.923 55.9088 140.715 55.6428C140.594 55.4886 140.46 54.933 140.612 54.7792C140.968 54.4189 143.338 55.3885 143.825 55.5209C144.148 55.6088 144.473 55.6759 144.786 55.791C144.905 55.8349 145.046 56.0127 145.174 56.0193C145.719 56.0469 145.762 55.6278 145.931 55.1783C146.324 54.1336 146.75 53.0678 147.338 52.1191Z" fill="black"/>
<path fill-rule="evenodd" clip-rule="evenodd" d="M11.4946 72.9037C11.204 72.1914 14.288 71.331 14.8605 71.0911C16.2578 70.5061 17.7549 70.1523 19.2017 69.7056C20.6244 69.2662 22.041 68.7932 23.4403 68.2848C23.873 68.1274 26.9893 66.6101 27.1523 66.832C27.6923 67.5661 21.1531 69.8722 20.5159 70.1016C17.557 71.167 14.5019 71.985 11.4946 72.9037Z" fill="black"/>
<path fill-rule="evenodd" clip-rule="evenodd" d="M144.138 17.2018C143.338 17.2098 142.185 17.4365 141.452 17.1121C142.347 17.142 143.242 17.172 144.138 17.2018Z" fill="black"/>
<path fill-rule="evenodd" clip-rule="evenodd" d="M31.9758 39.3407L30.1982 39.3343C30.7914 39.1968 31.3841 39.1137 31.9758 39.3407Z" fill="black"/>
<path fill-rule="evenodd" clip-rule="evenodd" d="M124.545 38.8659C124.964 38.8637 125.383 38.8615 125.799 38.8591C125.379 38.8615 124.962 38.8637 124.545 38.8659Z" fill="black"/>
<path fill-rule="evenodd" clip-rule="evenodd" d="M78.6497 132.367C78.2046 132.399 77.7594 132.431 77.3147 132.464C77.76 132.431 78.2048 132.399 78.6497 132.367Z" fill="black"/>
<path fill-rule="evenodd" clip-rule="evenodd" d="M81.1582 46.9157C80.7061 46.9523 80.2539 46.9892 79.8024 47.0258C80.2543 46.989 80.7063 46.9523 81.1582 46.9157Z" fill="black"/>
<path fill-rule="evenodd" clip-rule="evenodd" d="M127.941 38.7184C128.261 38.7178 128.581 38.7172 128.898 38.7166C128.577 38.7174 128.259 38.718 127.941 38.7184Z" fill="black"/>
<path fill-rule="evenodd" clip-rule="evenodd" d="M63.57 47.7906C63.1725 47.8264 62.7746 47.8622 62.3773 47.8981C62.7748 47.8622 63.1725 47.8264 63.57 47.7906Z" fill="black"/>
<path fill-rule="evenodd" clip-rule="evenodd" d="M81.1306 19.4108C80.7329 19.4132 80.3352 19.4156 79.9377 19.418C80.3342 19.2077 80.7321 19.262 81.1306 19.4108Z" fill="black"/>
<path fill-rule="evenodd" clip-rule="evenodd" d="M8.54713 88.1853C8.21633 88.1677 7.94679 88.3283 7.76016 88.0127C8.06554 87.7746 8.24176 88.049 8.54713 88.1853Z" fill="black"/>
<path fill-rule="evenodd" clip-rule="evenodd" d="M69.8998 61.6298L68.8673 61.5137L69.8998 61.6298Z" fill="black"/>
<path fill-rule="evenodd" clip-rule="evenodd" d="M76.8748 140.091C77.1028 140.096 77.3307 140.101 77.5562 140.106C77.3273 140.101 77.101 140.096 76.8748 140.091Z" fill="black"/>
<path fill-rule="evenodd" clip-rule="evenodd" d="M129.856 17.851C129.5 17.8829 129.145 17.9147 128.79 17.9466C129.145 17.9145 129.5 17.8829 129.856 17.851Z" fill="black"/>
<path fill-rule="evenodd" clip-rule="evenodd" d="M17.2172 125.672C16.8758 125.674 16.5345 125.675 16.1933 125.676C16.5347 125.675 16.876 125.674 17.2172 125.672Z" fill="black"/>
<path fill-rule="evenodd" clip-rule="evenodd" d="M76.848 47.2C76.4981 47.2345 76.1483 47.2687 75.7985 47.3032C76.1485 47.2687 76.4981 47.2345 76.848 47.2Z" fill="black"/>
<path fill-rule="evenodd" clip-rule="evenodd" d="M67.0871 47.7677C66.7429 47.7281 66.3989 47.6884 66.0549 47.6488C66.3959 47.7155 66.7748 47.4521 67.0871 47.7677Z" fill="black"/>
<path fill-rule="evenodd" clip-rule="evenodd" d="M98.2601 61.5841C98.4744 61.5599 98.7752 61.4848 98.996 61.5199C98.9672 61.646 98.3424 61.5837 98.2601 61.5841Z" fill="black"/>
<path fill-rule="evenodd" clip-rule="evenodd" d="M76.4264 88.5849C76.6573 88.5893 76.8884 88.5937 77.1168 88.5975C76.8852 88.5933 76.6559 88.5891 76.4264 88.5849Z" fill="black"/>
<path fill-rule="evenodd" clip-rule="evenodd" d="M55.5717 61.0867C55.2345 61.1194 54.8975 61.152 54.5603 61.1845C54.8977 61.1518 55.2345 61.1194 55.5717 61.0867Z" fill="black"/>
<path fill-rule="evenodd" clip-rule="evenodd" d="M17.8179 59.9375C18.0018 59.9425 18.1856 59.9475 18.367 59.9526C18.1824 59.9475 18.0002 59.9425 17.8179 59.9375Z" fill="black"/>
<path fill-rule="evenodd" clip-rule="evenodd" d="M67.5134 61.3407C67.2251 61.3349 66.9365 61.329 66.6484 61.3234C66.9367 61.329 67.2251 61.3349 67.5134 61.3407Z" fill="black"/>
<path fill-rule="evenodd" clip-rule="evenodd" d="M13.9926 59.1577C13.7011 59.1938 13.4095 59.2296 13.1183 59.2655C13.4101 59.2294 13.7013 59.1936 13.9926 59.1577Z" fill="black"/>
<path fill-rule="evenodd" clip-rule="evenodd" d="M53.9869 56.6809C54.167 56.6881 54.347 56.6953 54.5248 56.7031C54.3438 56.6963 54.1654 56.6887 53.9869 56.6809Z" fill="black"/>
<path fill-rule="evenodd" clip-rule="evenodd" d="M67.7235 86.9642C67.9063 86.9522 68.089 86.9404 68.2694 86.9282C68.086 86.94 67.9047 86.9522 67.7235 86.9642Z" fill="black"/>
<path fill-rule="evenodd" clip-rule="evenodd" d="M81.7091 63.2508C81.4151 63.2142 81.121 63.1775 80.8274 63.1409C81.1212 63.1775 81.4151 63.2142 81.7091 63.2508Z" fill="black"/>
<path fill-rule="evenodd" clip-rule="evenodd" d="M10.7576 108.65C10.9485 108.647 11.1393 108.645 11.3279 108.642C11.1365 108.644 10.9469 108.647 10.7576 108.65Z" fill="black"/>
<path fill-rule="evenodd" clip-rule="evenodd" d="M19.0028 125.414C18.7022 125.448 18.4016 125.483 18.1013 125.518C18.4018 125.483 18.7024 125.448 19.0028 125.414Z" fill="black"/>
<path fill-rule="evenodd" clip-rule="evenodd" d="M16.054 125.712C15.7498 125.924 15.4459 125.936 15.1415 125.713C15.4457 125.712 15.7498 125.712 16.054 125.712Z" fill="black"/>
<path fill-rule="evenodd" clip-rule="evenodd" d="M10.2869 125.966C9.99193 125.966 9.69717 125.967 9.4024 125.967C9.69737 125.967 9.99213 125.966 10.2869 125.966Z" fill="black"/>
<path fill-rule="evenodd" clip-rule="evenodd" d="M44.7814 25.448C44.7561 25.1863 44.7309 24.9248 44.7057 24.664C44.7309 24.9262 44.7561 25.1871 44.7814 25.448Z" fill="black"/>
<path fill-rule="evenodd" clip-rule="evenodd" d="M76.9924 19.6038C76.6961 19.6404 76.3997 19.6769 76.1035 19.7133C76.3999 19.6769 76.6963 19.6404 76.9924 19.6038Z" fill="black"/>
<path fill-rule="evenodd" clip-rule="evenodd" d="M78.0428 19.4652C77.7416 19.4989 77.4403 19.5327 77.1393 19.5665C77.4405 19.5327 77.7416 19.4989 78.0428 19.4652Z" fill="black"/>
<path fill-rule="evenodd" clip-rule="evenodd" d="M31.2653 54.3392C31.4507 54.3364 31.6361 54.3336 31.8189 54.3308C31.6327 54.3336 31.4491 54.3364 31.2653 54.3392Z" fill="black"/>
<path fill-rule="evenodd" clip-rule="evenodd" d="M58.0978 51.4406C59.0814 51.2784 60.0648 51.2244 61.048 51.44L58.0978 51.4406Z" fill="black"/>
<path fill-rule="evenodd" clip-rule="evenodd" d="M84.3275 40.3776C84.5322 39.843 84.583 39.6423 85.0828 39.3656C84.8748 39.8852 84.8421 40.1632 84.3275 40.3776Z" fill="black"/>
<path fill-rule="evenodd" clip-rule="evenodd" d="M108.311 93.2908C108.33 93.8467 108.35 94.4026 108.37 94.9579C108.35 94.4018 108.33 93.8463 108.311 93.2908Z" fill="black"/>
<path fill-rule="evenodd" clip-rule="evenodd" d="M84.7083 103.171C84.7239 103.634 84.7393 104.098 84.7547 104.561C84.7391 104.097 84.7237 103.634 84.7083 103.171Z" fill="black"/>
<path fill-rule="evenodd" clip-rule="evenodd" d="M30.189 88.3237C30.6384 88.3269 31.0879 88.3301 31.5373 88.3333C31.0877 88.3301 30.6384 88.3269 30.189 88.3237Z" fill="black"/>
<path fill-rule="evenodd" clip-rule="evenodd" d="M68.3897 64.5198C68.1188 64.5224 67.8483 64.5248 67.5801 64.5282C67.8517 64.5258 68.1206 64.5228 68.3897 64.5198Z" fill="black"/>
<path fill-rule="evenodd" clip-rule="evenodd" d="M67.5076 49.789C67.2849 49.7814 67.0621 49.7738 66.8418 49.767C67.0655 49.7748 67.2865 49.7818 67.5076 49.789Z" fill="black"/>
<path fill-rule="evenodd" clip-rule="evenodd" d="M35.6616 88.1836C36.0131 88.1493 36.3643 88.1149 36.7157 88.0804C36.3643 88.1149 36.0131 88.1493 35.6616 88.1836Z" fill="black"/>
<path fill-rule="evenodd" clip-rule="evenodd" d="M28.0051 88.3413C28.3493 88.3361 28.6935 88.3307 29.0375 88.3253C28.6935 88.3307 28.3493 88.3361 28.0051 88.3413Z" fill="black"/>
<path fill-rule="evenodd" clip-rule="evenodd" d="M31.68 88.3325C32.0364 88.3015 32.3929 88.2704 32.7495 88.2394C32.3931 88.2702 32.0364 88.3015 31.68 88.3325Z" fill="black"/>
<path fill-rule="evenodd" clip-rule="evenodd" d="M32.9798 88.8976C32.8026 88.8966 32.6254 88.8954 32.4506 88.8944C32.6286 88.8956 32.8042 88.8966 32.9798 88.8976Z" fill="black"/>
<path fill-rule="evenodd" clip-rule="evenodd" d="M108.155 80.9334C108.181 80.6721 108.208 80.411 108.234 80.1507C108.208 80.4122 108.181 80.6727 108.155 80.9334Z" fill="black"/>
<path fill-rule="evenodd" clip-rule="evenodd" d="M54.9352 54.5269C55.1586 54.5459 55.3823 54.5649 55.6062 54.5841C55.3565 54.5969 55.1066 54.6096 54.8571 54.6224C54.8585 54.5711 54.8845 54.5393 54.9352 54.5269Z" fill="black"/>
<path fill-rule="evenodd" clip-rule="evenodd" d="M112.371 98.4644C112.356 98.2265 112.342 97.9884 112.328 97.7519C112.342 97.9904 112.357 98.2275 112.371 98.4644Z" fill="black"/>
<path fill-rule="evenodd" clip-rule="evenodd" d="M58.9479 53.6191C58.7685 53.6227 58.5888 53.6261 58.4116 53.6295C58.592 53.6259 58.7699 53.6225 58.9479 53.6191Z" fill="black"/>
<path fill-rule="evenodd" clip-rule="evenodd" d="M124.647 83.6496C124.946 83.6846 125.245 83.7197 125.544 83.7545C125.245 83.7197 124.946 83.6846 124.647 83.6496Z" fill="black"/>
<path fill-rule="evenodd" clip-rule="evenodd" d="M62.5121 63.938C62.3279 63.9409 62.1439 63.9435 61.962 63.9467C62.1469 63.9441 62.3295 63.9411 62.5121 63.938Z" fill="black"/>
<path fill-rule="evenodd" clip-rule="evenodd" d="M51.8648 27.9291C52.058 28.0322 51.9577 28.4856 51.7693 28.4423C51.8011 28.2711 51.833 28.1001 51.8648 27.9291Z" fill="black"/>
<path fill-rule="evenodd" clip-rule="evenodd" d="M43.4295 25.5782C43.4107 25.1787 43.3921 24.7794 43.3735 24.3811C43.3921 24.781 43.4109 25.1795 43.4295 25.5782Z" fill="black"/>
<path fill-rule="evenodd" clip-rule="evenodd" d="M77.0463 138.543C77.3199 138.583 77.5932 138.623 77.8665 138.663C77.5928 138.623 77.3197 138.583 77.0463 138.543Z" fill="black"/>
<path fill-rule="evenodd" clip-rule="evenodd" d="M75.2387 35.6994C74.2746 35.8979 73.2843 36.0016 72.3428 36.2938C72.1079 36.3667 71.3369 36.8144 71.0556 36.6965C70.6281 36.5168 70.8443 36.0561 71.0244 35.8102C71.5061 35.1526 72.368 34.7841 73.1584 34.7923C73.9472 34.8007 75.0301 34.7719 75.2387 35.6994Z" fill="black"/>
<path fill-rule="evenodd" clip-rule="evenodd" d="M72.5599 37.4638C73.6216 38.2069 74.4326 38.573 74.5225 36.9027C75.6731 37.0595 75.1575 38.9126 74.2868 39.0524C73.3392 39.2044 72.7071 38.2578 72.5599 37.4638Z" fill="black"/>
</g>
</svg>
