<svg width="63" height="63" viewBox="0 0 63 63" fill="none" xmlns="http://www.w3.org/2000/svg">
<defs>
<linearGradient id="paint0_linear_5_10" x1="52.618" y1="-67.7466" x2="-33.8582" y2="-47.496" gradientUnits="userSpaceOnUse">
<stop stop-color="#74EBD5"/>
<stop offset="1" stop-color="#9FACE6"/>
</linearGradient>
</defs>
<circle cx="31.5" cy="31.5" r="31.5" fill="url(#paint0_linear_5_10)"/>
<path d="M30.9218 48.24C28.7138 48.24 26.6018 47.856 24.5858 47.088C22.6018 46.288 20.8418 45.136 19.3058 43.632C17.7698 42.096 16.5538 40.256 15.6578 38.112C14.7938 35.936 14.3618 33.456 14.3618 30.672C14.3618 28.272 14.8098 26.048 15.7058 24C16.6018 21.952 17.8338 20.16 19.4018 18.624C21.0018 17.056 22.8578 15.84 24.9698 14.976C27.0818 14.112 29.3698 13.68 31.8338 13.68C34.9058 13.68 37.6898 14.352 40.1858 15.696C42.6818 17.008 44.5378 18.816 45.7538 21.12L38.7938 26.448C38.1218 25.104 37.1138 24.032 35.7698 23.232C34.4258 22.4 33.0018 21.984 31.4978 21.984C30.3778 21.984 29.3538 22.208 28.4258 22.656C27.4978 23.104 26.6818 23.728 25.9778 24.528C25.3058 25.328 24.7778 26.288 24.3938 27.408C24.0418 28.496 23.8658 29.696 23.8658 31.008C23.8658 32.352 24.0578 33.568 24.4418 34.656C24.8258 35.744 25.3538 36.688 26.0258 37.488C26.7298 38.256 27.5618 38.864 28.5218 39.312C29.4818 39.728 30.5538 39.936 31.7378 39.936C33.2418 39.936 34.6818 39.568 36.0578 38.832C37.4338 38.064 38.6818 36.992 39.8018 35.616V44.736C37.2418 47.072 34.2818 48.24 30.9218 48.24ZM39.3218 36.576H33.0338V29.856H47.0498V48H39.3218V36.576Z" fill="white"/>
</svg>