<svg width="18" height="24" viewBox="0 0 18 24" fill="none" xmlns="http://www.w3.org/2000/svg">
<defs>
<clipPath id="clip0_24_227">
<rect width="18" height="24" fill="white"/>
</clipPath>
</defs>
<g clip-path="url(#clip0_24_227)">
<path d="M9 0C4.03725 0 0 4.0455 0 9.0165C0 16.4618 8.40075 23.6108 8.7585 23.9115C8.82534 23.9685 8.91014 24 8.99795 24.0005C9.08577 24.0011 9.17096 23.9706 9.2385 23.9145C9.59625 23.619 18 16.593 18 9.0165C18 4.0455 13.9628 0 9 0ZM9.0015 23.1285C7.62075 21.8947 0.75 15.4342 0.75 9.0165C0.75 4.458 4.45125 0.75 9 0.75C13.5487 0.75 17.25 4.458 17.25 9.0165C17.25 15.543 10.386 21.9112 9.0015 23.1285Z" fill="black"/>
<path d="M9 4.5C6.51825 4.5 4.5 6.51825 4.5 9C4.5 11.4818 6.51825 13.5 9 13.5C11.4818 13.5 13.5 11.4818 13.5 9C13.5 6.51825 11.4818 4.5 9 4.5ZM9 12.75C6.93225 12.75 5.25 11.0677 5.25 9C5.25 6.93225 6.93225 5.25 9 5.25C11.0677 5.25 12.75 6.93225 12.75 9C12.75 11.0677 11.0677 12.75 9 12.75Z" fill="black"/>
</g>
</svg>
