<svg width="132" height="188" viewBox="0 0 132 188" fill="none" xmlns="http://www.w3.org/2000/svg">
    <path fill-rule="evenodd" clip-rule="evenodd" d="M24.3307 137.074C24.3625 134.719 24.4302 132.363 24.5192 130.009C28.5362 129.647 32.5536 129.285 36.5706 128.923C37.5964 128.83 38.622 128.738 39.6476 128.646C40.7612 128.545 41.8744 128.445 42.9877 128.345C43.1035 128.334 43.2597 128.332 43.4337 128.329C43.9884 128.32 44.7216 128.307 44.8865 128.029C45.1276 127.622 45.0042 126.549 44.9109 125.736C44.8736 125.412 44.8413 125.129 44.8384 124.946C44.8224 123.932 44.8064 122.919 44.7903 121.905C44.7746 120.891 44.7585 119.877 44.7425 118.864L44.7422 118.847C44.6254 111.393 44.5085 103.938 44.3913 96.483C45.3533 96.5145 46.315 96.5432 47.2768 96.5701C47.9002 96.5877 48.5242 96.6066 49.1487 96.6255C52.714 96.7325 56.2899 96.8401 59.8518 96.7307C61.9508 96.6663 63.9397 96.1 65.9213 95.4318C66.9749 95.0767 68.0178 94.6899 69.0527 94.2831C69.1476 94.2459 69.2963 94.168 69.468 94.078C69.8854 93.8593 70.439 93.5691 70.6881 93.6172C71.1106 93.6992 71.7361 94.6048 72.1954 95.2696C72.3643 95.514 72.5106 95.7261 72.6162 95.8523C73.8628 97.3462 75.1095 98.8401 76.3562 100.334L76.4105 100.399C76.5685 100.588 76.7485 100.781 76.9321 100.977C77.3366 101.41 77.7591 101.862 78.0071 102.344C78.1956 102.711 78.3001 103.172 78.3994 103.612C78.4465 103.819 78.4922 104.022 78.5453 104.208C80.6021 111.397 82.6135 118.633 84.1116 125.963C84.434 127.541 84.7399 129.13 84.9194 130.731C84.9329 130.853 84.9499 130.984 84.9678 131.121C85.0655 131.872 85.1871 132.804 84.8954 133.451C84.5307 134.26 83.4064 134.626 82.598 134.888C82.545 134.906 82.4935 134.922 82.4436 134.939C80.8631 135.459 79.208 135.769 77.5706 136.047C73.6252 136.717 69.6304 137.105 65.6431 137.42C65.1892 137.456 64.7302 137.478 64.2705 137.5C63.4965 137.538 62.7199 137.576 61.9604 137.678C61.6395 137.722 61.55 137.693 61.5029 137.726C61.4652 137.752 61.4543 137.817 61.3734 137.989C61.1975 138.364 61.2244 139.02 61.2475 139.583C61.2578 139.833 61.2671 140.064 61.2578 140.245C61.2224 140.937 61.1869 141.63 61.1515 142.322C61.1161 143.014 61.0807 143.707 61.0452 144.399C60.8515 148.176 60.6581 151.954 60.4649 155.731C60.3995 157.008 60.3341 158.284 60.2687 159.56C60.1381 162.114 60.0072 164.667 59.8764 167.22C59.8402 167.926 59.8042 168.633 59.768 169.339C59.7297 170.084 59.6917 170.828 59.6537 171.573C59.6408 171.824 59.6447 172.099 59.6483 172.382C59.6563 172.971 59.6648 173.593 59.5242 174.101C59.4471 174.379 59.4699 174.48 59.4313 174.516C59.3912 174.553 59.2847 174.517 58.9291 174.535C57.8516 174.587 56.7479 174.517 55.653 174.448C55.1091 174.413 54.5679 174.379 54.0326 174.36C53.15 174.328 52.2674 174.297 51.3848 174.265C50.4378 174.231 49.4906 174.197 48.5436 174.163C48.4156 174.159 48.284 174.164 48.1552 174.17C47.7575 174.186 47.3856 174.201 47.2266 173.918C47.0456 173.596 47.0895 172.876 47.1247 172.301C47.1394 172.062 47.1526 171.848 47.1472 171.698L46.9949 167.439L46.5767 155.748C46.4852 153.186 46.3934 150.624 46.3018 148.061C46.2033 145.309 46.1045 142.556 46.0063 139.804C43.9729 140.213 41.9396 140.622 39.9062 141.031L39.9021 141.032C36.8956 141.637 33.8889 142.242 30.8822 142.847C30.5104 142.922 30.1196 143.023 29.7196 143.126C28.6355 143.405 27.4817 143.703 26.4419 143.554C25.0276 143.351 24.4429 142.747 24.3635 141.404C24.2872 140.116 24.3059 138.818 24.3245 137.527C24.3265 137.376 24.3286 137.225 24.3307 137.074ZM65.3589 114.26L64.8541 113.287L64.6346 114.361L62.497 124.816L62.3951 125.314L62.9027 125.281L70.2177 124.796L70.8098 124.757L70.5362 124.23L65.3589 114.26ZM63.3589 124.473L65.1753 115.589L69.5745 124.061L63.3589 124.473Z" fill="#FF5678"/>
    <path fill-rule="evenodd" clip-rule="evenodd" d="M126.115 29.643C125.965 30.8059 126.072 32.0738 124.759 32.3805C123.544 32.6644 122.211 32.5848 120.972 32.6841C119.58 32.796 118.192 32.9486 116.803 33.0864C115.052 33.26 115.302 32.5868 114.919 31.0911C114.569 29.7252 114.011 28.3621 113.546 27.0301C113.33 26.411 113.072 25.8413 112.778 25.2579C112.511 24.7296 112.638 24.0112 112.351 23.5672C111.37 22.0524 106.588 26.1946 106.144 25.3782C106.953 24.7482 108.354 24.0433 108.602 22.9655C108.894 21.6986 108.089 21.3203 107.077 21.7834C104.588 22.9238 101.715 23.815 99.0008 24.2305C99.8787 23.6438 107.819 19.0182 105.154 17.6462C104.554 17.337 103.752 17.919 103.21 18.1392C102.35 18.4889 101.452 18.7232 100.555 18.9523C99.6093 19.1936 98.6612 19.4258 97.7104 19.6453C97.0435 19.7993 95.8547 20.3462 95.2048 20.2112C94.5452 20.0741 95.714 19.6645 95.9051 19.5681C96.7396 19.1477 97.5607 18.696 98.375 18.2386C99.82 17.427 101.155 16.4868 102.254 15.232C103.083 14.2851 104.453 12.2174 103.875 10.9082C103.541 10.1493 102.808 9.44784 102.377 8.72886C101.874 7.88907 101.468 6.99396 101.031 6.11903C101.762 6.44051 102.583 6.5228 103.329 6.81132C104.075 7.10007 104.833 7.33371 105.609 7.54834C107.167 7.97883 108.72 8.05535 110.264 8.40451C112.011 8.79959 113.832 9.24138 115.607 9.46974C117.152 9.66827 118.542 10.0913 119.866 10.9339C122.571 12.6554 124.447 15.1283 125.396 18.1864C125.952 19.9778 126.087 21.847 126.152 23.711C126.221 25.6761 126.367 27.6864 126.115 29.643ZM110.937 29.7875C109.049 31.1643 106.847 32.2401 104.821 33.4112C103.661 34.081 102.476 34.7073 101.294 35.3352C100.454 35.7808 99.4342 36.601 98.5102 36.8296C97.9255 36.9742 97.9692 36.9853 97.5992 36.4523C97.2457 35.9434 96.9369 35.3955 96.6062 34.8713C95.9959 33.9049 95.3802 32.9421 94.7642 31.9794C93.3835 29.8214 92.0055 27.6637 90.5547 25.5514C89.0994 23.432 87.7035 21.2735 86.2936 19.1241C85.6383 18.1248 84.9869 17.1216 84.2918 16.1497C83.7606 15.4076 82.3994 14.2757 83.0459 13.402C83.6463 12.5904 85.0143 11.9162 85.8232 11.3018C86.8121 10.5518 87.8066 9.80951 88.7927 9.05563C90.9124 7.43503 92.9765 5.74391 95.0944 4.12113C96.8917 7.27356 99.0062 10.2289 101.139 13.1597C99.2102 14.3905 97.262 15.5604 95.2294 16.6141C93.7285 17.3923 91.4319 18.4439 90.4839 19.9201C89.5498 21.3738 90.4671 23.0508 92.1322 23.0774C93.1278 23.0935 94.1203 22.8297 95.0965 22.6792C95.8009 22.5703 97.0877 22.0625 97.7231 22.4204C96.5811 23.1491 92.4379 25.2724 94.6714 27.1343C96.2677 28.4651 98.9664 26.523 100.691 26.9228C100.165 27.9316 99.6188 29.5406 101.078 30.089C102.292 30.5457 103.881 29.6947 104.974 29.2434C105.763 28.9173 106.548 28.5801 107.324 28.2243C107.942 27.9411 108.681 27.3673 109.341 27.2453C110.11 27.1025 111.677 29.2476 110.937 29.7875ZM75.8297 104.134C76.9102 103.937 77.4651 103.49 77.8054 104.802C78.1103 105.977 78.4123 107.109 78.8051 108.262C77.1173 108.408 75.6285 109.214 74.3976 110.348C73.5212 111.155 71.778 113.083 72.2104 114.436C73.26 117.723 78.5626 110.349 79.1928 109.561C79.9642 110.688 80.2479 112.164 80.6311 113.454C80.9042 114.371 81.9168 116.13 80.5781 116.353C78.6986 116.666 75.1726 117.366 75.3955 120.028C75.6588 123.17 79.6557 123.152 81.8977 123.293C83.162 123.373 83.1679 124.386 83.3479 125.519C83.4283 126.026 83.6799 126.711 83.2494 127.083C82.8672 127.412 81.6965 127.421 81.1992 127.528C79.749 127.839 78.2996 128.156 76.8496 128.468C75.2034 128.821 74.333 128.326 72.7941 127.875C72.2244 127.708 71.6521 127.779 71.6102 127.141C71.5843 126.749 71.9676 126.144 72.093 125.757C72.5895 124.225 73.0126 122.648 73.1551 121.04C73.363 118.703 73.1033 115.198 70.2257 114.742C68.8564 114.525 68.5932 114.455 67.9751 113.17C67.3066 111.78 66.2451 110.494 66.5019 108.893C66.6873 107.733 66.3741 105.538 67.1145 104.576C67.4566 104.132 68.1238 103.866 68.5792 103.54C69.1595 103.124 69.7183 102.678 70.259 102.212C70.7139 101.82 71.2683 101.054 71.784 100.771C72.4142 100.425 72.4333 100.661 72.8859 101.201C73.5538 101.999 74.6156 104.355 75.8297 104.134ZM78.8838 109.326C78.5093 110.082 77.6438 110.785 77.0927 111.416C76.5383 112.05 76.0136 112.721 75.395 113.296C74.7144 113.929 72.297 115.458 72.8295 113.4C73.244 111.799 74.7948 110.503 76.16 109.704C76.4242 109.549 79.5173 108.048 78.8838 109.326ZM81.5284 116.948C81.7682 118.019 81.8972 119.123 82.1017 120.203C82.2065 120.754 82.7868 122.087 82.5501 122.618C82.1496 123.517 78.5427 122.453 77.7951 122.143C76.0151 121.406 75.1982 119.515 76.8395 118.168C77.462 117.658 81.2887 115.876 81.5284 116.948ZM83.893 129.816C84.094 130.839 84.6815 131.787 83.7099 132.561C82.9034 133.203 81.5817 133.641 80.5877 133.869C79.2326 134.181 78.7971 133.422 78.08 132.445C77.3089 131.395 76.4879 130.381 75.6363 129.395C78.311 128.796 80.9854 128.197 83.6606 127.598C83.6588 128.344 83.7493 129.086 83.893 129.816ZM77.484 134.563C76.0891 134.491 74.5885 134.911 73.1737 135.021C71.407 135.16 69.6454 135.36 67.8771 135.479C68.3302 134.033 69.1437 132.744 69.7804 131.379C70.4189 130.009 70.8673 129.861 72.3361 129.755C73.6973 129.657 74.6575 129.189 75.6619 130.343C76.7071 131.544 77.6536 132.85 78.6078 134.123C78.2833 134.34 77.8954 134.585 77.484 134.563ZM67.5133 134.858C67.1691 135.109 66.1078 134.396 65.7501 134.258C65.0545 133.989 64.9001 133.903 64.5371 133.224C64.2252 132.641 63.7287 131.978 63.6312 131.312C63.5022 130.434 63.8906 129.278 64.032 128.405C64.4088 129.314 65.6449 129.419 66.4804 129.568C67.1122 129.68 68.9839 129.501 69.4602 129.951C69.9865 130.448 69.0178 131.834 68.7651 132.356C68.4639 132.98 68.0917 134.437 67.5133 134.858ZM66.8388 135.579C66.4248 135.646 65.2327 136.058 65.2565 135.301C65.2834 134.437 66.9234 135.369 66.8388 135.579ZM64.7385 135.533C64.6627 136.261 63.0972 136.201 63.0612 135.561C63.0002 134.479 64.8588 134.371 64.7385 135.533ZM62.948 115.911C62.5479 117.051 60.1096 117.459 59.1732 117.81C58.3181 118.131 55.7636 119.61 54.8818 119.074C57.8666 117.022 60.925 115.012 63.4541 112.393C63.5575 113.04 63.3998 113.58 63.2089 114.193C63.0369 114.746 63.1254 115.406 62.948 115.911ZM62.2058 120.069C61.7763 122.861 61.3548 125.691 60.7737 128.456C59.6661 128.117 58.7528 127.431 57.5891 127.192C56.5273 126.974 55.4306 126.969 54.36 127.128C52.0784 127.468 50.0445 128.596 48.0541 129.696C47.8702 127.781 47.4896 125.731 47.5346 123.809C47.5718 122.213 50.3039 121.74 51.5431 121.08C52.2928 120.681 52.9705 120.12 53.8247 119.981C54.7037 119.838 55.5519 119.842 56.42 119.574C58.4727 118.941 60.4044 117.937 62.4155 117.189C62.58 118.147 62.3514 119.124 62.2058 120.069ZM60.2878 131.888C60.1965 132.523 60.3116 133.656 59.8278 134.139C59.3724 134.595 58.3993 134.61 57.7985 134.734C55.9685 135.11 54.1402 135.49 52.3129 135.879C51.4952 136.052 50.6776 136.218 49.8565 136.374C49.465 136.448 48.4828 136.823 48.1531 136.511C47.8402 136.216 48.0732 135.27 48.09 134.874C48.1239 134.082 48.1687 133.287 48.1187 132.495C48.0236 130.975 48.1081 130.393 49.5229 129.606C51.0259 128.771 52.578 128.199 54.2697 127.889C55.9824 127.575 57.6142 127.747 59.2446 128.404C59.6982 128.587 60.3786 128.813 60.5898 129.302C60.8769 129.967 60.3845 131.213 60.2878 131.888ZM58.2276 156.389C57.5568 156.81 56.097 156.738 55.3264 156.823C54.0823 156.961 52.8301 156.882 51.594 156.69C50.6636 156.546 49.2749 156.346 48.562 155.692C47.5485 154.764 48.7179 154.722 49.4932 154.787C51.7476 154.977 54.0303 154.844 56.2824 154.681C56.721 154.649 57.8994 154.265 58.3222 154.445C58.8629 154.675 58.6972 156.094 58.2276 156.389ZM56.9493 171.388C52.7492 170.98 50.3142 167.502 48.7911 163.947C47.9734 162.038 48.2682 160.035 48.1875 158.016C48.173 157.648 47.9413 156.733 48.3205 156.457C48.6765 156.198 50.1174 156.999 50.5071 157.094C52.5048 157.584 54.7143 157.631 56.7163 157.155C57.5837 156.949 58.0693 156.566 58.345 157.426C58.5668 158.118 58.2027 159.393 58.1629 160.119C58.0944 161.374 58.2909 171.519 56.9493 171.388ZM48.5589 171.392C48.5428 170.783 48.2356 164.627 48.5338 164.608C49.4198 166.52 50.33 168.229 51.9431 169.636C52.7673 170.354 53.6938 171.002 54.7243 171.388C55.1115 171.532 57.3054 171.642 57.413 172.123C57.601 172.964 56.1034 172.624 55.6592 172.556C55.3026 172.501 54.9819 172.349 54.6323 172.286C53.9659 172.165 53.3365 172.327 52.6675 172.341C51.6509 172.361 50.6525 172.255 49.6354 172.343C48.7058 172.423 48.5837 172.316 48.5589 171.392ZM49.179 143.779C52.7745 142.616 55.7794 144.817 57.677 147.698C58.759 149.341 59.001 150.49 58.8117 152.435C58.744 153.131 58.8691 153.603 58.2289 153.886C57.5953 154.167 56.1557 153.959 55.4699 153.991C53.4981 154.083 51.5338 154.206 49.562 154.089C48.2811 154.013 48.1004 153.796 48.1224 152.553C48.149 151.056 48.0244 149.566 47.9398 148.067C47.848 146.445 47.2912 144.389 49.179 143.779ZM48.0024 141.623C48.0045 140.523 47.9385 139.395 48.0057 138.297C48.0727 137.208 48.5359 137.262 49.5635 137.077C51.789 136.674 54.0114 136.224 56.2069 135.679C57.0753 135.463 58.0564 135.049 58.9609 135.045C59.9102 135.042 59.8598 135.53 59.7965 136.371C59.6558 138.232 59.3147 140.066 59.211 141.918C59.099 143.917 59.0403 145.941 59.0494 147.942C59.0525 148.618 59.2167 149.118 58.6408 148.486C58.0644 147.853 57.7823 146.844 57.2674 146.132C56.2131 144.675 54.646 143.503 52.9072 143.01C51.9457 142.737 50.9344 142.689 49.954 142.887C49.6566 142.947 48.1668 143.658 47.9773 143.517C47.849 143.422 48.0021 141.667 48.0024 141.623ZM61.1562 179.736C62.5823 180.757 64.1616 181.583 65.7602 182.299C66.6599 182.702 70.2208 183.55 70.3343 184.457C70.3951 184.941 69.8049 185.484 69.4183 185.541C68.928 185.613 68.1202 185.293 67.6208 185.232C65.8047 185.012 63.9925 185.011 62.2203 184.505C58.6824 183.495 55.0145 183.211 51.4399 182.331C50.5894 182.122 49.737 181.925 48.8821 181.735C48.0701 181.555 47.7063 181.586 47.6776 180.718C47.6145 178.814 48.1606 176.863 48.165 174.935C51.0569 175.265 53.9586 175.26 56.8583 175.532C58.1008 175.648 58.0719 175.884 58.6165 176.969C59.1818 178.096 60.1432 179.011 61.1562 179.736ZM47.0562 117.861C47.0197 117.155 46.991 116.449 46.9274 115.746C46.8845 115.273 46.4529 113.953 46.6962 113.585C46.9853 113.148 47.2765 113.415 47.7937 113.402C48.4754 113.386 49.0463 113.112 49.6085 112.754C50.6732 112.075 51.4647 111.181 52.1557 110.137C52.7637 109.219 52.6504 107.965 52.6432 106.865C52.6238 104.022 52.8309 101.249 52.6574 98.3938C52.5777 97.0822 53.6975 97.8867 54.6015 98.0566C56.0804 98.3343 57.6879 98.1419 59.1908 98.1455C59.135 98.4952 56.0616 99.363 55.565 99.6935C54.2938 100.539 53.5526 101.891 53.6685 103.433C53.9017 106.535 57.3183 107.054 59.8146 107.06C57.7435 108.891 55.7093 110.637 54.0815 112.897C52.8813 114.562 50.7673 117.847 52.7295 119.69C50.9951 120.675 49.276 121.771 47.3143 122.245C47.2263 120.784 47.1322 119.323 47.0562 117.861ZM46.2687 61.2334C46.975 61.687 47.2718 61.0457 47.8092 60.7136C48.5661 60.2456 48.8167 60.2916 48.9126 59.2466C49.0903 57.3084 48.2749 55.5539 47.2512 53.9679C46.7859 53.2469 46.3218 52.3884 45.6649 51.8249C45.0663 51.3111 44.4609 51.4879 43.9062 50.9568C43.6885 50.7481 43.735 50.4533 43.375 50.4616C43.1379 50.4673 42.5618 51.2017 42.366 51.3638C41.7474 51.8758 40.9908 52.2655 40.1803 51.8432C39.0001 51.2288 39.379 48.9982 40.2957 48.2756C41.0016 47.7191 41.8359 47.8053 42.6393 47.7153C43.2419 47.6483 43.3673 47.6744 43.1196 46.9847C42.9458 46.5019 42.5452 46.1252 42.3474 45.6527C41.9672 44.7458 42.05 43.6437 41.8858 42.6837C41.7384 41.8237 41.3934 40.8935 41.4058 40.0199C41.4224 38.9077 41.7857 38.6189 42.7492 38.307C43.6828 38.005 44.456 37.3391 45.2512 36.7797C46.1511 36.1464 47.1369 35.7283 48.0619 35.15C48.6897 34.7572 49.095 33.9633 49.7854 34.3342C50.6059 34.7748 51.4735 36.0505 52.1712 36.7021C51.1503 37.3502 50.9129 37.6336 51.0536 38.9023C51.1826 40.0652 51.4195 41.1017 52.3085 41.9118C52.6501 42.2232 53.2871 42.4725 53.5519 42.8314C53.8606 43.2496 53.66 42.8811 53.6209 43.353C53.6002 43.6077 53.3988 43.7742 53.4425 44.0685C53.6385 45.3755 55.1399 44.6041 55.7587 44.15C57.9695 42.5278 53.8415 41.2395 52.8612 40.6486C52.1841 40.24 51.8493 38.9369 52.9219 39.2832C53.6357 39.5133 55.2475 41.4658 55.4112 39.6861C57.1805 40.714 58.2726 42.8976 59.7561 44.2783C60.8259 45.2741 62.2632 46.3786 61.414 47.9687C60.3318 49.9958 58.1859 50.9159 56.2268 51.7905C54.3266 52.6387 54.7212 55.0392 55.7368 56.5086C56.324 57.3578 57.0934 57.8556 58.0191 58.2683C58.9646 58.6901 59.1611 59.1856 59.3674 60.1639C59.5968 61.2492 59.3532 61.6865 58.4135 62.2471C57.496 62.7948 56.5369 63.3252 55.5573 63.7537C53.4391 64.6805 51.2418 64.7392 48.9889 65.055C48.1994 65.1656 47.4423 65.3963 47.0114 64.6135C46.5271 63.7325 46.4914 62.2156 46.2687 61.2334ZM45.9282 57.0178C45.398 56.7382 44.1183 57.6663 43.448 57.7072C42.3637 57.7729 41.652 57.748 40.6895 58.3232C38.87 59.4103 37.3603 60.8098 35.9013 62.3278C34.2582 64.0374 32.6244 65.756 30.9867 67.4708C30.2443 68.2473 29.4982 69.02 28.7444 69.7849C28.1502 70.388 27.5691 71.2359 26.8336 71.6662C26.8719 71.1553 27.1853 70.7935 27.2965 70.3197C27.3612 70.0428 27.2482 69.8077 27.2901 69.5424C27.3038 69.4563 27.535 69.1571 27.5701 69.0588C27.664 68.7997 27.7788 68.5437 27.8903 68.2745C27.9942 68.0234 27.979 67.763 28.0845 67.5008C28.1928 67.2303 28.49 67.0513 28.5929 66.785C28.8949 66.0053 28.395 65.6438 27.5957 65.6621C27.9084 64.1023 28.0452 63.3392 29.6761 62.7891C31.2344 62.2637 32.7568 61.6735 34.1881 60.8522C35.4591 60.1233 36.5194 59.0723 37.7413 58.2598C38.8351 57.5321 40.1969 56.7698 40.1855 55.2777C40.8056 55.6984 41.387 56.0524 42.0963 55.6335C42.6952 55.28 42.7746 54.9953 43.4669 54.9286C44.0319 54.8745 44.382 54.86 44.8863 55.1085C45.4798 55.4008 45.5607 55.604 45.9065 54.7437C46.2993 55.0742 47.292 56.4512 47.2589 56.9963C47.2408 57.2965 47.1953 57.432 46.8232 57.5112C46.2956 57.6234 46.3161 57.2221 45.9282 57.0178ZM43.456 138.516C43.1979 138.911 42.1102 138.838 41.6903 138.833C40.41 138.816 39.9623 137.742 39.4007 136.704C38.515 135.066 37.1915 131.666 38.6443 129.948C39.7912 128.592 42.0247 130.301 42.8072 131.325C43.4826 132.209 43.282 133.536 43.3448 134.598C43.3978 135.493 43.9657 137.736 43.456 138.516ZM39.9582 139.109C39.4462 139.621 37.785 139.512 37.1067 139.622C35.8962 139.818 34.6924 140.054 33.5178 140.411C32.6435 140.677 31.7793 141.394 31.5489 140.175C31.3552 139.15 31.4517 137.921 31.47 136.887C31.4899 135.771 31.6068 134.669 31.7038 133.559C31.7695 132.808 31.605 131.426 32.2184 130.849C32.7467 130.352 34.0317 130.304 34.7177 130.14C35.8444 129.869 37.0216 129.515 38.1925 129.636C37.5093 131.49 37.4514 133.435 38.184 135.283C38.3929 135.81 40.2742 138.793 39.9582 139.109ZM31.3485 131.721C31.063 134.51 30.776 137.318 31.0508 140.121C31.0674 140.288 31.2673 141.054 31.1804 141.174C31.0907 141.298 30.3795 141.363 30.2182 141.401C29.5771 141.553 28.9368 141.714 28.2916 141.849C27.0359 142.111 26.8719 141.318 26.6255 140.154C26.0977 137.66 27.1209 134.957 27.7411 132.562C28.0431 131.396 28.2668 131.261 29.4137 131.164C30.2117 131.097 31.4698 130.536 31.3485 131.721ZM26.4993 142.128C26.0193 142.565 25.5396 140.505 25.4972 140.295C25.3296 139.462 25.423 138.616 25.4253 137.77C25.4295 136.448 25.3283 135.132 25.3263 133.816C25.3252 133.104 24.7918 131.649 25.6343 131.272C25.8815 131.161 26.8634 131.207 27.086 131.353C27.5489 131.655 27.3666 131.851 27.2293 132.377C26.9223 133.557 26.6568 134.742 26.3894 135.932C26.1272 137.099 25.8683 138.221 25.9932 139.426C26.0343 139.825 26.8049 141.85 26.4993 142.128ZM41.8041 129.131C42.974 128.801 43.0365 129.697 43.0345 130.555C42.8563 130.418 41.1938 129.303 41.8041 129.131ZM26.1556 66.1625C25.8688 66.635 24.0532 66.764 23.5345 66.8884C22.5138 67.1328 21.4926 67.3756 20.4745 67.6303C18.5673 68.1072 16.707 68.6451 14.7517 68.8946C15.8254 67.1757 16.1595 65.6914 15.9596 63.546C15.7078 60.8375 15.3874 58.1566 14.7639 55.5055C14.1492 52.8911 13.4375 50.2943 12.752 47.6974C12.4153 46.4215 12.0512 45.1702 11.6033 43.9286C11.2444 42.9338 10.6835 41.6812 11.293 40.6613C12.8394 41.7895 14.0799 43.0052 14.962 44.7192C15.9069 46.5565 16.7321 48.4427 17.8288 50.2006C18.3302 51.0044 18.9159 51.7372 19.4523 52.5151C19.7714 52.978 20.0038 53.6459 20.4104 54.0364C20.8789 54.4864 21.3785 54.6987 21.6464 53.9392C21.9338 53.1241 21.017 51.5115 20.7465 50.746C20.0931 48.8983 19.4453 47.0543 18.9413 45.159C18.5337 43.6268 17.8598 41.7745 18.0982 40.158C18.3343 38.5576 19.4202 39.7032 19.9697 40.4471C21.1024 41.9811 21.7807 43.7691 22.5249 45.5081C23.2089 47.1058 24.0067 48.6291 24.7636 50.1898C25.0268 50.7328 25.3739 52.1357 26.0635 52.2971C27.0661 52.5321 26.9813 51.1202 26.8854 50.5474C26.25 46.7494 24.5914 43.113 24.2472 39.2493C24.2306 39.0647 23.9909 37.6292 24.1838 37.5092C24.5575 37.2767 25.0617 38.7332 25.2228 39.09C26.0617 40.946 26.6456 42.9025 27.1817 44.8629C27.6376 46.5304 28.0498 48.2102 28.5613 49.8619C28.8424 50.7696 29.1646 51.6622 29.4825 52.5578C29.7698 53.369 30.0614 54.755 30.8109 55.2896C31.8742 56.0478 35.6789 54.2451 36.0645 55.8567C36.3389 57.0023 32.8109 57.9249 32.0594 58.2727C31.0702 58.7307 30.1 59.2321 29.1103 59.6906C28.3612 60.0374 27.2844 60.1796 26.7424 60.8321C26.1683 61.5233 26.0762 62.4941 26.0591 63.3516C26.046 64.0007 26.4957 65.6024 26.1556 66.1625ZM23.7509 78.6719C23.7007 79.0319 23.4145 79.5087 23.2857 79.8513C23.0237 80.5493 22.8008 81.3833 22.4362 82.0355C22.1228 82.5971 21.6599 83.0993 21.3568 83.6693C21.0695 84.2103 21.0312 84.834 20.6956 85.3755C20.3113 85.9946 19.6765 86.4396 19.295 87.0546C19.107 87.3582 18.9128 87.7047 18.6472 88.0277C17.7065 89.1725 16.7724 90.2524 16.0158 91.4786C15.8223 91.7926 14.8772 93.1629 14.5012 93.2371C13.7148 93.3915 14.6299 92.2738 14.7838 92.0426C15.8978 90.3708 16.8872 88.6105 17.9625 86.9126C19.0041 85.2687 20.07 83.6375 21.0724 81.9687C21.89 80.6083 22.4553 78.6551 23.784 77.6967C23.7889 78.0226 23.7783 78.3476 23.7509 78.6719ZM60.0773 63.3063C60.7243 65.9668 61.4983 68.5447 62.2278 71.1814C62.9048 73.6277 63.8055 76.2457 64.0863 78.7678C64.3641 81.2661 65.0028 83.7939 65.8619 86.1653C66.2588 87.2625 66.6674 88.3638 67.0985 89.4484C67.3351 90.0442 67.5999 90.6266 67.8688 91.2084C68.0775 91.6604 68.6288 92.3925 68.65 92.8714C68.6669 93.2552 68.8 93.1019 68.4214 93.3902C68.0294 93.6886 67.3503 93.5803 66.8939 93.6328C65.7031 93.7706 64.5417 94.2185 63.3809 94.5086C61.1419 95.0682 58.4732 95.5125 56.179 95.123C55.2139 94.9591 54.2115 94.8171 53.2573 94.6038C52.083 94.341 51.8418 93.8551 51.6008 92.7013C51.0737 90.1782 50.6199 87.6618 50.1847 85.1221C49.6672 82.1009 49.1071 79.0833 48.7078 76.0435C48.3047 72.9683 48.0148 69.8899 47.3828 66.8481C49.9323 67.2745 52.3331 67.756 54.8898 67.0575C57.1541 66.439 58.7887 65.2298 60.0773 63.3063ZM70.0568 96.243C70.6268 97.4176 69.2531 98.4737 68.5875 99.3785C67.7095 100.571 66.8895 101.817 65.8683 102.896C65.5619 101.67 65.2932 100.291 64.4758 99.2839C63.4318 97.9984 62.2133 98.5236 60.9345 97.9154C62.2756 97.2629 63.9883 97.512 65.4111 96.9301C66.8145 96.3563 68.2316 95.9058 69.5375 95.1603C69.7111 95.521 69.8823 95.8828 70.0568 96.243ZM65.0827 123.65C64.2255 123.697 64.799 121.889 64.8546 121.44C65.0077 120.205 65.1623 118.971 65.2966 117.734C66.0038 119.599 66.7108 121.464 67.4178 123.329C66.6407 123.44 65.8686 123.606 65.0827 123.65ZM63.6883 132.59C63.8052 132.85 64.3506 133.716 63.9201 133.876C63.3299 134.095 63.2591 132.66 63.6883 132.59ZM62.6656 112.498C59.9348 114.678 57.2229 116.864 54.2682 118.741C53.6209 119.153 52.969 119.325 52.5397 118.509C52.2028 117.868 52.5589 117.145 52.7753 116.518C53.3269 114.917 54.2878 113.526 55.3527 112.224C57.4797 109.622 60.0114 107.401 63.2415 106.375C63.7701 106.207 64.5859 105.701 64.7708 106.4C64.88 106.811 64.4186 107.839 64.325 108.224C63.9392 109.818 64.0235 111.415 62.6656 112.498ZM70.5264 128.399C70.5867 130.25 65.5257 128.757 64.895 128.426C65.5567 128.204 70.4993 127.567 70.5264 128.399ZM72.4056 128.41C72.7064 128.491 73.8595 128.592 73.4289 128.986C73.0434 129.339 71.2973 129.198 70.8344 129.241C71.1455 128.22 71.3816 128.138 72.4056 128.41ZM71.4682 125.93C71.355 126.342 71.3089 126.971 70.9399 127.253C70.4799 127.605 69.5026 127.391 68.9821 127.394C68.0979 127.399 67.2146 127.444 66.3348 127.532C65.9981 127.565 64.6346 127.976 64.3188 127.696C64.0871 127.49 64.1735 126.524 64.3423 126.306C64.6889 125.86 65.4869 126.015 65.987 125.997C67.8171 125.932 69.6371 125.926 71.4682 125.93ZM70.2932 119.087C70.0351 118.703 69.9888 118.708 69.8786 118.128C69.7607 117.507 69.4613 116.976 69.2852 116.377C68.8975 115.057 70.1357 115.174 71.0441 115.658C73.4002 116.913 72.8316 121.3 72.2489 123.353C71.4018 122.73 71.0891 122.448 70.7977 121.443C70.687 121.061 70.5626 120.686 70.4475 120.307C70.3627 120.027 70.4217 119.279 70.2932 119.087ZM70.4972 97.7395C71.1551 97.6601 71.7568 99.7012 71.5691 100.143C71.1843 101.046 69.7147 101.854 68.966 102.43C68.4677 102.814 67.9728 103.254 67.4401 103.589C66.9456 103.9 66.6612 103.726 66.2011 103.875C65.5358 104.09 65.3744 104.794 64.6935 105.097C63.7352 105.523 62.5735 105.642 61.5728 106.027C60.3584 106.493 59.2451 106.506 57.9718 106.285C56.1407 105.967 53.9941 105.058 54.1593 102.833C54.4502 98.9071 62.2469 96.8955 64.3734 100.224C64.9268 101.091 64.9182 102.101 65.2774 103.031C65.6666 104.039 66.0439 103.643 66.6294 102.901C67.3951 101.93 68.1065 100.908 68.8422 99.9138C69.0804 99.5926 70.0224 97.7975 70.4972 97.7395ZM22.7155 135.965C22.678 136.632 22.7181 137.31 22.4859 137.947C22.2518 138.589 21.7776 139.109 21.5045 139.733C20.9506 140.998 20.9547 142.53 20.9769 143.885C21.0284 147.04 21.7755 150.104 22.1706 153.221C20.8554 153.218 19.4957 153.233 18.2211 152.857C17.0825 152.521 16.9007 151.689 16.5787 150.64C15.6744 147.695 14.698 144.763 14.406 141.679C14.2671 140.209 14.2087 138.727 14.1422 137.252C14.0843 135.959 14.3747 135.395 15.5423 134.754C18.0804 133.362 20.7114 132.203 23.2234 130.745C22.9666 132.475 22.8132 134.219 22.7155 135.965ZM131.066 32.5987C130.448 32.4852 129.825 32.4143 129.201 32.3399C128.876 32.3011 127.862 32.3551 127.618 32.1431C127.328 31.8907 127.83 29.9822 127.856 29.5726C128.013 27.11 127.83 24.5711 127.604 22.1178C127.196 17.6763 125.799 13.5616 122.576 10.3634C120.972 8.77145 119.169 7.50842 116.978 6.8989C115.702 6.54375 114.387 6.35437 113.108 6.01003C112.076 5.73188 111.113 5.41352 110.041 5.30331C107.903 5.0834 105.949 4.27562 103.862 3.80831C102.327 3.46448 99.8585 2.64899 98.8635 4.38221C98.0802 3.46349 97.2922 2.77364 96.3041 2.08833C95.3579 1.43191 95.2033 0.776208 94.0445 1.53418C91.7929 3.00705 89.6843 4.80378 87.5814 6.47948C85.6174 8.04451 83.7169 9.68342 81.6585 11.1226C79.5592 12.5906 79.9575 15.0818 80.9445 17.1471C82.802 21.0345 85.6668 24.3578 88.1746 27.6898C89.7453 29.7772 91.3212 31.8674 92.8857 33.9589C94.3815 35.9579 95.6752 38.2716 97.4228 40.0675C98.525 41.1997 99.8402 39.7192 100.834 39.0352C102.069 38.1855 103.282 37.3042 104.517 36.457C107.091 34.6923 109.845 33.0394 112.561 31.5033C112.759 32.0634 112.956 32.6236 113.154 33.1839C112.557 33.2287 111.751 33.0952 111.448 33.7368C111.014 34.653 112.078 34.7733 112.265 35.2987C112.432 35.7678 111.748 37.007 111.546 37.4298C111.091 38.3825 110.457 39.2038 109.757 39.9879C106.99 43.0913 103.489 45.3111 99.9366 47.4269C96.135 49.6907 92.0606 51.0729 87.8987 52.5316C85.7823 53.2733 83.5858 53.618 81.402 54.0928C79.2978 54.5505 77.1951 55.1517 75.0449 55.3245C70.6456 55.6775 65.9772 55.942 61.631 54.9932C61.1551 54.8895 60.6516 54.6645 60.1678 54.6219C59.7797 54.5875 59.4924 54.7501 59.1262 54.7711C58.3395 54.8161 57.8888 54.1127 57.264 54.7662C56.9514 55.093 56.946 55.6418 56.5102 55.0317C55.956 54.2557 57.3726 54.1057 57.8976 53.8846C59.6648 53.1401 61.0856 51.6415 62.2087 50.1264C63.3307 48.6126 63.4921 46.9958 62.8089 45.2234C62.1256 43.4518 60.5723 42.2509 59.406 40.812C58.842 40.1154 58.3227 39.3784 57.7034 38.728C57.3726 38.3807 56.8397 38.0481 56.819 37.6977C56.7949 37.2904 57.0388 37.0882 56.8929 36.5933C56.8552 36.4645 56.6936 36.3913 56.6592 36.2499C56.6046 36.0244 56.6889 35.8309 56.6605 35.6111C56.595 35.1074 56.3975 34.7908 56.1177 34.3781C55.9436 34.12 55.6887 33.6036 55.4489 33.4105C55.0287 33.0717 54.4557 33.2098 54.0285 32.8664C53.3525 32.3233 53.1148 31.179 52.5167 30.5196C51.675 29.5918 51.4952 30.5292 50.6033 30.2336C49.8407 29.9804 49.8495 28.8328 49.2333 28.4446C48.3652 27.898 47.6341 28.9039 46.8633 29.1278C45.849 29.4226 46.2387 28.2783 45.3347 28.1741C44.5186 28.08 43.3877 29.7358 42.9807 30.3238C42.5659 29.8405 42.1123 29.0169 41.366 29.312C40.5827 29.6218 40.4433 31.0637 39.8708 31.578C39.6712 31.757 39.7133 31.8889 39.4679 31.9714C39.1509 32.0774 38.7286 31.6174 38.3187 31.7575C37.492 32.0407 37.5928 33.1438 37.5913 33.8586C36.6158 33.7161 35.9355 33.6435 35.6089 34.6947C35.2892 35.7236 35.168 35.2695 34.1395 35.6039C33.2531 35.8917 33.1289 36.7337 32.9826 37.5571C32.8921 38.0691 32.9758 38.2783 33.1137 38.7451C33.2874 39.3331 33.2874 39.3259 33.004 39.887C32.5104 40.8666 32.4809 41.9454 32.402 43.0233C32.3182 44.1733 32.117 45.2203 32.4439 46.3437C32.6459 47.0388 32.6614 47.9847 33.3423 48.3739C33.6122 48.5283 34.071 48.4437 34.3009 48.5968C34.7395 48.889 34.606 49.3336 34.8982 49.7602C35.117 50.0796 35.4703 50.1104 35.7154 50.3692C35.982 50.6511 35.9981 50.9943 36.1499 51.3382C36.5993 52.3566 37.0221 52.8492 35.5569 52.9074C34.6528 52.9433 33.6885 53.2143 32.7881 53.1311C31.7258 53.0333 31.4615 52.4393 31.1232 51.535C29.4188 46.978 28.5029 42.0388 26.2583 37.7055C25.7654 36.7539 23.7424 32.8669 22.8872 35.699C22.1662 38.0877 23.1122 41.0029 23.475 43.3804C22.3369 42.3548 21.9159 40.5071 21.0517 39.2547C20.4135 38.3295 18.4148 36.0575 17.2431 37.3595C16.3199 38.3856 16.5505 40.5617 16.721 41.7885C16.9902 43.7295 17.6105 45.5999 18.0535 47.5037C17.4957 46.774 17.2206 45.8831 16.8334 45.0615C16.3481 44.0313 15.7424 43.0538 15.0522 42.1484C14.4492 41.3574 13.7748 40.622 13.0434 39.9475C12.4846 39.4316 11.4838 38.3026 10.6902 38.2416C8.64756 38.0849 9.28991 41.8317 9.601 42.9028C10.2459 45.1231 10.9449 47.2821 11.4456 49.5469C12.4241 53.972 13.6093 58.295 14.3302 62.7765C14.4898 63.77 14.6819 64.5631 14.2891 65.5184C13.9426 66.3598 13.5834 67.366 12.9444 68.013C11.4981 69.4783 10.2971 71.0428 9.21596 72.8082C8.05796 74.6991 6.86582 76.6119 5.92065 78.6191C5.48595 79.5426 5.13038 80.5415 4.63077 81.4298C4.17978 82.2315 3.63776 82.865 3.3171 83.7528C1.78517 87.9943 0.650969 92.1616 0.131707 96.6529C-0.29472 100.34 0.102484 105.245 4.55449 106.108C6.59973 106.504 8.43603 105.598 10.2803 104.849C12.1877 104.075 13.5671 102.816 15.1228 101.479C17.0561 99.8171 19.0633 98.258 21.017 96.6239C22.9718 94.9888 24.7773 93.1756 26.7214 91.5231C28.6415 89.8903 30.3787 88.1564 32.0392 86.2607C33.6867 84.3799 35.0247 82.2964 36.6195 80.3892C36.6135 82.8583 36.2471 85.3049 36.1442 87.7706C36.0503 90.0313 36.048 92.2896 36.1393 94.5492C36.2305 96.8075 35.6339 98.957 35.629 101.21C35.6239 103.408 35.5367 105.594 35.4886 107.79C35.4672 108.775 35.274 109.88 35.642 110.83C35.9169 111.54 36.7806 111.761 37.5176 111.953C38.6564 112.248 42.0826 111.679 42.5912 112.896C42.869 113.559 42.5892 114.768 42.6109 115.502C42.6471 116.711 42.6913 117.919 42.7327 119.128C42.7756 120.376 42.8173 121.625 42.8628 122.873C42.9031 123.973 43.117 125.198 42.9846 126.287C42.871 127.22 42.327 127.098 41.4645 127.146C40.163 127.218 38.8612 127.275 37.5589 127.332C35.6487 127.416 33.6554 127.378 31.824 127.603C31.055 127.698 30.2145 127.657 29.4033 127.812C28.3857 128.005 27.446 128.054 26.4139 128.106C25.582 128.147 24.5125 128.086 23.8587 128.701C23.6322 128.915 23.5813 129.169 23.4207 129.407C23.1194 129.852 23.287 129.734 22.7928 129.835C20.8632 130.226 19.0305 130.666 17.1435 131.324C16.1988 131.653 15.3225 132.095 14.3734 132.405C13.5418 132.676 12.9323 133.011 12.5211 133.827C11.7867 135.285 11.9726 137.395 12.0259 138.966C12.1097 141.418 12.6543 143.752 13.2415 146.123C13.8526 148.59 14.3318 151.123 15.5205 153.389C15.911 154.134 16.3328 155.084 17.1306 155.472C18.1606 155.973 19.7447 155.669 20.8688 155.671C21.6232 155.672 23.6441 155.931 24.2081 155.299C24.754 154.686 24.2047 152.959 24.1277 152.198C23.8575 149.534 23.371 146.845 23.3775 144.163C23.993 145.072 25.0599 146.642 26.1279 145.249C26.3907 144.906 26.288 144.747 26.7548 144.548C27.0129 144.438 27.5572 144.37 27.8383 144.39C28.2208 144.415 28.3622 144.569 28.7134 144.494C29.0245 144.427 29.3741 144.149 29.7307 144.064C34.1512 143.013 38.5458 141.881 42.9851 140.945C44.1589 140.697 43.9921 141.599 44.0696 142.613C44.1552 143.736 43.9918 144.869 44.1475 145.979C44.283 146.945 44.3885 147.886 44.1976 148.857C43.9727 150.003 44.1175 150.959 44.3417 152.093C45.2051 156.468 45.0508 161.214 45.2455 165.661C45.3468 167.977 45.1294 170.341 45.3471 172.645C45.4293 173.515 45.915 173.996 46.1118 174.787C46.3378 175.696 45.7216 176.853 45.5341 177.733C45.1573 179.501 44.4955 182.03 45.706 183.568C46.3598 184.398 47.2168 184.519 48.1844 184.799C49.3427 185.135 50.4841 185.527 51.6476 185.846C55.8989 187.009 60.4931 187.237 64.8502 187.878C65.9172 188.035 66.9068 188.02 67.9805 187.946C68.6425 187.9 70.2727 188.118 70.823 187.722C71.1178 187.51 70.9686 187.244 71.1184 186.985C71.3312 186.617 71.5893 186.467 71.9516 186.238C72.5518 185.859 73.2458 185.637 73.3472 184.854C73.5949 182.936 71.198 181.92 69.9167 181.091C68.2787 180.031 66.3004 179.622 64.5624 178.756C63.6035 178.279 62.6783 177.738 61.7543 177.196C61.3537 176.961 60.5415 176.696 60.2622 176.326C59.9772 175.949 60.2562 175.41 60.3742 174.871C60.8614 172.643 60.6966 170.365 60.9488 168.113C61.2006 165.858 61.1321 163.589 61.2151 161.322C61.3007 158.988 61.4936 156.659 61.6416 154.328C61.7778 152.175 61.9151 149.988 61.9379 147.833C61.9594 145.834 62.2319 143.874 62.2963 141.863C62.3183 141.18 62.1957 139.942 62.649 139.363C63.0465 138.856 64.3628 138.92 64.9767 138.831C66.6314 138.591 68.2063 138.38 69.8424 138.235C73.7354 137.891 78.0676 137.637 81.7488 136.28C83.267 135.721 85.2871 134.956 85.7909 133.213C86.3701 131.209 85.614 128.746 85.5889 126.697C85.5623 124.509 84.9279 122.375 84.4524 120.256C83.9404 117.974 83.6179 115.653 83.0645 113.379C82.5569 111.294 81.7332 109.446 80.9546 107.466C80.6386 106.663 78.8398 103.895 79.3978 103.212C79.6983 102.845 80.7811 102.752 81.2204 102.583C82.1672 102.221 83.1157 101.809 83.9887 101.293C85.1542 100.605 87.7066 99.4649 87.8242 97.9343C87.9362 96.4714 86.4987 94.993 85.7679 93.844C84.5907 91.9927 83.1056 90.3744 81.9843 88.4864C79.7183 84.6711 77.9164 80.4922 76.2642 76.3805C75.3999 74.2295 75.1176 72.2039 74.9753 69.9078C77.485 69.9137 80.0394 70.2225 82.5331 69.8716C85.2471 69.4896 87.9646 68.8462 90.6548 68.3161C95.5539 67.3505 100.258 66.2603 104.796 64.086C109.046 62.0501 113.358 59.8217 116.877 56.5898C118.696 54.9187 120.552 53.2156 122.123 51.3046C123.737 49.3416 124.952 47.1112 126.197 44.9074C127.571 42.4748 128.665 39.9183 129.53 37.2576C129.704 36.7226 129.705 36.0414 129.928 35.5361C130.179 34.9657 130.636 34.9507 131.113 34.6502C131.785 34.2274 132.232 32.8126 131.066 32.5987Z" fill="black"/>
    <path fill-rule="evenodd" clip-rule="evenodd" d="M72.6372 5.36835C73.211 5.86121 75.6837 7.5973 76.4822 7.17516C77.4677 6.65404 75.9076 5.08425 75.4877 4.69724C74.9529 4.20487 73.0429 2.71532 72.3116 2.8536C70.8497 3.13014 72.121 4.92475 72.6372 5.36835Z" fill="black"/>
    <path fill-rule="evenodd" clip-rule="evenodd" d="M73.8585 23.1863C74.1827 22.5483 75.0449 22.3138 75.4434 21.6965C75.9231 20.9543 76.1434 20.3049 75.9666 19.3947C74.739 19.808 73.3423 21.0588 72.521 22.0368C71.8344 22.8543 70.8593 24.5623 72.6508 24.5667C72.6353 24.3236 72.6195 24.08 72.6038 23.8372C73.1411 23.9153 73.6146 23.667 73.8585 23.1863Z" fill="black"/>
    <path fill-rule="evenodd" clip-rule="evenodd" d="M68.0104 12.5724C68.8017 12.7999 69.4549 12.7677 70.2635 12.7855C70.8503 12.7985 71.6522 13.1211 72.1277 12.7575C71.7057 12.5132 72.2389 12.4997 72.1345 12.2614C72.0468 12.0627 71.8803 12.1278 71.7448 11.967C71.2617 11.394 70.8417 11.401 70.0758 11.2818C69.482 11.189 68.6093 10.9751 68.0391 11.2701C67.4389 11.5807 67.2067 12.3413 68.0104 12.5724Z" fill="black"/>
    <path fill-rule="evenodd" clip-rule="evenodd" d="M79.276 30.147C79.7878 29.7177 80.3458 28.4749 80.4493 27.8336C80.4899 27.5822 80.3089 27.3898 80.3303 27.205C80.3717 26.8525 81.096 26.1713 80.3373 25.8822C79.6737 25.6291 79.05 27.5954 78.8814 28.0244C78.7084 28.4633 78.2372 29.3182 78.3818 29.7426C78.5018 30.0948 78.9303 30.4366 79.276 30.147Z" fill="black"/>
    <path fill-rule="evenodd" clip-rule="evenodd" d="M85.3991 3.53306C85.8622 3.10325 86.1555 2.61577 86.1074 2.02469C86.0693 1.55909 85.7208 -0.0461748 85.3282 0.00101917C84.0251 0.158298 84.6111 4.26502 85.3991 3.53306Z" fill="black"/>
    <path fill-rule="evenodd" clip-rule="evenodd" d="M57.8907 75.3026C57.7833 74.9101 57.3936 72.5103 56.7195 72.6737C56.2075 72.7979 56.7394 74.9098 56.7632 75.1878C56.8131 75.7691 55.6957 75.75 55.1764 75.6714C54.3528 75.547 54.419 75.0645 54.2957 74.3158C54.2494 74.0329 54.0712 72.7542 53.4811 73.2225C53.0823 73.539 53.3673 75.1157 53.4004 75.4754C53.5155 76.7216 53.6507 78.8493 54.3916 79.9806C54.6869 80.4322 54.9525 80.6548 55.2628 80.0761C55.5767 79.4904 54.8661 77.7053 54.7417 77.1063C55.328 77.1635 57.0156 76.9734 57.3688 77.5824C57.6913 78.1382 57.1754 79.7262 58.21 79.855C58.8237 79.9315 58.7125 79.2206 58.6535 78.674C58.5297 77.5268 58.193 76.4105 57.8907 75.3026Z" fill="black"/>
    <path fill-rule="evenodd" clip-rule="evenodd" d="M59.4627 74.7474C58.7831 75.0544 59.6362 79.5302 60.6305 79.3859C61.7908 79.217 60.1102 74.455 59.4627 74.7474Z" fill="black"/>
    <path fill-rule="evenodd" clip-rule="evenodd" d="M58.7053 73.2654C58.6215 74.2731 59.931 74.6486 59.9931 73.5535C60.0407 72.7086 58.7935 72.2059 58.7053 73.2654Z" fill="black"/>
    <path fill-rule="evenodd" clip-rule="evenodd" d="M51.5168 46.5464C52.1147 48.7745 57.5566 49.7222 56.8235 46.7173C56.4563 45.2128 54.9228 46.5495 53.8522 46.3744C53.1594 46.2612 51.0958 44.9752 51.5168 46.5464Z" fill="black"/>
    <path fill-rule="evenodd" clip-rule="evenodd" d="M50.15 42.572C50.406 41.3799 47.7981 40.0639 46.8516 40.3921C45.4673 40.8725 45.4733 43.9434 46.5294 44.7598C46.6682 44.8671 47.0941 45.1233 47.3028 44.9191C47.632 44.5961 47.2723 44.6842 47.1955 44.3618C47.0735 43.849 46.6747 43.1906 47.0719 42.6069C47.8229 41.5048 49.7836 44.2803 50.15 42.572Z" fill="black"/>
    <path fill-rule="evenodd" clip-rule="evenodd" d="M42.1979 48.3589C41.2577 48.3061 40.4865 49.7656 41.87 49.6433C42.1351 49.6198 42.7043 49.5531 42.8579 49.2748C43.1123 48.8137 42.6114 48.3822 42.1979 48.3589Z" fill="black"/>
    <path fill-rule="evenodd" clip-rule="evenodd" d="M87.8143 13.5666C87.4924 13.1011 86.8177 12.3519 86.2371 12.8188C85.7225 13.2329 85.8123 14.255 86.0098 14.7628C86.541 16.1301 87.7957 17.3481 89.2157 16.5603C88.7223 15.5722 88.4445 14.478 87.8143 13.5666Z" fill="black"/>
</svg>
