<svg width="142" height="228" viewBox="0 0 142 228" fill="none" xmlns="http://www.w3.org/2000/svg">
<rect width="142" height="228" rx="30" fill="#D9D9D9"/>
<mask id="mask0_138_5" style="mask-type:alpha" maskUnits="userSpaceOnUse" x="0" y="0" width="142" height="228">
<rect width="142" height="228" rx="30" fill="#FFF170"/>
</mask>
<g mask="url(#mask0_138_5)">
<path fill-rule="evenodd" clip-rule="evenodd" d="M17.3307 123.074C17.3626 120.719 17.4303 118.363 17.5193 116.009C21.5363 115.647 25.5536 115.285 29.5707 114.923C30.5965 114.83 31.6221 114.738 32.6477 114.646C33.7612 114.545 34.8745 114.445 35.9877 114.345C36.1036 114.334 36.2598 114.332 36.4338 114.329C36.9885 114.32 37.7216 114.307 37.8866 114.029C38.1276 113.622 38.0043 112.549 37.9109 111.736C37.8737 111.412 37.8414 111.129 37.8385 110.946C37.8225 109.932 37.8064 108.919 37.7904 107.905C37.7746 106.891 37.7586 105.877 37.7426 104.864L37.7423 104.847C37.6254 97.3927 37.5085 89.9378 37.3914 82.483C38.3534 82.5145 39.3151 82.5433 40.2768 82.5701C40.9003 82.5877 41.5243 82.6066 42.1488 82.6255C45.7141 82.7325 49.29 82.8401 52.8519 82.7307C54.9509 82.6663 56.9398 82.1 58.9214 81.4318C59.9749 81.0767 61.0178 80.6899 62.0527 80.2831C62.1476 80.2459 62.2963 80.168 62.4681 80.078C62.8854 79.8593 63.4391 79.5691 63.6881 79.6172C64.1107 79.6992 64.7362 80.6048 65.1955 81.2697C65.3643 81.514 65.5107 81.7261 65.6162 81.8523C66.8629 83.3462 68.1096 84.8401 69.3563 86.334L69.4106 86.3987C69.5686 86.5882 69.7486 86.7806 69.9322 86.9771C70.3366 87.4095 70.7592 87.8616 71.0072 88.3441C71.1957 88.711 71.3002 89.1721 71.3995 89.6117C71.4465 89.8191 71.4923 90.0219 71.5453 90.2075C73.6022 97.3973 75.6136 104.633 77.1116 111.963C77.4341 113.541 77.74 115.13 77.9195 116.731C77.9329 116.853 77.95 116.984 77.9678 117.121C78.0656 117.872 78.1871 118.804 77.8954 119.451C77.5308 120.26 76.4064 120.626 75.598 120.889C75.545 120.906 75.4936 120.922 75.4437 120.939C73.8631 121.459 72.2081 121.769 70.5707 122.047C66.6253 122.717 62.6304 123.105 58.6431 123.42C58.1893 123.456 57.7303 123.478 57.2705 123.5C56.4965 123.538 55.72 123.576 54.9605 123.678C54.6395 123.722 54.5501 123.693 54.503 123.726C54.4653 123.752 54.4544 123.817 54.3735 123.989C54.1976 124.364 54.2245 125.02 54.2475 125.583C54.2579 125.833 54.2672 126.064 54.2579 126.245C54.2224 126.937 54.187 127.63 54.1516 128.322C54.1161 129.014 54.0807 129.707 54.0453 130.399C53.8516 134.177 53.6582 137.954 53.465 141.731C53.3996 143.008 53.3341 144.284 53.2687 145.56C53.1381 148.114 53.0073 150.667 52.8764 153.22C52.8402 153.926 52.8043 154.633 52.7681 155.339C52.7298 156.084 52.6918 156.828 52.6538 157.573C52.6409 157.824 52.6447 158.099 52.6483 158.382C52.6564 158.971 52.6649 159.593 52.5242 160.101C52.4472 160.379 52.4699 160.48 52.4314 160.516C52.3913 160.553 52.2848 160.517 51.9292 160.535C50.8516 160.587 49.7479 160.517 48.653 160.448C48.1092 160.413 47.568 160.379 47.0327 160.36C46.1501 160.328 45.2675 160.297 44.3849 160.265C43.4379 160.231 42.4907 160.197 41.5437 160.163C41.4157 160.159 41.284 160.164 41.1553 160.17C40.7575 160.186 40.3857 160.201 40.2267 159.918C40.0456 159.596 40.0896 158.876 40.1248 158.301C40.1395 158.062 40.1527 157.848 40.1473 157.698L39.9949 153.439L39.5768 141.748C39.4853 139.186 39.3935 136.624 39.3019 134.061C39.2034 131.309 39.1046 128.556 39.0063 125.804C36.973 126.213 34.9396 126.622 32.9063 127.031L32.9022 127.032C29.8957 127.637 26.889 128.242 23.8823 128.847C23.5104 128.922 23.1197 129.023 22.7196 129.126C21.6356 129.405 20.4818 129.703 19.4419 129.554C18.0277 129.351 17.443 128.747 17.3636 127.404C17.2873 126.116 17.3059 124.818 17.3245 123.527C17.3266 123.376 17.3287 123.225 17.3307 123.074ZM58.3589 100.26L57.8542 99.2874L57.6346 100.361L55.4971 110.816L55.3952 111.314L55.9028 111.281L63.2177 110.796L63.8099 110.757L63.5363 110.23L58.3589 100.26ZM56.359 110.473L58.1753 101.589L62.5746 110.061L56.359 110.473Z" fill="#FF5678"/>
<path fill-rule="evenodd" clip-rule="evenodd" d="M119.115 15.643C118.965 16.8059 119.072 18.0738 117.759 18.3805C116.544 18.6644 115.211 18.5848 113.972 18.6841C112.58 18.7961 111.192 18.9486 109.803 19.0865C108.052 19.26 108.302 18.5868 107.919 17.0911C107.569 15.7252 107.011 14.3621 106.546 13.0301C106.33 12.411 106.072 11.8413 105.778 11.2579C105.511 10.7296 105.638 10.0113 105.351 9.56725C104.37 8.05239 99.5883 12.1946 99.144 11.3782C99.9531 10.7483 101.354 10.0433 101.602 8.96549C101.894 7.69862 101.089 7.3203 100.077 7.78344C97.588 8.92386 94.7153 9.81498 92.0008 10.2305C92.8787 9.64379 100.819 5.01824 98.1544 3.64618C97.5539 3.33697 96.7517 3.91905 96.21 4.13922C95.3501 4.48887 94.4523 4.72324 93.555 4.9523C92.6093 5.19365 91.6612 5.42584 90.7104 5.64532C90.0435 5.79931 88.8547 6.34624 88.2048 6.21125C87.5452 6.07409 88.714 5.66455 88.9051 5.56807C89.7396 5.1477 90.5607 4.69603 91.375 4.2386C92.82 3.42699 94.1549 2.48686 95.2539 1.23199C96.0833 0.285142 97.4528 -1.78255 96.8753 -3.0918C96.5407 -3.85073 95.8076 -4.55215 95.3768 -5.27112C94.8738 -6.11091 94.4678 -7.00602 94.031 -7.88096C94.7621 -7.55947 95.5826 -7.47719 96.3289 -7.18867C97.0752 -6.89992 97.8332 -6.66628 98.6095 -6.45164C100.167 -6.02116 101.72 -5.94464 103.264 -5.59548C105.011 -5.2004 106.832 -4.75861 108.607 -4.53024C110.152 -4.33172 111.542 -3.9087 112.866 -3.06604C115.571 -1.34461 117.447 1.1283 118.396 4.18639C118.952 5.97784 119.087 7.84706 119.152 9.71103C119.221 11.6761 119.367 13.6864 119.115 15.643ZM103.937 15.7875C102.049 17.1643 99.8471 18.2401 97.8205 19.4113C96.6607 20.081 95.4763 20.7073 94.2935 21.3352C93.4541 21.7808 92.4342 22.601 91.5102 22.8296C90.9255 22.9742 90.9692 22.9853 90.5992 22.4524C90.2457 21.9434 89.9369 21.3955 89.6062 20.8713C88.9959 19.9049 88.3802 18.9422 87.7642 17.9794C86.3835 15.8214 85.0055 13.6637 83.5547 11.5515C82.0994 9.432 80.7035 7.27349 79.2936 5.12411C78.6383 4.12479 77.9869 3.12161 77.2918 2.14976C76.7606 1.40766 75.3994 0.275755 76.0459 -0.597966C76.6463 -1.40957 78.0143 -2.08381 78.8232 -2.69813C79.8121 -3.44814 80.8066 -4.19047 81.7927 -4.94436C83.9124 -6.56496 85.9765 -8.25608 88.0944 -9.87885C89.8917 -6.72643 92.0062 -3.77108 94.1389 -0.840271C92.2102 0.390521 90.262 1.56046 88.2294 2.61414C86.7285 3.39234 84.4319 4.44387 83.4839 5.9201C82.5498 7.37383 83.4671 9.05083 85.1322 9.07746C86.1278 9.09349 87.1203 8.82973 88.0965 8.67922C88.8009 8.57035 90.0877 8.06247 90.7231 8.42037C89.5811 9.14909 85.4379 11.2724 87.6713 13.1343C89.2677 14.4651 91.9664 12.523 93.691 12.9228C93.1652 13.9316 92.6188 15.5406 94.0778 16.0891C95.2919 16.5457 96.881 15.6947 97.9739 15.2434C98.7634 14.9174 99.5479 14.5801 100.324 14.2243C100.942 13.9412 101.681 13.3673 102.341 13.2453C103.11 13.1025 104.677 15.2476 103.937 15.7875ZM68.8297 90.1339C69.9102 89.9368 70.4651 89.49 70.8054 90.8021C71.1103 91.9771 71.4123 93.109 71.8051 94.2624C70.1173 94.4082 68.6285 95.214 67.3976 96.3477C66.5212 97.1553 64.778 99.0834 65.2104 100.436C66.26 103.723 71.5626 96.349 72.1928 95.561C72.9642 96.6883 73.2478 98.1643 73.6311 99.4537C73.9042 100.371 74.9168 102.13 73.5781 102.353C71.6986 102.667 68.1726 103.366 68.3955 106.028C68.6588 109.17 72.6557 109.152 74.8977 109.293C76.162 109.373 76.1679 110.386 76.3479 111.519C76.4283 112.026 76.6799 112.711 76.2494 113.083C75.8672 113.412 74.6965 113.421 74.1992 113.528C72.749 113.839 71.2996 114.156 69.8496 114.468C68.2034 114.821 67.333 114.326 65.7941 113.875C65.2244 113.708 64.6521 113.779 64.6102 113.141C64.5843 112.749 64.9676 112.144 65.093 111.757C65.5895 110.225 66.0126 108.648 66.1551 107.04C66.363 104.703 66.1033 101.198 63.2257 100.742C61.8564 100.525 61.5932 100.455 60.9751 99.1698C60.3066 97.7803 59.2451 96.4935 59.5019 94.8928C59.6873 93.733 59.3741 91.5383 60.1145 90.5763C60.4566 90.1315 61.1238 89.8662 61.5792 89.5399C62.1595 89.1235 62.7183 88.678 63.259 88.212C63.7139 87.8202 64.2683 87.0542 64.784 86.7713C65.4142 86.4253 65.4333 86.6612 65.8859 87.2014C66.5538 87.9994 67.6156 90.3555 68.8297 90.1339ZM71.8838 95.3265C71.5093 96.0821 70.6438 96.785 70.0927 97.4157C69.5383 98.0503 69.0136 98.7208 68.395 99.296C67.7144 99.929 65.297 101.458 65.8295 99.3999C66.244 97.7992 67.7948 96.5026 69.16 95.7038C69.4242 95.5489 72.5173 94.0477 71.8838 95.3265ZM74.5284 102.948C74.7682 104.019 74.8972 105.123 75.1017 106.203C75.2065 106.754 75.7868 108.087 75.5501 108.618C75.1496 109.517 71.5427 108.453 70.7951 108.143C69.0151 107.406 68.1982 105.515 69.8395 104.168C70.462 103.658 74.2887 101.877 74.5284 102.948ZM76.893 115.816C77.094 116.839 77.6815 117.787 76.7099 118.561C75.9034 119.203 74.5817 119.641 73.5877 119.869C72.2326 120.181 71.7971 119.422 71.08 118.445C70.3089 117.395 69.4879 116.381 68.6363 115.395C71.311 114.796 73.9854 114.197 76.6606 113.598C76.6588 114.344 76.7493 115.086 76.893 115.816ZM70.484 120.563C69.0891 120.491 67.5885 120.911 66.1737 121.021C64.407 121.16 62.6454 121.36 60.8771 121.479C61.3302 120.033 62.1437 118.744 62.7804 117.379C63.4189 116.009 63.8673 115.861 65.3361 115.755C66.6973 115.657 67.6575 115.189 68.6619 116.343C69.7071 117.544 70.6536 118.85 71.6078 120.123C71.2833 120.34 70.8954 120.585 70.484 120.563ZM60.5133 120.858C60.1691 121.109 59.1078 120.396 58.7501 120.258C58.0545 119.989 57.9001 119.903 57.5371 119.224C57.2252 118.641 56.7287 117.978 56.6312 117.312C56.5022 116.434 56.8906 115.278 57.032 114.406C57.4088 115.314 58.6449 115.419 59.4804 115.568C60.1122 115.68 61.9839 115.501 62.4602 115.951C62.9865 116.448 62.0178 117.834 61.7651 118.356C61.4639 118.98 61.0917 120.437 60.5133 120.858ZM59.8388 121.579C59.4248 121.646 58.2327 122.058 58.2565 121.301C58.2834 120.437 59.9234 121.369 59.8388 121.579ZM57.7385 121.533C57.6627 122.261 56.0972 122.201 56.0612 121.561C56.0002 120.479 57.8588 120.371 57.7385 121.533ZM55.948 101.911C55.5479 103.051 53.1096 103.459 52.1732 103.81C51.3181 104.131 48.7636 105.61 47.8818 105.074C50.8666 103.022 53.925 101.012 56.4541 98.3929C56.5575 99.0399 56.3998 99.5804 56.2089 100.193C56.0369 100.746 56.1254 101.406 55.948 101.911ZM55.2058 106.069C54.7763 108.861 54.3548 111.691 53.7737 114.456C52.6661 114.117 51.7528 113.431 50.5891 113.192C49.5273 112.974 48.4306 112.969 47.36 113.128C45.0784 113.468 43.0445 114.596 41.0541 115.696C40.8702 113.781 40.4896 111.731 40.5346 109.809C40.5718 108.213 43.3039 107.74 44.5431 107.081C45.2928 106.681 45.9705 106.12 46.8247 105.981C47.7037 105.838 48.5519 105.842 49.42 105.574C51.4727 104.941 53.4044 103.937 55.4155 103.189C55.58 104.147 55.3514 105.124 55.2058 106.069ZM53.2878 117.888C53.1965 118.523 53.3116 119.656 52.8278 120.139C52.3724 120.595 51.3993 120.61 50.7985 120.734C48.9685 121.11 47.1402 121.49 45.3129 121.879C44.4952 122.052 43.6776 122.219 42.8565 122.374C42.465 122.448 41.4828 122.823 41.1531 122.512C40.8402 122.216 41.0732 121.27 41.09 120.874C41.1239 120.082 41.1687 119.287 41.1187 118.495C41.0236 116.975 41.1081 116.393 42.5229 115.606C44.0259 114.771 45.578 114.199 47.2697 113.889C48.9824 113.575 50.6142 113.747 52.2446 114.404C52.6982 114.587 53.3786 114.813 53.5898 115.302C53.8769 115.967 53.3845 117.213 53.2878 117.888ZM51.2276 142.389C50.5568 142.81 49.097 142.738 48.3264 142.823C47.0823 142.961 45.8301 142.882 44.594 142.69C43.6636 142.546 42.2749 142.346 41.562 141.692C40.5485 140.764 41.7179 140.722 42.4932 140.787C44.7476 140.977 47.0303 140.844 49.2824 140.681C49.721 140.649 50.8994 140.265 51.3222 140.445C51.8629 140.675 51.6972 142.094 51.2276 142.389ZM49.9493 157.388C45.7492 156.98 43.3142 153.502 41.7911 149.947C40.9734 148.038 41.2682 146.035 41.1875 144.016C41.173 143.648 40.9413 142.733 41.3205 142.457C41.6765 142.198 43.1174 142.999 43.5071 143.094C45.5048 143.584 47.7143 143.631 49.7163 143.155C50.5837 142.949 51.0693 142.566 51.345 143.426C51.5668 144.118 51.2027 145.393 51.1629 146.119C51.0944 147.374 51.2909 157.519 49.9493 157.388ZM41.5589 157.392C41.5428 156.783 41.2356 150.627 41.5338 150.608C42.4198 152.52 43.33 154.229 44.9431 155.636C45.7673 156.354 46.6938 157.002 47.7243 157.388C48.1115 157.533 50.3054 157.642 50.413 158.123C50.601 158.964 49.1034 158.624 48.6592 158.556C48.3026 158.501 47.9819 158.349 47.6323 158.286C46.9659 158.165 46.3365 158.327 45.6675 158.341C44.6509 158.361 43.6525 158.255 42.6354 158.343C41.7058 158.423 41.5837 158.316 41.5589 157.392ZM42.179 129.779C45.7745 128.616 48.7794 130.817 50.677 133.698C51.759 135.341 52.001 136.49 51.8117 138.435C51.744 139.131 51.8691 139.603 51.2289 139.886C50.5953 140.167 49.1557 139.959 48.4699 139.991C46.4981 140.083 44.5338 140.206 42.562 140.089C41.2811 140.013 41.1004 139.796 41.1224 138.553C41.149 137.056 41.0244 135.566 40.9398 134.067C40.848 132.445 40.2912 130.389 42.179 129.779ZM41.0024 127.623C41.0045 126.523 40.9385 125.395 41.0057 124.297C41.0727 123.208 41.5359 123.262 42.5635 123.077C44.789 122.674 47.0114 122.224 49.2069 121.679C50.0753 121.463 51.0564 121.049 51.9609 121.046C52.9102 121.042 52.8598 121.53 52.7965 122.371C52.6558 124.232 52.3147 126.066 52.211 127.918C52.099 129.917 52.0403 131.941 52.0494 133.942C52.0525 134.618 52.2167 135.118 51.6408 134.486C51.0644 133.853 50.7822 132.844 50.2674 132.132C49.2131 130.675 47.646 129.503 45.9072 129.01C44.9457 128.737 43.9344 128.689 42.954 128.887C42.6566 128.947 41.1668 129.658 40.9773 129.517C40.849 129.422 41.0021 127.667 41.0024 127.623ZM54.1562 165.736C55.5823 166.757 57.1616 167.583 58.7602 168.299C59.6599 168.702 63.2208 169.55 63.3343 170.457C63.3951 170.941 62.8049 171.484 62.4183 171.541C61.928 171.613 61.1202 171.293 60.6208 171.232C58.8047 171.012 56.9925 171.011 55.2203 170.505C51.6824 169.495 48.0145 169.211 44.4399 168.331C43.5894 168.122 42.737 167.925 41.8821 167.735C41.0701 167.555 40.7063 167.586 40.6776 166.718C40.6145 164.814 41.1606 162.863 41.165 160.935C44.0569 161.265 46.9586 161.26 49.8583 161.532C51.1008 161.648 51.0719 161.884 51.6165 162.969C52.1818 164.096 53.1432 165.011 54.1562 165.736ZM40.0562 103.861C40.0197 103.156 39.991 102.449 39.9274 101.746C39.8845 101.273 39.4529 99.953 39.6962 99.5851C39.9853 99.1483 40.2765 99.4149 40.7937 99.4025C41.4754 99.3865 42.0463 99.1124 42.6085 98.7537C43.6732 98.0746 44.4647 97.1806 45.1557 96.1375C45.7637 95.2192 45.6504 93.9647 45.6432 92.8654C45.6238 90.0224 45.8309 87.2495 45.6574 84.3938C45.5777 83.0822 46.6975 83.8867 47.6015 84.0566C49.0804 84.3343 50.6879 84.1419 52.1908 84.1455C52.135 84.4952 49.0616 85.363 48.565 85.6935C47.2938 86.5389 46.5526 87.8913 46.6685 89.4333C46.9017 92.5355 50.3183 93.0539 52.8146 93.0599C50.7435 94.8913 48.7093 96.6373 47.0815 98.8967C45.8813 100.562 43.7673 103.847 45.7295 105.69C43.9951 106.675 42.276 107.771 40.3143 108.245C40.2263 106.784 40.1322 105.323 40.0562 103.861ZM39.2687 47.2334C39.975 47.687 40.2718 47.0457 40.8092 46.7137C41.5661 46.2456 41.8167 46.2916 41.9126 45.2466C42.0903 43.3084 41.2749 41.5539 40.2512 39.9679C39.7859 39.2469 39.3218 38.3884 38.6649 37.8249C38.0663 37.3111 37.4609 37.4879 36.9062 36.9568C36.6885 36.7481 36.735 36.4533 36.375 36.4616C36.1379 36.4673 35.5618 37.2017 35.366 37.3638C34.7474 37.8758 33.9908 38.2656 33.1803 37.8433C32.0001 37.2288 32.379 34.9982 33.2957 34.2757C34.0016 33.7192 34.8359 33.8053 35.6393 33.7153C36.2419 33.6483 36.3673 33.6744 36.1196 32.9847C35.9458 32.5019 35.5452 32.1252 35.3474 31.6527C34.9672 30.7458 35.05 29.6437 34.8858 28.6838C34.7384 27.8237 34.3934 26.8935 34.4058 26.02C34.4224 24.9077 34.7857 24.6189 35.7492 24.307C36.6828 24.005 37.456 23.3391 38.2512 22.7797C39.1511 22.1464 40.1369 21.7283 41.0619 21.1501C41.6897 20.7572 42.095 19.9634 42.7854 20.3342C43.6059 20.7748 44.4735 22.0505 45.1712 22.7022C44.1503 23.3502 43.9129 23.6336 44.0536 24.9023C44.1826 26.0652 44.4195 27.1017 45.3085 27.9118C45.6501 28.2232 46.2871 28.4725 46.5519 28.8314C46.8606 29.2496 46.66 28.8811 46.6209 29.353C46.6002 29.6077 46.3988 29.7743 46.4425 30.0685C46.6385 31.3755 48.1399 30.6041 48.7587 30.15C50.9695 28.5278 46.8415 27.2395 45.8612 26.6486C45.1841 26.24 44.8493 24.937 45.9219 25.2832C46.6357 25.5134 48.2475 27.4658 48.4112 25.6861C50.1805 26.714 51.2726 28.8976 52.7561 30.2783C53.8259 31.2741 55.2632 32.3786 54.414 33.9687C53.3318 35.9958 51.1859 36.9159 49.2268 37.7905C47.3266 38.6387 47.7212 41.0393 48.7368 42.5086C49.324 43.3578 50.0934 43.8556 51.0191 44.2684C51.9646 44.6901 52.1611 45.1856 52.3675 46.1639C52.5968 47.2492 52.3532 47.6865 51.4135 48.2471C50.496 48.7948 49.5369 49.3252 48.5573 49.7537C46.4391 50.6805 44.2418 50.7392 41.9889 51.055C41.1994 51.1657 40.4423 51.3963 40.0114 50.6135C39.5271 49.7325 39.4914 48.2156 39.2687 47.2334ZM38.9282 43.0178C38.398 42.7382 37.1183 43.6663 36.448 43.7072C35.3637 43.7729 34.652 43.7481 33.6895 44.3232C31.87 45.4103 30.3603 46.8099 28.9013 48.3278C27.2582 50.0374 25.6244 51.756 23.9867 53.4708C23.2443 54.2474 22.4982 55.02 21.7444 55.785C21.1502 56.388 20.5691 57.236 19.8336 57.6663C19.8719 57.1553 20.1853 56.7935 20.2965 56.3197C20.3612 56.0428 20.2482 55.8077 20.2901 55.5424C20.3038 55.4563 20.535 55.1571 20.5701 55.0588C20.664 54.7997 20.7788 54.5437 20.8903 54.2745C20.9942 54.0234 20.979 53.763 21.0845 53.5008C21.1928 53.2303 21.49 53.0513 21.5929 52.785C21.8949 52.0053 21.395 51.6438 20.5957 51.6622C20.9084 50.1023 21.0452 49.3392 22.6761 48.7892C24.2344 48.2637 25.7568 47.6736 27.1881 46.8523C28.4591 46.1233 29.5194 45.0723 30.7413 44.2598C31.8351 43.5321 33.1969 42.7698 33.1855 41.2777C33.8056 41.6984 34.387 42.0524 35.0963 41.6335C35.6952 41.28 35.7746 40.9953 36.4669 40.9286C37.0319 40.8745 37.382 40.8601 37.8863 41.1086C38.4798 41.4008 38.5607 41.604 38.9065 40.7437C39.2993 41.0742 40.292 42.4512 40.2589 42.9963C40.2408 43.2966 40.1953 43.4321 39.8232 43.5112C39.2956 43.6234 39.3161 43.2221 38.9282 43.0178ZM36.456 124.516C36.1979 124.911 35.1102 124.838 34.6903 124.833C33.41 124.816 32.9623 123.742 32.4007 122.704C31.515 121.066 30.1915 117.666 31.6443 115.948C32.7912 114.592 35.0247 116.301 35.8072 117.325C36.4826 118.209 36.282 119.536 36.3448 120.598C36.3978 121.493 36.9657 123.736 36.456 124.516ZM32.9582 125.109C32.4462 125.621 30.785 125.512 30.1067 125.622C28.8962 125.818 27.6924 126.054 26.5178 126.411C25.6435 126.677 24.7793 127.394 24.5489 126.175C24.3552 125.15 24.4517 123.921 24.47 122.887C24.4899 121.771 24.6068 120.669 24.7038 119.559C24.7695 118.808 24.605 117.426 25.2184 116.849C25.7467 116.352 27.0317 116.304 27.7177 116.14C28.8444 115.869 30.0216 115.515 31.1925 115.636C30.5093 117.49 30.4514 119.435 31.184 121.283C31.3929 121.81 33.2742 124.793 32.9582 125.109ZM24.3485 117.721C24.063 120.51 23.776 123.318 24.0508 126.121C24.0674 126.288 24.2673 127.054 24.1804 127.174C24.0907 127.298 23.3795 127.363 23.2182 127.401C22.5771 127.553 21.9368 127.714 21.2916 127.849C20.0359 128.111 19.8719 127.318 19.6255 126.154C19.0977 123.66 20.1209 120.957 20.7411 118.562C21.0431 117.396 21.2668 117.261 22.4137 117.164C23.2117 117.098 24.4698 116.536 24.3485 117.721ZM19.4993 128.128C19.0193 128.565 18.5396 126.505 18.4972 126.295C18.3296 125.462 18.423 124.616 18.4253 123.77C18.4295 122.448 18.3283 121.132 18.3263 119.816C18.3252 119.104 17.7918 117.649 18.6343 117.272C18.8815 117.161 19.8634 117.207 20.086 117.353C20.5489 117.655 20.3666 117.851 20.2293 118.377C19.9223 119.557 19.6568 120.742 19.3894 121.932C19.1272 123.099 18.8683 124.221 18.9932 125.426C19.0343 125.825 19.8049 127.85 19.4993 128.128ZM34.8041 115.131C35.974 114.801 36.0365 115.697 36.0345 116.555C35.8563 116.418 34.1938 115.303 34.8041 115.131ZM19.1556 52.1625C18.8688 52.635 17.0532 52.764 16.5345 52.8884C15.5138 53.1328 14.4926 53.3756 13.4745 53.6303C11.5673 54.1072 9.70699 54.6451 7.75173 54.8946C8.82543 53.1757 9.15954 51.6914 8.95965 49.5461C8.70777 46.8375 8.38736 44.1566 7.76389 41.5055C7.1492 38.8911 6.43754 36.2943 5.752 33.6974C5.41531 32.4215 5.05121 31.1702 4.60332 29.9286C4.24439 28.9338 3.68349 27.6812 4.293 26.6613C5.83941 27.7895 7.0799 29.0052 7.96198 30.7192C8.90689 32.5565 9.73207 34.4427 10.8288 36.2007C11.3302 37.0044 11.9159 37.7372 12.4523 38.5151C12.7714 38.978 13.0038 39.6459 13.4104 40.0364C13.8789 40.4864 14.3785 40.6987 14.6464 39.9392C14.9338 39.1241 14.017 37.5115 13.7465 36.746C13.0931 34.8984 12.4453 33.0543 11.9413 31.159C11.5337 29.6269 10.8598 27.7745 11.0982 26.158C11.3343 24.5576 12.4202 25.7032 12.9697 26.4472C14.1024 27.9812 14.7807 29.7691 15.5249 31.5082C16.2089 33.1058 17.0067 34.6292 17.7636 36.1898C18.0268 36.7328 18.3739 38.1357 19.0635 38.2971C20.0661 38.5322 19.9813 37.1202 19.8854 36.5474C19.25 32.7494 17.5914 29.113 17.2472 25.2493C17.2306 25.0647 16.9909 23.6292 17.1838 23.5092C17.5575 23.2768 18.0617 24.7332 18.2228 25.09C19.0617 26.946 19.6456 28.9025 20.1817 30.863C20.6376 32.5304 21.0498 34.2102 21.5613 35.8619C21.8424 36.7696 22.1646 37.6622 22.4825 38.5578C22.7698 39.369 23.0614 40.7551 23.8109 41.2896C24.8742 42.0478 28.6789 40.2451 29.0645 41.8567C29.3389 43.0023 25.8109 43.9249 25.0594 44.2728C24.0702 44.7307 23.1 45.2321 22.1103 45.6906C21.3612 46.0374 20.2844 46.1796 19.7424 46.8321C19.1683 47.5233 19.0762 48.4941 19.0591 49.3516C19.046 50.0007 19.4957 51.6024 19.1556 52.1625ZM16.7509 64.6719C16.7007 65.0319 16.4145 65.5087 16.2857 65.8514C16.0237 66.5493 15.8008 67.3833 15.4362 68.0355C15.1228 68.5971 14.6599 69.0993 14.3568 69.6693C14.0695 70.2103 14.0312 70.834 13.6956 71.3755C13.3113 71.9946 12.6765 72.4396 12.295 73.0546C12.107 73.3582 11.9128 73.7047 11.6472 74.0277C10.7065 75.1725 9.77241 76.2524 9.01575 77.4787C8.82232 77.7926 7.87715 79.1629 7.50115 79.2371C6.71476 79.3915 7.62994 78.2738 7.78381 78.0427C8.89784 76.3708 9.88723 74.6106 10.9625 72.9126C12.0041 71.2687 13.07 69.6375 14.0724 67.9688C14.89 66.6083 15.4553 64.6551 16.784 63.6967C16.7889 64.0226 16.7783 64.3476 16.7509 64.6719ZM53.0773 49.3063C53.7243 51.9668 54.4983 54.5447 55.2278 57.1814C55.9048 59.6277 56.8055 62.2458 57.0863 64.7678C57.3641 67.2661 58.0028 69.7939 58.8619 72.1653C59.2588 73.2625 59.6674 74.3639 60.0985 75.4484C60.3351 76.0442 60.5999 76.6266 60.8688 77.2084C61.0775 77.6604 61.6288 78.3925 61.65 78.8715C61.6668 79.2552 61.8 79.1019 61.4214 79.3902C61.0294 79.6886 60.3503 79.5803 59.8939 79.6328C58.7031 79.7706 57.5417 80.2185 56.3809 80.5086C54.1419 81.0682 51.4732 81.5125 49.179 81.1231C48.2139 80.9591 47.2115 80.8171 46.2573 80.6038C45.083 80.3411 44.8418 79.8552 44.6008 78.7013C44.0737 76.1782 43.6199 73.6618 43.1847 71.1221C42.6672 68.1009 42.1071 65.0833 41.7078 62.0435C41.3047 58.9683 41.0148 55.89 40.3828 52.8481C42.9323 53.2745 45.3331 53.756 47.8898 53.0575C50.1541 52.439 51.7887 51.2298 53.0773 49.3063ZM63.0568 82.243C63.6268 83.4176 62.2531 84.4737 61.5875 85.3785C60.7095 86.5712 59.8895 87.8171 58.8683 88.8957C58.5619 87.67 58.2932 86.2906 57.4758 85.2839C56.4318 83.9984 55.2133 84.5236 53.9345 83.9154C55.2756 83.2629 56.9883 83.512 58.4111 82.9301C59.8145 82.3563 61.2316 81.9058 62.5376 81.1603C62.7111 81.521 62.8823 81.8828 63.0568 82.243ZM58.0827 109.65C57.2255 109.697 57.799 107.889 57.8546 107.44C58.0077 106.205 58.1623 104.971 58.2966 103.734C59.0038 105.599 59.7108 107.464 60.4178 109.329C59.6407 109.44 58.8686 109.606 58.0827 109.65ZM56.6884 118.59C56.8052 118.85 57.3506 119.716 56.9201 119.876C56.3299 120.095 56.2591 118.66 56.6884 118.59ZM55.6656 98.4982C52.9348 100.678 50.2229 102.864 47.2682 104.741C46.6209 105.153 45.969 105.325 45.5397 104.509C45.2028 103.868 45.5589 103.145 45.7753 102.518C46.3269 100.917 47.2878 99.5261 48.3527 98.2236C50.4797 95.6223 53.0114 93.4007 56.2415 92.3751C56.7701 92.2073 57.5859 91.701 57.7708 92.4002C57.88 92.8114 57.4186 93.8385 57.325 94.2244C56.9392 95.8184 57.0235 97.4147 55.6656 98.4982ZM63.5264 114.399C63.5867 116.25 58.5257 114.757 57.895 114.426C58.5567 114.204 63.4993 113.567 63.5264 114.399ZM65.4056 114.41C65.7064 114.491 66.8595 114.592 66.4289 114.986C66.0434 115.339 64.2973 115.198 63.8344 115.241C64.1455 114.22 64.3816 114.138 65.4056 114.41ZM64.4682 111.93C64.355 112.342 64.3089 112.971 63.9399 113.253C63.4799 113.605 62.5026 113.391 61.9821 113.394C61.0979 113.399 60.2146 113.444 59.3348 113.532C58.9981 113.565 57.6346 113.976 57.3188 113.696C57.0871 113.49 57.1735 112.524 57.3423 112.306C57.6889 111.86 58.4869 112.015 58.987 111.997C60.8171 111.932 62.6371 111.926 64.4682 111.93ZM63.2932 105.087C63.0351 104.703 62.9888 104.708 62.8786 104.128C62.7607 103.507 62.4613 102.976 62.2852 102.377C61.8975 101.057 63.1357 101.174 64.0441 101.658C66.4002 102.913 65.8316 107.3 65.2489 109.353C64.4018 108.73 64.0891 108.448 63.7977 107.443C63.687 107.061 63.5626 106.686 63.4475 106.307C63.3627 106.027 63.4217 105.279 63.2932 105.087ZM63.4972 83.7395C64.1551 83.6602 64.7568 85.7013 64.5691 86.1429C64.1843 87.0465 62.7147 87.8536 61.966 88.4302C61.4677 88.8143 60.9728 89.2544 60.4401 89.5893C59.9456 89.8998 59.6612 89.7255 59.2011 89.8748C58.5358 90.0902 58.3744 90.7943 57.6935 91.0969C56.7352 91.5228 55.5735 91.642 54.5728 92.0265C53.3584 92.493 52.2451 92.5057 50.9718 92.2846C49.1407 91.9668 46.9941 91.0583 47.1593 88.8331C47.4502 84.9071 55.2469 82.8955 57.3734 86.2244C57.9268 87.0907 57.9182 88.1008 58.2774 89.0315C58.6666 90.0387 59.0439 89.6428 59.6294 88.9011C60.3951 87.9304 61.1065 86.9076 61.8422 85.9138C62.0804 85.5927 63.0224 83.7975 63.4972 83.7395ZM15.7155 121.965C15.678 122.632 15.7181 123.31 15.4859 123.947C15.2518 124.589 14.7776 125.109 14.5045 125.733C13.9506 126.998 13.9547 128.53 13.9769 129.885C14.0284 133.04 14.7755 136.104 15.1706 139.222C13.8554 139.218 12.4957 139.233 11.2211 138.857C10.0825 138.521 9.90067 137.689 9.57872 136.64C8.67441 133.695 7.69795 130.763 7.406 127.679C7.26713 126.209 7.20868 124.727 7.14222 123.252C7.0843 121.959 7.3747 121.395 8.54227 120.754C11.0804 119.362 13.7114 118.203 16.2234 116.745C15.9666 118.475 15.8132 120.219 15.7155 121.965ZM124.066 18.5987C123.448 18.4852 122.825 18.4144 122.201 18.3399C121.876 18.3011 120.862 18.3551 120.618 18.1431C120.328 17.8907 120.83 15.9823 120.856 15.5726C121.013 13.11 120.83 10.5711 120.604 8.11781C120.196 3.67628 118.799 -0.438412 115.576 -3.63656C113.972 -5.22853 112.169 -6.49157 109.978 -7.10108C108.702 -7.45624 107.387 -7.64561 106.108 -7.98996C105.076 -8.2681 104.113 -8.58646 103.041 -8.69668C100.903 -8.91659 98.9488 -9.72437 96.8624 -10.1917C95.3274 -10.5355 92.8585 -11.351 91.8635 -9.61777C91.0802 -10.5365 90.2922 -11.2263 89.3041 -11.9117C88.3579 -12.5681 88.2033 -13.2238 87.0445 -12.4658C84.7929 -10.9929 82.6843 -9.19621 80.5814 -7.5205C78.6174 -5.95547 76.7169 -4.31656 74.6585 -2.87739C72.5592 -1.40934 72.9575 1.08185 73.9445 3.14714C75.802 7.03455 78.6668 10.3578 81.1746 13.6898C82.7453 15.7772 84.3212 17.8674 85.8857 19.959C87.3815 21.9579 88.6752 24.2716 90.4228 26.0675C91.525 27.1997 92.8402 25.7192 93.8345 25.0352C95.069 24.1855 96.2816 23.3042 97.5174 22.457C100.091 20.6923 102.845 19.0394 105.561 17.5033C105.759 18.0634 105.956 18.6236 106.154 19.1839C105.557 19.2287 104.751 19.0952 104.448 19.7368C104.014 20.653 105.078 20.7733 105.265 21.2988C105.432 21.7678 104.748 23.007 104.546 23.4298C104.091 24.3825 103.457 25.2038 102.757 25.9879C99.9904 29.0913 96.489 31.3111 92.9366 33.4269C89.135 35.6907 85.0606 37.0729 80.8987 38.5316C78.7823 39.2733 76.5858 39.618 74.402 40.0928C72.2978 40.5505 70.1951 41.1517 68.0449 41.3245C63.6456 41.6775 58.9772 41.942 54.631 40.9932C54.1551 40.8895 53.6516 40.6646 53.1678 40.6219C52.7797 40.5875 52.4924 40.7501 52.1262 40.7711C51.3395 40.8161 50.8888 40.1127 50.264 40.7662C49.9514 41.093 49.946 41.6418 49.5102 41.0318C48.956 40.2557 50.3726 40.1057 50.8976 39.8846C52.6648 39.1401 54.0856 37.6416 55.2087 36.1264C56.3307 34.6126 56.4921 32.9959 55.8089 31.2234C55.1256 29.4518 53.5723 28.2509 52.406 26.812C51.842 26.1154 51.3227 25.3784 50.7034 24.728C50.3726 24.3807 49.8397 24.0482 49.819 23.6978C49.7949 23.2905 50.0388 23.0882 49.8929 22.5933C49.8552 22.4645 49.6936 22.3913 49.6592 22.2499C49.6046 22.0244 49.6889 21.8309 49.6605 21.6111C49.595 21.1074 49.3975 20.7909 49.1177 20.3781C48.9436 20.1201 48.6887 19.6036 48.4489 19.4105C48.0287 19.0717 47.4557 19.2098 47.0285 18.8664C46.3525 18.3233 46.1148 17.179 45.5167 16.5196C44.675 15.5918 44.4952 16.5292 43.6033 16.2336C42.8407 15.9804 42.8495 14.8328 42.2333 14.4446C41.3652 13.898 40.6341 14.9039 39.8633 15.1279C38.849 15.4227 39.2388 14.2784 38.3347 14.1741C37.5186 14.08 36.3877 15.7358 35.9807 16.3239C35.5659 15.8405 35.1123 15.0169 34.366 15.312C33.5827 15.6218 33.4433 17.0637 32.8708 17.5781C32.6712 17.757 32.7133 17.8889 32.4679 17.9714C32.1509 18.0774 31.7286 17.6174 31.3187 17.7575C30.492 18.0407 30.5928 19.1439 30.5913 19.8586C29.6158 19.7161 28.9355 19.6435 28.6089 20.6947C28.2892 21.7236 28.168 21.2695 27.1395 21.6039C26.2531 21.8917 26.1289 22.7337 25.9826 23.5571C25.8921 24.0691 25.9758 24.2783 26.1137 24.7451C26.2874 25.3331 26.2874 25.3259 26.004 25.887C25.5104 26.8666 25.4809 27.9455 25.402 29.0233C25.3182 30.1733 25.117 31.2203 25.4439 32.3437C25.6459 33.0388 25.6614 33.9847 26.3423 34.3739C26.6122 34.5283 27.071 34.4437 27.3009 34.5968C27.7395 34.889 27.606 35.3336 27.8982 35.7603C28.117 36.0796 28.4703 36.1104 28.7154 36.3693C28.982 36.6511 28.9981 36.9943 29.1498 37.3382C29.5993 38.3566 30.0221 38.8492 28.5569 38.9074C27.6528 38.9433 26.6885 39.2143 25.7881 39.1311C24.7258 39.0333 24.4615 38.4393 24.1232 37.535C22.4188 32.978 21.5029 28.0388 19.2583 23.7055C18.7654 22.7539 16.7424 18.8669 15.8872 21.6991C15.1662 24.0877 16.1122 27.0029 16.475 29.3804C15.3369 28.3548 14.9159 26.5071 14.0517 25.2548C13.4135 24.3295 11.4148 22.0575 10.2431 23.3595C9.31987 24.3856 9.55054 26.5617 9.72095 27.7885C9.99015 29.7295 10.6105 31.6 11.0535 33.5037C10.4957 32.774 10.2206 31.8831 9.83344 31.0616C9.34806 30.0313 8.74242 29.0538 8.05223 28.1485C7.44918 27.3574 6.77476 26.622 6.04345 25.9475C5.48462 25.4316 4.48385 24.3026 3.69021 24.2416C1.64756 24.0849 2.28991 27.8317 2.601 28.9028C3.24594 31.1231 3.94493 33.2821 4.44557 35.5469C5.4241 39.972 6.60925 44.295 7.33022 48.7765C7.48977 49.77 7.68191 50.5631 7.2891 51.5184C6.94258 52.3599 6.5834 53.3661 5.9444 54.0131C4.49807 55.4783 3.29715 57.0428 2.21595 58.8082C1.05796 60.6991 -0.134176 62.6119 -1.07935 64.6192C-1.51405 65.5426 -1.86962 66.5416 -2.36923 67.4298C-2.82022 68.2315 -3.36224 68.8651 -3.6829 69.7528C-5.21483 73.9943 -6.34903 78.1616 -6.86829 82.6529C-7.29472 86.3403 -6.89752 91.2453 -2.44551 92.108C-0.40027 92.5044 1.43603 91.5975 3.28034 90.8489C5.18775 90.0749 6.5671 88.8163 8.12282 87.4789C10.0561 85.8171 12.0633 84.258 14.017 82.624C15.9718 80.9889 17.7773 79.1756 19.7214 77.5231C21.6415 75.8904 23.3787 74.1565 25.0392 72.2607C26.6867 70.3799 28.0247 68.2964 29.6195 66.3893C29.6135 68.8583 29.2471 71.3049 29.1442 73.7706C29.0503 76.0313 29.048 78.2896 29.1393 80.5492C29.2305 82.8076 28.6339 84.957 28.629 87.2104C28.6239 89.4085 28.5367 91.5939 28.4886 93.7897C28.4672 94.7747 28.274 95.8796 28.642 96.83C28.9169 97.5396 29.7806 97.7614 30.5176 97.9525C31.6564 98.2481 35.0826 97.679 35.5912 98.8957C35.869 99.5595 35.5892 100.768 35.6109 101.502C35.6471 102.711 35.6913 103.919 35.7327 105.128C35.7756 106.376 35.8173 107.625 35.8628 108.873C35.9031 109.973 36.117 111.198 35.9846 112.287C35.871 113.22 35.327 113.098 34.4645 113.146C33.163 113.218 31.8612 113.275 30.5589 113.332C28.6487 113.416 26.6554 113.378 24.824 113.603C24.055 113.698 23.2145 113.657 22.4033 113.812C21.3857 114.005 20.446 114.054 19.4139 114.106C18.582 114.147 17.5125 114.086 16.8587 114.701C16.6322 114.915 16.5813 115.169 16.4207 115.407C16.1194 115.852 16.287 115.734 15.7928 115.835C13.8632 116.226 12.0305 116.666 10.1435 117.324C9.19885 117.653 8.32246 118.095 7.37341 118.405C6.54176 118.676 5.93225 119.011 5.52108 119.827C4.78667 121.285 4.9726 123.395 5.02587 124.966C5.10965 127.418 5.65426 129.752 6.24153 132.123C6.85259 134.59 7.33178 137.123 8.52055 139.389C8.91103 140.134 9.3328 141.084 10.1306 141.472C11.1606 141.973 12.7447 141.669 13.8688 141.671C14.6232 141.672 16.6441 141.931 17.2081 141.299C17.754 140.686 17.2047 138.959 17.1277 138.198C16.8575 135.534 16.371 132.845 16.3775 130.163C16.993 131.072 18.0599 132.642 19.1279 131.249C19.3907 130.906 19.288 130.747 19.7548 130.548C20.0128 130.438 20.5572 130.371 20.8383 130.39C21.2208 130.415 21.3622 130.569 21.7134 130.494C22.0245 130.427 22.3741 130.149 22.7307 130.064C27.1512 129.013 31.5458 127.881 35.9851 126.945C37.1589 126.697 36.9921 127.599 37.0696 128.613C37.1552 129.736 36.9918 130.869 37.1475 131.979C37.283 132.945 37.3885 133.886 37.1976 134.857C36.9727 136.003 37.1175 136.959 37.3417 138.093C38.2051 142.468 38.0508 147.214 38.2455 151.661C38.3468 153.977 38.1294 156.341 38.3471 158.645C38.4293 159.515 38.915 159.996 39.1118 160.787C39.3378 161.696 38.7216 162.853 38.5341 163.733C38.1573 165.501 37.4955 168.03 38.706 169.568C39.3598 170.398 40.2168 170.519 41.1844 170.799C42.3427 171.135 43.4841 171.527 44.6476 171.846C48.8989 173.009 53.4931 173.237 57.8502 173.878C58.9172 174.035 59.9068 174.02 60.9805 173.946C61.6425 173.9 63.2727 174.118 63.823 173.722C64.1178 173.51 63.9686 173.244 64.1184 172.985C64.3312 172.617 64.5893 172.467 64.9516 172.238C65.5518 171.859 66.2458 171.637 66.3472 170.854C66.5949 168.936 64.198 167.92 62.9166 167.091C61.2787 166.031 59.3004 165.622 57.5624 164.756C56.6035 164.279 55.6783 163.738 54.7543 163.196C54.3537 162.961 53.5415 162.696 53.2622 162.326C52.9772 161.949 53.2562 161.41 53.3742 160.871C53.8614 158.643 53.6966 156.365 53.9488 154.113C54.2006 151.858 54.1321 149.589 54.2151 147.322C54.3007 144.988 54.4936 142.659 54.6416 140.328C54.7778 138.175 54.9151 135.988 54.9379 133.833C54.9594 131.834 55.2319 129.874 55.2963 127.863C55.3183 127.18 55.1957 125.942 55.649 125.363C56.0465 124.856 57.3628 124.92 57.9767 124.831C59.6314 124.591 61.2063 124.38 62.8424 124.235C66.7354 123.891 71.0676 123.637 74.7488 122.28C76.267 121.721 78.2871 120.956 78.7909 119.213C79.3701 117.209 78.614 114.746 78.5889 112.697C78.5623 110.509 77.9279 108.375 77.4524 106.256C76.9404 103.974 76.6179 101.653 76.0645 99.3795C75.5569 97.2936 74.7332 95.4462 73.9546 93.4659C73.6386 92.6627 71.8398 89.8949 72.3979 89.2125C72.6983 88.8448 73.7811 88.7517 74.2204 88.5833C75.1672 88.2213 76.1157 87.8093 76.9887 87.2934C78.1542 86.6045 80.7066 85.4649 80.8242 83.9343C80.9362 82.4714 79.4987 80.993 78.7679 79.844C77.5907 77.9928 76.1056 76.3744 74.9843 74.4864C72.7183 70.6711 70.9164 66.4922 69.2642 62.3805C68.3999 60.2295 68.1176 58.2039 67.9753 55.9078C70.485 55.9137 73.0394 56.2225 75.5331 55.8716C78.2471 55.4897 80.9646 54.8463 83.6548 54.3161C88.5539 53.3505 93.2576 52.2603 97.7959 50.086C102.046 48.0501 106.358 45.8218 109.877 42.5898C111.696 40.9188 113.552 39.2156 115.123 37.3046C116.737 35.3416 117.951 33.1112 119.197 30.9074C120.571 28.4748 121.665 25.9183 122.53 23.2576C122.704 22.7226 122.705 22.0414 122.928 21.5361C123.179 20.9657 123.636 20.9507 124.113 20.6502C124.785 20.2274 125.232 18.8126 124.066 18.5987Z" fill="black"/>
<path fill-rule="evenodd" clip-rule="evenodd" d="M66.8585 9.18629C67.1827 8.54833 68.0449 8.31379 68.4434 7.69652C68.9231 6.95434 69.1434 6.30485 68.9666 5.39474C67.739 5.80798 66.3423 7.05882 65.521 8.03683C64.8344 8.85425 63.8593 10.5623 65.6508 10.5667C65.6353 10.3236 65.6195 10.08 65.6038 9.83718C66.1411 9.91528 66.6146 9.66702 66.8585 9.18629Z" fill="black"/>
<path fill-rule="evenodd" clip-rule="evenodd" d="M72.276 16.147C72.7878 15.7177 73.3458 14.4749 73.4493 13.8336C73.4899 13.5822 73.3089 13.3898 73.3303 13.2049C73.3717 12.8525 74.096 12.1713 73.3373 11.8822C72.6737 11.629 72.05 13.5954 71.8814 14.0244C71.7084 14.4633 71.2372 15.3182 71.3818 15.7425C71.5018 16.0948 71.9303 16.4366 72.276 16.147Z" fill="black"/>
<path fill-rule="evenodd" clip-rule="evenodd" d="M50.8907 61.3026C50.7834 60.9101 50.3937 58.5103 49.7195 58.6737C49.2075 58.7979 49.7395 60.9098 49.7633 61.1878C49.8132 61.7691 48.6958 61.75 48.1765 61.6714C47.3529 61.547 47.4191 61.0645 47.2957 60.3158C47.2494 60.0329 47.0713 58.7542 46.4811 59.2225C46.0824 59.539 46.3674 61.1157 46.4005 61.4754C46.5155 62.7216 46.6508 64.8493 47.3917 65.9806C47.687 66.4322 47.9526 66.6548 48.2629 66.0761C48.5768 65.4904 47.8662 63.7053 47.7418 63.1063C48.328 63.1635 50.0156 62.9734 50.3689 63.5824C50.6913 64.1382 50.1755 65.7262 51.2101 65.855C51.8238 65.9315 51.7126 65.2206 51.6536 64.674C51.5297 63.5268 51.193 62.4105 50.8907 61.3026Z" fill="black"/>
<path fill-rule="evenodd" clip-rule="evenodd" d="M52.4626 60.7474C51.783 61.0544 52.6361 65.5302 53.6304 65.3859C54.7908 65.217 53.1101 60.455 52.4626 60.7474Z" fill="black"/>
<path fill-rule="evenodd" clip-rule="evenodd" d="M51.7053 59.2654C51.6215 60.2731 52.931 60.6486 52.9931 59.5535C53.0407 58.7086 51.7935 58.2059 51.7053 59.2654Z" fill="black"/>
<path fill-rule="evenodd" clip-rule="evenodd" d="M44.5168 32.5464C45.1147 34.7745 50.5566 35.7222 49.8235 32.7173C49.4563 31.2128 47.9228 32.5495 46.8522 32.3744C46.1594 32.2612 44.0958 30.9752 44.5168 32.5464Z" fill="black"/>
<path fill-rule="evenodd" clip-rule="evenodd" d="M43.1501 28.572C43.4061 27.3799 40.7981 26.0639 39.8516 26.392C38.4674 26.8725 38.4733 29.9434 39.5294 30.7597C39.6683 30.8671 40.0942 31.1233 40.3029 30.919C40.6321 30.5961 40.2724 30.6842 40.1956 30.3618C40.0735 29.849 39.6748 29.1906 40.072 28.6069C40.8229 27.5048 42.7836 30.2803 43.1501 28.572Z" fill="black"/>
<path fill-rule="evenodd" clip-rule="evenodd" d="M35.1979 34.3589C34.2577 34.3061 33.4865 35.7656 34.87 35.6433C35.1351 35.6198 35.7043 35.5531 35.8579 35.2748C36.1123 34.8137 35.6114 34.3822 35.1979 34.3589Z" fill="black"/>
<path fill-rule="evenodd" clip-rule="evenodd" d="M80.8143 -0.433394C80.4924 -0.89892 79.8177 -1.64813 79.2371 -1.18118C78.7225 -0.767088 78.8123 0.254938 79.0098 0.762796C79.541 2.13005 80.7957 3.34807 82.2157 2.56033C81.7223 1.57215 81.4445 0.477953 80.8143 -0.433394Z" fill="black"/>
</g>
</svg>
