<svg width="142" height="228" viewBox="0 0 142 228" fill="none" xmlns="http://www.w3.org/2000/svg">
<rect width="142" height="228" rx="30" fill="#BBBAFF"/>
<mask id="mask0_138_4" style="mask-type:alpha" maskUnits="userSpaceOnUse" x="0" y="0" width="142" height="228">
<rect width="142" height="228" rx="30" fill="#BBBAFF"/>
</mask>
<g mask="url(#mask0_138_4)">
<path fill-rule="evenodd" clip-rule="evenodd" d="M12.4653 102.735C13.5242 110.671 14.5829 118.607 15.6418 126.544L16.4968 132.953C16.6048 133.761 16.5028 135.357 16.914 136.081C17.0593 136.336 17.4411 136.457 17.7217 136.608C18.6878 137.126 19.6542 137.645 20.6203 138.163C28.7931 142.548 36.966 146.933 45.1384 151.318C52.9819 155.527 60.8255 159.735 68.6688 163.943C69.4805 164.379 70.7933 165.515 71.6695 165.216C72.5024 164.931 73.3536 164.229 74.1098 163.787C75.5614 162.937 77.0128 162.087 78.4644 161.236C87.2477 156.092 96.0308 150.948 104.814 145.804C108.438 143.681 112.062 141.559 115.686 139.437C116.677 138.856 117.669 138.275 118.66 137.694C119.179 137.391 119.246 137.401 119.45 136.886C120.213 134.959 120.567 132.751 121.107 130.751C121.702 128.548 122.297 126.344 122.892 124.14C123.157 123.157 123.033 123.03 122.6 122.081C121.743 120.202 120.887 118.323 120.031 116.445C118.13 112.275 116.23 108.105 114.329 103.936C113.56 102.25 111.708 101.063 110.376 99.8228L89.6797 80.5666C89.154 80.0774 88.6283 79.5884 88.1027 79.0992C88.0161 82.0389 87.4349 85.1992 88.2874 88.039C89.6866 92.6995 91.0856 97.36 92.4845 102.021C93.1608 104.273 93.8368 106.526 94.5131 108.778C94.6387 109.197 95.4036 110.857 95.1992 111.225C95.0859 111.429 94.1198 111.635 93.9105 111.715C93.0115 112.056 92.1126 112.398 91.2134 112.74C88.7087 113.692 86.2039 114.645 83.6992 115.597C81.4464 116.453 79.1935 117.31 76.9407 118.166C76.1767 118.457 75.2796 118.995 74.4728 118.95C73.751 118.91 72.9303 118.553 72.232 118.373C71.0042 118.057 69.7761 117.741 68.5483 117.425C66.1364 116.804 63.7242 116.183 61.3123 115.562C58.5987 114.864 56.3071 112.812 53.9864 111.294C49.9975 108.683 46.0086 106.073 42.0199 103.463C41.1066 102.866 41.1033 102.525 40.7394 101.434C39.9216 98.9817 39.1037 96.5299 38.286 94.078C37.8493 92.7689 37.3123 91.4542 36.9825 90.1139C36.4385 87.9019 36.1159 85.6121 35.6851 83.3757C35.5552 82.7009 35.4251 82.026 35.2953 81.3512C33.6248 82.0287 31.9543 82.7063 30.2836 83.3839C30.0415 83.482 28.8616 83.7748 28.7568 84.0154C28.6903 84.1675 29.0412 84.8576 29.0914 85.0059C30.4766 89.1058 31.8617 93.2055 33.247 97.3052C33.6828 98.5949 34.1183 99.8844 34.5541 101.174C33.513 99.539 32.4717 97.9036 31.4304 96.2685C30.6124 99.0185 29.7943 101.769 28.9761 104.519C27.0425 102.289 25.1088 100.059 23.175 97.8294C22.5056 100.059 21.8363 102.289 21.1669 104.519C19.0845 101.769 17.0022 99.0185 14.9196 96.2685C14.6721 97.7036 14.4245 99.1387 14.1768 100.574C14.1021 101.007 14.117 102.25 13.8285 102.593C13.5909 102.875 12.9068 102.735 12.4653 102.735Z" fill="#FF5678"/>
<path fill-rule="evenodd" clip-rule="evenodd" d="M144.314 119.89C144.197 123.626 144.278 128.475 142.232 131.76C141.902 132.29 140.784 133.941 140.659 132.489C140.536 131.062 140.887 129.65 140.539 128.207C140.353 127.435 139.727 125.749 138.658 126.447C138.113 126.802 137.969 127.679 137.756 128.233C137.44 129.053 137.087 129.859 136.754 130.672C135.594 133.511 134.392 136.899 131.813 138.778C132.151 136.33 133.07 133.716 132.452 131.242C132.241 130.398 131.603 128.858 130.504 129.352C129.432 129.834 128.738 131.982 128.232 132.939C126.699 135.839 125.131 138.685 123.405 141.476C122.537 142.881 121.6 144.164 120.464 145.365C119.754 146.117 118.868 147.387 117.749 147.499C117.749 145.357 118.454 143.289 119.097 141.272C119.79 139.104 120.421 136.917 121.101 134.745C121.69 132.861 122.174 130.991 122.566 129.058C122.729 128.259 122.858 127.432 123.539 126.915C124.152 126.452 125.12 126.231 125.803 125.89C127.597 124.994 129.442 124.028 131.108 122.915C131.793 122.457 132.382 121.867 133.098 121.457C133.915 120.99 134.677 120.597 135.432 120.027C138.691 117.571 141.629 114.549 143.608 110.952C143.929 112.397 144.355 113.809 144.402 115.299C144.45 116.826 144.362 118.363 144.314 119.89ZM117.493 137.061C116.972 136.182 116.178 136.542 115.478 136.966C114.392 137.624 113.304 138.277 112.212 138.927C109.992 140.249 107.812 141.641 105.642 143.045C101.226 145.902 96.6552 148.24 91.9989 150.659C87.4986 152.996 83.1762 155.777 78.9597 158.588C77.9463 159.264 76.94 159.955 75.9669 160.688C75.1033 161.338 74.4125 162.252 73.5033 162.831C72.5564 163.434 71.9055 162.944 70.9999 162.5C69.8673 161.944 68.687 161.478 67.5293 160.976C62.8574 158.952 58.1721 156.851 53.6274 154.553C49.1101 152.27 44.83 149.639 40.5017 147.026C38.4403 145.781 36.4142 144.458 34.3809 143.168C32.2171 141.795 29.9767 140.767 27.707 139.599C26.7027 139.083 25.8131 138.381 24.7816 137.912C23.6973 137.418 22.5518 137.064 21.5808 136.352C21.1455 136.033 20.7782 135.651 20.2807 135.425C19.8721 135.24 19.4085 135.209 19.0051 135.012C18.1844 134.612 17.9495 133.799 17.7906 132.954C16.7685 127.527 16.2252 121.95 15.6329 116.463C15.3 113.377 14.9285 110.304 14.4684 107.234C14.2609 105.851 14.6781 104.779 14.8972 103.432C15.1529 101.86 15.254 100.255 15.4254 98.6721C16.2339 100.169 16.9332 101.74 17.962 103.106C18.7204 104.113 20.0158 105.541 21.4123 105.507C23.5828 105.455 23.4835 101.734 23.571 100.258C24.5596 101.14 24.8595 102.576 25.6801 103.601C26.4294 104.536 27.449 105.696 28.5997 106.115C31.0223 106.997 30.7891 102.503 30.6559 101.228C30.589 100.589 30.2278 99.5774 31.0848 99.8688C31.8739 100.137 32.6419 101.25 33.3052 101.761C34.4518 102.643 35.7096 103.376 36.8858 104.219C38.3453 105.264 39.92 106.02 41.408 106.993C42.3387 107.602 43.3539 107.739 44.3684 108.187C45.8548 108.843 47.1678 109.821 48.5826 110.607C51.3844 112.165 54.4924 113.561 57.5569 114.5C58.5485 114.803 59.8698 115.66 60.6219 114.78C61.0851 114.238 61.3895 113.411 61.7826 112.804C62.2799 112.036 62.8081 111.288 63.3565 110.555C65.3061 107.95 67.4697 105.491 69.8725 103.294C72.6679 100.738 75.7246 98.4386 78.9942 96.5232C80.399 95.7002 86.2648 92.0115 87.5542 94.6076C86.4946 94.5416 85.5762 94.9289 84.6702 95.4139C84.449 95.5323 83.3087 96.3462 83.5755 95.6288C83.2442 95.6908 82.9537 96.1225 82.7029 96.3145C82.2694 96.6463 81.6119 97.0294 81.1098 97.3041C80.6136 97.5755 80.0005 97.6419 79.5482 97.971C79.3831 98.0912 79.283 98.2861 79.1254 98.4161L78.6738 98.4197C78.6062 98.6696 78.5386 98.9193 78.471 99.1693C78.2158 98.3516 77.8516 99.415 77.4253 99.7604C77.1689 99.968 76.763 100.182 76.4612 100.316C76.2356 100.416 76.2008 100.183 75.9817 100.36C75.7871 100.517 75.6631 100.864 75.4538 101.061C75.197 101.302 74.8683 101.49 74.5821 101.696C74.0336 102.09 73.4535 102.4 72.8979 102.774C72.1505 103.278 71.7585 104.144 71.0329 104.67C70.6891 104.919 70.1551 104.949 69.9691 105.108C69.5025 105.509 69.6562 106.117 68.7861 106.143C68.8653 106.27 68.9128 106.407 68.9291 106.556C68.7218 106.52 68.5375 106.434 68.3762 106.298C68.4124 107.165 67.5589 107.475 67.0473 108.009C66.7524 108.317 66.3849 108.75 66.1769 109.12C66.1423 109.182 66.0763 109.676 66.062 109.683C65.983 109.721 65.5022 109.299 65.5477 109.334C65.4136 110.135 64.6376 110.893 64.2978 111.635C64.1189 112.026 63.937 112.654 63.5843 112.929C63.4883 113.004 63.1932 112.926 62.9493 113.186C62.7703 113.376 62.564 113.728 62.4912 113.981C62.4428 114.149 62.501 114.586 62.4314 114.687C62.3038 114.872 62.1052 114.686 61.9053 114.823C61.5358 115.076 61.5265 115.471 60.9858 115.523C61.3585 116.428 63.6084 116.707 64.4261 116.964C66.7387 117.692 69.1649 118.418 71.3267 119.532C71.8859 119.82 72.4149 120.058 72.514 120.722C72.6521 121.645 72.1811 122.873 72.0912 123.806C71.8477 126.326 71.798 128.919 71.8488 131.45C71.897 133.846 71.9747 136.265 72.0865 138.659C72.19 140.878 72.6378 143.054 72.8794 145.257C72.9457 145.862 72.9015 148.59 73.9421 148.452C74.811 148.338 74.2623 146.475 74.246 145.941C74.2097 144.759 74.4587 143.552 74.4482 142.359C74.4433 141.786 74.6941 141.292 74.7182 140.744C74.742 140.202 74.4725 139.773 74.5533 139.211C74.6309 138.672 76.2258 135.571 74.6941 135.934C74.7837 135.491 74.8623 135.044 74.9808 134.607C75.1445 134.754 75.2766 134.926 75.3761 135.122C75.5125 134.17 75.4669 133.219 75.5515 132.266C75.5894 131.834 75.7646 131.361 75.7048 130.926C75.7162 130.746 75.6932 130.569 75.6361 130.395C75.5419 130.295 75.4252 130.243 75.2867 130.238C75.2137 130 75.195 129.934 75.3244 129.7C75.3799 129.542 75.4901 129.443 75.655 129.403C75.9692 129.366 76.0051 129.186 75.7626 128.862C75.8891 128.223 75.9054 127.82 75.8141 127.183C75.7374 126.648 76.0196 125.611 75.732 125.134C75.3962 124.577 75.2293 125.118 75.1668 124.345C75.1535 124.182 75.1428 123.841 75.2086 123.678C75.2806 123.501 75.4973 123.573 75.5249 123.51C75.713 123.081 75.7255 122.236 75.06 122.309C75.0861 122.003 75.1122 121.696 75.1381 121.389C75.6189 121.943 75.4509 121.474 75.7235 121.167C76.0908 120.753 76.45 120.681 76.975 120.517C78.3742 120.081 79.7223 119.425 81.0895 118.892C83.9847 117.765 86.9337 116.758 89.7441 115.426C95.6552 112.623 101.449 109.58 107.396 106.851C106.971 106.063 107.236 106.025 107.546 105.285C107.961 105.573 107.873 105.372 108.168 105.355C108.142 105.108 108.218 105.033 108.399 105.131C108.542 105.175 108.689 105.191 108.84 105.178C109.208 105.241 109.509 105.443 109.844 105.52C109.953 105.601 110.074 105.662 110.206 105.703C110.324 105.676 110.425 105.617 110.508 105.527C111.05 105.627 111.232 106.035 111.256 106.626C111.26 106.729 110.946 106.834 111.036 106.972C111.193 107.213 111.617 107.156 111.859 107.186C111.806 107.437 111.753 107.687 111.7 107.938C112.763 107.447 112.486 108.982 112.808 109.486C112.898 109.627 113.098 109.515 113.202 109.678C113.338 109.89 113.297 110.192 113.413 110.403C113.675 110.883 113.937 110.824 114.198 111.373C115.561 114.238 117.374 116.908 118.682 119.834C119.305 121.227 119.867 122.644 120.517 124.025C121.116 125.295 121.458 126.376 121.031 127.763C120.042 130.982 118.984 134.26 117.687 137.37C117.623 137.267 117.558 137.164 117.493 137.061ZM48.4838 161.09C48.391 161.248 48.2982 161.406 48.2054 161.564C47.9992 160.379 48.5485 160.928 48.4838 161.09ZM44.12 158.871C43.8226 158.782 43.9511 158.296 43.9607 158.089C44.1488 158.323 44.3333 158.562 44.49 158.819C44.3666 158.837 44.2432 158.854 44.12 158.871ZM32.1602 154.315C32.4725 154.14 32.6972 154.014 33.0513 153.816C32.6914 154.517 32.6914 154.517 32.1602 154.315ZM13.3448 92.5638C12.8675 93.7344 14.3227 100.963 12.9679 101.198C12.7736 100.564 12.7493 98.8172 11.9449 98.6087C10.9469 98.3499 11.0453 100.148 10.909 100.704C8.86008 99.2797 7.94997 96.5286 6.97115 94.3483C5.72346 91.5693 4.74174 88.6788 3.8042 85.7832C3.00253 83.3075 2.33964 80.788 1.5295 78.3163C1.02056 76.7639 0.471912 75.2078 0.129646 73.6077C0.0553474 73.26 -0.23716 72.3786 0.0113945 72.0481C0.372623 71.5676 1.67296 72.1179 2.09198 72.2441C4.81023 73.0616 7.63002 73.4134 10.4228 73.8884C13.5257 74.4157 16.6217 74.9609 19.7434 75.3699C20.5234 75.472 21.3039 75.5688 22.0848 75.6629C22.5913 75.7239 23.3579 75.6629 23.839 75.8898C24.8127 76.349 25.0199 78.106 25.3816 79.0176C26.7308 82.4185 28.3187 85.7119 29.7393 89.082C31.0192 92.1178 31.9893 95.3477 33.8289 98.1119C32.4569 97.5041 30.7182 94.2905 29.1851 96.1428C28.526 96.9393 28.6922 97.9886 28.7449 98.9419C28.8212 100.32 28.8451 101.708 28.8451 103.088C27.3448 102.699 26.3368 100.997 25.5492 99.7912C24.4733 98.1445 23.7957 96.5928 23.3193 94.705C23.1129 93.8876 22.5658 93.8673 22.0797 93.3781C21.7673 93.0637 21.6102 92.64 21.1622 93.0974C20.599 93.6722 20.9737 95.2641 21.0709 95.9428C21.3019 97.5578 22.0594 100.043 21.3231 101.561C20.3293 103.609 17.6664 98.4558 17.3544 97.7115C17.1958 97.3326 14.3626 90.0669 13.3448 92.5638ZM11.4844 57.4646C11.6522 57.4903 11.8197 57.5159 11.9875 57.5416C11.8523 57.6609 11.571 58.0792 11.3412 57.9686C11.3889 57.8007 11.4367 57.6328 11.4844 57.4646ZM20.3712 55.5588C20.3188 55.6166 20.2659 55.6741 20.2133 55.7319C19.9727 55.4313 20.058 54.9931 20.058 54.6455C20.3759 54.8375 20.4536 55.2215 20.3712 55.5588ZM21.0895 58.8937V59.8762C20.4232 59.5876 20.4101 59.4387 21.0895 58.8937ZM21.8985 60.1428C21.4317 60.0149 21.3759 59.9116 21.4415 59.1947C21.635 59.5963 21.7624 59.861 21.8985 60.1428ZM24.5853 67.4187C24.3896 67.9217 23.2461 66.723 23.2881 66.3642C23.328 66.0219 23.5036 65.9198 23.7459 66.1399C23.826 66.2128 23.7071 66.4761 23.7582 66.5675C23.9427 66.8984 24.3146 67.1691 24.5853 67.4187ZM24.598 70.4494C24.3115 71.1643 23.8008 70.0384 24.5494 70.0077C24.5985 70.1515 24.6147 70.2987 24.598 70.4494ZM24.0422 69.3222C23.9313 69.1744 23.8236 69.0245 23.7189 68.872C24.1045 68.9498 24.4106 69.5113 24.8173 69.1367C24.7691 69.708 24.3631 69.7238 24.0422 69.3222ZM-0.890232 60.0365C-1.51028 59.3602 2.53286 58.8855 3.0206 58.7693C6.56016 57.9258 9.90204 56.7052 13.2116 55.2074C14.7904 54.493 16.3611 53.7699 17.9029 52.9779C18.5687 52.636 19.4812 52.3462 20.0372 51.8329C20.4342 51.4665 20.4183 51.1893 20.9342 50.971C21.3721 50.7862 21.394 50.9608 21.5946 50.6263C21.7151 50.4256 21.8514 49.6903 21.7809 49.4726C21.5888 48.8788 21.3048 49.3602 20.9061 48.9511C20.6189 48.6561 20.6885 47.8172 20.7668 47.4698C20.8686 47.6353 20.927 47.815 20.9426 48.0085C21.3753 47.7954 21.2008 47.0633 21.674 46.9434C22.1727 46.8172 22.1212 47.2054 22.2512 47.6023C22.6281 47.0493 22.326 46.5777 22.1221 46.0376C23.1589 45.8436 24.2729 45.6557 25.3006 46.0004C26.0438 46.2495 26.6799 46.862 27.4646 46.9804C28.2331 47.0961 28.3808 46.732 28.9473 46.3625C29.4071 46.0626 29.802 46.4158 30.0388 46.1893C29.8928 46.9541 28.6383 46.8495 28.7926 47.8052C28.8623 48.2353 29.3897 48.6217 29.6298 48.9564C29.9312 49.3765 30.1715 49.841 30.3768 50.3144C31.1753 52.1557 31.5167 54.2925 31.8518 56.2617C32.6787 61.1222 32.7834 66.0785 33.5612 70.9547C33.9318 73.2772 34.3032 75.6011 34.4958 77.9464C34.544 78.5328 34.9023 79.8629 34.6091 80.427C34.3613 80.9033 33.8097 80.9046 33.3255 81.0199C32.3782 81.2449 31.4886 81.5506 30.5798 81.8893C29.7652 82.1928 29.5285 82.379 29.0055 81.6131C28.4997 80.8719 28.2496 79.9884 27.8877 79.1759C27.4267 78.1406 26.8698 77.1417 26.3352 76.1429C27.3854 76.1429 27.9899 75.5763 27.962 74.5098C27.9316 73.3285 26.9595 73.0482 26.5588 72.0774C26.169 72.5833 26.1362 72.5976 25.8584 72.1173C25.5407 71.5681 25.3263 70.5631 25.1319 69.9401C25.2709 70.0884 25.4099 70.2367 25.5489 70.3847C25.8995 69.9026 25.3504 69.1427 25.1667 68.6887C24.8834 67.9877 24.8334 67.2298 24.5645 66.5308C24.4179 66.1492 24.0784 65.8489 23.9951 65.4509C23.9396 65.1844 24.1623 64.9309 24.1094 64.6604C24.0175 64.1895 23.4844 63.6842 23.3186 63.2052C23.0636 62.4685 22.7867 61.8199 22.4703 61.1021C22.0422 60.1306 22.1417 59.1111 22.0634 58.0772C21.9822 57.0051 21.6386 55.9794 21.5172 54.912C21.4333 54.1746 21.6959 53.2461 21.1377 52.6554C21.0723 53.6372 21.3539 53.622 20.4308 53.7986C19.3799 53.9995 18.6177 54.782 17.6242 55.0154C17.4194 55.0636 17.2701 54.1695 17.35 55.3892C16.8734 55.0375 15.8562 55.4741 16.2357 55.6828C15.9481 55.9903 15.3816 55.7776 15.287 56.2383C14.3095 55.2886 12.7421 58.5211 11.5781 56.8349C11.386 57.9777 10.558 58.6533 9.44643 58.8045C8.88752 58.8803 8.54302 59.0665 8.04703 59.234C7.9464 59.2676 7.90936 59.4124 7.79021 59.4514C7.60815 59.5107 7.34085 59.3316 7.20966 59.3664C6.94259 59.4373 6.64561 59.7885 6.27279 59.8583C5.84529 59.9384 5.37897 59.9016 4.95103 59.8521C4.41599 59.7901 4.1806 59.7268 3.65671 59.9029C3.18548 60.0615 2.68079 60.5054 2.24348 60.022C1.55649 61.2098 -0.0814247 60.9195 -0.890232 60.0365ZM30.8694 45.7027C30.3496 45.6405 30.7106 45.1937 30.9513 45.0594C31.6055 44.6951 31.4308 45.7701 30.8694 45.7027ZM2.08261 49.9652C5.13398 45.5658 10.3532 42.5431 14.9454 39.9998C17.4537 38.6106 20.014 37.2641 22.6477 36.1271C23.9572 35.5621 25.2819 35.0189 26.619 34.5225C27.333 34.2574 28.0557 34.0164 28.7788 33.7765C28.9787 33.7102 29.3424 33.5069 29.5517 33.5267C29.5156 33.5232 30.0718 33.6743 29.9625 33.7218C30.3208 33.566 30.4913 33.1595 30.9125 32.9969C31.386 32.8141 31.9891 32.7385 32.4962 32.722C32.9449 32.7073 33.3333 32.8926 33.7608 32.9071C34.0417 32.9164 34.2805 32.7831 34.5556 32.7635C34.6964 32.7537 34.6839 32.9641 34.7687 32.9764C34.8055 32.9818 35.1803 32.8411 35.1839 32.8435C35.3204 32.9311 35.4414 33.2732 35.5648 33.4068C35.9186 33.7898 36.438 34.0567 36.91 34.2583C37.4843 34.5036 38.8852 34.7502 38.2359 35.6577C38.6971 35.5915 38.9118 36.008 38.3343 36.1135C38.0215 36.1708 37.8879 35.8845 37.6556 35.6892C37.119 35.2388 35.8164 34.5975 35.0436 34.6265C34.6087 34.6427 34.2727 34.9725 33.8717 35.0923C33.477 35.21 33.2816 35.0274 32.9353 35.0564C32.5306 35.09 32.27 35.4323 31.8842 35.4932C31.523 35.5503 31.3217 35.3041 30.9988 35.3213C30.6151 35.3415 30.2434 35.6747 29.877 35.7866C29.2942 35.9646 28.8663 36.0859 28.2973 36.3809C27.1947 36.9528 25.9633 37.17 24.8269 37.6623C23.9184 38.0559 22.8882 38.263 22.0475 38.6983C21.1127 39.1819 20.1736 39.6638 19.2581 40.1893C18.5968 40.5691 17.2523 40.6997 16.5231 40.6032C16.5126 41.9451 15.8517 41.0043 15.1857 41.5921C15.3433 41.731 15.5222 41.8331 15.7219 41.8985C15.0001 42.1866 14.333 42.5451 13.6337 42.8762C12.911 43.2187 12.1399 43.2941 11.6651 43.9419C11.2278 44.5388 11.376 44.2308 10.7233 44.4659C10.4239 44.5738 10.1635 44.9029 9.94778 45.1239C9.57696 45.5038 9.49485 46.0791 9.28311 45.2982C9.2213 45.3934 8.9781 45.9997 8.9308 46.0151C8.66551 45.7337 8.62736 46.0673 8.47898 46.1866C8.55708 46.4459 8.44552 46.6158 8.14431 46.6963C7.99192 46.8096 7.83752 46.9206 7.68156 47.0292C7.11573 47.4214 6.3955 47.7579 5.99701 48.3423C5.70316 48.1691 5.59428 47.8701 5.77322 47.5648C5.21163 48.0821 4.5416 48.6135 4.38966 49.4097C4.31982 49.3424 4.23839 49.2938 4.14602 49.2639C3.91799 49.4178 4.21496 49.8762 4.35954 49.9795C4.99007 49.7346 4.20202 49.8234 4.62572 49.8628C4.74643 49.874 4.87048 49.9643 5.00368 49.9659C5.39437 49.971 5.76139 49.9523 6.14873 49.8927C7.00283 49.7612 7.84221 49.5161 8.66909 49.2704C9.5696 49.0028 10.4703 48.7357 11.351 48.4075C12.0761 48.1372 12.7892 47.836 13.5021 47.5358C13.7868 47.4159 14.0712 47.2943 14.3564 47.1753C14.8979 46.9492 15.1835 46.5777 15.1079 47.2141C15.5391 47.1425 15.9129 46.5333 16.244 46.2847C16.7099 45.9353 17.2337 45.6746 17.7857 45.4962C18.0093 45.424 18.1735 45.3321 18.4047 45.3315C18.518 45.3312 18.5858 45.6505 18.6572 45.6332C19.1526 45.5132 18.9268 45.2389 19.1494 44.8438C19.6365 43.9802 20.9484 43.5026 21.7541 43.012C22.2655 42.7005 22.6285 42.2815 23.1007 41.9366C23.3215 41.7754 23.482 41.704 23.7133 41.6358C23.8905 41.5834 24.1078 41.9901 24.2227 41.5814C23.8106 41.413 23.4708 41.2055 23.0743 41.0826C22.7939 40.9954 23.1303 40.6973 22.6859 40.8748C22.5074 40.9461 22.446 41.2913 22.3804 41.4358C21.884 40.9927 20.4882 41.4518 19.8991 41.6374C19.8585 41.6501 19.6767 41.5542 19.591 41.56C19.251 41.5827 19.0142 42.0401 18.7904 42.2372C18.1954 42.761 17.5499 42.9799 16.8172 43.2789C17.0122 42.2142 18.4453 41.7781 19.2817 41.3702C20.5044 40.774 21.6428 40.013 22.9815 39.6923C23.8731 39.4785 25.0545 39.3066 25.4396 40.3425C25.6701 40.9635 25.6991 42.5063 24.9193 42.7928C24.837 42.503 25.1007 42.2552 25.1801 42.0037C24.4039 42.2998 24.276 43.2317 23.6866 43.718C23.3552 43.9911 23.2368 44.0788 23.0766 44.3428C22.9175 44.605 22.8412 44.8496 22.4683 45.1285C21.859 43.835 21.9621 45.6068 21.6531 45.8291C21.7773 45.7397 21.1495 46.0008 21.2244 45.9732C21.1954 45.9839 20.9219 45.5411 20.7445 45.5504C20.4217 45.5674 20.4837 45.9226 20.3282 46.1014C19.8009 46.7066 19.1198 47.1035 18.2712 47.0083C18.2514 47.4388 18.3844 47.9532 17.796 47.9925L17.7188 47.0379C17.3986 47.3617 16.9771 47.6692 16.7165 48.044C16.42 48.4706 16.4517 48.7332 15.9597 49.0175C15.4457 49.3148 14.3519 49.9003 13.7401 49.9509C13.8914 49.7364 13.8646 49.5426 13.6603 49.3701C13.3526 49.6871 12.8983 49.7183 12.5708 50.0047C13.7078 50.4794 11.6973 50.4548 11.4422 50.5086C11.2715 50.5447 11.1225 50.7001 10.9496 50.7351C10.72 50.7817 10.6903 50.5405 10.4926 50.617C10.2035 50.7289 10.3208 51.0449 10.0183 51.2036C9.80097 51.3178 9.43238 51.3162 9.18717 51.4246C8.60282 51.6832 7.35803 52.2561 6.96311 51.5613C6.76297 52.7533 4.71899 52.0277 3.96239 51.9475C2.92622 51.8375 1.12141 51.3514 2.08261 49.9652ZM6.43477 37.7687C6.58136 37.6436 6.72817 37.6527 6.87498 37.7963C6.6706 36.7176 8.25141 36.1938 8.94107 35.7351C9.85586 35.1268 10.9326 33.9466 12.1297 34.04C11.9255 34.1912 11.7218 34.3424 11.5179 34.4936C11.809 34.5312 12.1 34.5689 12.3907 34.6066C12.2267 34.8474 12.0625 35.088 11.8981 35.3286C11.6294 33.8489 10.2278 35.717 9.82217 35.9893C9.41364 36.2633 9.00621 36.4676 8.6432 36.8018C8.28353 37.133 7.95889 37.7292 7.36428 37.4313C7.31006 38.2764 6.63022 38.0472 6.16011 38.5152C6.14047 38.2215 6.30871 38.014 6.43477 37.7687ZM12.6451 33.5501C14.092 33.0085 15.3517 32.0071 16.7152 31.2918C18.0176 30.6085 19.3462 29.9948 20.6702 29.3573C21.3418 29.0338 22.5721 28.1972 23.3398 28.6235C24.3758 29.1992 22.9496 29.385 22.5792 29.5843C22.4422 28.6978 21.9623 29.5009 22.249 29.9942C21.4585 29.653 19.7345 30.9877 18.9803 31.3558C18.8096 31.4392 18.8862 31.4874 18.692 31.5855C18.6443 31.6095 18.1494 31.7222 18.0077 31.7696C17.2978 32.0071 16.8299 31.8185 16.524 32.6749C16.46 32.4734 16.3959 32.2716 16.3319 32.0698C15.8874 33.0672 14.5364 33.5038 13.6725 34.0935C13.4499 34.2456 12.814 34.8354 12.5315 34.7134C12.1384 34.5435 12.2961 33.6806 12.6451 33.5501ZM38.7471 36.5572C39.358 36.5976 38.769 36.8823 38.9368 37.0705C38.9178 37.0493 39.3047 37.3791 39.254 37.2886C39.3223 37.4103 39.4863 37.4059 39.5702 37.6534C39.8591 38.5045 38.5974 39.3839 38.1719 39.8669C37.3446 40.8063 36.8664 41.9959 36.0043 42.9052C35.615 43.3159 35.2276 43.5996 34.6879 43.7528C34.3102 43.86 33.9106 43.7452 33.5634 44.1082C33.2838 44.4005 33.3472 44.5666 33.0382 44.7221C32.4938 44.9961 32.2539 44.7557 31.7242 45.348C31.2684 44.1095 32.5781 44.1115 33.2615 43.4194C34.2048 42.4639 35.2386 41.5 36.1232 40.4779C36.9091 39.5697 37.2239 38.7734 37.5969 37.6701C37.7145 37.3223 37.8426 36.5764 38.1668 36.3581C38.6717 36.0183 38.3687 36.532 38.7471 36.5572ZM41.7512 68.7287C43.3534 66.9377 45.341 65.3296 47.4954 64.2508C48.2654 63.865 49.3616 63.3589 50.1597 63.9527C50.9424 64.5346 50.7739 65.6957 50.4584 66.4855C50.1561 66.3669 50.4415 65.2569 50.2846 64.9826C49.9423 64.3841 49.2038 64.7019 48.7013 64.9026C48.1128 65.1376 47.5875 65.3971 47.1214 65.8237C46.9322 65.9965 46.5701 66.1515 46.449 66.2703C46.2669 66.1947 46.1596 66.2498 46.1274 66.4353C46.1649 66.549 46.1605 66.661 46.1138 66.7711C46.0873 66.8061 45.8506 66.6625 45.8169 66.6913C45.6634 66.8226 45.5197 66.9771 45.3686 67.0991C45.0654 67.3442 44.8075 67.4601 44.5284 67.8017C43.9893 68.462 43.2762 68.8488 42.7347 69.4779C42.6124 69.6201 42.4658 69.9847 42.4384 70.0166C42.1646 70.3359 41.7588 70.5885 41.45 70.9266C40.9161 71.5105 40.346 71.9025 39.7299 72.4034C39.4647 72.6187 39.1552 72.8509 38.9787 73.1506C38.8984 73.2872 38.8531 74.0364 38.8502 74.0396C38.246 74.7014 38.3636 73.3711 38.4091 73.2043C38.8997 71.4095 40.5586 70.0621 41.7512 68.7287ZM38.4533 80.8647C38.5285 81.1466 38.5903 81.3796 38.6666 81.6657C38.1875 81.273 38.1875 81.273 38.4533 80.8647ZM37.9359 81.7879C37.7598 81.9651 37.5829 82.1413 37.4046 82.3163C37.0126 81.9023 38.0077 81.717 37.9359 81.7879ZM37.6871 74.661C37.4997 75.4187 36.8136 76.3371 36.3419 76.9352C36.3939 76.8692 35.9394 77.0018 35.8876 77.0319C35.7196 77.1292 36.1219 77.7593 35.5398 77.4777C35.3332 77.5945 35.7399 78.0704 35.4592 78.2833C34.648 76.4359 36.8631 74.8354 37.7208 73.4641C38.1402 73.8489 37.7924 74.2362 37.6871 74.661ZM32.4177 84.6491C33.0092 84.8012 33.3168 84.7056 33.7162 84.1249C33.9563 83.7762 34.044 83.1585 34.5931 83.6803L34.6899 83.0093C35.4737 83.3307 35.4079 84.4919 35.7504 85.1355C35.9171 84.4074 36.3118 82.3736 37.5204 82.6998C38.8772 83.0662 36.619 85.3981 36.4093 85.9694C35.9481 85.2541 36.1295 85.9194 35.7776 86.0202C35.4757 86.107 35.0041 85.8849 34.6373 85.905C33.5212 85.9656 32.5408 86.4673 31.5214 86.8921C31.2633 86.1966 31.0053 85.5011 30.7472 84.8057C31.3474 84.8518 32.5884 83.2553 32.7646 84.4157C32.3195 84.3383 32.1941 84.3579 31.9772 84.7629C32.1158 84.6926 32.2626 84.6547 32.4177 84.6491ZM34.9229 93.7268C34.9211 93.7213 36.0773 93.7926 36.1803 93.7549C36.9715 93.4662 36.679 92.5694 36.8408 91.9354C37.167 92.2351 36.9941 92.7821 37.0947 93.1698C37.2127 93.6256 37.5545 94.014 37.5862 94.5015C37.6583 95.6028 36.754 95.3584 36.0686 95.7147C35.4829 96.0193 35.4179 96.4024 34.9233 95.5816C34.7894 95.3595 34.5016 94.7809 34.5311 94.4968C34.5601 94.2154 35.0061 93.9815 34.9229 93.7268ZM35.8546 98.4923L35.5349 98.1345C36.4876 98.4259 35.9258 97.9877 36.1449 97.3886C36.876 97.8751 37.4724 98.3753 38.051 97.4011L39.0506 101.43C38.3792 101.588 37.513 100.552 37.0525 100.195C36.7866 99.9896 35.3106 99.197 36.1969 98.966C36.0826 98.8081 35.9686 98.6502 35.8546 98.4923ZM42.3795 85.8401C41.8246 86.3674 41.2657 86.6626 40.6615 87.0772C40.1316 87.4411 40.3141 87.8587 39.8547 88.2645C39.5497 88.5343 38.8346 88.809 38.4577 89.0148C37.7864 89.3814 37.1851 89.4512 36.4945 89.0409C36.6824 90.553 35.6462 90.6714 34.3563 90.9708C33.7412 91.1137 33.3771 91.332 32.9337 90.769C32.6301 90.3837 32.5112 89.686 32.8889 89.3335C33.4889 88.7734 35.0873 88.9667 35.857 88.6144C36.4412 88.3472 37.0362 86.8419 37.7569 87.3898C37.385 86.7978 37.818 86.6383 38.1413 86.2162C38.4954 85.7536 38.713 85.2126 39.0793 84.7537C39.7755 83.8814 40.8442 83.004 41.8328 82.478C42.7028 82.0153 43.1595 82.3429 43.2898 83.3146C43.3554 83.8032 43.353 84.531 43.0792 84.9644C42.992 85.1027 42.7039 85.1042 42.6167 85.234C42.4647 85.4608 42.6042 85.6265 42.3795 85.8401ZM52.5879 74.1129C53.282 74.6499 53.2144 75.7781 53.3237 76.5465C53.4779 77.6295 53.3661 78.6775 53.3496 79.7806C53.3322 80.9363 52.7648 81.6891 52.4977 82.7723C52.201 83.9773 51.8179 84.6155 51.1521 85.6267C51.8741 85.7402 50.7996 87.895 50.6224 88.174C50.4301 88.4768 48.8792 89.8722 49.5441 89.8722C49.1773 90.3556 48.7779 90.8517 48.4124 91.3218C48.2685 91.5069 48.0161 91.5796 47.9028 91.7102C47.6719 91.9758 47.6578 92.2126 47.4925 92.5225C47.2415 92.9928 47.1589 92.8673 46.8289 93.2084C46.6011 93.4441 46.4516 93.7552 46.2279 93.981C45.5067 94.7086 45.4148 94.1126 45.0116 93.5522C44.9498 93.7023 44.84 93.7964 44.6823 93.8345C44.556 93.2004 45.4253 92.5598 45.7908 92.1745C46.3894 91.543 46.9365 90.8473 47.4657 90.1567C48.5992 88.677 49.6177 87.105 50.4214 85.4211C51.2764 83.629 51.9593 81.6895 52.3141 79.7345C52.5845 78.2443 52.8415 75.688 50.8491 75.309C49.3999 75.0334 47.8024 75.9133 46.6078 76.6257C45.8798 77.0596 45.1477 77.4911 44.4543 77.9792C43.7015 78.5085 43.0509 79.2577 42.2338 79.6825C42.6807 79.4502 41.2061 80.1494 41.4319 79.9528C41.3261 80.0446 41.4174 80.3253 41.3476 80.452C41.2565 80.6168 40.9401 80.7796 40.7982 80.8861C40.4234 81.1675 39.8245 81.4554 39.6541 81.9201C37.2765 80.225 42.0046 77.2157 43.2166 76.4493C45.6207 74.9293 49.804 71.9592 52.5879 74.1129ZM59.0012 57.6274C58.9784 56.4068 59.9731 54.7405 60.6449 53.7451C60.9736 53.2579 61.4986 53.2773 61.6911 52.7027C61.8022 52.3718 61.6565 52.0248 61.6896 51.6926C61.7342 51.2433 61.9292 50.883 62.1541 50.4968C64.1874 47.0056 66.6578 43.9155 69.289 40.8696C70.5864 39.3681 71.8165 37.8088 73.2157 36.3982C73.8002 35.8091 75.3712 33.6913 76.2699 33.9031C76.7459 34.0153 77.0228 34.7411 77.2376 35.1114C77.5928 35.724 77.9835 36.2977 78.4152 36.8609C79.5547 38.348 80.8691 39.6533 82.4213 40.7073C83.3906 41.366 84.3698 42.0062 85.3176 42.6963C86.0979 43.2642 87.2775 43.9135 87.8347 44.7109C88.392 45.5085 87.5736 46.1839 87.1263 46.8462C86.431 47.8761 85.7915 48.9433 85.0934 49.9721C84.8161 49.7728 84.8877 49.3678 84.6976 49.1125C84.5289 48.8862 84.2904 48.7941 84.0575 48.6543C83.611 48.3869 83.1728 48.0601 82.7696 48.508C82.0639 49.292 83.0342 51.1452 84.0802 50.9418C84.2034 51.7156 82.1148 52.9899 81.5913 53.4158C79.9849 54.722 78.3278 55.8576 76.2057 55.9758C75.3469 56.0235 74.4533 55.9584 73.6374 55.6712C73.2465 55.5336 72.8143 55.3448 72.5146 55.0449C72.1558 54.6859 72.0644 54.1516 71.7163 53.7962C71.4144 53.4878 70.9999 53.4403 70.6982 53.1308C70.3961 52.8211 70.2468 52.3319 70.1244 51.9307C69.8847 51.147 69.8394 50.3204 69.6092 49.5348C69.4706 49.0623 69.3568 48.4306 68.905 48.8846C68.2488 49.5442 68.5784 51.6181 68.7464 52.4084C68.9867 53.5357 69.55 54.4446 70.1402 55.4146C70.7801 56.4668 71.0164 57.4428 71.1311 58.6603C71.3457 60.9393 72.0001 63.1263 73.0184 65.1768C73.447 66.0402 73.9604 66.8521 74.4232 67.6956C74.6394 68.0891 75.1238 69.4319 75.7117 69.4248C76.651 69.4132 75.313 66.6757 75.1274 66.2161C74.0983 63.6708 73.1155 60.9955 72.8951 58.2395C74.3701 58.6192 75.9779 58.9796 77.5054 58.739C76.5194 60.9424 77.5493 63.1363 77.4232 65.4045C77.3603 66.5419 77.3148 67.5912 77.3382 68.7253C77.359 69.7198 76.9096 70.7138 76.5212 71.6131C75.7496 73.399 74.7784 75.602 73.3455 76.97C72.1476 78.1136 70.5452 78.203 68.98 77.9397C65.4194 77.3403 63.08 74.605 61.5858 71.4985C60.6257 69.5028 59.8919 67.3725 59.4363 65.2051C58.9088 62.6968 59.048 60.1716 59.0012 57.6274ZM63.6251 40.7231C60.3024 38.3205 65.1307 35.5922 67.5884 35.9637C68.1649 36.0506 69.2256 36.2888 69.1716 37.0406C69.1275 37.6552 68.1018 38.3402 67.708 38.7195C66.585 39.8018 65.4422 42.0367 63.6251 40.7231ZM87.7965 94.1081C87.6825 94.006 86.7525 94.2566 87.1209 93.7068C87.427 93.2499 88.2758 93.8225 88.5841 93.94C88.33 94.1155 88.1089 94.3873 87.7965 94.1081ZM73.9611 123.167C73.6755 123.202 73.377 122.432 74.4065 123.007C74.2581 123.06 74.1095 123.113 73.9611 123.167ZM73.9317 135.712C73.9671 136.057 74.0727 136.284 73.8275 136.535C73.6202 136.279 73.5934 135.919 73.9317 135.712ZM74.3496 140.895C74.3192 141.083 74.2889 141.27 74.259 141.458C74.0211 141.338 73.7837 141.218 73.5459 141.097C73.8136 141.03 74.0818 140.962 74.3496 140.895ZM74.6405 136.524C74.9948 136.657 74.8299 136.233 75.0872 136.174C75.1793 136.614 75.0658 136.992 74.8125 137.356C74.7884 137.27 74.6586 136.531 74.6405 136.524ZM83.6956 105.246C83.1985 105.182 83.1233 105.707 82.7527 105.911C82.5135 106.042 81.7852 105.944 81.6493 106.195C81.8287 106.247 82.0083 106.299 82.1877 106.351C81.777 106.572 81.3662 106.793 80.9554 107.015C81.9434 107.015 82.9729 106.543 83.9542 106.681C84.3689 106.74 84.673 106.88 84.9332 107.217C85.0912 107.422 85.23 107.751 85.2554 108.002C85.2828 108.273 85.0713 108.46 85.1088 108.59C85.551 108.602 85.4988 109.327 85.3995 109.622C85.1842 110.263 84.329 111.266 83.5626 110.86C83.8832 111.314 83.8016 111.574 83.3274 111.838C83.3705 111.687 83.4022 111.424 83.1599 111.451C83.0976 111.703 83.1215 112.102 82.9155 112.292C82.6851 112.505 82.4793 112.256 82.2589 112.394C81.9976 112.559 82.0762 112.816 81.8707 112.994C81.5989 113.229 81.5601 113.062 81.2352 113.108C80.7433 113.177 81.0572 112.872 80.6632 113.27C80.5268 113.407 80.5498 113.765 80.3289 113.966C79.9045 114.352 78.7722 114.754 78.3657 114.259C77.3882 115.807 74.4585 116.179 73.0947 114.957C70.9198 113.008 74.9752 109.044 76.3141 107.787C77.658 106.527 79.1506 105.438 80.6609 104.387C81.5191 103.789 82.3997 103.247 83.2989 102.715C83.8535 102.387 84.5501 101.787 85.2317 101.845C85.8431 101.897 86.3654 102.371 87.0091 102.464C87.4745 102.532 88.3788 102.644 87.7916 103.275C87.5169 103.57 86.4384 104.047 86.0711 104.119C85.8554 104.161 85.628 104.08 85.4143 104.124C85.0524 104.198 84.8038 104.503 84.41 104.464C84.5347 105.048 84.3071 105.323 83.6956 105.246ZM90.1323 83.5655C90.1326 84.0223 89.2981 83.9084 89.1238 83.7532C88.8369 83.4979 88.8269 82.7344 88.7204 82.3872C89.2055 82.5092 90.1319 82.9556 90.1323 83.5655ZM83.4102 68.4925C85.163 67.0527 87.006 65.7327 88.9543 64.5701C89.652 64.1538 90.637 63.3141 91.5036 63.4188C91.8671 63.463 92.6185 63.8802 92.3448 64.3402C92.2937 64.4263 91.8892 64.4608 91.7642 64.5233C91.6225 64.594 91.5114 64.7888 91.38 64.8852C90.4697 65.5525 89.376 65.9626 88.4627 66.646C87.7122 67.2073 87.0122 67.8352 86.2043 68.3168C85.4292 68.7786 84.6193 69.0709 83.8834 69.5824C83.8979 69.5722 82.9263 69.9214 83.1168 69.9849C82.2638 69.6997 83.1648 68.6943 83.4102 68.4925ZM95.0967 67.9563C96.138 67.5415 97.1568 67.0382 98.2469 66.7595C98.7909 66.6204 99.3494 66.5158 99.9125 66.5785C100.008 66.411 100.136 66.374 100.295 66.4674C100.419 66.6583 100.583 66.8048 100.786 66.9071C101.097 67.1457 102.241 67.4577 102.012 67.9846C101.861 68.3331 100.714 68.3621 100.4 68.4403C99.4513 68.6765 98.5669 69.2076 97.5899 69.3381C97.4982 69.3503 97.1987 69.2393 97.1954 69.2399C96.8141 69.3231 96.4968 69.7185 96.1693 69.908C95.4642 70.3158 94.4512 70.3843 93.945 71.0882C95.5845 72.1989 97.0069 71.0974 98.4482 70.2587C99.3117 69.7566 100.239 69.3942 101.182 69.0723C101.675 68.9041 102.173 68.7293 102.673 68.5817C102.879 68.5063 103.092 68.4522 103.31 68.4189C103.513 68.3786 103.658 68.4524 103.746 68.6406C104.35 68.6205 104.402 68.2417 104.766 68.9483C105.279 69.9446 104.494 69.8939 103.757 70.0164C102.735 70.1858 101.695 70.5676 100.687 70.8206C100.455 70.8791 98.4179 71.3511 98.4154 71.3678C98.323 72.0105 104.17 71.4153 104.672 71.319C105.558 71.1486 106.508 70.665 107.425 70.7816C108.129 70.871 109.733 71.9034 108.61 72.5893C108.389 71.5315 107.63 72.4051 107.234 72.7621C106.706 73.2373 105.949 73.1916 105.225 73.3778C104.235 73.632 101.7 74.5859 100.997 73.3697C101.219 74.4356 97.1786 73.894 96.6231 73.8587C96.0816 73.8242 95.3825 73.9392 94.8591 73.7849C94.5177 73.6844 94.3279 73.4625 94.0066 73.4126C93.9278 73.4973 93.8334 73.555 93.7237 73.5856C93.5608 73.5033 93.4137 73.3985 93.2826 73.2716C92.2004 72.7746 90.5261 72.4999 91.1274 70.9165C91.6946 69.4232 93.7212 68.5043 95.0967 67.9563ZM105.24 68.8792C105.267 68.7862 105.294 68.6932 105.32 68.6C105.324 68.8852 106.004 69.0069 105.926 69.3764C105.751 70.1945 104.966 68.9652 104.899 68.8312C105.012 68.8473 105.126 68.8631 105.24 68.8792ZM109.394 70.2384C109.473 70.5736 110.378 71.2871 110.154 71.4517C109.797 70.9669 108.811 71.187 109.394 70.2384ZM94.1293 100.818C94.4606 100.161 95.4622 101.279 95.3564 100.158C95.9011 100.208 95.5611 100.622 96.2137 100.44C96.4582 100.371 96.6235 100.1 96.9216 100.038C97.0011 100.021 97.3444 100.049 97.4629 100.045C97.8554 100.033 99.3936 99.9892 98.3349 99.4748C98.9275 99.0832 99.0004 99.2819 99.5352 99.6407C99.398 98.8991 100.185 99.32 100.551 99.4126C100.29 98.9896 100.938 98.5396 101.149 98.2538C101.073 98.6941 101.113 99.1871 101.751 98.9055C101.91 98.8355 101.874 98.5242 102 98.4734C102.231 98.3804 102.36 98.5497 102.442 98.5401C102.524 98.5309 102.696 98.5766 102.867 98.5122C103.089 98.4286 102.982 98.1302 103.264 98.0859C103.447 98.0571 103.582 98.3269 103.806 98.3291C103.921 98.3302 104.113 98.2134 104.2 98.2196C104.216 98.2208 104.325 97.9567 104.46 97.9503C104.657 97.9407 104.737 98.4676 104.809 98.5699C105.153 99.0583 105.611 99.3767 106.14 99.6371C105.184 100.513 103.256 100.42 102.054 100.715C101.403 100.876 100.847 101.106 100.251 101.404C100.108 101.497 99.9839 101.612 99.8804 101.748C99.7961 101.692 99.7115 101.636 99.6272 101.58C99.3008 101.6 98.9919 101.438 98.6245 101.5C97.4895 101.692 96.6008 102.541 95.4473 102.731C94.929 102.816 94.503 102.935 94.1654 102.486C93.8691 102.092 93.9182 101.237 94.1293 100.818ZM92.573 95.5838C92.8303 95.8012 92.5208 96.5089 93.0188 96.432C93.3722 96.3774 93.3017 95.8295 93.5793 95.7134C93.9439 95.5611 94.1639 95.9225 94.5066 95.8891C95.1454 95.8262 95.1088 95.2687 94.5691 95.0239C95.1302 94.8758 95.31 95.539 95.8069 95.533C96.4595 95.5252 96.3038 94.7557 96.8592 94.6281C97.0997 94.5728 97.0193 94.9258 97.1753 94.9697C97.4877 95.0574 97.7052 94.9068 97.9814 94.7744C98.2287 94.656 98.4047 94.4272 98.6749 94.3496C98.7978 94.3142 99.1102 94.3791 99.2003 94.3133C99.3822 94.1808 99.5451 93.6648 99.724 93.5966C99.6874 93.6104 100.274 93.9043 100.358 93.932C100.307 94.1498 100.187 94.1757 100 94.0098C100 94.5015 101.367 94.6547 101.087 94.047C101.826 94.353 101.276 94.5104 101.202 94.9374C101.172 95.1091 101.072 95.1044 101.102 95.2859C101.116 95.3695 101.503 95.2975 101.498 95.4114C101.466 96.1453 99.1254 96.3709 98.682 96.4356C97.7641 96.5696 96.8955 96.795 96.0106 97.0726C95.3518 97.2793 94.2161 97.8713 93.515 97.8346C92.5068 97.7817 92.3754 96.467 92.573 95.5838ZM90.3202 88.0957C90.0743 87.2794 90.8631 85.5932 91.8903 85.8039C92.1429 85.8557 92.2051 86.0648 92.401 86.1576C92.6746 86.2874 93.1195 86.2191 93.3566 86.3531C93.8883 86.6539 93.6203 87.4203 94.1532 87.6973C93.312 87.9011 90.7109 89.3932 90.3202 88.0957ZM91.2937 91.2674C91.656 91.0727 92.2435 91.0477 92.4905 90.6734C92.6136 90.7585 92.8464 91.2756 93.067 91.1965C93.1701 91.1597 93.2765 90.8794 93.2692 90.8796C93.4657 90.874 93.5048 90.608 93.8053 90.6379C94.0811 90.6656 94.3899 90.9969 94.6355 91.1204C94.5934 90.299 94.804 90.2205 95.4705 89.7808C95.6166 89.6844 95.7386 89.3228 95.8734 89.1765C95.7444 90.0385 96.0695 90.0432 96.7583 90.1728C97.6218 90.3351 98.1597 90.7985 98.5058 91.6322C97.7699 91.4888 96.8208 91.6614 96.5307 92.4518C95.9435 91.3795 93.8091 92.8592 93.1186 93.1623C92.6061 93.3872 92.0099 93.6896 91.5802 93.1654C91.2776 92.7961 91.451 92.3519 91.4574 92.0239C91.4592 91.9209 91.5656 91.9149 91.5558 91.7615C91.5433 91.5657 91.2883 91.4875 91.2937 91.2674ZM99.1497 108.129C98.9554 108.203 97.9551 108.244 97.9487 107.913C97.9433 107.62 99.714 107.915 99.1497 108.129ZM97.5249 107.058C96.7681 107.524 95.9214 105.881 95.6432 105.408C96.437 105.51 96.8246 104.846 97.2922 104.342C97.7371 105.316 98.4127 104.801 99.1234 104.476C99.9614 104.092 100.88 104.089 101.738 103.781C102.006 103.685 102.253 103.542 102.515 103.432C102.725 103.354 102.935 103.273 103.144 103.19C103.293 103.056 103.346 102.892 103.302 102.696C103.232 102.532 103.28 102.428 103.446 102.386C103.644 102.444 103.846 102.479 104.052 102.488C104.383 102.422 104.858 102.11 104.459 101.774C104.887 101.386 105.315 101.772 105.727 101.942C105.63 101.663 105.532 101.384 105.434 101.105C105.638 101.192 106.245 102.039 106.307 102.035C106.699 102.005 106.659 101.479 106.884 101.267C107.014 101.427 107.051 102.623 107.563 102.22C107.781 102.048 107.311 101.461 107.194 101.328C107.779 101.46 108.29 102.158 108.448 102.7C108.171 102.74 107.914 102.684 107.678 102.532C107.527 103.286 108.925 102.981 109.151 103.375C109.594 104.147 106.712 104.683 106.336 104.754C105.585 104.897 104.698 104.951 104.009 105.284C103.349 105.602 103.193 105.693 102.422 105.753C101.542 105.821 100.683 106.111 99.8315 106.337C99.0923 106.533 98.1802 106.654 97.5249 107.058ZM113.612 79.433C114.307 79.183 116.648 77.886 117.244 78.4628C117.181 78.4017 117.673 79.4189 117.668 79.3549C117.711 79.8841 117.698 80.097 117.046 80.3505C116.579 80.5321 116.173 80.1463 115.753 80.2995C115.292 80.4678 115.614 80.7657 115.377 80.9738C115.117 81.2019 114.615 81.3004 114.291 81.4003C113.499 81.6449 112.7 81.8494 111.911 82.113C110.307 82.6492 108.607 83.1483 106.958 83.5275C105.725 83.811 103.633 84.5153 102.498 83.6834C102.387 84.1564 102.116 84.0917 101.74 84.1606C101.444 84.2146 100.911 84.3606 100.648 84.3682C100.212 84.3809 98.9978 84.2665 99.1649 83.6544C99.1189 83.823 100.109 83.2459 99.9377 83.21C100.358 83.2986 100.222 83.0869 100.566 82.9692C101.017 82.8156 101.487 82.8238 101.946 82.6611C103.104 82.2508 104.076 81.7183 105.298 81.4612C108.091 80.8741 110.918 80.4018 113.612 79.433ZM1.67363 142.668C1.44739 142.674 1.27135 142.032 1.95967 142.49C1.8644 142.55 1.76913 142.609 1.67363 142.668ZM-3.76378 141.837C-4.07146 141.916 -4.19418 141.744 -4.13148 141.322C-3.70243 141.153 -3.57993 141.324 -3.76378 141.837ZM-7.96155 140.976C-8.04031 140.6 -7.76141 140.516 -7.50861 140.347C-7.53405 140.845 -7.53405 140.845 -7.96155 140.976ZM-18.5236 137.883C-18.949 137.789 -19.516 137.373 -19.6135 138.072C-19.6847 137.91 -20.0479 137.15 -19.8919 136.974C-19.8105 136.882 -19.5022 137.307 -19.535 137.265C-19.1626 136.512 -18.5207 137.421 -18.1619 137.69C-18.2824 137.754 -18.4031 137.818 -18.5236 137.883ZM92.1025 54.6901C92.2493 54.3797 92.4227 54.2812 92.6217 54.3947C92.3089 55.1207 91.2495 55.5142 92.1025 54.6901ZM99.4632 47.875C99.7256 48.3666 99.3309 48.5745 99.0491 48.9832C99.214 48.5424 99.3282 48.2369 99.4632 47.875ZM131.454 95.8699C132.4 95.8697 134.416 95.3704 134.987 96.4516C135.365 95.7169 135.794 97.0947 136.122 97.3157C136.159 97.3407 136.395 97.1603 136.505 97.2267C136.67 97.3268 136.813 97.5995 136.908 97.7616C137.194 98.2504 137.316 98.8315 137.475 99.3693C135.822 99.3693 134.127 98.9847 132.475 98.8449C131.391 98.753 130.328 98.7503 129.242 98.8088C129.026 98.8204 128.598 98.7492 128.414 98.7898C128.226 98.8311 127.886 99.2126 127.68 99.1513C128.001 99.7535 132.113 101.212 132.426 100.545C132.055 100.32 131.229 100.147 131.23 99.6041C131.23 98.9956 132.004 98.9967 132.414 99.0146C133.311 99.0538 134.813 99.3522 135.181 100.284C135.339 100.684 135.387 101.69 135.214 102.076C135.102 102.325 134.913 102.624 134.613 102.675C134.49 102.695 134.313 102.532 134.294 102.536C133.679 102.667 132.54 103.16 131.869 102.464C131.385 103.09 129.053 102.406 128.34 102.17C127.092 101.757 125.373 101.19 124.615 100.026C123.691 98.6076 125.569 97.4087 126.648 96.832C128.123 96.044 129.808 95.8706 131.454 95.8699ZM137.753 99.1499C138.043 99.2317 138.333 99.3138 138.623 99.3956C138.545 99.904 137.401 99.5018 137.753 99.1499ZM146.523 117.63C146.612 115.593 146.023 113.799 145.683 111.829C145.599 111.341 145.685 110.487 145.313 110.085C144.959 109.701 144.168 110.013 144.136 109.335C143.787 109.743 143.822 109.829 143.392 109.359C143.47 109.56 143.482 109.765 143.426 109.974C143.159 109.821 142.191 109.313 142.272 110.008C141.477 109.832 141.707 109.334 141.253 108.955C141.188 108.901 140.929 109.092 140.828 109.01C140.646 108.863 140.555 108.728 140.402 108.538C140.206 108.774 139.939 108.945 139.7 109.132C139.561 108.829 139.291 108.607 138.965 108.534C139.269 109.17 140.021 109.993 138.99 110.355C138.374 110.571 137.366 110.306 136.714 110.357C134.298 110.544 131.651 110.018 129.315 109.442C126.915 108.852 124.488 108.017 122.329 106.798C121.869 106.538 121.579 106.23 121.183 105.908C120.798 105.594 120.518 105.545 120.055 105.344C119.222 104.984 118.46 104.405 117.826 103.76C116.463 102.374 115.196 100.56 115.576 98.5298C115.954 96.5063 117.346 94.9249 118.835 93.5924C120.594 92.0186 122.58 90.7046 124.688 89.6452C125.63 89.1718 128.041 87.3929 128.972 88.4338C129.567 89.0987 129.232 89.9471 128.419 90.095C128.219 90.1315 128.009 89.9971 127.806 90.0892C127.514 90.2221 127.617 90.379 127.496 90.4898C127.287 90.6823 127.064 90.9824 126.751 91.1492C125.658 91.7314 124.602 92.1927 123.558 92.9018C123.076 93.2285 122.613 93.369 122.188 93.6541C121.766 93.9376 121.67 94.4067 121.103 94.1173C121.305 94.9423 120.091 95.8257 119.615 96.3312C118.878 97.1139 117.995 98.1128 118.339 99.2708C119.012 101.538 122.053 103.259 123.999 104.256C126.428 105.499 129.107 106.489 131.811 106.898C133.156 107.102 134.545 107.228 135.9 107.357C136.955 107.457 138.573 107.089 139.332 108.039C139.355 106.932 142.815 107.029 143.551 106.888C142.075 101.845 139.176 97.3616 136.077 93.1727C134.557 91.1164 133.063 89.0017 131.33 87.1166C129.432 85.053 127.264 83.2087 125.204 81.3098C121.163 77.5854 116.593 74.2614 111.943 71.3333C107.303 68.412 102.498 65.5369 97.4154 63.4541C91.6101 61.0753 85.4982 59.5107 79.3796 58.1782C80.2096 57.1213 81.5596 56.6057 82.6224 55.8324C82.9945 55.5617 83.4974 54.912 83.9807 54.8232C84.5042 54.7269 84.9163 55.2897 85.2889 55.5722C86.3583 56.383 87.0979 56.0387 88.3228 55.9899C89.0558 55.9606 90.7914 56.3685 91.1005 55.3778C91.5114 55.9245 90.9155 56.3629 90.6105 56.7638C90.8325 57.0733 91.0114 56.7522 91.2308 56.7038C91.2984 56.6479 91.3657 56.5917 91.4333 56.5357C91.5422 56.3783 91.6404 56.3774 91.7276 56.5326C91.8584 56.7293 91.99 56.6858 92.1226 56.4019C92.1589 56.3792 92.1951 56.3562 92.2314 56.3335C92.3899 56.2492 92.5427 56.1158 92.6899 56.0108C93.8031 55.2159 94.7951 54.5387 96.0238 53.9532C97.0557 53.4617 96.5008 52.5214 97.1811 51.8574C97.3351 51.7071 97.5941 51.7825 97.7588 51.6551C97.9199 51.5301 97.9442 51.3882 98.0618 51.2542C98.3445 50.932 98.008 50.5581 98.7291 50.9525L98.4689 49.4896C99.8829 50.8604 99.8773 46.9155 100.071 46.3317C100.045 46.4089 100.197 45.8115 100.197 45.8167C100.239 44.6329 100.4 43.7748 99.0132 43.7062C99.5384 43.3759 99.699 44.0208 99.9415 43.3532C100.063 43.0187 99.6838 42.4439 100.288 42.6595C100.415 41.9486 100.29 41.3734 100.131 40.6826C99.9688 39.9755 100.064 39.5037 100.072 38.7966C100.08 37.9946 99.7041 37.1885 99.5839 36.3987C99.4897 35.7801 99.5868 34.8046 98.7867 35.0318C98.6742 34.8559 99.0694 34.3147 99.0533 34.0472C99.0283 33.6315 98.577 33.2092 98.4491 32.8101C98.261 33.0041 97.996 33.0687 97.74 32.9811C97.9803 32.4388 97.7547 32.2566 97.5247 31.789C97.3929 31.5212 97.4725 31.2256 97.1903 31.0337C97.0285 30.9235 96.7527 31.109 96.626 30.9799C96.3542 30.7034 96.4546 30.3366 96.2677 29.9723C96.0332 29.5154 95.4975 29.1665 95.1284 28.8235C93.0532 26.8959 90.7992 25.4226 88.0388 24.6694C85.2541 23.9095 82.0075 23.6372 79.2321 24.5138C78.1227 24.8641 77.1379 24.8282 76.1394 25.4824C75.8157 25.6947 75.7809 25.6378 75.6164 25.9917C75.5785 26.0742 75.9232 26.2938 75.7121 26.4287C75.4828 26.5752 75.2295 26.2773 75.1126 26.03C73.6682 27.0749 72.3147 28.4679 71.4921 30.0651C70.6746 31.6521 70.5996 33.5167 70.2875 35.2414C68.8477 33.5976 66.9003 32.8096 64.7831 33.5999C62.9377 34.2884 61.5077 35.802 61.1467 37.7629C60.9265 38.9583 61.167 40.1688 61.7103 41.2474C61.9453 41.7134 62.2297 42.2294 62.6617 42.5431C63.0033 42.7911 63.5883 42.7563 63.7492 43.2036C63.9957 43.8888 62.5718 45.3687 62.2021 45.9685C61.5334 47.054 60.912 48.1749 60.439 49.3605C58.7431 46.9663 57.1196 44.3515 55.1912 42.144C53.3712 40.0605 51.2016 38.1919 49.0737 36.4308C44.6573 32.7757 40.0651 29.3419 35.1248 26.4301C30.5247 23.7186 24.9682 22.2133 19.6071 22.7455C14.3689 23.2658 10.3585 26.5766 6.98387 30.3951C0.495117 37.737 -3.47908 48.2016 -3.86731 57.975C-3.984 60.911 -3.76021 63.8086 -3.03463 66.6563C-2.68902 68.0122 -2.73922 69.3459 -2.53841 70.7192C-2.31173 72.2684 -1.9197 73.8121 -1.54063 75.3297C-0.0965996 81.1109 1.74324 86.8876 3.80776 92.4773C4.88119 95.384 6.17997 98.2257 7.93703 100.789C8.74852 101.973 9.79985 102.899 10.6731 104.023C11.5203 105.114 11.7441 106.452 11.9304 107.79C12.3771 110.998 12.6734 114.22 12.942 117.446C13.0561 118.814 13.1893 120.169 13.3704 121.527C13.5284 122.711 13.131 122.653 12.1343 123.055C12.3365 121.991 7.57468 122.715 7.1251 122.788C6.6358 122.867 6.11772 122.868 5.73239 122.931C5.30155 123.001 4.87986 123.102 4.38364 123.088C3.65426 123.067 2.28855 122.881 2.0101 123.811C1.81844 122.732 0.552456 123.912 1.48911 123.712C0.527691 123.819 -0.453365 123.64 -1.42639 123.731C-2.54154 123.834 -3.66628 123.933 -4.77362 124.101C-5.5445 124.217 -6.28012 124.514 -7.05234 124.6C-8.04053 124.71 -9.07179 124.7 -10.0696 124.788C-13.7499 125.112 -17.5646 125.915 -21.1421 126.833C-21.9525 127.041 -22.8835 127.189 -23.6578 127.523C-23.865 127.613 -24.0516 127.812 -24.2501 127.889C-24.583 128.017 -24.5375 127.929 -24.8331 127.988C-26.6045 128.341 -28.4318 128.919 -30.203 129.373C-31.1853 129.625 -32.7833 129.852 -33.5847 130.537C-33.9439 130.844 -34.2578 131.388 -33.6822 131.737C-33.2223 132.015 -32.566 131.571 -32.1938 131.33C-32.5254 132.194 -33.1507 132.624 -32.813 133.607C-32.5464 134.383 -31.9444 135.34 -31.0182 134.839C-30.8942 135.127 -30.844 135.701 -30.4787 135.807C-30.1505 135.902 -29.9129 135.486 -29.5914 135.584C-29.4763 135.619 -29.52 135.837 -29.4169 135.894C-29.2393 135.991 -29.0592 136.033 -28.8558 136.102C-28.6808 136.161 -28.3993 136.283 -28.2167 136.296C-28.1009 136.304 -27.8281 136.106 -27.829 136.106C-27.563 136.146 -27.42 136.655 -27.2286 136.802C-26.98 136.993 -26.7747 137.036 -26.4635 137.105C-25.8164 137.249 -24.9824 137.495 -24.5554 136.833C-24.6531 137.306 -24.0098 137.259 -23.726 137.319C-23.7575 137.07 -23.8952 136.842 -24.1076 136.705C-23.473 136.747 -23.7303 137.378 -23.2613 137.544C-22.927 137.663 -22.965 137.362 -22.7093 137.328C-22.3724 137.284 -22.1167 137.529 -21.5906 137.303C-21.4765 137.81 -21.4348 138.32 -20.8125 138.396C-20.4473 138.44 -19.5956 137.781 -19.6438 138.33C-18.8279 138.091 -18.5182 138.252 -18.0918 138.971C-18.0198 138.53 -17.671 138.658 -17.3511 138.63C-16.8439 138.587 -16.831 138.628 -16.4378 138.341C-16.4019 138.315 -16.0927 137.607 -15.9552 138.047C-15.8934 138.244 -16.302 138.708 -16.4532 138.826C-16.2654 138.921 -15.6498 139.253 -15.4131 139.192C-15.2082 139.139 -15.2076 138.789 -14.9615 138.771C-15.0217 138.972 -15.0817 139.174 -15.1422 139.375C-14.6634 139.444 -14.2633 139.124 -13.8851 138.89C-13.5246 139.801 -12.494 139.287 -11.9335 139.973C-11.637 140.336 -11.6232 140.612 -11.0582 140.706C-10.4801 140.803 -9.97519 140.55 -9.48389 141.026C-9.63963 140.731 -10.0276 140.485 -9.64208 140.168C-9.37969 140.54 -9.24426 140.988 -8.94171 141.334C-8.89998 141.158 -8.85826 140.982 -8.81654 140.806C-8.02781 141.649 -7.03493 141.656 -6.02465 142.124V141.507C-5.3013 142.61 -5.2627 141.912 -4.39856 141.461C-4.45724 141.786 -4.51614 142.11 -4.57482 142.434C-3.95299 142.388 -3.37199 143.124 -2.86149 142.498C-2.55314 143.015 -2.17941 142.761 -1.67405 142.925C-1.38667 143.018 -1.1727 143.301 -0.893131 143.403C-0.473892 143.557 -0.348721 143.55 0.0459785 143.683C0.396942 143.802 0.596409 144.033 1.03573 144.107C1.3211 144.155 1.57992 144.152 1.85302 144.138C1.95855 144.133 1.92375 143.896 2.15825 143.951C2.52082 144.037 2.79079 144.492 3.05183 144.725C3.44452 143.738 4.54406 145.06 5.07553 145.235C5.1264 144.983 5.11725 144.678 5.30043 144.47C5.51552 144.941 5.59763 145.337 6.04409 145.64C6.30179 145.815 6.6802 145.94 6.97784 146.004C7.16593 146.045 7.50775 145.996 7.626 146.054C7.8277 146.153 7.902 146.417 8.10571 146.442C8.22552 146.456 8.40313 146.141 8.49282 146.165C8.90336 146.277 9.13139 146.776 9.54594 147.045C10.7796 147.847 12.332 147.925 13.7064 148.101C14.0514 148.145 14.1014 148.051 14.3816 148.253C14.5311 148.361 14.4633 148.69 14.6471 148.782C15.3399 149.129 15.3403 148.389 15.4856 147.929C15.7147 148.231 15.7542 148.63 16.0677 148.87C16.2388 148.865 16.4102 148.869 16.5811 148.882C16.6775 148.992 16.7409 149.119 16.7703 149.262C17.1853 149.543 17.6554 149.445 18.084 149.655C18.2246 149.724 18.4736 150.141 18.6468 150.261C18.9567 150.475 19.4359 150.59 19.79 150.683C20.5326 150.878 21.5973 150.619 22.0391 151.394C22.6256 150.765 22.3987 151.516 22.797 151.673C23.0322 151.766 23.3858 151.396 23.6466 151.433C24.1163 151.499 24.2854 152.007 24.4358 152.377C24.7218 152.313 24.5255 151.504 24.5175 151.327C24.8729 151.285 24.9519 152.22 25.0132 152.426C25.5744 152.156 24.6533 151.316 25.2567 151.046C25.2013 151.762 25.7723 152.352 24.7526 152.454C24.8934 152.885 28.1822 153.364 28.4107 152.984C28.4613 153.687 28.9343 153.03 29.1088 152.789C29.1284 153.2 28.9885 153.782 29.4495 153.973C29.7628 154.103 30.4692 153.768 30.5921 153.461C30.7324 153.93 30.9676 153.914 31.2599 154.212C31.4607 154.417 31.593 154.771 31.8036 154.942C32.1912 155.257 32.9121 155.209 33.3637 155.139C34.2472 155.001 34.1428 154.832 34.4576 155.75C34.5288 155.401 34.7519 154.673 35.1411 155.214C35.3887 155.558 34.8615 156.317 34.7091 156.619C35.0496 156.432 35.3876 156.21 35.7749 156.13C35.7966 156.249 35.8164 156.502 35.7593 156.613C35.7709 156.59 36.1841 156.867 36.3374 156.944C36.3006 156.926 36.4586 156.236 36.4541 156.259C36.9992 156.595 36.621 157.238 37.1038 157.569C37.2286 157.655 37.5213 157.555 37.6721 157.607C37.9347 157.698 38.1619 157.944 38.3952 158.088C38.2089 157.838 38.2357 157.419 38.2484 157.131C38.3671 157.196 38.4519 157.442 38.5717 157.461C38.617 157.468 39.0867 157.531 39.0836 157.528C39.5724 157.87 39.4718 157.913 39.0521 158.325C39.202 158.56 39.8288 158.151 39.9984 158.083C40.0338 158.175 40.043 158.51 40.1097 158.569C40.1501 158.668 40.1907 158.767 40.2313 158.866C40.3565 158.773 40.4908 158.742 40.634 158.773C40.7246 158.804 41.4317 159.092 41.4797 158.993C41.325 158.944 41.1847 158.867 41.0593 158.764C41.4674 158.397 41.7358 158.202 42.1117 158.731C42.159 158.798 41.9964 159.038 42.0446 159.125C42.2242 159.448 42.5932 159.706 42.8438 159.97C42.9476 159.606 42.7061 158.694 43.2822 158.727C43.7425 158.753 44.0926 159.868 43.9333 160.214C44.1162 160.014 45.2086 159.816 45.4148 159.878C45.9978 160.055 45.8343 160.593 46.5516 159.804C47.0407 160.141 46.6096 160.269 46.6977 160.68C46.8269 160.707 46.9492 160.675 47.065 160.585C46.9784 162.332 48.2687 160.997 49.1065 161.264C49.4354 161.369 49.5195 161.742 49.8725 161.851C50.0592 161.908 50.267 161.772 50.4486 161.805C50.5941 161.785 50.7386 161.759 50.8823 161.728C51.0644 161.637 51.1499 161.739 51.1387 162.034C51.4314 162.186 51.3208 162.245 51.663 162.275C51.8835 162.294 52.0863 162.065 52.3369 162.104C52.769 162.171 52.7119 162.503 52.9881 162.676C53.2367 162.832 53.5169 162.827 53.823 162.797C53.979 162.782 54.417 162.581 54.4696 162.58C54.7967 162.576 54.6194 162.506 55.012 162.787C55.3177 163.006 55.446 163.148 55.8213 163.248C56.2517 163.364 57.0152 163.616 57.3048 163.305C57.6959 163.891 58.0023 163.461 58.5186 163.5C58.7828 163.52 58.8247 163.623 59.0599 163.664C59.441 163.73 59.9164 163.672 60.3218 163.802C60.9606 164.008 61.0327 164.111 61.6855 164.138C61.8034 164.092 61.9212 164.046 62.0387 164C62.074 164.197 62.1666 164.357 62.3167 164.481C62.682 164.558 62.9218 164.374 63.2231 164.172C63.4475 164.87 64.1758 164.931 64.7987 165.023C65.8039 165.172 66.7651 165.253 67.7343 165.583C68.5529 165.861 69.3731 166.175 70.1605 166.532C70.8535 166.846 71.5075 167.316 72.2915 167.095C74.068 166.595 75.7896 164.773 77.2758 163.726C79.0362 162.487 80.9347 161.466 82.7741 160.351C90.0968 155.915 97.8331 152.163 105.053 147.562C108.995 145.05 112.653 142.066 116.886 140.033C116.283 142.522 115.257 145.048 115.443 147.654C115.517 148.704 115.827 149.944 116.642 150.677C117.649 151.584 118.771 151.007 119.734 150.359C121.799 148.972 123.176 146.948 124.721 145.047C126.548 142.799 127.966 140.383 129.308 137.82C129.629 138.271 129.385 139.027 129.389 139.527C129.396 140.165 129.568 140.78 129.864 141.35C130.628 142.82 132.083 143.177 133.398 142.169C135.927 140.23 137.395 136.778 138.751 133.997C139.524 135.434 140.621 137.244 142.478 136.217C144.01 135.37 144.91 133.477 145.378 131.874C146.747 127.194 146.313 122.427 146.523 117.63Z" fill="black"/>
<path fill-rule="evenodd" clip-rule="evenodd" d="M144.2 89.5194C144.025 89.0953 143.948 89.1647 144.27 88.7535C144.52 88.9999 144.32 89.2035 144.2 89.5194ZM151.942 115.187C151.451 113.791 151.754 112.276 151.456 110.844C151.319 110.187 151.103 109.55 151.025 108.881C150.99 108.584 150.726 107.248 150.906 107.038C150.352 106.703 150.35 106.454 150.222 105.797C150.419 105.588 150.395 105.409 150.147 105.261C149.986 105.065 149.824 104.87 149.662 104.674C150.369 105.02 149.951 104.136 149.879 103.626C149.822 103.224 149.783 102.803 149.649 102.417C149.484 101.943 149.116 101.703 149.881 101.703C149.629 101.417 149.253 101.122 149.128 100.771C148.947 100.267 149.245 99.601 148.877 99.1557C148.672 98.9073 147.615 98.8101 147.8 98.2736C147.895 98.0002 148.323 98.2043 148.456 98.0127C148.977 97.2599 147.439 96.948 147.363 96.6278C147.265 96.2126 147.821 96.1199 147.855 95.7316C147.888 95.3517 147.297 94.7273 147.141 94.3875C146.928 94.4393 146.695 94.7757 146.451 94.615C146.405 94.5846 146.474 93.2693 146.419 93.0947C146.365 92.923 146.253 92.4677 146.214 92.3834C146.056 92.0487 145.604 91.8857 145.533 91.4904C145.49 91.2544 146.415 90.8972 145.354 90.8861C145.735 90.2149 145.037 89.8071 144.783 89.2336C144.456 88.4962 144.264 87.6997 143.928 86.9585C143.602 86.2381 143.237 85.5544 142.767 84.9174C142.341 84.3405 142.157 83.7858 141.817 83.1766C141.749 83.1231 141.681 83.0696 141.613 83.016C141.329 83.0571 141.238 82.928 141.34 82.6285C141.122 82.3072 140.961 81.9642 140.77 81.6287C140.547 81.2387 140.247 80.9207 140.017 80.5414C139.712 80.0386 139.622 79.4716 139.277 78.9672C138.854 78.3466 138.377 77.7994 137.984 77.1557C137.492 76.3492 136.947 75.8479 136.328 75.2234C136.033 74.9259 135.997 74.1829 135.636 73.7606C135.243 73.3006 134.854 73.176 134.582 72.5721C134.227 71.7866 133.706 71.4115 133.2 70.7326C132.782 70.1724 132.577 69.5287 132.117 68.9869C131.721 68.5215 131.271 68.0963 130.848 67.655C130.315 67.0978 129.921 66.4206 129.365 65.8908C129.445 65.9673 128.882 65.5209 128.91 65.5351C128.785 65.4716 128.383 65.4205 128.441 65.4551C127.603 64.9625 126.552 63.1597 125.291 64.115C124.627 64.6174 124.945 65.5387 125.409 66.0391C125.608 66.254 126.642 67.3136 126.865 66.8668C127.106 67.2084 127.849 68.8598 128.467 68.3866C128.404 68.951 128.731 68.7637 128.947 69.1452C129.089 69.3969 129.02 69.5205 129.124 69.9133C129.408 70.9935 130.495 72.0484 131.074 72.9902C132.516 75.3344 134.105 77.5577 135.548 79.9046C136.922 82.1413 138.462 84.2636 139.781 86.5304C141.281 89.1081 143.15 91.5412 144.28 94.32C144.318 94.4134 144.632 94.5612 144.71 94.7015C144.846 94.9452 144.816 95.3666 144.904 95.6427C145.207 96.5997 145.699 97.5418 146.259 98.3345C146.75 99.03 146.786 99.9752 147.124 100.791C147.6 101.941 148.104 103.079 148.567 104.235C149.288 106.033 149.777 107.757 150.275 109.635C150.598 110.852 150.854 112.069 150.957 113.325C151.052 114.481 151.075 115.685 151.503 116.779C151.795 116.329 152.139 115.745 151.942 115.187Z" fill="black"/>
<path fill-rule="evenodd" clip-rule="evenodd" d="M-11.5832 42.389C-11.5439 42.2213 -11.4931 42.057 -11.4304 41.8967C-11.3877 42.053 -11.1789 42.391 -11.3005 42.5384C-11.4553 42.7255 -11.612 42.6196 -11.5832 42.389ZM-9.04343 37.5597C-8.87341 37.6347 -8.50549 37.6492 -8.29442 37.7125C-8.84195 38.1832 -8.93834 38.0447 -9.6463 37.9901C-9.67776 37.5138 -9.48409 37.366 -9.04343 37.5597ZM-13.7894 49.3504C-13.716 49.3524 -13.6424 49.3542 -13.5685 49.356C-13.564 49.1486 -13.5694 48.9415 -13.585 48.7346C-12.8385 48.8976 -13.261 47.5938 -13.4955 47.3236C-12.7673 47.3479 -12.4125 45.0436 -12.1818 44.5996C-11.977 44.2054 -11.745 44.0529 -11.5952 43.5722C-11.4643 43.1514 -11.3226 42.7728 -11.1336 42.3748C-10.6994 41.4597 -10.1298 40.6286 -10.2349 39.5621C-9.86696 40.3624 -9.54344 39.5634 -9.31005 39.1808C-8.9341 38.5643 -8.01686 37.7776 -7.91935 37.0453C-7.83323 36.4007 -8.31249 36.3666 -8.02957 35.7688C-7.74354 35.1636 -7.50837 35.2243 -7.00724 35.0307C-6.6739 34.9018 -6.60764 35.0584 -6.37247 34.6378C-6.22008 34.3656 -6.27385 34.1627 -6.07862 33.9395C-5.99807 34.0095 -5.90637 34.0385 -5.80374 34.0264C-5.64532 33.8175 -5.54135 33.5847 -5.49204 33.3281C-5.36285 32.9815 -5.30038 32.6634 -5.10582 32.3333C-4.9213 32.0207 -4.59376 31.1843 -4.42018 31.0336C-4.23588 30.8735 -3.19057 30.9549 -3.19503 30.9607C-2.76329 30.4179 -3.55559 29.8772 -2.45851 29.9916C-2.67516 29.5884 -1.9141 29.0881 -1.69321 28.8638C-1.14144 28.3039 -1.09748 28.0448 -0.981016 27.3406C-0.92189 26.9816 -1.30789 27.0231 -0.790476 26.9412C-0.576504 26.9076 -0.371235 27.1809 -0.216836 27.1408C0.464793 26.9642 -0.248294 26.9979 -0.0602045 26.7203C-0.000854492 26.6322 0.302365 26.2768 0.299465 26.2806C0.284739 26.2984 0.367739 25.9713 0.43646 25.8872C0.566761 25.8761 0.695054 25.8533 0.821116 25.819C0.885152 25.6897 0.941825 25.5572 0.990911 25.4216C1.48423 25.0105 2.2223 24.8265 2.56345 24.3747C2.78412 24.0826 2.71807 23.7966 3.00322 23.5054C3.27476 23.228 3.63398 23.4289 3.68775 22.8023C3.75625 22.0052 2.89947 21.6504 2.54895 22.4549C1.59846 21.2849 -2.3744 25.5775 -2.83335 26.1383C-4.82692 28.5728 -6.78636 31.0675 -8.4216 33.7595C-10.0149 36.3826 -11.3226 39.1427 -12.3447 42.0358C-12.8376 43.4308 -13.1377 44.8195 -13.4387 46.2624C-13.5397 46.7456 -14.295 48.8989 -13.9806 49.3808C-13.917 49.3707 -13.8532 49.3605 -13.7894 49.3504Z" fill="black"/>
<path fill-rule="evenodd" clip-rule="evenodd" d="M78.0408 51.4039C78.2686 53.2515 80.7979 52.3776 81.3668 51.26C81.7812 50.4464 82.8274 47.2313 81.7017 46.5521C80.8673 46.0486 80.689 48.2186 80.4833 48.7034C80.1385 49.5152 79.8692 48.9399 79.1028 49.1482C78.257 49.3781 77.9466 50.6377 78.0408 51.4039Z" fill="black"/>
<path fill-rule="evenodd" clip-rule="evenodd" d="M75.2773 48.0219C76.1814 48.2226 77.0676 48.1191 77.7097 47.4056C78.0654 47.0105 78.5386 46.2267 77.8983 45.8443C77.318 45.498 76.66 46.309 76.0489 46.1413C75.2177 45.9132 75.6457 45.0226 75.3605 44.4344C74.3128 45.0373 73.7282 47.6781 75.2773 48.0219Z" fill="black"/>
<path fill-rule="evenodd" clip-rule="evenodd" d="M76.2149 52.6873C75.3434 52.6855 75.3362 53.7567 75.7912 54.2158C76.2265 54.6551 77.3273 55.0997 77.9175 54.7581C79.0817 54.0838 76.9201 52.7569 76.2149 52.6873Z" fill="black"/>
<path fill-rule="evenodd" clip-rule="evenodd" d="M25.5068 95.2846C25.6929 95.3749 26.2413 95.8396 26.4724 95.6298C26.1462 95.3013 25.8198 94.9729 25.4936 94.6444C25.3133 94.842 25.1897 95.1307 25.5068 95.2846Z" fill="black"/>
<path fill-rule="evenodd" clip-rule="evenodd" d="M21.3882 48.2893C21.2956 48.3584 21.2028 48.4273 21.1102 48.4962C21.4228 48.7564 21.415 48.8338 21.7301 48.5874C21.6366 48.4643 21.5228 48.3651 21.3882 48.2893Z" fill="black"/>
<path fill-rule="evenodd" clip-rule="evenodd" d="M80.4546 109.59C80.2794 109.275 79.9485 109.855 79.7247 109.949C79.3606 110.102 79.0619 109.291 79.1663 110.264C78.3432 109.887 77.8436 110.751 77.3128 111.201C76.5629 111.837 75.6457 112.182 75.1454 113.085C77.5 113.636 80.0871 111.607 81.8428 110.274C82.1293 110.057 83.5613 108.959 82.5907 108.853C82.1938 108.81 80.7491 110.118 80.4546 109.59Z" fill="black"/>
<path fill-rule="evenodd" clip-rule="evenodd" d="M79.7562 107.685C80.2176 107.322 79.2227 107.288 79.0654 107.25C79.079 107.539 79.0922 107.828 79.1058 108.116C79.3285 107.981 79.5453 107.837 79.7562 107.685Z" fill="black"/>
<path fill-rule="evenodd" clip-rule="evenodd" d="M78.0235 108.896C78.1614 108.81 78.5458 108.541 78.2843 108.341C78.048 108.491 77.8791 108.736 77.8421 109.016C77.9026 108.976 77.963 108.936 78.0235 108.896Z" fill="black"/>
<path fill-rule="evenodd" clip-rule="evenodd" d="M39.8897 85.4811C39.5949 85.5966 39.4629 85.7792 39.4939 86.0294C39.9468 85.9368 39.8604 85.5094 39.8897 85.4811Z" fill="black"/>
</g>
</svg>
