<svg width="186" height="146" viewBox="0 0 186 146" fill="none" xmlns="http://www.w3.org/2000/svg">
    <path fill-rule="evenodd" clip-rule="evenodd" d="M46.4653 80.7349C47.5243 88.6712 48.583 96.6075 49.6419 104.544L50.4969 110.953C50.6049 111.761 50.5029 113.357 50.9141 114.081C51.0594 114.336 51.4411 114.457 51.7218 114.608C52.6879 115.126 53.6542 115.645 54.6203 116.163C62.7932 120.548 70.9661 124.933 79.1385 129.318C86.982 133.527 94.8255 137.735 102.669 141.943C103.481 142.379 104.793 143.515 105.67 143.216C106.502 142.931 107.354 142.229 108.11 141.787C109.561 140.937 111.013 140.087 112.464 139.236C121.248 134.092 130.031 128.948 138.814 123.804C142.438 121.681 146.062 119.559 149.686 117.437C150.677 116.856 151.669 116.275 152.66 115.694C153.179 115.391 153.246 115.401 153.45 114.886C154.213 112.959 154.567 110.751 155.107 108.751C155.702 106.548 156.297 104.344 156.892 102.14C157.157 101.157 157.033 101.03 156.6 100.081C155.744 98.202 154.887 96.3234 154.031 94.4448C152.13 90.2751 150.23 86.1054 148.329 81.9357C147.56 80.2495 145.709 79.063 144.376 77.8228L123.68 58.5666C123.154 58.0774 122.628 57.5884 122.103 57.0992C122.016 60.0389 121.435 63.1992 122.287 66.039C123.687 70.6995 125.086 75.36 126.485 80.0205C127.161 82.2733 127.837 84.5258 128.513 86.7783C128.639 87.1969 129.404 88.8565 129.199 89.2246C129.086 89.4287 128.12 89.6351 127.911 89.7145C127.012 90.0563 126.113 90.3982 125.213 90.74C122.709 91.6923 120.204 92.6447 117.699 93.5968C115.446 94.4535 113.194 95.31 110.941 96.1664C110.177 96.457 109.28 96.9948 108.473 96.95C107.751 96.9098 106.93 96.5528 106.232 96.3731C105.004 96.0572 103.776 95.741 102.548 95.4248C100.136 94.804 97.7243 94.1832 95.3124 93.5623C92.5988 92.8637 90.3071 90.812 87.9865 89.2935C83.9975 86.6833 80.0086 84.0732 76.0199 81.4632C75.1067 80.8656 75.1034 80.5247 74.7394 79.4336C73.9217 76.9817 73.1038 74.5299 72.286 72.078C71.8494 70.7689 71.3123 69.4542 70.9826 68.1139C70.4386 65.9019 70.116 63.6121 69.6851 61.3757C69.5553 60.7009 69.4252 60.026 69.2953 59.3512C67.6248 60.0287 65.9543 60.7063 64.2836 61.3839C64.0415 61.482 62.8617 61.7748 62.7568 62.0154C62.6903 62.1675 63.0413 62.8576 63.0915 63.0059C64.4766 67.1058 65.8618 71.2055 67.2471 75.3052C67.6828 76.5949 68.1184 77.8844 68.5541 79.1741C67.5131 77.539 66.4718 75.9036 65.4305 74.2685C64.6125 77.0185 63.7943 79.7688 62.9762 82.5188C61.0426 80.289 59.1088 78.0592 57.1751 75.8294C56.5057 78.0592 55.8363 80.289 55.167 82.5188C53.0846 79.7688 51.0022 77.0185 48.9196 74.2685C48.6722 75.7036 48.4245 77.1387 48.1769 78.5738C48.1021 79.0071 48.1171 80.2497 47.8286 80.5927C47.591 80.875 46.9069 80.7349 46.4653 80.7349Z" fill="#FF5678"/>
    <path fill-rule="evenodd" clip-rule="evenodd" d="M178.314 97.8899C178.197 101.626 178.278 106.475 176.232 109.76C175.902 110.29 174.784 111.941 174.659 110.489C174.536 109.062 174.887 107.65 174.539 106.207C174.353 105.435 173.727 103.749 172.658 104.447C172.113 104.802 171.969 105.679 171.756 106.233C171.44 107.053 171.087 107.859 170.754 108.672C169.594 111.511 168.392 114.899 165.813 116.778C166.151 114.33 167.07 111.716 166.452 109.242C166.241 108.398 165.603 106.858 164.504 107.352C163.432 107.834 162.738 109.982 162.232 110.939C160.699 113.839 159.131 116.685 157.405 119.476C156.537 120.881 155.6 122.164 154.464 123.365C153.754 124.117 152.868 125.387 151.749 125.499C151.749 123.357 152.454 121.289 153.097 119.272C153.79 117.104 154.421 114.917 155.101 112.745C155.69 110.861 156.174 108.991 156.566 107.058C156.729 106.259 156.858 105.432 157.539 104.915C158.152 104.452 159.12 104.231 159.803 103.89C161.597 102.994 163.442 102.028 165.108 100.915C165.793 100.457 166.382 99.867 167.098 99.457C167.915 98.9898 168.677 98.5967 169.432 98.0274C172.691 95.5709 175.629 92.5491 177.608 88.952C177.929 90.3971 178.355 91.8092 178.402 93.299C178.45 94.8264 178.362 96.3634 178.314 97.8899ZM151.493 115.061C150.972 114.182 150.178 114.542 149.478 114.966C148.392 115.624 147.304 116.277 146.212 116.927C143.992 118.249 141.812 119.641 139.642 121.045C135.226 123.902 130.655 126.24 125.999 128.659C121.499 130.996 117.176 133.777 112.96 136.588C111.946 137.264 110.94 137.955 109.967 138.688C109.103 139.338 108.412 140.252 107.503 140.831C106.556 141.434 105.906 140.944 105 140.5C103.867 139.944 102.687 139.478 101.529 138.976C96.8574 136.952 92.1721 134.851 87.6274 132.553C83.1101 130.27 78.83 127.639 74.5017 125.026C72.4403 123.781 70.4142 122.458 68.3809 121.168C66.2171 119.795 63.9767 118.767 61.707 117.599C60.7027 117.083 59.8131 116.381 58.7816 115.912C57.6973 115.418 56.5518 115.064 55.5808 114.352C55.1455 114.033 54.7782 113.651 54.2807 113.425C53.8721 113.24 53.4085 113.209 53.0051 113.012C52.1844 112.612 51.9495 111.799 51.7906 110.954C50.7685 105.527 50.2252 99.95 49.6329 94.4629C49.3 91.3773 48.9285 88.3038 48.4684 85.2345C48.2609 83.8507 48.6781 82.7786 48.8972 81.4324C49.1529 79.8602 49.254 78.255 49.4254 76.6721C50.2339 78.1691 50.9332 79.7403 51.962 81.1065C52.7204 82.1132 54.0158 83.5409 55.4123 83.5073C57.5828 83.4549 57.4835 79.7345 57.571 78.2577C58.5596 79.1396 58.8595 80.5762 59.6801 81.6006C60.4294 82.5357 61.449 83.6961 62.5997 84.1149C65.0223 84.9968 64.7891 80.5026 64.6559 79.2281C64.589 78.5888 64.2278 77.5774 65.0848 77.8688C65.8739 78.1373 66.6419 79.2502 67.3052 79.7606C68.4518 80.6431 69.7096 81.3765 70.8859 82.2189C72.3453 83.2642 73.92 84.0197 75.408 84.9932C76.3387 85.6022 77.3538 85.7388 78.3684 86.1866C79.8548 86.8428 81.1678 87.8208 82.5826 88.6075C85.3844 90.1645 88.4924 91.5608 91.5569 92.4996C92.5485 92.8033 93.8698 93.6595 94.6219 92.7796C95.0851 92.2382 95.3895 91.4112 95.7826 90.8043C96.2799 90.0359 96.8081 89.2878 97.3565 88.5548C99.3061 85.9502 101.47 83.4908 103.872 81.294C106.668 78.7384 109.725 76.4386 112.994 74.5232C114.399 73.7002 120.265 70.0115 121.554 72.6076C120.495 72.5416 119.576 72.9289 118.67 73.4139C118.449 73.5323 117.309 74.3462 117.576 73.6288C117.244 73.6908 116.954 74.1225 116.703 74.3145C116.269 74.6463 115.612 75.0294 115.11 75.3041C114.614 75.5755 114.001 75.6419 113.548 75.971C113.383 76.0912 113.283 76.2861 113.125 76.4161L112.674 76.4197C112.606 76.6696 112.539 76.9194 112.471 77.1693C112.216 76.3516 111.852 77.415 111.425 77.7604C111.169 77.968 110.763 78.1819 110.461 78.3159C110.236 78.416 110.201 78.1832 109.982 78.3602C109.787 78.5174 109.663 78.8637 109.454 79.0608C109.197 79.3021 108.868 79.4896 108.582 79.6957C108.034 80.0903 107.454 80.4003 106.898 80.7744C106.15 81.2779 105.758 82.1437 105.033 82.6702C104.689 82.9195 104.155 82.9487 103.969 83.1084C103.503 83.5093 103.656 84.1167 102.786 84.1434C102.865 84.2701 102.913 84.4074 102.929 84.5557C102.722 84.52 102.538 84.4342 102.376 84.298C102.412 85.1653 101.559 85.4751 101.047 86.0091C100.752 86.3168 100.385 86.7496 100.177 87.12C100.142 87.182 100.076 87.6763 100.062 87.683C99.983 87.7209 99.5022 87.2988 99.5477 87.334C99.4136 88.1354 98.6376 88.8931 98.2978 89.635C98.1189 90.0258 97.937 90.6542 97.5843 90.9291C97.4883 91.0038 97.1932 90.9258 96.9493 91.1856C96.7703 91.376 96.564 91.7281 96.4912 91.9807C96.4428 92.1495 96.501 92.5861 96.4314 92.6873C96.3038 92.8724 96.1052 92.6864 95.9053 92.8233C95.5358 93.0762 95.5265 93.4713 94.9858 93.5233C95.3585 94.4281 97.6084 94.7071 98.4261 94.9644C100.739 95.6917 103.165 96.4182 105.327 97.5322C105.886 97.8203 106.415 98.0578 106.514 98.7216C106.652 99.6452 106.181 100.873 106.091 101.806C105.848 104.326 105.798 106.919 105.849 109.45C105.897 111.846 105.975 114.265 106.086 116.659C106.19 118.878 106.638 121.054 106.879 123.257C106.946 123.862 106.902 126.59 107.942 126.452C108.811 126.338 108.262 124.475 108.246 123.941C108.21 122.759 108.459 121.552 108.448 120.359C108.443 119.786 108.694 119.292 108.718 118.744C108.742 118.202 108.473 117.773 108.553 117.211C108.631 116.672 110.226 113.571 108.694 113.934C108.784 113.491 108.862 113.044 108.981 112.607C109.145 112.754 109.277 112.926 109.376 113.122C109.512 112.17 109.467 111.219 109.552 110.266C109.589 109.834 109.765 109.361 109.705 108.926C109.716 108.746 109.693 108.569 109.636 108.395C109.542 108.295 109.425 108.243 109.287 108.238C109.214 108 109.195 107.934 109.324 107.7C109.38 107.542 109.49 107.443 109.655 107.403C109.969 107.366 110.005 107.186 109.763 106.862C109.889 106.223 109.905 105.82 109.814 105.183C109.737 104.648 110.02 103.611 109.732 103.134C109.396 102.577 109.229 103.118 109.167 102.345C109.153 102.182 109.143 101.841 109.209 101.678C109.281 101.501 109.497 101.573 109.525 101.51C109.713 101.081 109.726 100.236 109.06 100.309C109.086 100.003 109.112 99.696 109.138 99.3894C109.619 99.9426 109.451 99.4744 109.724 99.1669C110.091 98.7526 110.45 98.6812 110.975 98.5173C112.374 98.0812 113.722 97.425 115.09 96.8925C117.985 95.7649 120.934 94.7581 123.744 93.4256C129.655 90.6225 135.449 87.5804 141.396 84.8514C140.971 84.0634 141.236 84.025 141.546 83.2852C141.961 83.5728 141.873 83.3721 142.168 83.3545C142.142 83.1077 142.218 83.0332 142.399 83.1311C142.542 83.175 142.689 83.1906 142.84 83.1777C143.208 83.2408 143.509 83.4433 143.844 83.5202C143.953 83.6011 144.074 83.6618 144.206 83.7026C144.324 83.6756 144.425 83.6172 144.508 83.5271C145.05 83.6275 145.232 84.0353 145.256 84.6257C145.26 84.7285 144.946 84.8338 145.036 84.9718C145.193 85.2131 145.617 85.1555 145.859 85.1863C145.806 85.4369 145.753 85.6873 145.7 85.9377C146.763 85.4474 146.486 86.9822 146.808 87.4863C146.898 87.627 147.098 87.5146 147.202 87.6776C147.338 87.8904 147.297 88.1916 147.413 88.4034C147.675 88.8826 147.937 88.8244 148.198 89.3732C149.561 92.2382 151.374 94.9075 152.682 97.8341C153.305 99.2271 153.867 100.644 154.517 102.025C155.116 103.295 155.458 104.376 155.031 105.763C154.042 108.982 152.984 112.26 151.687 115.37C151.623 115.267 151.558 115.164 151.493 115.061ZM82.4838 139.09C82.391 139.248 82.2982 139.406 82.2054 139.564C81.9992 138.379 82.5485 138.928 82.4838 139.09ZM78.12 136.871C77.8226 136.782 77.9511 136.296 77.9607 136.089C78.1488 136.323 78.3333 136.562 78.49 136.819C78.3666 136.836 78.2432 136.854 78.12 136.871ZM66.1602 132.315C66.4726 132.14 66.6972 132.014 67.0513 131.816C66.6914 132.517 66.6914 132.517 66.1602 132.315ZM47.3448 70.5638C46.8675 71.7344 48.3227 78.9625 46.9679 79.1984C46.7736 78.564 46.7493 76.8172 45.9449 76.6087C44.9469 76.3499 45.0453 78.1482 44.909 78.7043C42.8601 77.2797 41.95 74.5286 40.9711 72.3483C39.7235 69.5693 38.7417 66.6788 37.8042 63.7832C37.0025 61.3075 36.3396 58.788 35.5295 56.3163C35.0206 54.7639 34.4719 53.2078 34.1296 51.6077C34.0553 51.26 33.7628 50.3786 34.0114 50.0481C34.3726 49.5676 35.673 50.1179 36.092 50.2441C38.8102 51.0616 41.63 51.4134 44.4228 51.8884C47.5257 52.4157 50.6217 52.9609 53.7434 53.3699C54.5234 53.472 55.3039 53.5688 56.0848 53.6629C56.5913 53.724 57.3579 53.6629 57.839 53.8898C58.8127 54.349 59.0199 56.106 59.3816 57.0176C60.7308 60.4185 62.3187 63.7119 63.7393 67.082C65.0192 70.1178 65.9893 73.3477 67.8289 76.1119C66.4569 75.5041 64.7182 72.2905 63.1851 74.1428C62.526 74.9393 62.6922 75.9886 62.7449 76.9419C62.8212 78.3199 62.8451 79.7082 62.8451 81.0884C61.3448 80.6988 60.3368 78.9968 59.5492 77.7912C58.4733 76.1445 57.7957 74.5928 57.3193 72.705C57.1129 71.8876 56.5658 71.8673 56.0797 71.3781C55.7673 71.0637 55.6102 70.64 55.1622 71.0974C54.599 71.6722 54.9737 73.2641 55.0709 73.9428C55.3019 75.5578 56.0594 78.0434 55.3231 79.561C54.3293 81.609 51.6664 76.4558 51.3544 75.7115C51.1958 75.3326 48.3626 68.0669 47.3448 70.5638ZM45.4844 35.4646C45.6522 35.4903 45.8197 35.5159 45.9875 35.5416C45.8523 35.6609 45.571 36.0792 45.3412 35.9686C45.3889 35.8007 45.4367 35.6328 45.4844 35.4646ZM54.3712 33.5588C54.3188 33.6166 54.2659 33.6741 54.2133 33.7319C53.9727 33.4313 54.058 32.9931 54.058 32.6455C54.3759 32.8375 54.4536 33.2215 54.3712 33.5588ZM55.0895 36.8937V37.8762C54.4232 37.5876 54.4101 37.4387 55.0895 36.8937ZM55.8985 38.1428C55.4317 38.0149 55.3759 37.9116 55.4415 37.1947C55.635 37.5963 55.7624 37.861 55.8985 38.1428ZM58.5853 45.4187C58.3896 45.9217 57.2461 44.723 57.2881 44.3642C57.328 44.0219 57.5036 43.9198 57.7459 44.1399C57.826 44.2128 57.7071 44.4761 57.7582 44.5675C57.9427 44.8984 58.3146 45.1691 58.5853 45.4187ZM58.598 48.4494C58.3115 49.1643 57.8008 48.0384 58.5494 48.0077C58.5985 48.1515 58.6147 48.2987 58.598 48.4494ZM58.0422 47.3222C57.9313 47.1744 57.8236 47.0245 57.7189 46.872C58.1045 46.9498 58.4106 47.5113 58.8173 47.1367C58.7691 47.708 58.3631 47.7238 58.0422 47.3222ZM33.1098 38.0365C32.4897 37.3602 36.5329 36.8855 37.0206 36.7693C40.5602 35.9258 43.902 34.7052 47.2116 33.2074C48.7904 32.493 50.3611 31.7699 51.9029 30.9779C52.5687 30.636 53.4812 30.3462 54.0372 29.8329C54.4342 29.4665 54.4183 29.1893 54.9342 28.971C55.3721 28.7862 55.394 28.9608 55.5946 28.6263C55.7151 28.4256 55.8514 27.6903 55.7809 27.4726C55.5888 26.8788 55.3048 27.3602 54.9061 26.9511C54.6189 26.6561 54.6885 25.8172 54.7668 25.4698C54.8686 25.6353 54.927 25.815 54.9426 26.0085C55.3753 25.7954 55.2008 25.0633 55.674 24.9434C56.1727 24.8172 56.1212 25.2054 56.2512 25.6023C56.6281 25.0493 56.326 24.5777 56.1221 24.0376C57.1589 23.8436 58.2729 23.6557 59.3006 24.0004C60.0438 24.2495 60.6799 24.862 61.4646 24.9804C62.2331 25.0961 62.3808 24.732 62.9473 24.3625C63.4071 24.0626 63.802 24.4158 64.0388 24.1893C63.8928 24.9541 62.6383 24.8495 62.7926 25.8052C62.8623 26.2353 63.3897 26.6217 63.6298 26.9564C63.9312 27.3765 64.1715 27.841 64.3768 28.3144C65.1753 30.1557 65.5167 32.2925 65.8518 34.2617C66.6787 39.1222 66.7834 44.0785 67.5612 48.9547C67.9318 51.2772 68.3032 53.6011 68.4958 55.9464C68.544 56.5328 68.9023 57.8629 68.6091 58.427C68.3613 58.9033 67.8097 58.9046 67.3255 59.0199C66.3782 59.2449 65.4886 59.5506 64.5798 59.8893C63.7652 60.1928 63.5285 60.379 63.0055 59.6131C62.4997 58.8719 62.2496 57.9884 61.8877 57.1759C61.4267 56.1406 60.8698 55.1417 60.3352 54.1429C61.3854 54.1429 61.9899 53.5763 61.962 52.5098C61.9316 51.3285 60.9595 51.0482 60.5588 50.0774C60.169 50.5833 60.1362 50.5976 59.8584 50.1173C59.5407 49.5681 59.3263 48.5631 59.1319 47.9401C59.2709 48.0884 59.4099 48.2367 59.5489 48.3847C59.8995 47.9026 59.3504 47.1427 59.1667 46.6887C58.8834 45.9877 58.8334 45.2298 58.5645 44.5307C58.4179 44.1492 58.0784 43.8489 57.9951 43.4509C57.9396 43.1844 58.1623 42.9309 58.1094 42.6604C58.0175 42.1895 57.4844 41.6842 57.3186 41.2052C57.0636 40.4685 56.7867 39.8199 56.4703 39.1021C56.0422 38.1306 56.1417 37.1111 56.0634 36.0772C55.9822 35.0051 55.6386 33.9794 55.5172 32.912C55.4333 32.1746 55.6959 31.2461 55.1377 30.6554C55.0723 31.6372 55.3539 31.622 54.4308 31.7986C53.3799 31.9995 52.6177 32.782 51.6242 33.0154C51.4194 33.0636 51.2701 32.1695 51.35 33.3892C50.8734 33.0375 49.8562 33.4741 50.2357 33.6828C49.9481 33.9903 49.3816 33.7776 49.287 34.2383C48.3095 33.2886 46.7421 36.5211 45.5781 34.8349C45.386 35.9777 44.558 36.6533 43.4464 36.8045C42.8875 36.8803 42.543 37.0665 42.047 37.234C41.9464 37.2676 41.9094 37.4124 41.7902 37.4514C41.6082 37.5107 41.3409 37.3316 41.2097 37.3664C40.9426 37.4373 40.6456 37.7885 40.2728 37.8583C39.8453 37.9384 39.379 37.9016 38.951 37.8521C38.416 37.7901 38.1806 37.7268 37.6567 37.9029C37.1855 38.0615 36.6808 38.5054 36.2435 38.022C35.5565 39.2098 33.9186 38.9195 33.1098 38.0365ZM64.8694 23.7027C64.3496 23.6405 64.7106 23.1937 64.9513 23.0594C65.6055 22.6951 65.4308 23.7701 64.8694 23.7027ZM36.0826 27.9652C39.134 23.5658 44.3532 20.5431 48.9454 17.9998C51.4537 16.6106 54.014 15.2641 56.6477 14.1271C57.9572 13.5621 59.2819 13.0189 60.619 12.5225C61.333 12.2574 62.0557 12.0164 62.7788 11.7765C62.9787 11.7102 63.3424 11.5069 63.5517 11.5267C63.5156 11.5232 64.0718 11.6743 63.9625 11.7218C64.3208 11.566 64.4913 11.1595 64.9125 10.9969C65.386 10.8141 65.9891 10.7385 66.4962 10.722C66.9449 10.7073 67.3333 10.8926 67.7608 10.9071C68.0417 10.9164 68.2805 10.7831 68.5556 10.7635C68.6964 10.7537 68.6839 10.9641 68.7687 10.9764C68.8055 10.9818 69.1803 10.8411 69.1839 10.8435C69.3204 10.9311 69.4414 11.2732 69.5648 11.4068C69.9186 11.7898 70.4381 12.0567 70.9099 12.2583C71.4843 12.5036 72.8852 12.7502 72.2359 13.6577C72.6971 13.5915 72.9118 14.008 72.3343 14.1135C72.0215 14.1708 71.8879 13.8845 71.6556 13.6892C71.119 13.2388 69.8164 12.5975 69.0436 12.6265C68.6087 12.6427 68.2727 12.9725 67.8717 13.0923C67.477 13.21 67.2816 13.0274 66.9353 13.0564C66.5306 13.09 66.27 13.4323 65.8842 13.4932C65.523 13.5503 65.3217 13.3041 64.9989 13.3213C64.6151 13.3415 64.2434 13.6747 63.877 13.7866C63.2942 13.9646 62.8663 14.0859 62.2973 14.3809C61.1947 14.9528 59.9633 15.17 58.8269 15.6623C57.9184 16.0559 56.8882 16.263 56.0475 16.6983C55.1127 17.1819 54.1736 17.6638 53.2581 18.1893C52.5968 18.5691 51.2523 18.6997 50.5231 18.6032C50.5126 19.9451 49.8517 19.0043 49.1857 19.5921C49.3433 19.731 49.5222 19.8331 49.7219 19.8985C49.0001 20.1866 48.333 20.5451 47.6337 20.8762C46.911 21.2187 46.1399 21.2941 45.6651 21.9419C45.2278 22.5388 45.376 22.2308 44.7233 22.4659C44.4239 22.5738 44.1635 22.9029 43.9478 23.1239C43.577 23.5038 43.4948 24.0791 43.2831 23.2982C43.2213 23.3934 42.9781 23.9997 42.9308 24.0151C42.6655 23.7337 42.6274 24.0673 42.479 24.1866C42.5571 24.4459 42.4455 24.6158 42.1443 24.6963C41.9919 24.8096 41.8375 24.9206 41.6816 25.0292C41.1157 25.4214 40.3955 25.7579 39.997 26.3423C39.7032 26.1691 39.5943 25.8701 39.7732 25.5648C39.2116 26.0821 38.5416 26.6135 38.3897 27.4097C38.3198 27.3424 38.2384 27.2938 38.146 27.2639C37.918 27.4178 38.215 27.8762 38.3595 27.9795C38.9901 27.7346 38.202 27.8234 38.6257 27.8628C38.7464 27.874 38.8705 27.9643 39.0037 27.9659C39.3944 27.971 39.7614 27.9523 40.1487 27.8927C41.0028 27.7612 41.8422 27.5161 42.6691 27.2704C43.5696 27.0028 44.4703 26.7357 45.351 26.4075C46.0761 26.1372 46.7892 25.836 47.5021 25.5358C47.7868 25.4159 48.0712 25.2943 48.3564 25.1753C48.8979 24.9492 49.1835 24.5777 49.1079 25.2141C49.5391 25.1425 49.9129 24.5333 50.244 24.2847C50.7099 23.9353 51.2337 23.6746 51.7857 23.4962C52.0093 23.424 52.1735 23.3321 52.4047 23.3315C52.518 23.3312 52.5858 23.6505 52.6572 23.6331C53.1526 23.5132 52.9268 23.2389 53.1494 22.8438C53.6365 21.9802 54.9484 21.5026 55.7541 21.012C56.2655 20.7005 56.6285 20.2816 57.1007 19.9366C57.3215 19.7754 57.482 19.704 57.7133 19.6358C57.8905 19.5834 58.1078 19.9901 58.2227 19.5814C57.8106 19.413 57.4708 19.2055 57.0743 19.0826C56.7939 18.9954 57.1303 18.6973 56.6859 18.8748C56.5074 18.9461 56.446 19.2913 56.3804 19.4358C55.884 18.9927 54.4882 19.4518 53.8991 19.6374C53.8585 19.6501 53.6767 19.5542 53.591 19.56C53.251 19.5827 53.0142 20.0401 52.7904 20.2372C52.1954 20.761 51.5499 20.9799 50.8172 21.2789C51.0122 20.2142 52.4453 19.7781 53.2817 19.3702C54.5044 18.774 55.6428 18.013 56.9815 17.6923C57.8731 17.4785 59.0545 17.3066 59.4396 18.3425C59.6701 18.9635 59.6991 20.5063 58.9193 20.7928C58.837 20.503 59.1007 20.2552 59.1801 20.0037C58.4039 20.2998 58.276 21.2317 57.6866 21.718C57.3552 21.9911 57.2368 22.0788 57.0766 22.3428C56.9175 22.605 56.8412 22.8496 56.4683 23.1285C55.859 21.835 55.9621 23.6068 55.6531 23.8291C55.7773 23.7397 55.1495 24.0008 55.2244 23.9732C55.1954 23.9839 54.9219 23.5411 54.7445 23.5504C54.4217 23.5674 54.4837 23.9226 54.3282 24.1014C53.8009 24.7066 53.1198 25.1035 52.2712 25.0083C52.2514 25.4388 52.3844 25.9532 51.796 25.9925L51.7188 25.0379C51.3986 25.3617 50.9772 25.6692 50.7165 26.044C50.42 26.4706 50.4517 26.7332 49.9597 27.0175C49.4457 27.3148 48.3519 27.9003 47.7401 27.9509C47.8914 27.7364 47.8646 27.5426 47.6603 27.3701C47.3526 27.6871 46.8983 27.7183 46.5708 28.0047C47.7078 28.4794 45.6973 28.4548 45.4422 28.5086C45.2715 28.5447 45.1225 28.7001 44.9496 28.7351C44.72 28.7817 44.6903 28.5405 44.4926 28.617C44.2035 28.7289 44.3208 29.0449 44.0183 29.2036C43.801 29.3178 43.4324 29.3162 43.1872 29.4246C42.6028 29.6832 41.358 30.2561 40.9631 29.5613C40.763 30.7533 38.719 30.0277 37.9624 29.9475C36.9262 29.8375 35.1214 29.3514 36.0826 27.9652ZM40.4348 15.7687C40.5814 15.6436 40.7282 15.6527 40.875 15.7963C40.6706 14.7176 42.2514 14.1938 42.9411 13.7351C43.8559 13.1268 44.9326 11.9466 46.1297 12.04C45.9255 12.1912 45.7218 12.3424 45.5179 12.4936C45.809 12.5312 46.1 12.5689 46.3907 12.6066C46.2267 12.8474 46.0625 13.088 45.8981 13.3286C45.6294 11.8489 44.2278 13.717 43.8222 13.9893C43.4136 14.2633 43.0062 14.4676 42.6432 14.8018C42.2835 15.133 41.9589 15.7292 41.3643 15.4313C41.3101 16.2764 40.6302 16.0472 40.1601 16.5152C40.1405 16.2215 40.3087 16.014 40.4348 15.7687ZM46.6451 11.5501C48.092 11.0085 49.3517 10.0071 50.7152 9.2918C52.0176 8.60846 53.3462 7.99482 54.6702 7.35732C55.3418 7.03378 56.5721 6.19716 57.3398 6.6235C58.3758 7.19923 56.9496 7.38497 56.5792 7.58432C56.4422 6.69775 55.9623 7.50092 56.249 7.99415C55.4585 7.653 53.7345 8.98775 52.9803 9.3558C52.8096 9.43919 52.8862 9.48735 52.692 9.58547C52.6443 9.60955 52.1494 9.72215 52.0077 9.76965C51.2978 10.0071 50.8299 9.81848 50.524 10.6749C50.46 10.4734 50.3959 10.2716 50.3319 10.0698C49.8874 11.0672 48.5364 11.5038 47.6725 12.0935C47.4499 12.2456 46.814 12.8354 46.5315 12.7134C46.1384 12.5435 46.2961 11.6806 46.6451 11.5501ZM72.7471 14.5572C73.358 14.5976 72.769 14.8823 72.9368 15.0705C72.9178 15.0493 73.3047 15.3791 73.254 15.2886C73.3223 15.4103 73.4863 15.4059 73.5702 15.6534C73.8591 16.5045 72.5974 17.3839 72.1719 17.8669C71.3446 18.8063 70.8664 19.9959 70.0043 20.9052C69.615 21.3159 69.2276 21.5996 68.6879 21.7528C68.3102 21.86 67.9106 21.7452 67.5634 22.1082C67.2838 22.4005 67.3472 22.5666 67.0382 22.7221C66.4938 22.9961 66.2539 22.7557 65.7242 23.348C65.2684 22.1095 66.5781 22.1115 67.2615 21.4194C68.2048 20.4639 69.2386 19.5 70.1232 18.4779C70.9091 17.5697 71.2239 16.7734 71.5969 15.6701C71.7145 15.3223 71.8426 14.5764 72.1668 14.3581C72.6717 14.0183 72.3687 14.532 72.7471 14.5572ZM75.7512 46.7287C77.3534 44.9377 79.341 43.3296 81.4954 42.2508C82.2654 41.865 83.3616 41.3589 84.1597 41.9527C84.9424 42.5346 84.7739 43.6957 84.4584 44.4855C84.1561 44.3669 84.4415 43.2569 84.2846 42.9826C83.9423 42.3841 83.2038 42.7019 82.7013 42.9026C82.1128 43.1376 81.5875 43.3971 81.1214 43.8237C80.9322 43.9965 80.5701 44.1515 80.449 44.2703C80.2669 44.1947 80.1596 44.2498 80.1274 44.4353C80.1649 44.549 80.1605 44.661 80.1138 44.7711C80.0873 44.8061 79.8506 44.6625 79.8169 44.6913C79.6634 44.8226 79.5197 44.9771 79.3686 45.0991C79.0654 45.3442 78.8075 45.4601 78.5284 45.8017C77.9893 46.462 77.2762 46.8488 76.7347 47.4779C76.6124 47.6201 76.4658 47.9847 76.4384 48.0166C76.1646 48.3359 75.7588 48.5885 75.45 48.9266C74.9161 49.5105 74.346 49.9025 73.7299 50.4034C73.4647 50.6187 73.1552 50.8509 72.9787 51.1505C72.8984 51.2872 72.8531 52.0364 72.8502 52.0396C72.246 52.7014 72.3636 51.3711 72.4091 51.2043C72.8997 49.4095 74.5586 48.0621 75.7512 46.7287ZM72.4533 58.8647C72.5285 59.1466 72.5903 59.3796 72.6666 59.6657C72.1875 59.273 72.1875 59.273 72.4533 58.8647ZM71.9358 59.7879C71.7598 59.9651 71.5829 60.1413 71.4046 60.3163C71.0126 59.9023 72.0077 59.717 71.9358 59.7879ZM71.6871 52.661C71.4997 53.4187 70.8136 54.3371 70.3419 54.9352C70.3939 54.8692 69.9394 55.0018 69.8876 55.0319C69.7196 55.1292 70.1219 55.7593 69.5398 55.4777C69.3332 55.5945 69.7399 56.0704 69.4592 56.2833C68.648 54.4359 70.8631 52.8354 71.7208 51.4641C72.1402 51.8489 71.7924 52.2362 71.6871 52.661ZM66.4177 62.6491C67.0092 62.8012 67.3168 62.7056 67.7162 62.1249C67.9563 61.7762 68.044 61.1585 68.5931 61.6803L68.6899 61.0093C69.4737 61.3307 69.4079 62.4919 69.7504 63.1355C69.9171 62.4074 70.3118 60.3736 71.5204 60.6998C72.8772 61.0662 70.619 63.3981 70.4093 63.9694C69.9481 63.2541 70.1295 63.9194 69.7776 64.0202C69.4757 64.107 69.0041 63.8849 68.6373 63.905C67.5212 63.9656 66.5408 64.4673 65.5214 64.8921C65.2633 64.1966 65.0053 63.5011 64.7472 62.8057C65.3474 62.8518 66.5884 61.2553 66.7646 62.4157C66.3195 62.3383 66.1941 62.3579 65.9772 62.7629C66.1158 62.6926 66.2626 62.6547 66.4177 62.6491ZM68.9228 71.7268C68.9211 71.7213 70.0773 71.7926 70.1803 71.7549C70.9715 71.4662 70.679 70.5694 70.8408 69.9354C71.167 70.2351 70.9941 70.7821 71.0947 71.1698C71.2127 71.6256 71.5545 72.014 71.5862 72.5015C71.6583 73.6028 70.754 73.3584 70.0686 73.7147C69.4829 74.0193 69.4179 74.4024 68.9233 73.5816C68.7894 73.3595 68.5016 72.7809 68.531 72.4968C68.5601 72.2154 69.0061 71.9815 68.9228 71.7268ZM69.8546 76.4923L69.5349 76.1345C70.4876 76.4259 69.9258 75.9877 70.1449 75.3886C70.876 75.8751 71.4724 76.3753 72.051 75.4011L73.0506 79.4303C72.3792 79.5882 71.513 78.5516 71.0525 78.1955C70.7866 77.9897 69.3106 77.197 70.1969 76.966C70.0826 76.8081 69.9686 76.6502 69.8546 76.4923ZM76.3795 63.8401C75.8246 64.3674 75.2657 64.6626 74.6615 65.0772C74.1316 65.4411 74.3141 65.8587 73.8547 66.2645C73.5497 66.5343 72.8346 66.809 72.4577 67.0148C71.7864 67.3814 71.1851 67.4512 70.4945 67.0409C70.6824 68.553 69.6462 68.6714 68.3563 68.9708C67.7412 69.1137 67.3771 69.332 66.9337 68.769C66.6301 68.3837 66.5112 67.686 66.8889 67.3335C67.4889 66.7734 69.0873 66.9667 69.857 66.6144C70.4412 66.3472 71.0362 64.8419 71.7569 65.3898C71.385 64.7978 71.818 64.6383 72.1413 64.2162C72.4954 63.7536 72.713 63.2126 73.0793 62.7537C73.7755 61.8814 74.8442 61.004 75.8328 60.478C76.7028 60.0153 77.1595 60.3429 77.2898 61.3146C77.3554 61.8032 77.353 62.531 77.0792 62.9644C76.992 63.1027 76.7039 63.1042 76.6167 63.234C76.4647 63.4608 76.6042 63.6265 76.3795 63.8401ZM86.5879 52.1129C87.282 52.6499 87.2144 53.7781 87.3237 54.5465C87.4779 55.6295 87.3661 56.6775 87.3496 57.7806C87.3322 58.9363 86.7648 59.6891 86.4977 60.7723C86.201 61.9773 85.8179 62.6155 85.1521 63.6267C85.8741 63.7402 84.7996 65.895 84.6224 66.174C84.4301 66.4768 82.8792 67.8722 83.5441 67.8722C83.1773 68.3556 82.7779 68.8517 82.4124 69.3218C82.2685 69.5069 82.0161 69.5796 81.9028 69.7102C81.6719 69.9758 81.6578 70.2126 81.4925 70.5225C81.2415 70.9928 81.1589 70.8673 80.8289 71.2084C80.6011 71.4441 80.4516 71.7552 80.2278 71.981C79.5067 72.7086 79.4148 72.1126 79.0116 71.5522C78.9498 71.7023 78.84 71.7964 78.6823 71.8345C78.556 71.2004 79.4253 70.5598 79.7908 70.1745C80.3894 69.543 80.9365 68.8473 81.4657 68.1567C82.5992 66.677 83.6177 65.105 84.4214 63.4211C85.2764 61.629 85.9593 59.6895 86.3141 57.7345C86.5845 56.2443 86.8415 53.6881 84.8491 53.309C83.3999 53.0334 81.8024 53.9133 80.6078 54.6257C79.8798 55.0596 79.1477 55.4911 78.4543 55.9792C77.7015 56.5085 77.0509 57.2577 76.2338 57.6825C76.6807 57.4502 75.2061 58.1494 75.4319 57.9528C75.3261 58.0446 75.4174 58.3253 75.3476 58.452C75.2565 58.6168 74.9402 58.7796 74.7982 58.8861C74.4234 59.1675 73.8246 59.4554 73.6541 59.9201C71.2765 58.225 76.0046 55.2157 77.2166 54.4493C79.6207 52.9293 83.804 49.9592 86.5879 52.1129ZM93.0012 35.6274C92.9784 34.4068 93.9731 32.7405 94.6449 31.7451C94.9736 31.2579 95.4986 31.2773 95.6911 30.7027C95.8022 30.3718 95.6565 30.0248 95.6896 29.6926C95.7342 29.2433 95.9292 28.883 96.1541 28.4968C98.1874 25.0056 100.658 21.9155 103.289 18.8696C104.586 17.3681 105.816 15.8088 107.216 14.3982C107.8 13.8091 109.371 11.6913 110.27 11.9031C110.746 12.0153 111.023 12.7411 111.238 13.1114C111.593 13.724 111.984 14.2977 112.415 14.8609C113.555 16.348 114.869 17.6533 116.421 18.7073C117.391 19.366 118.37 20.0062 119.318 20.6963C120.098 21.2642 121.278 21.9135 121.835 22.7109C122.392 23.5085 121.574 24.1839 121.126 24.8462C120.431 25.8761 119.792 26.9433 119.093 27.9721C118.816 27.7728 118.888 27.3678 118.698 27.1125C118.529 26.8862 118.29 26.7941 118.057 26.6543C117.611 26.3869 117.173 26.0601 116.77 26.508C116.064 27.292 117.034 29.1452 118.08 28.9418C118.203 29.7156 116.115 30.9899 115.591 31.4158C113.985 32.722 112.328 33.8576 110.206 33.9758C109.347 34.0235 108.453 33.9584 107.637 33.6712C107.246 33.5336 106.814 33.3448 106.515 33.0449C106.156 32.6859 106.064 32.1516 105.716 31.7962C105.414 31.4878 105 31.4403 104.698 31.1308C104.396 30.8211 104.247 30.3319 104.124 29.9307C103.885 29.147 103.839 28.3204 103.609 27.5348C103.471 27.0623 103.357 26.4306 102.905 26.8846C102.249 27.5442 102.578 29.6181 102.746 30.4084C102.987 31.5357 103.55 32.4446 104.14 33.4146C104.78 34.4668 105.016 35.4428 105.131 36.6603C105.346 38.9393 106 41.1263 107.018 43.1768C107.447 44.0402 107.96 44.8521 108.423 45.6956C108.639 46.0892 109.124 47.4319 109.712 47.4248C110.651 47.4132 109.313 44.6757 109.127 44.2161C108.098 41.6708 107.115 38.9955 106.895 36.2395C108.37 36.6192 109.978 36.9796 111.505 36.739C110.519 38.9424 111.549 41.1363 111.423 43.4045C111.36 44.5419 111.315 45.5912 111.338 46.7253C111.359 47.7198 110.91 48.7138 110.521 49.6131C109.75 51.399 108.778 53.602 107.346 54.97C106.148 56.1136 104.545 56.203 102.98 55.9397C99.4194 55.3403 97.08 52.605 95.5858 49.4985C94.6257 47.5028 93.8919 45.3725 93.4363 43.2051C92.9088 40.6968 93.0481 38.1716 93.0012 35.6274ZM97.6251 18.7231C94.3024 16.3205 99.1307 13.5922 101.588 13.9637C102.165 14.0506 103.226 14.2888 103.172 15.0406C103.127 15.6552 102.102 16.3402 101.708 16.7195C100.585 17.8018 99.4422 20.0367 97.6251 18.7231ZM121.796 72.1081C121.682 72.006 120.753 72.2566 121.121 71.7068C121.427 71.2499 122.276 71.8225 122.584 71.94C122.33 72.1155 122.109 72.3873 121.796 72.1081ZM107.961 101.167C107.676 101.202 107.377 100.432 108.406 101.007C108.258 101.06 108.109 101.113 107.961 101.167ZM107.932 113.712C107.967 114.057 108.073 114.284 107.827 114.535C107.62 114.279 107.593 113.919 107.932 113.712ZM108.35 118.895C108.319 119.083 108.289 119.27 108.259 119.458C108.021 119.338 107.784 119.218 107.546 119.097C107.814 119.03 108.082 118.962 108.35 118.895ZM108.641 114.524C108.995 114.657 108.83 114.233 109.087 114.174C109.179 114.614 109.066 114.992 108.813 115.356C108.788 115.27 108.659 114.531 108.641 114.524ZM117.696 83.2457C117.198 83.1824 117.123 83.7073 116.753 83.9109C116.513 84.0424 115.785 83.9436 115.649 84.1954C115.829 84.2471 116.008 84.2991 116.188 84.3508C115.777 84.572 115.366 84.7934 114.955 85.0146C115.943 85.0146 116.973 84.543 117.954 84.6815C118.369 84.7401 118.673 84.8801 118.933 85.2173C119.091 85.422 119.23 85.7513 119.255 86.002C119.283 86.2731 119.071 86.4604 119.109 86.5897C119.551 86.6018 119.499 87.3267 119.4 87.6221C119.184 88.2627 118.329 89.2659 117.563 88.8597C117.883 89.3143 117.802 89.5739 117.327 89.8376C117.37 89.6874 117.402 89.4245 117.16 89.4506C117.098 89.7025 117.121 90.1021 116.916 90.2921C116.685 90.5046 116.479 90.2562 116.259 90.3944C115.998 90.5585 116.076 90.8161 115.871 90.994C115.599 91.229 115.56 91.062 115.235 91.1077C114.743 91.1773 115.057 90.8718 114.663 91.2701C114.527 91.4074 114.55 91.7648 114.329 91.966C113.905 92.352 112.772 92.7542 112.366 92.2592C111.388 93.8073 108.458 94.1788 107.095 92.9567C104.92 91.0076 108.975 87.0437 110.314 85.7875C111.658 84.5267 113.151 83.4377 114.661 82.3866C115.519 81.7894 116.4 81.2474 117.299 80.7153C117.854 80.3869 118.55 79.7873 119.232 79.8448C119.843 79.8966 120.365 80.3706 121.009 80.4645C121.475 80.5323 122.379 80.6442 121.792 81.2752C121.517 81.57 120.438 82.0468 120.071 82.1186C119.855 82.1607 119.628 82.08 119.414 82.1237C119.052 82.1979 118.804 82.5032 118.41 82.4644C118.535 83.0484 118.307 83.3233 117.696 83.2457ZM124.132 61.5655C124.133 62.0223 123.298 61.9084 123.124 61.7532C122.837 61.4979 122.827 60.7344 122.72 60.3872C123.205 60.5092 124.132 60.9556 124.132 61.5655ZM117.41 46.4925C119.163 45.0527 121.006 43.7327 122.954 42.5701C123.652 42.1538 124.637 41.3141 125.504 41.4189C125.867 41.463 126.619 41.8802 126.345 42.3402C126.294 42.4263 125.889 42.4608 125.764 42.5233C125.623 42.594 125.511 42.7888 125.38 42.8852C124.47 43.5525 123.376 43.9626 122.463 44.646C121.712 45.2073 121.012 45.8352 120.204 46.3168C119.429 46.7786 118.619 47.0709 117.883 47.5824C117.898 47.5722 116.926 47.9214 117.117 47.9849C116.264 47.6997 117.165 46.6943 117.41 46.4925ZM129.097 45.9563C130.138 45.5415 131.157 45.0383 132.247 44.7595C132.791 44.6204 133.349 44.5158 133.913 44.5785C134.008 44.411 134.136 44.374 134.295 44.4674C134.419 44.6583 134.583 44.8048 134.786 44.9071C135.097 45.1457 136.241 45.4577 136.012 45.9846C135.861 46.3331 134.714 46.3621 134.4 46.4403C133.451 46.6765 132.567 47.2076 131.59 47.3381C131.498 47.3503 131.199 47.2393 131.195 47.2399C130.814 47.3231 130.497 47.7185 130.169 47.908C129.464 48.3158 128.451 48.3843 127.945 49.0882C129.584 50.1989 131.007 49.0974 132.448 48.2587C133.312 47.7566 134.239 47.3942 135.182 47.0723C135.675 46.9041 136.173 46.7293 136.673 46.5817C136.879 46.5063 137.092 46.4522 137.31 46.4189C137.513 46.3786 137.658 46.4524 137.746 46.6406C138.35 46.6205 138.402 46.2417 138.766 46.9483C139.279 47.9446 138.494 47.8939 137.757 48.0164C136.735 48.1858 135.695 48.5676 134.687 48.8206C134.455 48.8791 132.418 49.3511 132.415 49.3678C132.323 50.0105 138.17 49.4153 138.672 49.319C139.558 49.1486 140.508 48.665 141.425 48.7816C142.129 48.871 143.733 49.9034 142.61 50.5893C142.389 49.5315 141.63 50.4051 141.234 50.7621C140.706 51.2373 139.949 51.1916 139.225 51.3778C138.235 51.632 135.7 52.5859 134.997 51.3697C135.219 52.4356 131.179 51.894 130.623 51.8587C130.082 51.8242 129.383 51.9392 128.859 51.7849C128.518 51.6844 128.328 51.4625 128.007 51.4126C127.928 51.4973 127.833 51.555 127.724 51.5856C127.561 51.5033 127.414 51.3985 127.283 51.2716C126.2 50.7746 124.526 50.4999 125.127 48.9165C125.695 47.4232 127.721 46.5043 129.097 45.9563ZM139.24 46.8792C139.267 46.7862 139.294 46.6932 139.32 46.6C139.324 46.8852 140.004 47.0069 139.926 47.3764C139.751 48.1945 138.966 46.9652 138.899 46.8312C139.012 46.8473 139.126 46.8631 139.24 46.8792ZM143.394 48.2384C143.473 48.5736 144.378 49.2871 144.154 49.4517C143.797 48.9669 142.811 49.187 143.394 48.2384ZM128.129 78.8178C128.461 78.1611 129.462 79.2794 129.356 78.1582C129.901 78.2075 129.561 78.6216 130.214 78.4396C130.458 78.3714 130.624 78.1005 130.922 78.038C131.001 78.0213 131.344 78.0485 131.463 78.045C131.855 78.0329 133.394 77.9892 132.335 77.4748C132.927 77.0832 133 77.2819 133.535 77.6407C133.398 76.8991 134.185 77.32 134.551 77.4126C134.29 76.9896 134.938 76.5396 135.149 76.2538C135.073 76.6941 135.113 77.1871 135.751 76.9055C135.91 76.8355 135.874 76.5242 136 76.4734C136.231 76.3804 136.36 76.5496 136.442 76.5401C136.524 76.5309 136.696 76.5766 136.867 76.5122C137.089 76.4286 136.982 76.1302 137.264 76.0859C137.447 76.0571 137.582 76.3269 137.806 76.3291C137.921 76.3302 138.113 76.2134 138.2 76.2196C138.216 76.2208 138.325 75.9568 138.46 75.9503C138.657 75.9407 138.737 76.4676 138.809 76.5699C139.153 77.0583 139.611 77.3767 140.14 77.6371C139.184 78.513 137.256 78.4202 136.054 78.7154C135.403 78.8755 134.847 79.1063 134.251 79.4038C134.108 79.4972 133.984 79.6118 133.88 79.7476C133.796 79.6916 133.712 79.6357 133.627 79.5797C133.301 79.5998 132.992 79.4383 132.624 79.5003C131.489 79.6916 130.601 80.5414 129.447 80.7307C128.929 80.8159 128.503 80.9348 128.165 80.4857C127.869 80.0919 127.918 79.2366 128.129 78.8178ZM126.573 73.5838C126.83 73.8012 126.521 74.5089 127.019 74.432C127.372 74.3774 127.302 73.8295 127.579 73.7134C127.944 73.5611 128.164 73.9225 128.507 73.8891C129.145 73.8262 129.109 73.2687 128.569 73.0239C129.13 72.8758 129.31 73.539 129.807 73.533C130.46 73.5252 130.304 72.7557 130.859 72.6281C131.1 72.5728 131.019 72.9258 131.175 72.9697C131.488 73.0574 131.705 72.9068 131.981 72.7744C132.229 72.656 132.405 72.4272 132.675 72.3496C132.798 72.3142 133.11 72.379 133.2 72.3133C133.382 72.1808 133.545 71.6649 133.724 71.5966C133.687 71.6104 134.274 71.9043 134.358 71.932C134.307 72.1498 134.187 72.1757 134 72.0098C134 72.5015 135.367 72.6547 135.087 72.047C135.826 72.353 135.276 72.5104 135.202 72.9374C135.172 73.1091 135.072 73.1044 135.102 73.2859C135.116 73.3695 135.503 73.2975 135.498 73.4114C135.466 74.1453 133.125 74.3709 132.682 74.4356C131.764 74.5696 130.896 74.795 130.011 75.0726C129.352 75.2793 128.216 75.8713 127.515 75.8346C126.507 75.7817 126.375 74.467 126.573 73.5838ZM124.32 66.0957C124.074 65.2794 124.863 63.5932 125.89 63.8039C126.143 63.8557 126.205 64.0648 126.401 64.1576C126.675 64.2874 127.119 64.2191 127.357 64.3531C127.888 64.6539 127.62 65.4203 128.153 65.6973C127.312 65.9011 124.711 67.3932 124.32 66.0957ZM125.294 69.2674C125.656 69.0727 126.243 69.0477 126.49 68.6734C126.614 68.7585 126.846 69.2756 127.067 69.1965C127.17 69.1597 127.277 68.8794 127.269 68.8796C127.466 68.874 127.505 68.608 127.805 68.6379C128.081 68.6656 128.39 68.9969 128.636 69.1204C128.593 68.299 128.804 68.2205 129.47 67.7808C129.617 67.6844 129.739 67.3228 129.873 67.1765C129.744 68.0385 130.07 68.0432 130.758 68.1728C131.622 68.3351 132.16 68.7985 132.506 69.6322C131.77 69.4888 130.821 69.6614 130.531 70.4518C129.943 69.3795 127.809 70.8592 127.119 71.1623C126.606 71.3872 126.01 71.6896 125.58 71.1654C125.278 70.7961 125.451 70.3519 125.457 70.0239C125.459 69.9209 125.566 69.9149 125.556 69.7615C125.543 69.5657 125.288 69.4875 125.294 69.2674ZM133.15 86.1293C132.955 86.2029 131.955 86.2441 131.949 85.913C131.943 85.6204 133.714 85.9152 133.15 86.1293ZM131.525 85.0581C130.768 85.5243 129.921 83.8814 129.643 83.4083C130.437 83.5097 130.825 82.8461 131.292 82.3418C131.737 83.316 132.413 82.8011 133.123 82.4758C133.961 82.092 134.88 82.0891 135.738 81.7812C136.006 81.6851 136.253 81.5422 136.515 81.4322C136.725 81.3535 136.935 81.2728 137.144 81.1901C137.293 81.0563 137.346 80.8915 137.302 80.6962C137.232 80.5321 137.28 80.4284 137.446 80.3856C137.644 80.4444 137.846 80.4788 138.052 80.4879C138.383 80.4224 138.858 80.1104 138.459 79.7742C138.887 79.3857 139.315 79.7719 139.727 79.9421C139.63 79.6631 139.532 79.3842 139.434 79.1052C139.638 79.192 140.245 80.0393 140.307 80.0346C140.699 80.0052 140.659 79.4791 140.884 79.2669C141.014 79.4272 141.051 80.6226 141.563 80.2199C141.781 80.0477 141.31 79.4613 141.194 79.3277C141.779 79.4598 142.29 80.1577 142.448 80.6995C142.171 80.7397 141.914 80.6839 141.678 80.5318C141.527 81.2864 142.925 80.9807 143.151 81.3749C143.594 82.1467 140.712 82.6827 140.336 82.7543C139.585 82.8974 138.698 82.9507 138.009 83.2836C137.349 83.6023 137.193 83.6935 136.422 83.7532C135.542 83.8214 134.683 84.1113 133.832 84.337C133.092 84.5327 132.18 84.6545 131.525 85.0581ZM147.612 57.433C148.307 57.183 150.648 55.886 151.244 56.4628C151.181 56.4017 151.673 57.4189 151.668 57.3549C151.711 57.8841 151.698 58.097 151.046 58.3505C150.579 58.5321 150.173 58.1463 149.753 58.2995C149.292 58.4678 149.614 58.7657 149.377 58.9738C149.117 59.2019 148.615 59.3004 148.291 59.4003C147.499 59.6449 146.7 59.8494 145.911 60.113C144.307 60.6492 142.607 61.1483 140.958 61.5275C139.725 61.811 137.633 62.5153 136.498 61.6834C136.387 62.1564 136.116 62.0917 135.74 62.1606C135.444 62.2146 134.911 62.3606 134.648 62.3682C134.212 62.3809 132.998 62.2665 133.165 61.6544C133.119 61.823 134.109 61.2459 133.938 61.21C134.358 61.2986 134.222 61.0869 134.566 60.9692C135.017 60.8156 135.487 60.8238 135.946 60.6611C137.104 60.2508 138.076 59.7183 139.298 59.4612C142.091 58.8741 144.918 58.4018 147.612 57.433ZM35.6736 120.668C35.4474 120.674 35.2713 120.032 35.9597 120.49C35.8644 120.55 35.7691 120.609 35.6736 120.668ZM30.2362 119.837C29.9285 119.916 29.8058 119.744 29.8685 119.322C30.2976 119.153 30.4201 119.324 30.2362 119.837ZM26.0385 118.976C25.9597 118.6 26.2386 118.516 26.4914 118.347C26.466 118.845 26.466 118.845 26.0385 118.976ZM15.4764 115.883C15.051 115.789 14.484 115.373 14.3865 116.072C14.3153 115.91 13.9521 115.15 14.1081 114.974C14.1895 114.882 14.4978 115.307 14.465 115.265C14.8374 114.512 15.4793 115.421 15.8381 115.69C15.7176 115.754 15.5969 115.818 15.4764 115.883ZM126.102 32.6901C126.249 32.3797 126.423 32.2812 126.622 32.3947C126.309 33.1207 125.249 33.5142 126.102 32.6901ZM133.463 25.875C133.726 26.3667 133.331 26.5745 133.049 26.9832C133.214 26.5424 133.328 26.2369 133.463 25.875ZM165.454 73.8699C166.4 73.8697 168.416 73.3704 168.987 74.4516C169.365 73.7169 169.794 75.0947 170.122 75.3157C170.159 75.3407 170.395 75.1603 170.505 75.2267C170.67 75.3268 170.813 75.5995 170.908 75.7616C171.194 76.2504 171.316 76.8315 171.475 77.3693C169.822 77.3693 168.127 76.9847 166.475 76.8449C165.391 76.753 164.328 76.7503 163.242 76.8088C163.026 76.8203 162.598 76.7492 162.414 76.7898C162.226 76.8311 161.886 77.2126 161.68 77.1513C162.001 77.7535 166.113 79.2116 166.426 78.5446C166.055 78.3199 165.229 78.1473 165.23 77.6041C165.23 76.9956 166.004 76.9967 166.414 77.0146C167.311 77.0538 168.813 77.3522 169.181 78.2842C169.339 78.6838 169.387 79.6899 169.214 80.0756C169.102 80.3247 168.913 80.6241 168.613 80.6748C168.49 80.6955 168.313 80.5321 168.294 80.5361C167.679 80.6665 166.54 81.1604 165.869 80.4641C165.385 81.09 163.053 80.4063 162.34 80.1702C161.092 79.7572 159.373 79.1902 158.615 78.0262C157.691 76.6076 159.569 75.4087 160.648 74.832C162.123 74.044 163.808 73.8706 165.454 73.8699ZM171.753 77.1499C172.043 77.2317 172.333 77.3138 172.623 77.3956C172.545 77.904 171.401 77.5018 171.753 77.1499ZM180.523 95.6297C180.612 93.5928 180.023 91.799 179.683 89.8289C179.599 89.3406 179.685 88.4868 179.313 88.0853C178.959 87.7013 178.168 88.0135 178.136 87.3347C177.787 87.7434 177.822 87.8288 177.392 87.3588C177.47 87.5604 177.482 87.7653 177.426 87.974C177.159 87.821 176.191 87.3131 176.272 88.0077C175.477 87.8317 175.707 87.3343 175.253 86.9545C175.188 86.9006 174.929 87.0921 174.828 87.0105C174.646 86.8627 174.555 86.7284 174.402 86.538C174.206 86.7744 173.939 86.9452 173.7 87.132C173.561 86.8294 173.291 86.6073 172.965 86.5338C173.269 87.1697 174.021 87.9934 172.99 88.3553C172.374 88.5711 171.366 88.3065 170.714 88.3568C168.298 88.5441 165.651 88.0177 163.315 87.4424C160.915 86.8515 158.488 86.0173 156.329 84.7981C155.869 84.5381 155.579 84.2304 155.183 83.908C154.798 83.5945 154.518 83.545 154.055 83.3445C153.222 82.9837 152.46 82.4051 151.826 81.7602C150.463 80.3735 149.196 78.56 149.576 76.5298C149.954 74.5063 151.346 72.9249 152.835 71.5924C154.594 70.0186 156.58 68.7046 158.688 67.6452C159.63 67.1718 162.041 65.3929 162.972 66.4338C163.567 67.0987 163.232 67.9471 162.419 68.095C162.219 68.1315 162.009 67.9971 161.806 68.0892C161.514 68.2221 161.617 68.379 161.496 68.4898C161.287 68.6823 161.064 68.9824 160.751 69.1492C159.658 69.7314 158.602 70.1927 157.558 70.9018C157.076 71.2285 156.613 71.369 156.188 71.6541C155.766 71.9376 155.67 72.4067 155.103 72.1173C155.305 72.9423 154.091 73.8257 153.615 74.3312C152.878 75.1139 151.995 76.1128 152.339 77.2708C153.012 79.5376 156.053 81.2592 157.999 82.2557C160.428 83.499 163.107 84.4888 165.811 84.8984C167.156 85.102 168.545 85.2278 169.9 85.3569C170.955 85.4574 172.573 85.0893 173.332 86.0385C173.355 84.9317 176.815 85.0293 177.551 84.8877C176.075 79.8451 173.176 75.3616 170.077 71.1727C168.557 69.1164 167.063 67.0017 165.33 65.1166C163.432 63.053 161.264 61.2087 159.204 59.3098C155.163 55.5854 150.593 52.2614 145.943 49.3333C141.303 46.412 136.498 43.5369 131.415 41.4541C125.61 39.0753 119.498 37.5107 113.38 36.1782C114.21 35.1213 115.56 34.6057 116.622 33.8324C116.995 33.5617 117.497 32.912 117.981 32.8232C118.504 32.7269 118.916 33.2897 119.289 33.5722C120.358 34.383 121.098 34.0387 122.323 33.9899C123.056 33.9606 124.791 34.3685 125.1 33.3778C125.511 33.9245 124.915 34.3629 124.61 34.7638C124.832 35.0733 125.011 34.7522 125.231 34.7038C125.298 34.6479 125.366 34.5917 125.433 34.5357C125.542 34.3783 125.64 34.3774 125.728 34.5326C125.858 34.7293 125.99 34.6858 126.123 34.4019C126.159 34.3792 126.195 34.3562 126.231 34.3335C126.39 34.2492 126.543 34.1158 126.69 34.0108C127.803 33.2159 128.795 32.5387 130.024 31.9532C131.056 31.4617 130.501 30.5214 131.181 29.8574C131.335 29.7071 131.594 29.7825 131.759 29.6551C131.92 29.5301 131.944 29.3882 132.062 29.2542C132.344 28.932 132.008 28.5581 132.729 28.9525L132.469 27.4896C133.883 28.8604 133.877 24.9155 134.071 24.3317C134.045 24.4089 134.197 23.8115 134.197 23.8167C134.239 22.6329 134.401 21.7748 133.013 21.7062C133.538 21.3759 133.699 22.0208 133.942 21.3532C134.063 21.0187 133.684 20.4439 134.288 20.6595C134.415 19.9486 134.29 19.3734 134.131 18.6826C133.969 17.9755 134.064 17.5037 134.072 16.7966C134.08 15.9946 133.704 15.1885 133.584 14.3987C133.49 13.7801 133.587 12.8046 132.787 13.0318C132.674 12.8559 133.069 12.3147 133.053 12.0472C133.028 11.6315 132.577 11.2092 132.449 10.8101C132.261 11.0041 131.996 11.0687 131.74 10.9811C131.98 10.4388 131.755 10.2566 131.525 9.78905C131.393 9.52125 131.473 9.22558 131.19 9.03368C131.028 8.92353 130.753 9.10905 130.626 8.97994C130.354 8.70345 130.455 8.33665 130.268 7.9723C130.033 7.51542 129.497 7.16646 129.128 6.82351C127.053 4.89586 124.799 3.42264 122.039 2.66941C119.254 1.9095 116.007 1.63724 113.232 2.51377C112.123 2.86407 111.138 2.82817 110.139 3.48239C109.816 3.69467 109.781 3.63781 109.616 3.99168C109.579 4.07418 109.923 4.29381 109.712 4.42872C109.483 4.57521 109.23 4.27732 109.113 4.03003C107.668 5.07491 106.315 6.46786 105.492 8.06506C104.675 9.65214 104.6 11.5167 104.287 13.2414C102.848 11.5976 100.9 10.8096 98.7831 11.5999C96.9377 12.2884 95.5077 13.802 95.1467 15.7629C94.9265 16.9583 95.167 18.1688 95.7103 19.2474C95.9453 19.7134 96.2297 20.2294 96.6617 20.5431C97.0033 20.7911 97.5883 20.7563 97.7492 21.2036C97.9957 21.8888 96.5718 23.3687 96.2021 23.9685C95.5334 25.054 94.912 26.1749 94.439 27.3605C92.7431 24.9663 91.1196 22.3515 89.1912 20.144C87.3712 18.0605 85.2016 16.1919 83.0737 14.4308C78.6573 10.7757 74.0651 7.34194 69.1248 4.43006C64.5247 1.71863 58.9682 0.213298 53.6071 0.745549C48.3689 1.26576 44.3585 4.57655 40.9839 8.39507C34.4951 15.737 30.5209 26.2016 30.1327 35.975C30.016 38.911 30.2398 41.8086 30.9654 44.6563C31.311 46.0122 31.2608 47.3459 31.4616 48.7192C31.6883 50.2684 32.0803 51.8121 32.4594 53.3297C33.9034 59.1109 35.7432 64.8876 37.8078 70.4773C38.8812 73.384 40.18 76.2257 41.937 78.7888C42.7485 79.9728 43.7999 80.8991 44.6731 82.0233C45.5203 83.1137 45.7441 84.452 45.9304 85.7899C46.3771 88.9979 46.6734 92.2195 46.942 95.4462C47.0561 96.8138 47.1893 98.1693 47.3704 99.5272C47.5284 100.711 47.131 100.653 46.1343 101.055C46.3365 99.9912 41.5747 100.715 41.1251 100.788C40.6358 100.867 40.1177 100.868 39.7324 100.931C39.3015 101.001 38.8799 101.102 38.3836 101.088C37.6543 101.067 36.2885 100.881 36.0101 101.811C35.8184 100.732 34.5525 101.912 35.4891 101.712C34.5277 101.819 33.5466 101.64 32.5736 101.731C31.4585 101.834 30.3337 101.933 29.2264 102.101C28.4555 102.217 27.7199 102.514 26.9477 102.6C25.9595 102.71 24.9282 102.7 23.9304 102.788C20.2501 103.112 16.4354 103.915 12.8579 104.833C12.0475 105.041 11.1165 105.189 10.3422 105.523C10.135 105.613 9.94844 105.812 9.74986 105.889C9.41697 106.017 9.46249 105.929 9.16686 105.988C7.39551 106.341 5.56817 106.919 3.79705 107.373C2.81465 107.625 1.21667 107.852 0.415318 108.537C0.0560964 108.844 -0.257831 109.388 0.317816 109.737C0.777664 110.015 1.43399 109.571 1.80615 109.33C1.4746 110.194 0.849286 110.624 1.187 111.607C1.45363 112.383 2.0556 113.34 2.98177 112.839C3.10582 113.127 3.15602 113.701 3.52127 113.807C3.84948 113.902 4.0871 113.486 4.40862 113.584C4.52375 113.619 4.48001 113.837 4.5831 113.894C4.7607 113.991 4.94076 114.033 5.14424 114.102C5.31917 114.161 5.60074 114.283 5.78325 114.296C5.89905 114.304 6.17193 114.106 6.17103 114.106C6.43699 114.146 6.58001 114.655 6.77145 114.802C7.02 114.993 7.22527 115.036 7.53652 115.105C8.18357 115.249 9.01759 115.495 9.44464 114.833C9.34691 115.306 9.99016 115.259 10.274 115.319C10.2425 115.07 10.1048 114.842 9.89244 114.705C10.527 114.747 10.2697 115.378 10.7387 115.544C11.073 115.663 11.035 115.362 11.2907 115.328C11.6276 115.284 11.8833 115.529 12.4094 115.303C12.5235 115.81 12.5652 116.32 13.1875 116.396C13.5527 116.44 14.4044 115.781 14.3562 116.33C15.1721 116.091 15.4818 116.252 15.9082 116.971C15.9802 116.53 16.329 116.658 16.6489 116.63C17.1561 116.587 17.169 116.628 17.5622 116.341C17.5981 116.315 17.9073 115.607 18.0448 116.047C18.1066 116.244 17.698 116.708 17.5468 116.826C17.7346 116.921 18.3502 117.253 18.5869 117.192C18.7918 117.139 18.7924 116.789 19.0385 116.771C18.9783 116.972 18.9183 117.174 18.8578 117.375C19.3366 117.444 19.7367 117.124 20.1149 116.89C20.4754 117.801 21.506 117.287 22.0665 117.973C22.363 118.336 22.3768 118.612 22.9418 118.706C23.5199 118.803 24.0248 118.55 24.5161 119.026C24.3604 118.731 23.9724 118.485 24.3579 118.168C24.6203 118.54 24.7557 118.988 25.0583 119.334C25.1 119.158 25.1417 118.982 25.1835 118.806C25.9722 119.649 26.9651 119.656 27.9754 120.124V119.507C28.6987 120.61 28.7373 119.912 29.6014 119.461C29.5428 119.786 29.4839 120.11 29.4252 120.434C30.047 120.388 30.628 121.124 31.1385 120.498C31.4469 121.015 31.8206 120.761 32.326 120.925C32.6133 121.018 32.8273 121.301 33.1069 121.403C33.5261 121.557 33.6513 121.55 34.046 121.683C34.3969 121.802 34.5964 122.033 35.0357 122.107C35.3211 122.155 35.5799 122.152 35.853 122.138C35.9586 122.133 35.9237 121.896 36.1582 121.951C36.5208 122.037 36.7908 122.492 37.0518 122.725C37.4445 121.738 38.5441 123.06 39.0755 123.235C39.1264 122.983 39.1172 122.678 39.3004 122.47C39.5155 122.941 39.5976 123.337 40.0441 123.64C40.3018 123.815 40.6802 123.94 40.9778 124.004C41.1659 124.045 41.5077 123.996 41.626 124.054C41.8277 124.153 41.902 124.417 42.1057 124.442C42.2255 124.456 42.4031 124.141 42.4928 124.165C42.9034 124.277 43.1314 124.776 43.5459 125.045C44.7796 125.847 46.332 125.925 47.7064 126.101C48.0514 126.145 48.1014 126.051 48.3816 126.253C48.5311 126.361 48.4633 126.69 48.6471 126.782C49.3399 127.129 49.3403 126.389 49.4856 125.929C49.7147 126.231 49.7542 126.63 50.0677 126.87C50.2388 126.865 50.4102 126.869 50.5811 126.882C50.6775 126.992 50.7409 127.119 50.7703 127.262C51.1853 127.543 51.6554 127.445 52.084 127.655C52.2246 127.724 52.4736 128.141 52.6468 128.261C52.9567 128.475 53.4359 128.59 53.79 128.683C54.5326 128.878 55.5973 128.619 56.039 129.394C56.6256 128.765 56.3987 129.516 56.797 129.673C57.0322 129.766 57.3858 129.396 57.6466 129.433C58.1163 129.499 58.2854 130.007 58.4358 130.377C58.7218 130.313 58.5255 129.504 58.5175 129.327C58.8729 129.285 58.9519 130.22 59.0132 130.426C59.5744 130.156 58.6533 129.316 59.2567 129.046C59.2013 129.762 59.7723 130.352 58.7526 130.454C58.8934 130.885 62.1822 131.364 62.4107 130.984C62.4613 131.687 62.9343 131.03 63.1088 130.789C63.1284 131.2 62.9885 131.782 63.4495 131.973C63.7628 132.103 64.4692 131.768 64.5921 131.461C64.7324 131.93 64.9676 131.914 65.2599 132.212C65.4607 132.417 65.593 132.771 65.8036 132.942C66.1912 133.257 66.9121 133.209 67.3637 133.139C68.2472 133.001 68.1428 132.832 68.4576 133.75C68.5288 133.401 68.7519 132.673 69.1411 133.214C69.3887 133.558 68.8615 134.317 68.7091 134.619C69.0496 134.432 69.3876 134.21 69.7749 134.13C69.7966 134.249 69.8164 134.502 69.7593 134.613C69.7709 134.59 70.1841 134.867 70.3374 134.944C70.3006 134.926 70.4586 134.236 70.4541 134.259C70.9992 134.595 70.621 135.238 71.1038 135.569C71.2286 135.655 71.5213 135.555 71.6721 135.607C71.9347 135.698 72.1619 135.944 72.3952 136.088C72.2089 135.838 72.2357 135.419 72.2484 135.131C72.3671 135.196 72.4519 135.442 72.5717 135.461C72.617 135.468 73.0867 135.531 73.0836 135.528C73.5724 135.87 73.4718 135.913 73.0521 136.325C73.202 136.56 73.8288 136.151 73.9984 136.083C74.0338 136.175 74.043 136.51 74.1097 136.569C74.1501 136.668 74.1907 136.767 74.2313 136.866C74.3565 136.773 74.4908 136.742 74.634 136.773C74.7246 136.804 75.4317 137.092 75.4796 136.993C75.325 136.944 75.1847 136.867 75.0593 136.764C75.4674 136.397 75.7358 136.202 76.1117 136.731C76.159 136.798 75.9964 137.038 76.0446 137.125C76.2242 137.448 76.5932 137.706 76.8438 137.97C76.9476 137.606 76.7061 136.694 77.2822 136.727C77.7425 136.753 78.0926 137.868 77.9333 138.214C78.1163 138.014 79.2086 137.816 79.4148 137.878C79.9978 138.055 79.8343 138.593 80.5516 137.804C81.0407 138.141 80.6096 138.269 80.6977 138.68C80.8269 138.707 80.9492 138.675 81.065 138.585C80.9784 140.332 82.2687 138.997 83.1065 139.264C83.4354 139.369 83.5195 139.742 83.8725 139.851C84.0592 139.908 84.267 139.772 84.4486 139.805C84.5941 139.785 84.7386 139.759 84.8823 139.728C85.0644 139.637 85.1499 139.739 85.1387 140.034C85.4314 140.186 85.3208 140.245 85.663 140.275C85.8835 140.294 86.0863 140.065 86.3369 140.104C86.769 140.171 86.7119 140.503 86.9881 140.676C87.2367 140.832 87.5169 140.827 87.823 140.797C87.979 140.782 88.417 140.581 88.4696 140.58C88.7967 140.576 88.6194 140.506 89.012 140.787C89.3177 141.006 89.446 141.148 89.8213 141.248C90.2517 141.364 91.0152 141.616 91.3048 141.305C91.6959 141.891 92.0023 141.461 92.5186 141.5C92.7828 141.52 92.8247 141.623 93.0599 141.664C93.441 141.73 93.9164 141.672 94.3218 141.802C94.9606 142.008 95.0327 142.111 95.6855 142.138C95.8034 142.092 95.9212 142.046 96.0387 142C96.074 142.197 96.1666 142.357 96.3167 142.481C96.682 142.558 96.9218 142.374 97.2231 142.172C97.4475 142.87 98.1758 142.931 98.7987 143.023C99.8039 143.172 100.765 143.253 101.734 143.583C102.553 143.861 103.373 144.175 104.161 144.532C104.854 144.846 105.507 145.316 106.292 145.095C108.068 144.595 109.79 142.773 111.276 141.726C113.036 140.487 114.935 139.466 116.774 138.351C124.097 133.915 131.833 130.163 139.053 125.562C142.995 123.05 146.653 120.066 150.886 118.033C150.283 120.522 149.257 123.048 149.443 125.654C149.517 126.704 149.827 127.944 150.642 128.677C151.649 129.584 152.771 129.007 153.734 128.359C155.799 126.972 157.176 124.948 158.721 123.047C160.548 120.799 161.966 118.383 163.308 115.82C163.629 116.271 163.385 117.027 163.389 117.527C163.396 118.165 163.568 118.78 163.864 119.35C164.628 120.82 166.083 121.177 167.398 120.169C169.927 118.23 171.395 114.778 172.751 111.997C173.524 113.434 174.621 115.244 176.478 114.217C178.01 113.37 178.91 111.477 179.378 109.874C180.747 105.194 180.313 100.427 180.523 95.6297Z" fill="black"/>
    <path fill-rule="evenodd" clip-rule="evenodd" d="M178.2 67.5195C178.025 67.0953 177.948 67.1647 178.27 66.7535C178.52 66.9999 178.32 67.2035 178.2 67.5195ZM185.942 93.1872C185.451 91.7914 185.754 90.2756 185.456 88.8438C185.319 88.1869 185.103 87.5497 185.025 86.8809C184.99 86.5842 184.726 85.2483 184.906 85.038C184.352 84.7027 184.35 84.4545 184.222 83.7969C184.419 83.5875 184.395 83.4089 184.147 83.2607C183.986 83.0653 183.824 82.8698 183.662 82.6744C184.369 83.0198 183.951 82.1357 183.879 81.6262C183.822 81.2235 183.783 80.8034 183.649 80.4175C183.484 79.943 183.116 79.703 183.881 79.703C183.629 79.4169 183.253 79.1217 183.128 78.7714C182.947 78.2673 183.245 77.601 182.877 77.1557C182.672 76.9073 181.615 76.8101 181.8 76.2736C181.895 76.0002 182.323 76.2043 182.456 76.0127C182.977 75.2599 181.439 74.948 181.363 74.6278C181.265 74.2126 181.821 74.1198 181.855 73.7316C181.888 73.3517 181.297 72.7273 181.141 72.3875C180.928 72.4393 180.695 72.7757 180.451 72.615C180.405 72.5846 180.474 71.2693 180.419 71.0947C180.365 70.923 180.253 70.4677 180.214 70.3834C180.056 70.0487 179.604 69.8857 179.533 69.4904C179.49 69.2544 180.415 68.8972 179.354 68.8861C179.735 68.2149 179.037 67.8071 178.783 67.2336C178.456 66.4962 178.264 65.6997 177.928 64.9585C177.602 64.2381 177.237 63.5544 176.767 62.9174C176.341 62.3405 176.157 61.7858 175.817 61.1766C175.749 61.1231 175.681 61.0696 175.613 61.016C175.329 61.0571 175.238 60.928 175.34 60.6285C175.122 60.3072 174.961 59.9642 174.77 59.6287C174.547 59.2387 174.247 58.9207 174.017 58.5414C173.712 58.0386 173.622 57.4716 173.277 56.9672C172.854 56.3466 172.377 55.7994 171.984 55.1557C171.492 54.3492 170.947 53.8479 170.328 53.2234C170.033 52.9259 169.997 52.1829 169.636 51.7606C169.243 51.3006 168.854 51.176 168.582 50.5721C168.227 49.7866 167.706 49.4115 167.2 48.7326C166.782 48.1724 166.577 47.5287 166.117 46.9869C165.721 46.5215 165.271 46.0963 164.848 45.655C164.315 45.0978 163.921 44.4206 163.365 43.8908C163.445 43.9673 162.882 43.5209 162.91 43.5351C162.785 43.4716 162.383 43.4205 162.441 43.4551C161.603 42.9625 160.552 41.1597 159.291 42.115C158.627 42.6174 158.945 43.5387 159.409 44.0391C159.608 44.254 160.642 45.3136 160.865 44.8668C161.106 45.2084 161.849 46.8598 162.467 46.3866C162.404 46.951 162.731 46.7637 162.947 47.1452C163.089 47.3969 163.02 47.5205 163.124 47.9133C163.408 48.9935 164.495 50.0484 165.074 50.9902C166.516 53.3344 168.105 55.5577 169.548 57.9046C170.922 60.1413 172.462 62.2636 173.781 64.5304C175.281 67.1081 177.15 69.5412 178.28 72.32C178.318 72.4134 178.632 72.5612 178.71 72.7015C178.846 72.9452 178.816 73.3666 178.904 73.6427C179.207 74.5997 179.699 75.5418 180.259 76.3345C180.75 77.03 180.786 77.9752 181.124 78.791C181.6 79.9409 182.104 81.0788 182.567 82.2345C183.288 84.0333 183.777 85.7574 184.275 87.6353C184.598 88.8523 184.854 90.0687 184.957 91.3254C185.052 92.4811 185.075 93.6849 185.503 94.7791C185.795 94.3287 186.139 93.7451 185.942 93.1872Z" fill="black"/>
    <path fill-rule="evenodd" clip-rule="evenodd" d="M21.0265 117.952C20.5084 117.847 20.0209 117.707 19.9111 117.113C19.836 117.393 19.761 117.673 19.6858 117.954C20.3165 118.096 20.9475 118.239 21.5783 118.382C21.431 118.123 21.3235 118.012 21.0265 117.952Z" fill="black"/>
    <path fill-rule="evenodd" clip-rule="evenodd" d="M22.4168 20.389C22.4561 20.2213 22.507 20.057 22.5697 19.8967C22.6123 20.053 22.8211 20.391 22.6995 20.5384C22.5447 20.7255 22.3881 20.6196 22.4168 20.389ZM24.9566 15.5597C25.1266 15.6347 25.4945 15.6491 25.7056 15.7125C25.1581 16.1832 25.0617 16.0447 24.3537 15.9901C24.3223 15.5138 24.5159 15.366 24.9566 15.5597ZM20.2106 27.3504C20.284 27.3524 20.3577 27.3542 20.4315 27.356C20.436 27.1486 20.4306 26.9415 20.415 26.7346C21.1616 26.8976 20.739 25.5938 20.5045 25.3235C21.2327 25.3478 21.5875 23.0436 21.8182 22.5996C22.023 22.2054 22.2551 22.0529 22.4048 21.5721C22.5358 21.1514 22.6774 20.7728 22.8664 20.3747C23.3006 19.4596 23.8702 18.6286 23.7651 17.5621C24.1331 18.3624 24.4566 17.5634 24.69 17.1808C25.0659 16.5643 25.9832 15.7776 26.0807 15.0453C26.1668 14.4007 25.6875 14.3666 25.9705 13.7688C26.2565 13.1636 26.4917 13.2243 26.9928 13.0307C27.3261 12.9018 27.3924 13.0584 27.6276 12.6378C27.78 12.3656 27.7262 12.1626 27.9214 11.9394C28.002 12.0095 28.0937 12.0384 28.1963 12.0264C28.3547 11.8175 28.4587 11.5847 28.508 11.328C28.6372 10.9815 28.6997 10.6633 28.8942 10.3333C29.0787 10.0207 29.4063 9.18431 29.5799 9.03356C29.7642 8.87346 30.8095 8.95485 30.805 8.96064C31.2367 8.41791 30.4444 7.87719 31.5415 7.99158C31.3249 7.58843 32.0859 7.08807 32.3068 6.86375C32.8586 6.30385 32.9025 6.04475 33.019 5.34058C33.0781 4.98158 32.6921 5.02306 33.2096 4.94122C33.4235 4.90755 33.6288 5.18093 33.7832 5.14079C34.4648 4.96419 33.7517 4.99786 33.9398 4.72025C33.9992 4.63217 34.3024 4.27675 34.2995 4.28054C34.2848 4.29837 34.3678 3.97126 34.4365 3.8872C34.5668 3.87605 34.6951 3.85331 34.8211 3.81897C34.8852 3.68964 34.9419 3.55719 34.9909 3.42162C35.4843 3.01045 36.2223 2.82649 36.5635 2.37473C36.7841 2.08263 36.7181 1.79655 37.0033 1.50534C37.2748 1.22795 37.634 1.42886 37.6878 0.802285C37.7563 0.00513516 36.8995 -0.349624 36.549 0.454884C35.5985 -0.715087 31.6256 3.57748 31.1667 4.13828C29.1731 6.57276 27.2137 9.06745 25.5784 11.7595C23.9851 14.3826 22.6774 17.1427 21.6553 20.0358C21.1625 21.4308 20.8624 22.8195 20.5614 24.2624C20.4603 24.7456 19.705 26.8989 20.0194 27.3807C20.083 27.3707 20.1468 27.3605 20.2106 27.3504Z" fill="black"/>
    <path fill-rule="evenodd" clip-rule="evenodd" d="M177.131 87.0508C177.467 86.827 177.467 86.827 177.526 86.404C177.076 86.486 177.076 86.486 177.131 87.0508Z" fill="black"/>
    <path fill-rule="evenodd" clip-rule="evenodd" d="M11.6127 115.508C11.6168 115.508 11.6198 115.509 11.6222 115.511C11.6153 115.502 11.5904 115.476 11.6127 115.508Z" fill="black"/>
    <path fill-rule="evenodd" clip-rule="evenodd" d="M11.388 115.735C11.4918 115.959 11.6585 116.015 11.8883 115.902C11.9789 116.031 11.1024 115.095 11.388 115.735Z" fill="black"/>
    <path fill-rule="evenodd" clip-rule="evenodd" d="M26.5436 13.4559C26.0177 14.4863 26.6763 13.7369 26.6426 14.0716C26.6647 13.8517 26.756 13.5384 26.5436 13.4559Z" fill="black"/>
    <path fill-rule="evenodd" clip-rule="evenodd" d="M112.041 29.4039C112.269 31.2515 114.798 30.3776 115.367 29.26C115.781 28.4464 116.827 25.2313 115.702 24.5521C114.867 24.0486 114.689 26.2186 114.483 26.7034C114.139 27.5152 113.869 26.9399 113.103 27.1482C112.257 27.3781 111.947 28.6377 112.041 29.4039Z" fill="black"/>
    <path fill-rule="evenodd" clip-rule="evenodd" d="M109.277 26.0219C110.181 26.2226 111.068 26.1191 111.71 25.4056C112.065 25.0105 112.539 24.2267 111.898 23.8443C111.318 23.498 110.66 24.309 110.049 24.1413C109.218 23.9132 109.646 23.0226 109.36 22.4344C108.313 23.0373 107.728 25.6781 109.277 26.0219Z" fill="black"/>
    <path fill-rule="evenodd" clip-rule="evenodd" d="M110.215 30.6873C109.343 30.6855 109.336 31.7567 109.791 32.2158C110.226 32.6551 111.327 33.0997 111.917 32.7581C113.082 32.0838 110.92 30.7569 110.215 30.6873Z" fill="black"/>
    <path fill-rule="evenodd" clip-rule="evenodd" d="M59.5068 73.2846C59.6929 73.3749 60.2414 73.8396 60.4725 73.6298C60.1463 73.3013 59.8199 72.9729 59.4937 72.6444C59.3134 72.842 59.1898 73.1307 59.5068 73.2846Z" fill="black"/>
    <path fill-rule="evenodd" clip-rule="evenodd" d="M55.3882 26.2893C55.2956 26.3584 55.2028 26.4273 55.1102 26.4962C55.4228 26.7564 55.415 26.8338 55.7301 26.5874C55.6366 26.4643 55.5228 26.3651 55.3882 26.2893Z" fill="black"/>
    <path fill-rule="evenodd" clip-rule="evenodd" d="M114.455 87.5896C114.279 87.2752 113.949 87.8549 113.725 87.9493C113.361 88.1024 113.062 87.2908 113.166 88.2637C112.343 87.887 111.844 88.7511 111.313 89.2011C110.563 89.837 109.646 90.1819 109.146 91.085C111.5 91.6355 114.087 89.6069 115.843 88.2744C116.129 88.0567 117.561 86.959 116.591 86.8529C116.194 86.8096 114.749 88.118 114.455 87.5896Z" fill="black"/>
    <path fill-rule="evenodd" clip-rule="evenodd" d="M113.756 85.6847C114.218 85.3217 113.223 85.2885 113.065 85.2503C113.079 85.5391 113.092 85.8276 113.106 86.1164C113.328 85.9815 113.545 85.8374 113.756 85.6847Z" fill="black"/>
    <path fill-rule="evenodd" clip-rule="evenodd" d="M112.023 86.8957C112.161 86.8096 112.546 86.5409 112.284 86.3407C112.048 86.491 111.879 86.7362 111.842 87.0161C111.903 86.9759 111.963 86.9358 112.023 86.8957Z" fill="black"/>
    <path fill-rule="evenodd" clip-rule="evenodd" d="M73.8897 63.4811C73.595 63.5966 73.4629 63.7792 73.4939 64.0294C73.9469 63.9368 73.8605 63.5094 73.8897 63.4811Z" fill="black"/>
</svg>
