<svg width="205" height="159" viewBox="0 0 205 159" fill="none" xmlns="http://www.w3.org/2000/svg">
    <path fill-rule="evenodd" clip-rule="evenodd" d="M51.6868 95.0347C52.7306 94.3233 54.8649 91.777 55.9831 91.1886C58.4697 89.8802 69.5473 87.3079 69.9075 87.1559C70.4561 86.9245 74.0197 86.1157 76.0961 85.6049C80.9716 84.4048 98.4438 76.6546 103.049 74.6674C103.637 76.2145 108.49 83.0436 107.658 83.7436C104.917 86.0478 100.003 88.9169 96.8277 90.568C94.2595 91.9036 91.5393 93.0088 88.7932 93.9111C85.6752 94.9359 83.5354 96.0344 80.428 97.0824C77.3708 98.1137 81.0244 101.339 82.5944 102.005C84.3554 102.753 87.083 103.132 88.8824 103.78C85.7144 108.704 83.0538 114.68 82.5216 120.578C82.3935 121.997 81.3114 123.299 79.5514 122.874C78.6433 122.654 70.2636 121.538 68.8972 121.227C59.7755 119.146 43.4003 108.253 47.6172 97.0824C48.5832 97.5287 50.7888 95.6468 51.6868 95.0347Z" fill="#FF5678"/>
    <path fill-rule="evenodd" clip-rule="evenodd" d="M56.79 35.7688C57.4714 35.7114 59.2335 34.3502 58.3088 33.6616C57.3762 32.967 56.706 35.2949 56.79 35.7688ZM21.2926 40.9895C21.4707 40.958 21.3929 39.9833 21.1126 39.8588C20.2273 39.4658 20.1527 40.9428 20.131 41.3381C20.1042 41.8368 20.0416 43.2418 21.118 42.8567C21.729 42.638 21.3498 41.3633 21.2926 40.9895ZM73.5497 45.5433C73.5258 46.4134 75.2836 48.0865 75.9389 47.083C76.4901 46.2397 73.5949 43.8112 73.5497 45.5433ZM11.4014 25.9199C11.9106 27.2192 14.4294 25.4486 14.5231 24.4956C14.7151 22.544 11.375 24.6215 11.4014 25.9199ZM32.4153 31.5213C33.5883 31.4249 35.1318 29.9336 36.2629 29.3765C37.0284 28.9996 39.1113 28.5502 39.3377 27.6943C39.5349 26.9505 36.0009 28.5424 35.6991 28.6839C34.3129 29.3334 33.063 30.0738 32.4153 31.5213ZM120.473 21.2378C121.408 20.5148 122.545 20.0484 123.743 20.0791C124.342 20.0943 125.59 20.4687 125.637 19.4337C125.714 17.7507 120.428 19.8032 119.602 20.1334C119.892 20.5018 120.183 20.8698 120.473 21.2378ZM62.1482 86.8259C61.4623 85.6869 60.2287 85.0283 59.301 84.0568C59.641 85.6523 58.8744 87.0714 58.3477 88.5279C59.6148 87.9605 60.8813 87.3933 62.1482 86.8259ZM181.26 111.107C181.638 109.842 182.016 108.584 182.458 107.338C182.953 105.943 183.199 105.823 182.015 104.847C181.033 106.704 180.05 108.561 179.068 110.418C179.767 110.715 180.497 111.005 181.26 111.107ZM79.5855 19.5309C78.2848 18.0648 72.1889 17.9727 72.9432 21.2085C73.2066 22.3383 74.7053 21.138 75.644 20.8747C76.5758 20.6131 79.2142 20.5785 79.5855 19.5309ZM79.3619 40.288C79.2043 39.9138 78.8896 38.5633 78.4223 38.4569C77.9672 38.3531 76.1711 39.7696 75.8336 39.9858C74.1495 41.0649 72.5079 42.2258 70.8668 43.3697C71.4952 43.3697 72.0658 43.1459 72.6904 43.1412C73.4326 43.1348 73.9649 43.4397 74.6885 43.2658C76.2433 42.8924 78.0479 41.1695 79.3619 40.288ZM81.0469 6.83414C81.1928 6.16354 88.8143 8.17661 89.7302 8.54523C90.2292 8.74571 92.8041 10.0841 92.2508 8.06693C91.9358 6.91804 88.9605 6.04224 88.007 5.72736C85.583 4.92728 83.0273 4.35818 80.4464 4.49016C79.9452 4.5156 76.1494 4.73464 77.7344 6.26032C78.2806 6.78574 80.2383 6.62013 81.0469 6.83414ZM82.7153 98.9708C84.1353 99.6694 85.585 100.204 87.0692 100.75C87.7285 100.993 88.7557 101.628 89.4829 101.469C90.0787 101.338 90.2696 100.43 90.5826 99.8232C91.7268 97.6015 93.0931 95.8093 94.7872 93.9775C94.0005 93.4038 90.0074 95.9345 89.0193 96.308C88.0301 96.6821 87.0969 97.0587 86.1287 97.5056C85.2173 97.9264 83.4188 98.3026 82.7153 98.9708ZM107.857 80.0328C109.927 79.0963 111.888 77.4357 113.585 75.9489C115.534 74.2418 117.281 72.4527 118.708 70.2435C117.849 70.2873 115.954 73.0487 115.933 70.0423C115.922 68.5087 118.023 66.9982 118.676 65.5757C117.053 64.6596 115.566 70.1335 113.704 68.8067C111.91 67.5282 114.74 63.1325 115.286 61.7455C114.234 61.0456 108.24 68.8803 107.372 69.8827C106.829 70.5102 105.546 71.3456 105.24 72.0776C105.058 72.5135 105.031 73.8962 105.12 74.297C105.303 75.1351 106.233 76.1389 106.647 76.9193C107.171 77.9074 107.627 78.9342 107.857 80.0328ZM193.41 108.279C191.62 105.753 193.469 104.652 194.924 102.555C196.088 100.878 197.159 99.0296 197.896 97.1567C199.741 92.4725 201.406 88.1177 202.317 83.1626C201.063 83.7351 200.279 85.9136 199.652 87.0616C198.808 88.605 198.066 90.2249 197.129 91.7202C195.374 94.5183 193.652 97.5032 191.42 99.9285C190.409 101.028 189.553 102.264 188.386 103.255C187.853 103.707 186.834 104.078 186.441 104.644C186.07 105.178 186.485 105.52 186.344 106.158C186.2 106.812 185.537 107.51 185.253 108.14C184.88 108.968 184.533 109.798 184.116 110.608C183.662 111.49 183.538 111.952 183.415 112.815C183.281 113.758 183.692 113.856 182.868 114.725C184.361 115.384 185.854 116.042 187.346 116.7C187.85 116.922 188.354 117.144 188.858 117.366C188.964 117.167 189.07 116.968 189.176 116.769C189.587 116.371 189.964 115.388 190.199 114.862C191.18 112.666 192.287 110.461 193.41 108.279ZM49.2537 97.6755C45.0149 108.835 59.9102 118.232 69.0793 120.31C70.3493 120.598 71.5887 120.974 72.8529 121.283C74.2313 121.62 75.4553 121.553 76.8313 121.694C77.9258 121.806 78.4476 122.652 79.4791 122.885C81.2027 123.275 81.0974 121.979 81.2208 120.591C81.7441 114.706 84.7476 109.028 87.9263 104.117C86.4743 103.598 85.0355 103.031 83.6021 102.462C82.3755 101.975 80.4974 100.607 79.1786 100.534C78.2035 100.481 76.7173 101.314 75.7701 101.679C74.1927 102.288 72.6106 102.807 70.9665 103.222C68.0916 103.948 64.8925 104.937 61.9177 105.012C61.0599 105.034 58.7072 105.433 58.0902 104.903C56.9134 103.892 58.5467 103.05 59.5319 102.689C65.4036 100.539 71.6379 99.6249 77.5261 97.4205C80.5562 96.2859 83.5549 95.019 86.604 93.9013C89.2323 92.938 91.9852 92.0851 94.5252 90.9C97.8797 89.3356 101.248 87.3866 104.153 85.0905C104.735 84.6311 105.953 83.9486 106.351 83.2828C106.702 82.6967 106.658 83.2813 106.585 82.5706C106.533 82.0602 105.908 81.3683 105.652 80.8861C104.694 79.088 103.829 77.241 103.102 75.3381C98.4685 77.3255 94.0605 80.0305 89.4952 82.1543C84.9003 84.2922 79.7172 85.8003 74.8014 87.003C72.7091 87.5149 70.3039 87.6768 68.3851 88.6884C67.5698 89.1181 66.7639 89.6153 65.8907 89.8638C65.6327 90.3586 65.379 90.4556 65.1288 90.1547C64.9721 89.9788 64.7696 89.9045 64.521 89.9318C63.9869 90.0223 63.4421 90.2745 62.9427 90.4683C60.4145 91.4484 57.9936 92.6757 55.5935 93.9281C54.4559 94.5212 53.2889 95.1055 52.2002 95.7831C51.6167 96.1464 51.0938 96.5126 50.6163 97.0113C50.0438 97.6094 50.1802 98.101 49.2537 97.6755ZM144.636 31.4162C145.707 31.4337 146.683 30.8533 147.8 30.8857C149.557 30.9365 150.947 32.2984 151.967 33.6118C153.984 36.2104 153.47 39.3453 152.456 42.2535C151.971 43.6434 151.306 44.9775 150.474 46.1941C149.738 47.2712 148.421 48.2899 147.907 49.4891C147.06 51.4669 148.77 50.6259 149.817 50.2036C151.133 49.672 152.367 49.0114 153.485 48.1214C158.465 44.1551 162.253 38.642 163.522 32.3104C164.141 29.2214 164.094 25.61 161.942 23.0888C159.974 20.7833 156.578 20.0301 153.675 20.4575C150.537 20.9199 147.693 22.2491 145.138 23.96C144.396 24.4572 143.716 25 143.019 25.5559C142.105 26.2854 141.557 26.3044 141.786 27.4477C141.956 28.2976 142.419 29.1784 142.717 29.994C143.275 31.5215 143.072 31.9168 144.636 31.4162ZM148.051 57.7513L147.834 58.1217C149.328 58.1928 150.72 56.8747 151.993 56.2313C153.647 55.395 155.115 54.2542 156.565 53.1022C159.12 51.0703 161.71 48.7804 163.612 46.113C167.877 40.1335 171.75 32.5526 170.587 24.9714C169.332 16.8006 162.186 13.6554 154.571 14.737C151.139 15.2244 148.075 16.7566 145.004 18.3121C143.456 19.0961 142.149 20.1135 140.731 21.098C139.995 21.6093 139.324 21.6757 139.276 22.5695C139.239 23.243 140.404 24.7664 140.719 25.3767C144.575 21.443 148.73 18.1887 154.554 17.9875C161.482 17.7483 165.578 24.3172 165.548 30.6076C165.518 36.7766 162.858 42.7107 158.616 47.1442C156.689 49.1591 154.851 50.7759 152.484 52.2464C151.304 52.9795 150.433 53.6376 149.114 54.1243C148.181 54.4688 148.278 54.2873 148.04 55.1511C147.838 55.8841 148.045 56.99 148.051 57.7513ZM110.406 141.564C110.316 142.676 110.09 143.771 109.839 144.855C109.748 145.244 109.24 146.474 109.329 146.911C109.476 147.635 109.28 147.17 109.914 147.547C110.575 147.941 111.345 147.918 112.069 148.037C112.516 148.111 114.154 148.882 114.429 148.76C114.911 148.547 114.896 147.797 115.424 147.5C116.144 147.094 117.204 147.442 117.883 147.759C119.699 148.605 120.946 150.358 122.703 151.318C125.822 153.022 129.524 153.965 133.004 154.354C134.889 154.565 136.819 154.935 138.681 154.493C140.147 154.145 142.054 154.177 142.852 152.603C135.765 150.654 124.948 148.269 122.146 140.136C120.622 141.517 118.077 140.773 116.236 140.582C114.211 140.373 112.401 140.422 110.549 139.498C110.414 140.224 110.372 140.826 110.406 141.564ZM47.6584 91.1933C50.9946 91.3947 54.1574 89.816 56.2103 87.1523C56.7158 86.4962 57.234 85.8267 57.5373 85.0494C57.6033 84.8524 57.6688 84.6552 57.7345 84.4583C58.0531 83.9144 57.9136 83.6577 57.3165 83.6884C56.98 83.2269 56.1269 83.0718 56.3697 82.2355C56.5524 81.6046 57.2268 81.5943 57.813 81.3958C57.521 80.9053 57.3464 80.6592 56.9286 80.223C55.8428 81.1997 53.8722 83.1169 53.1092 80.8729C52.7425 79.7956 53.3877 78.7659 53.2279 77.7268C53.1621 77.2969 52.6173 76.199 52.3015 75.9422C50.6197 74.5729 48.1974 75.1396 46.413 75.9455C45.1832 76.5011 44.9186 76.7617 44.718 78.0351C44.5144 79.3299 44.3252 80.6243 44.0992 81.9153C44.8372 81.5308 44.9715 80.7001 45.4528 80.1019C45.633 80.43 45.8134 80.7587 45.9943 81.0868C46.2483 80.9444 46.4855 80.9518 46.7054 81.1096C47.0616 81.6571 46.8376 82.4691 46.728 83.0429C47.9155 82.9323 48.4174 84.2571 47.2203 84.7936C45.9802 85.3494 45.4209 83.8341 45.3789 82.8527C44.9161 83.4053 44.4408 83.1096 44.1182 83.3935C43.7961 83.6774 43.6691 84.2691 43.5544 84.9172C43.366 85.982 42.8838 87.5183 43.33 88.5864C43.9924 90.173 46.1043 90.9986 47.6584 91.1933ZM144.33 40.2344C143.226 41.7695 141.344 43.779 140.95 45.6337C142.166 44.9203 144.737 41.4872 145.399 44.2219C145.779 45.7917 143.829 47.6622 143.35 49.1822C145.268 48.5513 146.633 46.5755 147.83 45.0506C149.355 43.1064 150.913 40.5435 151.302 38.0712C151.617 36.0706 150.229 34.206 148.167 34.0099C147.114 33.9098 146.014 34.077 144.996 34.3213C144.532 34.4324 143.84 34.5706 143.426 34.8192C142.906 35.1315 142.835 35.8625 142.345 35.2544C141.694 36.4811 141.043 37.7077 140.392 38.9339C141.04 38.699 142.362 37.7015 143.07 37.8045C144.103 37.9554 144.316 39.4568 144.33 40.2344ZM40.9733 10.2041C38.0793 10.2894 35.0544 10.9056 32.3147 11.8217C31.6345 12.0494 28.7642 12.8592 29.3687 14.033C29.7682 14.8089 31.9222 13.7125 32.5734 13.5297C35.3643 12.7459 38.2378 12.2291 41.0964 11.7574C41.7886 11.6432 44.1366 11.6545 44.2577 10.7472C44.4062 9.64016 41.7906 10.2028 40.9733 10.2041ZM119.735 136.473C118.166 136.664 116.66 136.593 115.09 136.401C113.768 136.239 112.423 135.698 111.108 135.698C111.108 137.105 111.013 137.114 112.497 137.415C113.534 137.626 114.585 137.744 115.632 137.89C117.477 138.148 119.524 138.872 121.39 138.5C121.345 138.256 121.202 136.607 121.009 136.443C120.9 136.352 119.893 136.474 119.735 136.473ZM94.3828 32.3433C94.8214 32.6228 95.8297 33.7372 96.3521 33.7568C96.1657 32.4667 94.7262 30.2204 93.0732 31.0176C92.6682 31.2132 91.8173 32.1866 92.2023 32.616C92.4077 32.8456 93.8454 32.3449 94.3828 32.3433ZM79.0896 43.8206C79.1055 43.5957 79.1218 43.3708 79.1384 43.1462C78.5319 43.5027 77.7809 43.6715 77.3499 44.2461C77.8675 44.4754 78.3845 44.705 78.9023 44.9346C78.9647 44.5633 79.0273 44.192 79.0896 43.8206ZM126.858 78.0733C129.724 79.0769 132.351 80.4173 134.46 82.6924C136.284 84.6599 137.141 88.1264 137.586 90.7053C138.687 97.0869 136.562 103.002 135.161 109.107C134.45 112.204 133.389 115.184 132.395 118.201C131.527 120.835 130.783 123.594 129.586 126.099C128.57 128.223 127.273 130.317 126.38 132.52C125.899 133.706 125.12 137.775 123.295 136.497C122.797 137.799 122.676 137.688 123.209 138.593C123.594 139.247 124.901 140.156 125.517 140.689C127.16 142.11 129.242 143.281 131.169 144.276C134.7 146.098 138.485 147.462 142.121 149.123C143.729 149.858 145.472 150.726 145.111 152.829C144.809 154.592 143.789 155.929 142.198 156.713C140.704 157.449 138.568 158.018 136.924 158.249C135.95 158.386 135.726 157.981 134.931 157.84C134.046 157.684 133.014 157.986 132.101 157.978C128.004 157.942 124.417 156.912 121.107 154.536C119.924 153.687 118.182 151.384 116.634 151.384C115.842 151.384 116.009 151.865 115.313 152.147C114.454 152.495 112.974 151.838 112.129 151.684C110.33 151.355 108.5 151.022 107.302 149.472C106.006 147.797 106.467 145.722 107.023 143.862C107.651 141.766 108.707 139.638 109.155 137.51C109.265 136.992 109.365 136.027 109.254 135.5C109.082 134.683 108.257 134.196 108.232 133.31C108.224 133.041 108.609 132.686 108.677 132.408C108.826 131.798 108.803 131.165 108.864 130.544C108.973 129.436 109.226 128.375 109.4 127.28C109.796 124.788 110.578 122.565 111.334 120.165C112.068 117.835 112.766 116.101 114.185 114.084C114.919 113.039 117.376 109.317 116.176 108.245C114.534 111.471 112.614 113.986 110.101 116.554C108.179 118.518 106.3 121.158 103.894 122.557C101.249 124.095 98.0169 125 95.0962 125.813C93.707 126.2 92.5544 127.057 91.0568 127.216C89.4338 127.388 87.7819 127.185 86.1922 126.823C85.7449 126.722 84.4543 126.034 84.0494 126.078C83.453 126.143 82.595 127.206 81.9404 127.401C80.3471 127.876 79.2591 126.968 78.0506 126.129C76.739 125.219 76.3421 124.992 74.8287 124.883C72.975 124.749 71.1722 124.095 69.3489 123.695C66.1431 122.992 63.4182 121.566 60.5044 120.074C57.1642 118.364 54.3072 116.006 51.7895 113.22C48.0886 109.124 42.9343 97.775 48.9801 93.8013C45.4209 93.318 42.1612 91.7636 41.7273 87.7354C41.5006 85.6275 41.9274 83.2924 42.4574 81.2605C42.6993 80.3328 42.9877 79.4108 43.264 78.4927C43.4722 78.1826 43.5824 77.8435 43.5938 77.4746C43.7214 76.9969 43.5374 76.7588 43.0414 76.761C42.104 75.665 41.3991 74.6974 41.2098 73.141C41.1501 72.6479 41.0967 71.8918 41.4476 71.4724C41.6099 71.3038 41.806 71.1912 42.0347 71.1346C42.5842 71.1661 42.7393 70.8954 42.5006 70.3229C42.7673 69.5118 42.3716 68.8798 43.3769 68.5414C43.6991 68.6098 44.0199 68.6849 44.3393 68.766C44.7471 68.952 45.0122 68.8172 45.1356 68.3632C46.0826 67.9925 45.6458 67.4446 46.9326 67.9215C47.7112 68.2101 48.4521 68.707 49.0192 69.3124C49.7306 68.8557 48.1127 66.0333 48.0588 65.1328C47.9307 63.0102 48.8084 61.2553 49.9501 59.5117C52.1693 56.1235 55.2669 53.2102 58.3216 50.5888C64.1725 45.5686 70.3191 40.7894 76.9256 36.7898C74.2003 34.897 71.0162 34.3839 67.7733 35.2636C64.7837 36.0747 62.3603 37.5477 59.6084 38.836C57.0589 40.0291 54.3528 40.5194 53.54 37.2633C52.6292 33.616 55.535 32.2619 58.1414 30.6264C57.4906 30.1411 55.3481 30.488 54.5377 30.5455C52.7327 30.6731 51.0064 31.0807 49.2524 31.441C48.4112 31.6136 47.6383 31.5747 46.8049 31.744C45.566 31.9955 44.2723 32.2771 43.0188 32.6355C40.0366 33.4884 37.0765 34.7827 34.4995 36.5269C32.2723 38.0337 30.727 40.1613 28.9326 42.1207C26.8861 44.3549 24.9251 46.5534 21.8913 47.3711C20.4706 47.7543 18.804 48.1019 17.7968 46.833C16.8597 45.6531 16.8074 44.2311 16.8382 42.7885C16.906 39.6017 18.4454 36.1583 20.236 33.5543C22.1799 30.7277 24.7834 29.1089 27.2432 26.8338C23.6877 27.088 20.2517 28.962 16.982 30.2575C16.2939 30.5303 15.5993 30.8368 14.9074 31.0889C14.1697 31.3581 13.681 31.1933 12.9741 31.3165C11.3611 31.598 9.97551 32.2778 8.40649 31.194C5.43799 29.1438 8.41208 24.9729 10.456 23.6931C13.3027 21.9107 16.1989 20.4099 19.3351 19.1386C17.6372 17.2969 19.0872 14.6687 20.6523 13.3622C22.6323 11.709 25.1538 10.7617 27.5398 9.87672C29.4266 9.17677 31.2799 8.50474 33.24 8.08352C35.3008 7.64088 37.7102 6.96452 39.8012 7.02939C41.7622 7.09024 43.501 6.74476 45.4871 6.6895C47.1396 6.64356 48.7959 6.68331 50.4482 6.64047C54.8938 6.52561 59.3557 6.82546 63.7005 7.14517C60.2582 -2.92119 82.9328 0.187506 87.7703 1.50237C92.1665 2.69743 97.2036 4.08367 100.896 6.9192C102.461 8.12016 103.947 9.48562 105.335 10.8868C107.382 12.9541 108.516 15.6614 109.599 18.3335C112.347 16.9877 114.973 15.5211 117.98 14.8537C120.84 14.2189 123.77 13.3585 126.647 12.8789C128.835 12.5142 132.01 12.2668 133.851 13.8114C135.85 15.4891 136.892 18.0999 138.086 20.3357C143.818 14.8969 150.211 10.929 158.384 11.1928C166.381 11.4511 171.639 18.357 172.609 25.8403C173.677 34.0864 170.003 42.7026 165.024 49.0883C162.792 51.952 160.482 54.7178 157.477 56.8543C155.986 57.9133 154.414 59.0736 152.78 59.9005C151.965 60.3128 151.075 60.6852 150.219 61.0024C149.833 61.1457 149.436 61.2892 149.034 61.3865C147.888 61.6646 148.111 61.2933 147.684 62.2968C147.338 63.1117 147.381 64.5136 147.233 65.4078C147.063 66.4299 146.963 67.4661 146.716 68.4743C146.287 70.2218 145.842 71.9264 145.305 73.6331C144.29 76.8628 142.924 80.118 141.25 83.0642C142.669 83.6805 144.657 83.7427 146.174 83.9296C147.815 84.1314 149.459 84.5562 151.165 85.033C154.582 85.9883 157.635 86.7949 160.884 88.2252C164.257 89.71 167.264 91.9273 170.512 93.692C173.498 95.3148 176.517 97.3474 179.291 99.2954C179.951 99.7588 180.36 100.162 180.885 100.749C181.423 101.348 181.594 101.466 182.236 101.985C182.526 102.219 183.368 103.401 183.698 103.444C184.291 103.523 184.2 103.081 184.664 102.464C185.635 101.176 186.989 100.178 187.953 98.8568C188.757 97.7553 189.595 96.6402 190.454 95.693C192.534 93.4012 194.257 90.8607 195.735 88.1132C196.505 86.6826 197.315 85.3214 198.15 83.9714C198.982 82.6274 200.461 80.8534 202.118 80.9328C201.985 80.2485 201.561 80.1345 202.292 79.716C202.762 79.4464 203.678 79.881 204.04 80.1546C205.001 80.8798 205.042 82.2864 204.982 83.3432C204.826 86.0663 204.256 88.7543 203.462 91.3292C202.508 94.4246 201.311 97.1553 200.005 100.11C198.966 102.463 197.675 105.575 195.088 106.649C196.825 109.13 195.991 111.151 194.83 113.784C193.981 115.71 192.86 117.699 191.153 118.973C189.229 120.409 187.141 119.19 185.129 118.241C183.913 117.668 180.196 116.315 180.952 114.55C180.023 114.426 179.439 113.752 178.594 113.544C177.699 113.324 177.853 113.688 176.906 113.824C176.18 113.928 175.094 113.278 174.41 113.046C173.269 112.657 172.13 112.259 170.99 111.866C167.781 110.761 164.626 109.673 161.385 108.787C155.355 107.14 149.251 106.205 143.242 104.734C142.037 104.439 140.84 104.154 139.586 103.918C139.327 103.869 137.983 103.794 137.82 103.517C137.534 103.031 138.413 100.313 138.488 99.7588C138.984 96.122 138.822 92.1408 138.124 88.5455C137.834 87.0508 136.54 85.1155 136.551 83.6566C136.559 82.6779 137.426 81.6093 137.936 80.7227C139.195 78.5307 140.515 76.1624 141.448 73.8812C142.876 70.3915 143.751 66.4525 144.382 62.7151C144.711 60.7666 145.093 58.6544 145.183 56.6833C145.251 55.1808 145.128 53.605 145.346 52.0662C144.514 52.1452 143.338 52.5759 142.589 52.1148C141.643 51.5328 141.389 49.8712 141.51 48.8788C138.271 49.4439 138.379 46.373 138.579 43.9713C132.726 43.9713 140.222 35.2741 141.158 33.4065C141.589 32.5479 141.576 33.5123 141.386 32.1844C141.303 31.6007 140.904 30.9537 140.678 30.4169C140.186 29.2453 139.654 28.0915 139.086 26.9547C137.886 24.5537 136.527 22.2339 135.043 19.997C133.707 20.9277 132.503 22.0294 131.388 23.2113C132.104 21.3401 134.29 19.0221 133.355 16.8974C132.488 14.9279 129.594 15.0645 127.884 15.4245C123.24 16.4038 118.785 17.8301 114.36 19.4815C115.731 20.2675 117.829 19.6603 119.191 19.0594C120.877 18.315 122.691 17.5341 124.508 17.1398C126.093 16.7959 128.175 16.9133 127.717 19.0483C127.346 20.7781 125.654 22.4441 124.538 23.7376C122.078 26.5872 118.993 28.7932 115.964 30.9975C112.707 33.367 109.569 35.9414 106.271 38.2423C100.309 42.4017 93.8995 46.0166 87.7401 49.8991C84.5395 51.9165 80.9127 53.5399 77.4416 55.0351C73.6233 56.6798 69.9623 58.4407 66.0009 59.7398C63.8009 60.4614 61.6204 61.0552 59.4586 61.8763C58.1036 62.3907 55.744 63.4215 54.8486 61.894C53.0305 58.7915 59.6104 54.7113 61.4136 52.8145C62.6574 54.0226 56.5233 58.5243 57.0035 60.2832C57.3806 61.6655 58.8398 59.8806 59.5444 59.5039C60.683 58.895 62.0315 58.5889 63.1759 57.8941C65.523 56.4692 68.3058 54.8258 68.8416 51.88C68.4688 51.4866 68.4734 51.1233 68.8557 50.7902C69.0259 50.5879 69.1609 50.3657 69.2604 50.1233C69.4274 49.6603 69.4944 49.0807 69.5838 48.5897C69.8481 47.1391 69.1848 45.7808 69.8047 44.361C66.1874 47.1018 62.7104 50.1978 59.2766 53.1648C56.1967 55.8262 52.9829 59.3112 51.851 63.2825C51.7061 63.7913 51.4651 64.3685 51.4915 64.9055C51.5429 65.9598 51.6482 65.7324 52.4975 66.0713C53.347 66.4104 54.584 66.3812 55.4974 66.4171C56.0181 66.4373 58.3435 65.886 57.8812 67.0286C57.6147 67.6874 56.0026 67.6626 55.4254 67.7234C53.9768 67.8763 53.1912 67.7194 53.8775 69.2896C54.1851 69.9934 54.8084 70.4702 55.2973 71.0148C56.6581 72.5303 57.3972 74.8546 58.4676 76.635C59.6871 78.6633 61.0277 80.5921 62.452 82.4812C63.0397 83.2605 63.8253 84.7254 64.6401 85.2816C65.4009 85.801 64.5058 85.758 65.7695 85.547C66.3204 85.4553 66.8196 85.097 67.3465 84.9687C70.4971 84.2012 73.7355 83.336 76.9936 82.3886C81.1611 81.1767 85.5345 80.1434 89.5107 78.3984C93.0726 76.8346 96.6081 74.9731 100.207 73.3894C101.258 72.9273 102.308 72.6208 103.125 71.7702C104.111 70.7436 104.928 69.3996 105.837 68.2961C107.384 66.4189 108.81 64.5098 110.474 62.7309C111.714 61.4073 113.91 58.9468 115.658 58.4183C118.981 57.4148 117.202 62.475 116.773 63.7539C117.554 63.9312 117.964 62.9295 118.881 63.2176C119.978 63.5628 120.092 65.0222 120.229 65.9367C120.266 66.1804 119.936 66.6358 120.036 66.8531C120.07 66.9271 120.786 67.3505 120.924 67.5468C121.426 68.2597 121.327 69.1266 121.137 69.8954C120.154 73.8781 116.659 76.7861 114.089 79.7238C115.239 79.5063 116.092 78.8511 117.177 78.5262C118.196 78.2215 119.22 78.2374 120.247 78.15C121.322 78.0586 122.354 77.6562 123.454 77.6358C124.608 77.6144 125.713 77.943 126.858 78.0733Z" fill="black"/>
    <path fill-rule="evenodd" clip-rule="evenodd" d="M5.30642 42.2519C4.67265 42.6662 4.494 43.0726 4.47212 44.0283C4.46335 44.4202 4.49038 45.8825 5.03818 45.8273C5.55224 45.7756 5.30642 42.7547 5.30642 42.2519ZM2.0325 44.6335C2.32782 41.5705 3.44841 38.4562 6.08455 36.5477C6.73648 36.0758 7.47397 36.0925 8.18848 35.7948C8.61788 35.6159 9.2963 34.7843 9.78381 34.8827C11.5784 35.2457 9.5051 37.6302 9.20149 38.2574C8.26062 40.2008 8.32415 41.9083 8.35225 44.0048C8.37365 45.5981 8.70471 48.2841 7.90145 49.7263C7.04521 51.2619 5.18807 50.2646 4.15143 49.3558C2.84311 48.2083 1.855 46.3812 2.0325 44.6335Z" fill="black"/>
    <path fill-rule="evenodd" clip-rule="evenodd" d="M33.5356 53.685C33.5356 55.3941 34.9227 54.237 34.8733 53.0213C34.8007 51.2315 33.4707 52.3336 33.5356 53.685ZM40.9104 44.2362C39.3923 45.6017 38.2211 46.3678 37.9284 48.4675C37.7069 50.0578 37.9271 51.633 37.9365 53.235C37.9523 55.9203 35.7839 58.7434 33.4504 55.6653C31.7482 53.4201 32.3588 49.8897 33.7468 47.6332C34.4752 46.4494 35.5149 45.2782 36.7161 44.5405C37.6195 43.9852 40.1608 42.8927 40.9104 44.2362Z" fill="black"/>
    <path fill-rule="evenodd" clip-rule="evenodd" d="M19.7066 85.6216C19.5307 86.0381 19.1173 87.7385 19.9606 87.354C20.7048 87.0142 20.2226 85.887 19.7066 85.6216ZM15.2518 80.3719C15.1217 79.7325 15.1747 75.7242 16.2788 76.0249C17.146 76.2605 17.2893 78.3123 17.6425 79.0263C18.9581 81.6855 21.9777 83.3414 23.019 86.086C24.1813 89.1509 20.6672 89.2461 18.8025 88.005C16.5947 86.5353 15.3173 82.9367 15.2518 80.3719Z" fill="black"/>
    <path fill-rule="evenodd" clip-rule="evenodd" d="M12.5453 63.9368C13.0244 63.2898 13.0729 62.9442 12.7997 62.3719C12.4505 62.7517 12.5124 63.2945 12.5453 63.9368ZM12.892 66.8307C10.394 67.1104 10.269 62.5072 10.6967 60.9266C11.0374 59.6678 11.7698 58.3153 12.5238 57.2896C12.6761 57.0826 14.1202 55.2229 14.4033 55.2184C15.4897 55.2012 15.1913 56.4287 15.0739 56.8857C14.7048 58.3254 14.5586 59.5285 14.6579 61.1247C14.7645 62.8327 15.5733 66.8875 12.892 66.8307Z" fill="black"/>
    <path fill-rule="evenodd" clip-rule="evenodd" d="M126.309 26.9648C122.737 29.9602 119.346 33.2031 115.462 35.8232C113.562 37.1055 111.575 38.2398 109.679 39.5429C108.713 40.2066 107.728 40.8009 106.656 41.2887C105.71 41.7197 105.091 41.7758 105.876 40.7528C106.401 40.0694 107.578 39.5932 108.293 39.1074C109.393 38.3592 110.432 37.5293 111.59 36.8656C113.63 35.6949 115.659 34.7497 117.54 33.314C119.21 32.0399 120.932 30.7961 122.526 29.442C123.209 28.8614 125.475 26.1958 126.309 26.9648Z" fill="black"/>
    <path fill-rule="evenodd" clip-rule="evenodd" d="M126.381 37.7808C127.987 39.1548 123.968 42.919 123.052 43.7721C122.085 44.6719 121.021 45.4745 119.97 46.2715C119.6 46.5522 117.581 48.4308 117.069 48.2792C116.058 47.9799 117.385 46.761 117.73 46.4434C118.846 45.4141 119.987 44.4153 121.078 43.3583C122.062 42.406 123.128 41.524 124.08 40.5408C124.851 39.7443 125.499 38.3947 126.381 37.7808Z" fill="black"/>
    <path fill-rule="evenodd" clip-rule="evenodd" d="M7.3772 93.168C6.95781 92.1962 6.20671 93.2751 6.58749 93.7604C6.94762 94.2198 7.32357 93.3547 7.3772 93.168ZM4.91809 91.249C5.14292 89.82 5.66251 89.0259 7.00306 90.2457C7.92422 91.0838 9.77686 93.4671 9.60106 94.7664C9.3703 96.4706 7.49329 95.987 6.52029 95.0959C5.52294 94.1825 5.08265 92.5161 4.91809 91.249Z" fill="black"/>
    <path fill-rule="evenodd" clip-rule="evenodd" d="M7.85573 119.373C6.21353 119.248 4.81251 117.987 4.11513 116.51C3.52837 115.267 2.97299 113.264 5.03441 113.917C6.37794 114.343 11.5572 119.573 7.85573 119.373Z" fill="black"/>
    <path fill-rule="evenodd" clip-rule="evenodd" d="M27.7576 111.272C26.4884 111.561 25.2332 110.726 24.4527 109.783C23.9672 109.196 22.8371 107.138 23.4065 106.291C24.2001 105.11 25.3984 107.484 25.8117 107.955C26.46 108.691 28.5802 110.099 27.7576 111.272Z" fill="black"/>
    <path fill-rule="evenodd" clip-rule="evenodd" d="M28.9005 79.1385C27.9057 78.6769 26.9822 78.1211 26.582 77.0185C26.3276 76.3164 26.1139 74.2107 27.2437 74.2203C28.5506 74.2319 31.5431 78.9277 28.9005 79.1385Z" fill="black"/>
    <path fill-rule="evenodd" clip-rule="evenodd" d="M21.9261 57.2308C23.2581 57.2067 23.5735 57.9413 23.7586 58.9967C23.8845 59.713 24.4946 62.1446 23.861 62.6426C22.9556 63.3544 21.5152 61.7236 21.2242 61.0833C20.6241 59.7653 21.4538 58.4689 21.9261 57.2308Z" fill="black"/>
    <path fill-rule="evenodd" clip-rule="evenodd" d="M44.8134 130.14C45.4619 130.435 46.9374 131.089 46.3736 132.105C45.7841 133.167 44.0915 132.135 43.4593 131.671C43.1946 131.476 41.513 130.205 41.5834 129.779C41.7317 128.872 44.0497 130.055 44.8134 130.14Z" fill="black"/>
    <path fill-rule="evenodd" clip-rule="evenodd" d="M2.08497 63.8268C2.52814 64.9365 3.027 68.749 0.693267 66.6903C-0.0189124 66.0619 -0.126398 65.2772 0.118976 64.4145C0.473781 63.1644 0.990126 63.4123 2.08497 63.8268Z" fill="black"/>
    <path fill-rule="evenodd" clip-rule="evenodd" d="M125.758 49.6293C125.241 48.5734 126.517 47.8925 127.199 47.212C127.644 46.7675 129.516 44.357 130.13 44.4931C131.392 44.7732 126.379 49.1585 125.758 49.6293Z" fill="black"/>
    <path fill-rule="evenodd" clip-rule="evenodd" d="M21.9093 126.104C23.127 125.909 23.4112 127.262 24.1956 127.851C24.5321 128.104 25.687 128.326 25.4547 128.863C24.8444 130.273 21.8496 127.052 21.9093 126.104Z" fill="black"/>
    <path fill-rule="evenodd" clip-rule="evenodd" d="M32.1919 94.1597C33.0289 93.8094 35.4446 95.6913 34.7509 96.5043C33.7141 97.7207 32.2509 94.8252 32.1919 94.1597Z" fill="black"/>
    <path fill-rule="evenodd" clip-rule="evenodd" d="M49.8343 121.387C49.2242 121.448 46.6495 120.639 47.6034 119.555C48.2732 118.794 50.0531 120.698 49.8343 121.387Z" fill="black"/>
    <path fill-rule="evenodd" clip-rule="evenodd" d="M19.0021 116.188C18.3965 116.43 16.212 115.932 16.8987 114.983C17.5531 114.08 19.003 115.438 19.0021 116.188Z" fill="black"/>
    <path fill-rule="evenodd" clip-rule="evenodd" d="M36.8866 120.281C37.5948 120.207 38.1063 120.634 38.2279 121.357C37.3422 121.484 37.069 121.273 36.8866 120.281Z" fill="black"/>
    <path fill-rule="evenodd" clip-rule="evenodd" d="M128.991 15.3114C129.29 15.3127 129.589 15.3143 129.886 15.3156C129.586 15.3141 129.289 15.3127 128.991 15.3114Z" fill="black"/>
    <path fill-rule="evenodd" clip-rule="evenodd" d="M124.297 77.5728C123.849 77.5732 123.402 77.5741 122.955 77.5746C123.403 77.5737 123.85 77.5732 124.297 77.5728Z" fill="black"/>
    <path fill-rule="evenodd" clip-rule="evenodd" d="M63.2971 4.69467C63.2766 5.1423 63.256 5.58992 63.235 6.036C63.2551 5.588 63.2761 5.14113 63.2971 4.69467Z" fill="black"/>
    <path fill-rule="evenodd" clip-rule="evenodd" d="M201.827 80.7034C201.97 81.2008 201.761 81.2833 201.2 80.9507C201.409 80.8682 201.618 80.7859 201.827 80.7034Z" fill="black"/>
    <path fill-rule="evenodd" clip-rule="evenodd" d="M189.128 119.712C189.352 119.713 189.576 119.715 189.798 119.716C189.573 119.715 189.351 119.713 189.128 119.712Z" fill="black"/>
    <path fill-rule="evenodd" clip-rule="evenodd" d="M146.652 83.727C146.277 84.0127 145.904 84.053 145.534 83.7118C145.907 83.7172 146.28 83.7221 146.652 83.727Z" fill="black"/>
    <path fill-rule="evenodd" clip-rule="evenodd" d="M138.283 45.6053C138.274 45.9784 138.264 46.3513 138.254 46.723C138.264 46.3495 138.274 45.9773 138.283 45.6053Z" fill="black"/>
    <path fill-rule="evenodd" clip-rule="evenodd" d="M157.606 11.1106C157.234 11.1104 156.861 11.11 156.489 11.1095C156.862 10.97 157.234 11.0159 157.606 11.1106Z" fill="black"/>
    <path fill-rule="evenodd" clip-rule="evenodd" d="M48.2879 6.56203C47.9155 6.58394 47.5426 6.60584 47.1702 6.62775C47.5426 6.60584 47.9155 6.58394 48.2879 6.56203Z" fill="black"/>
    <path fill-rule="evenodd" clip-rule="evenodd" d="M57.4537 6.63289C57.1557 6.60763 56.8572 6.58215 56.5594 6.55688C56.8572 6.58215 57.1552 6.60763 57.4537 6.63289Z" fill="black"/>
    <path fill-rule="evenodd" clip-rule="evenodd" d="M62.3719 6.98718C62.0739 7.09829 61.7759 7.16401 61.4777 6.98875C61.7759 6.9883 62.0739 6.98763 62.3719 6.98718Z" fill="black"/>
    <path fill-rule="evenodd" clip-rule="evenodd" d="M35.7689 7.59932C35.396 7.6751 35.0236 7.75089 34.6511 7.82601C35.024 7.75089 35.3965 7.6751 35.7689 7.59932Z" fill="black"/>
    <path fill-rule="evenodd" clip-rule="evenodd" d="M138.508 98.5879C138.497 98.8119 138.487 99.0356 138.477 99.2585C138.488 99.0343 138.498 98.811 138.508 98.5879Z" fill="black"/>
    <path fill-rule="evenodd" clip-rule="evenodd" d="M15.3073 80.4799C15.3117 80.6292 15.316 80.7786 15.32 80.927C15.3151 80.7772 15.3115 80.6286 15.3073 80.4799Z" fill="black"/>
    <path fill-rule="evenodd" clip-rule="evenodd" d="M203.212 79.6778L202.094 79.6836C202.466 79.4059 202.838 79.4412 203.212 79.6778Z" fill="black"/>
    <path fill-rule="evenodd" clip-rule="evenodd" d="M126.756 78.0945C126.457 78.0453 126.159 77.9962 125.862 77.947C126.159 77.9962 126.458 78.0453 126.756 78.0945Z" fill="black"/>
    <path fill-rule="evenodd" clip-rule="evenodd" d="M44.9345 130.106C44.5619 130.034 44.1894 129.961 43.8168 129.889L44.9345 130.106Z" fill="black"/>
    <path fill-rule="evenodd" clip-rule="evenodd" d="M120.171 65.9488C120.164 65.725 120.157 65.5012 120.151 65.2781C120.157 65.5019 120.164 65.7255 120.171 65.9488Z" fill="black"/>
    <path fill-rule="evenodd" clip-rule="evenodd" d="M49.4057 6.63614C49.1821 6.60865 48.9583 6.58115 48.735 6.55365C48.9583 6.58115 49.1821 6.60865 49.4057 6.63614Z" fill="black"/>
    <path fill-rule="evenodd" clip-rule="evenodd" d="M86.0687 1.10761C85.8452 1.03988 85.6214 0.972141 85.3981 0.904404C85.6216 0.972141 85.8452 1.03988 86.0687 1.10761Z" fill="black"/>
    <path fill-rule="evenodd" clip-rule="evenodd" d="M112.672 151.892C112.821 151.901 112.971 151.91 113.119 151.919C112.969 151.91 112.82 151.901 112.672 151.892Z" fill="black"/>
    <path fill-rule="evenodd" clip-rule="evenodd" d="M10.0601 31.8477C10.2845 31.8535 10.509 31.8595 10.7307 31.8656C10.5052 31.8595 10.2826 31.8535 10.0601 31.8477Z" fill="black"/>
    <path fill-rule="evenodd" clip-rule="evenodd" d="M160.066 11.3289C159.693 11.3027 159.32 11.2766 158.948 11.2502C159.321 11.2766 159.693 11.3027 160.066 11.3289Z" fill="black"/>
    <path fill-rule="evenodd" clip-rule="evenodd" d="M42.2519 10.2822C41.729 10.2831 41.2068 10.284 40.687 10.2849C41.211 10.284 41.7315 10.2831 42.2519 10.2822Z" fill="black"/>
    <path fill-rule="evenodd" clip-rule="evenodd" d="M147.871 56.3359C147.878 56.7091 147.885 57.0822 147.893 57.4537C147.886 57.0804 147.879 56.7079 147.871 56.3359Z" fill="black"/>
    <path fill-rule="evenodd" clip-rule="evenodd" d="M120.496 136.376C120.197 136.371 119.899 136.366 119.602 136.362C119.902 136.366 120.199 136.371 120.496 136.376Z" fill="black"/>
    <path fill-rule="evenodd" clip-rule="evenodd" d="M152.241 17.9278C152.688 17.8782 153.135 17.8285 153.582 17.7789C153.153 18.1585 152.69 17.9059 152.241 17.9278Z" fill="black"/>
    <path fill-rule="evenodd" clip-rule="evenodd" d="M118.037 136.493C117.813 136.484 117.589 136.476 117.366 136.468C117.592 136.476 117.814 136.484 118.037 136.493Z" fill="black"/>
    <path fill-rule="evenodd" clip-rule="evenodd" d="M110.307 140.393C110.319 140.766 110.33 141.139 110.341 141.51C110.331 141.136 110.319 140.765 110.307 140.393Z" fill="black"/>
    <path fill-rule="evenodd" clip-rule="evenodd" d="M144.417 31.655C144.715 31.6273 145.013 31.5995 145.311 31.5721C145.039 31.7817 144.719 31.659 144.417 31.655Z" fill="black"/>
    <path fill-rule="evenodd" clip-rule="evenodd" d="M46.723 91.1285C47.021 91.1835 47.3195 91.238 47.6172 91.2926C47.3192 91.238 47.021 91.1835 46.723 91.1285Z" fill="black"/>
    <path fill-rule="evenodd" clip-rule="evenodd" d="M93.2225 32.3046C93.5945 31.9876 93.9672 32.0221 94.3403 32.3011C93.9676 32.3019 93.5952 32.3033 93.2225 32.3046Z" fill="black"/>
    <path fill-rule="evenodd" clip-rule="evenodd" d="M79.234 43.5933C79.2447 43.4441 79.2552 43.295 79.2666 43.1461C79.2564 43.2955 79.2452 43.4444 79.234 43.5933Z" fill="black"/>
    <path fill-rule="evenodd" clip-rule="evenodd" d="M144.3 39.3457C144.303 39.6444 144.306 39.9428 144.31 40.24C144.307 39.9406 144.304 39.6433 144.3 39.3457Z" fill="black"/>
    <path fill-rule="evenodd" clip-rule="evenodd" d="M45.6688 86.0757C46.1593 86.242 47.1458 86.7444 47.7175 86.6777C48.1751 86.6243 48.5522 86.0681 48.9935 86.0688C50.1817 86.0703 49.9613 87.4439 49.3872 88.1812C47.8346 90.1757 44.3653 88.013 45.6688 86.0757Z" fill="black"/>
    <path fill-rule="evenodd" clip-rule="evenodd" d="M50.5184 78.915C52.1387 79.3333 51.3316 82.8974 49.9695 83.1424C48.3657 83.4313 48.0863 80.5331 48.4031 79.4855C49.2284 79.976 48.7174 81.7255 49.7576 81.242C50.4191 80.9341 50.3185 79.511 50.5184 78.915Z" fill="black"/>
</svg>
