<svg width="142" height="228" viewBox="0 0 142 228" fill="none" xmlns="http://www.w3.org/2000/svg">
<rect width="142" height="228" rx="30" fill="#FFAEAE"/>
<mask id="mask0_138_3" style="mask-type:alpha" maskUnits="userSpaceOnUse" x="0" y="0" width="142" height="228">
<rect width="142" height="228" rx="30" fill="#FFAEAE"/>
</mask>
<g mask="url(#mask0_138_3)">
<path fill-rule="evenodd" clip-rule="evenodd" d="M60.6869 95.0347C61.7307 94.3233 63.8649 91.777 64.9832 91.1886C67.4698 89.8802 78.5474 87.3079 78.9075 87.1559C79.4561 86.9245 83.0198 86.1157 85.0962 85.6049C89.9717 84.4048 107.444 76.6546 112.049 74.6674C112.637 76.2145 117.49 83.0436 116.658 83.7436C113.917 86.0478 109.003 88.9169 105.828 90.568C103.26 91.9036 100.539 93.0088 97.7932 93.9111C94.6753 94.9359 92.5354 96.0344 89.428 97.0824C86.3709 98.1137 90.0245 101.339 91.5945 102.005C93.3554 102.753 96.083 103.132 97.8824 103.78C94.7144 108.704 92.0539 114.68 91.5216 120.578C91.3935 121.997 90.3115 123.299 88.5515 122.874C87.6434 122.654 79.2636 121.538 77.8973 121.227C68.7755 119.146 52.4004 108.253 56.6173 97.0824C57.5833 97.5287 59.7889 95.6468 60.6869 95.0347Z" fill="#FF5678"/>
<path fill-rule="evenodd" clip-rule="evenodd" d="M65.7899 35.7688C66.4713 35.7114 68.2334 34.3502 67.3088 33.6616C66.3761 32.967 65.7059 35.2949 65.7899 35.7688ZM30.2925 40.9895C30.4707 40.958 30.3929 39.9833 30.1125 39.8588C29.2273 39.4658 29.1526 40.9428 29.1309 41.3381C29.1041 41.8368 29.0415 43.2418 30.1179 42.8567C30.7289 42.638 30.3497 41.3633 30.2925 40.9895ZM82.5497 45.5434C82.5257 46.4134 84.2836 48.0865 84.9388 47.083C85.4901 46.2397 82.5948 43.8112 82.5497 45.5434ZM20.4013 25.9199C20.9106 27.2192 23.4294 25.4486 23.523 24.4956C23.7151 22.544 20.3749 24.6215 20.4013 25.9199ZM41.4153 31.5213C42.5883 31.4249 44.1317 29.9336 45.2629 29.3765C46.0283 28.9996 48.1112 28.5502 48.3377 27.6943C48.5348 26.9505 45.0009 28.5424 44.6991 28.6839C43.3128 29.3334 42.0629 30.0738 41.4153 31.5213ZM129.473 21.2378C130.408 20.5148 131.545 20.0484 132.743 20.0791C133.342 20.0943 134.59 20.4687 134.637 19.4337C134.714 17.7507 129.428 19.8032 128.602 20.1334C128.892 20.5018 129.183 20.8698 129.473 21.2378ZM71.1481 86.826C70.4622 85.6869 69.2287 85.0283 68.3009 84.0568C68.6409 85.6523 67.8744 87.0714 67.3477 88.5279C68.6148 87.9605 69.8812 87.3933 71.1481 86.826ZM190.26 111.107C190.638 109.842 191.016 108.584 191.458 107.338C191.953 105.943 192.199 105.823 191.015 104.847C190.033 106.704 189.05 108.561 188.067 110.418C188.767 110.715 189.497 111.005 190.26 111.107ZM88.5854 19.5309C87.2848 18.0648 81.1889 17.9727 81.9431 21.2085C82.2065 22.3383 83.7052 21.1381 84.6439 20.8747C85.5757 20.6131 88.2141 20.5785 88.5854 19.5309ZM88.3619 40.288C88.2043 39.9138 87.8895 38.5633 87.4223 38.4569C86.9671 38.3531 85.1711 39.7696 84.8335 39.9858C83.1495 41.0649 81.5079 42.2258 79.8668 43.3697C80.4952 43.3697 81.0657 43.1459 81.6903 43.1412C82.4325 43.1348 82.9648 43.4397 83.6884 43.2658C85.2433 42.8924 87.0478 41.1695 88.3619 40.288ZM90.0468 6.83414C90.1928 6.16354 97.8142 8.17661 98.7301 8.54523C99.2291 8.74571 101.804 10.0841 101.251 8.06693C100.936 6.91804 97.9604 6.04224 97.007 5.72736C94.583 4.92728 92.0273 4.35818 89.4463 4.49016C88.9451 4.5156 85.1494 4.73464 86.7344 6.26032C87.2805 6.78574 89.2382 6.62013 90.0468 6.83414ZM91.7152 98.9708C93.1352 99.6694 94.585 100.204 96.0692 100.75C96.7284 100.993 97.7557 101.628 98.4829 101.469C99.0787 101.338 99.2696 100.43 99.5826 99.8232C100.727 97.6015 102.093 95.8093 103.787 93.9775C103 93.4038 99.0073 95.9345 98.0192 96.308C97.03 96.6821 96.0969 97.0587 95.1287 97.5056C94.2172 97.9264 92.4187 98.3026 91.7152 98.9708ZM116.857 80.0328C118.927 79.0963 120.888 77.4357 122.585 75.9489C124.534 74.2418 126.281 72.4527 127.708 70.2435C126.849 70.2873 124.954 73.0487 124.933 70.0423C124.922 68.5087 127.023 66.9982 127.676 65.5757C126.053 64.6596 124.566 70.1335 122.704 68.8067C120.91 67.5282 123.74 63.1325 124.286 61.7455C123.234 61.0456 117.24 68.8803 116.372 69.8827C115.829 70.5102 114.546 71.3456 114.24 72.0776C114.058 72.5135 114.031 73.8962 114.12 74.297C114.303 75.1351 115.233 76.1389 115.647 76.9193C116.171 77.9074 116.627 78.9342 116.857 80.0328ZM202.41 108.279C200.62 105.753 202.469 104.652 203.924 102.555C205.088 100.878 206.158 99.0296 206.896 97.1567C208.741 92.4725 210.406 88.1177 211.317 83.1626C210.063 83.7351 209.279 85.9136 208.652 87.0616C207.808 88.605 207.066 90.2249 206.129 91.7202C204.374 94.5183 202.652 97.5032 200.42 99.9285C199.409 101.028 198.553 102.264 197.386 103.255C196.853 103.707 195.834 104.078 195.441 104.644C195.07 105.178 195.485 105.52 195.344 106.158C195.2 106.812 194.537 107.51 194.253 108.14C193.88 108.968 193.533 109.798 193.116 110.608C192.662 111.49 192.538 111.952 192.415 112.815C192.281 113.758 192.692 113.856 191.868 114.725C193.361 115.384 194.854 116.042 196.346 116.7C196.85 116.922 197.354 117.144 197.858 117.367C197.964 117.167 198.07 116.968 198.176 116.769C198.587 116.371 198.964 115.388 199.199 114.862C200.179 112.666 201.287 110.461 202.41 108.279ZM58.2537 97.6755C54.0148 108.835 68.9101 118.232 78.0792 120.31C79.3492 120.598 80.5886 120.974 81.8528 121.283C83.2313 121.62 84.4552 121.553 85.8312 121.694C86.9257 121.806 87.4475 122.652 88.479 122.885C90.2026 123.275 90.0973 121.979 90.2207 120.591C90.7441 114.706 93.7475 109.028 96.9263 104.117C95.4743 103.598 94.0355 103.031 92.602 102.462C91.3754 101.975 89.4973 100.607 88.1786 100.534C87.2034 100.481 85.7172 101.314 84.77 101.679C83.1926 102.288 81.6105 102.807 79.9665 103.222C77.0916 103.948 73.8925 104.937 70.9176 105.012C70.0598 105.034 67.7071 105.433 67.0901 104.903C65.9133 103.892 67.5466 103.05 68.5318 102.689C74.4035 100.539 80.6378 99.6249 86.526 97.4205C89.5561 96.2859 92.5549 95.019 95.6039 93.9013C98.2323 92.938 100.985 92.0851 103.525 90.9C106.88 89.3356 110.248 87.3866 113.153 85.0905C113.734 84.6311 114.953 83.9486 115.351 83.2828C115.702 82.6967 115.658 83.2813 115.585 82.5706C115.533 82.0602 114.908 81.3683 114.652 80.8861C113.694 79.088 112.829 77.241 112.102 75.3381C107.468 77.3255 103.06 80.0305 98.4952 82.1543C93.9002 84.2922 88.7171 85.8003 83.8013 87.003C81.7091 87.5149 79.3039 87.6768 77.3851 88.6884C76.5698 89.1181 75.7639 89.6152 74.8907 89.8638C74.6327 90.3586 74.3789 90.4556 74.1288 90.1547C73.9721 89.9788 73.7695 89.9045 73.5209 89.9318C72.9869 90.0223 72.4421 90.2745 71.9426 90.4683C69.4144 91.4484 66.9936 92.6757 64.5935 93.9281C63.4558 94.5212 62.2888 95.1055 61.2001 95.7831C60.6167 96.1464 60.0938 96.5126 59.6162 97.0113C59.0437 97.6094 59.1801 98.101 58.2537 97.6755ZM153.636 31.4162C154.707 31.4337 155.683 30.8533 156.8 30.8857C158.557 30.9365 159.947 32.2984 160.967 33.6118C162.984 36.2104 162.47 39.3453 161.456 42.2535C160.971 43.6434 160.305 44.9775 159.474 46.1941C158.737 47.2712 157.421 48.2899 156.907 49.4891C156.06 51.4669 157.77 50.6259 158.817 50.2036C160.133 49.672 161.367 49.0114 162.484 48.1214C167.465 44.1551 171.253 38.642 172.522 32.3104C173.141 29.2214 173.094 25.61 170.942 23.0888C168.974 20.7833 165.578 20.0301 162.675 20.4575C159.537 20.9199 156.693 22.2491 154.138 23.96C153.396 24.4572 152.716 25 152.019 25.5559C151.105 26.2854 150.557 26.3044 150.786 27.4477C150.956 28.2976 151.419 29.1784 151.717 29.994C152.275 31.5215 152.072 31.9168 153.636 31.4162ZM157.051 57.7513L156.834 58.1217C158.328 58.1928 159.72 56.8747 160.993 56.2313C162.647 55.395 164.115 54.2542 165.565 53.1022C168.12 51.0703 170.71 48.7804 172.612 46.113C176.877 40.1335 180.75 32.5526 179.586 24.9714C178.332 16.8006 171.186 13.6554 163.571 14.737C160.139 15.2244 157.075 16.7566 154.004 18.3121C152.456 19.0961 151.149 20.1135 149.731 21.098C148.995 21.6093 148.324 21.6757 148.276 22.5695C148.239 23.243 149.404 24.7664 149.719 25.3767C153.575 21.443 157.73 18.1887 163.554 17.9875C170.482 17.7483 174.578 24.3172 174.548 30.6076C174.518 36.7766 171.857 42.7107 167.616 47.1442C165.688 49.1591 163.851 50.7759 161.484 52.2464C160.304 52.9795 159.433 53.6376 158.114 54.1243C157.181 54.4688 157.278 54.2873 157.04 55.1511C156.838 55.8841 157.044 56.99 157.051 57.7513ZM119.406 141.564C119.316 142.676 119.09 143.771 118.838 144.855C118.748 145.244 118.24 146.474 118.329 146.911C118.476 147.635 118.28 147.17 118.914 147.547C119.575 147.941 120.345 147.918 121.069 148.037C121.516 148.111 123.154 148.882 123.429 148.76C123.911 148.547 123.896 147.797 124.424 147.5C125.144 147.094 126.204 147.442 126.883 147.759C128.699 148.605 129.946 150.358 131.703 151.318C134.822 153.022 138.524 153.965 142.004 154.354C143.889 154.565 145.818 154.935 147.68 154.493C149.147 154.145 151.054 154.177 151.852 152.603C144.765 150.654 133.948 148.269 131.146 140.136C129.622 141.517 127.077 140.773 125.236 140.582C123.211 140.373 121.401 140.422 119.549 139.498C119.413 140.224 119.372 140.826 119.406 141.564ZM56.6584 91.1933C59.9945 91.3947 63.1574 89.816 65.2103 87.1523C65.7157 86.4962 66.2339 85.8267 66.5373 85.0494C66.6032 84.8524 66.6687 84.6552 66.7345 84.4583C67.053 83.9144 66.9135 83.6577 66.3164 83.6883C65.98 83.2269 65.1269 83.0718 65.3697 82.2355C65.5523 81.6046 66.2268 81.5943 66.8129 81.3958C66.521 80.9053 66.3464 80.6592 65.9286 80.223C64.8427 81.1997 62.8721 83.1169 62.1091 80.8729C61.7425 79.7956 62.3877 78.7659 62.2278 77.7268C62.1621 77.2969 61.6173 76.199 61.3014 75.9422C59.6196 74.5729 57.1974 75.1396 55.413 75.9455C54.1832 76.5011 53.9185 76.7617 53.718 78.0351C53.5143 79.3299 53.3252 80.6243 53.0992 81.9153C53.8371 81.5308 53.9715 80.7001 54.4528 80.1019C54.633 80.43 54.8134 80.7587 54.9942 81.0868C55.2482 80.9444 55.4854 80.9518 55.7054 81.1096C56.0615 81.6571 55.8375 82.4691 55.728 83.0429C56.9155 82.9323 57.4174 84.2571 56.2202 84.7936C54.9802 85.3494 54.4208 83.8341 54.3788 82.8527C53.916 83.4053 53.4408 83.1096 53.1182 83.3935C52.796 83.6774 52.669 84.2691 52.5544 84.9172C52.3659 85.982 51.8837 87.5183 52.3299 88.5864C52.9923 90.173 55.1042 90.9986 56.6584 91.1933ZM153.329 40.2344C152.226 41.7695 150.344 43.779 149.95 45.6337C151.166 44.9203 153.737 41.4872 154.399 44.2219C154.779 45.7917 152.829 47.6622 152.35 49.1822C154.268 48.5513 155.633 46.5755 156.83 45.0506C158.355 43.1064 159.913 40.5435 160.302 38.0712C160.617 36.0706 159.229 34.206 157.167 34.0099C156.114 33.9098 155.014 34.077 153.996 34.3213C153.532 34.4324 152.84 34.5706 152.426 34.8192C151.906 35.1315 151.835 35.8625 151.345 35.2544C150.694 36.4811 150.043 37.7077 149.392 38.9339C150.04 38.699 151.362 37.7015 152.07 37.8045C153.103 37.9554 153.316 39.4568 153.329 40.2344ZM49.9732 10.2041C47.0793 10.2894 44.0543 10.9056 41.3147 11.8217C40.6344 12.0494 37.7642 12.8592 38.3687 14.033C38.7682 14.8089 40.9221 13.7125 41.5733 13.5297C44.3642 12.7459 47.2378 12.2291 50.0964 11.7574C50.7885 11.6432 53.1365 11.6545 53.2577 10.7472C53.4061 9.64016 50.7905 10.2028 49.9732 10.2041ZM128.735 136.473C127.166 136.664 125.66 136.593 124.09 136.401C122.768 136.239 121.423 135.698 120.108 135.698C120.108 137.105 120.013 137.114 121.497 137.415C122.534 137.626 123.585 137.744 124.632 137.89C126.476 138.148 128.524 138.872 130.39 138.5C130.345 138.256 130.202 136.607 130.009 136.443C129.9 136.352 128.893 136.474 128.735 136.473ZM103.383 32.3433C103.821 32.6228 104.83 33.7372 105.352 33.7568C105.166 32.4667 103.726 30.2204 102.073 31.0176C101.668 31.2132 100.817 32.1866 101.202 32.616C101.408 32.8456 102.845 32.3449 103.383 32.3433ZM88.0896 43.8206C88.1054 43.5957 88.1218 43.3708 88.1383 43.1462C87.5318 43.5027 86.7809 43.6715 86.3499 44.2461C86.8674 44.4754 87.3845 44.705 87.9022 44.9346C87.9646 44.5633 88.0272 44.192 88.0896 43.8206ZM135.858 78.0733C138.724 79.0769 141.351 80.4173 143.46 82.6924C145.284 84.6599 146.141 88.1264 146.586 90.7053C147.687 97.0869 145.562 103.002 144.161 109.107C143.45 112.204 142.388 115.184 141.395 118.201C140.527 120.835 139.783 123.594 138.586 126.099C137.57 128.223 136.273 130.317 135.38 132.52C134.899 133.706 134.12 137.775 132.295 136.497C131.797 137.799 131.676 137.688 132.209 138.593C132.594 139.247 133.901 140.156 134.517 140.689C136.16 142.11 138.242 143.281 140.169 144.276C143.7 146.098 147.485 147.462 151.121 149.123C152.729 149.858 154.472 150.726 154.111 152.829C153.809 154.592 152.789 155.929 151.198 156.713C149.704 157.449 147.568 158.018 145.924 158.249C144.95 158.386 144.726 157.981 143.931 157.84C143.046 157.684 142.014 157.986 141.101 157.978C137.004 157.942 133.417 156.912 130.107 154.536C128.923 153.687 127.182 151.384 125.634 151.384C124.842 151.384 125.009 151.865 124.313 152.147C123.454 152.495 121.974 151.838 121.129 151.684C119.33 151.355 117.5 151.022 116.302 149.472C115.006 147.797 115.467 145.722 116.023 143.862C116.651 141.766 117.707 139.638 118.155 137.51C118.265 136.992 118.365 136.027 118.254 135.5C118.082 134.683 117.257 134.196 117.232 133.31C117.224 133.041 117.609 132.686 117.677 132.408C117.826 131.798 117.803 131.165 117.864 130.544C117.973 129.436 118.226 128.375 118.4 127.28C118.796 124.788 119.578 122.565 120.334 120.165C121.068 117.835 121.766 116.101 123.185 114.084C123.919 113.039 126.376 109.317 125.176 108.245C123.534 111.471 121.614 113.986 119.101 116.554C117.179 118.518 115.3 121.158 112.894 122.557C110.249 124.095 107.017 125 104.096 125.813C102.707 126.2 101.554 127.057 100.057 127.216C98.4337 127.388 96.7818 127.185 95.1921 126.823C94.7448 126.722 93.4542 126.034 93.0494 126.078C92.4529 126.143 91.5949 127.206 90.9403 127.401C89.3471 127.876 88.259 126.968 87.0505 126.129C85.7389 125.219 85.3421 124.992 83.8286 124.883C81.9749 124.749 80.1721 124.095 78.3488 123.695C75.1431 122.992 72.4181 121.566 69.5043 120.074C66.1642 118.364 63.3071 116.006 60.7895 113.22C57.0885 109.124 51.9342 97.775 57.98 93.8013C54.4208 93.318 51.1612 91.7636 50.7272 87.7354C50.5006 85.6275 50.9273 83.2924 51.4574 81.2605C51.6993 80.3328 51.9876 79.4108 52.264 78.4927C52.4721 78.1826 52.5823 77.8435 52.5937 77.4746C52.7214 76.9969 52.5374 76.7588 52.0413 76.761C51.1039 75.665 50.3991 74.6974 50.2097 73.141C50.15 72.6479 50.0966 71.8918 50.4476 71.4724C50.6099 71.3038 50.8059 71.1912 51.0346 71.1346C51.5841 71.1661 51.7393 70.8954 51.5005 70.3229C51.7672 69.5118 51.3715 68.8798 52.3769 68.5414C52.699 68.6098 53.0198 68.6849 53.3393 68.766C53.747 68.952 54.0122 68.8172 54.1356 68.3632C55.0825 67.9925 54.6457 67.4446 55.9325 67.9215C56.7111 68.2101 57.452 68.707 58.0192 69.3124C58.7305 68.8557 57.1127 66.0333 57.0588 65.1328C56.9307 63.0102 57.8084 61.2553 58.9501 59.5117C61.1693 56.1235 64.2669 53.2102 67.3215 50.5888C73.1724 45.5686 79.3191 40.7894 85.9256 36.7898C83.2002 34.897 80.0161 34.3839 76.7732 35.2636C73.7836 36.0747 71.3603 37.5477 68.6083 38.836C66.0589 40.0291 63.3527 40.5194 62.5399 37.2633C61.6291 33.616 64.5349 32.2619 67.1413 30.6264C66.4906 30.1411 64.348 30.488 63.5376 30.5455C61.7326 30.6731 60.0063 31.0807 58.2523 31.441C57.4111 31.6136 56.6383 31.5747 55.8049 31.744C54.5659 31.9955 53.2722 32.2771 52.0187 32.6355C49.0365 33.4884 46.0764 34.7827 43.4995 36.5269C41.2722 38.0337 39.727 40.1613 37.9325 42.1207C35.8861 44.3549 33.9251 46.5534 30.8912 47.3711C29.4705 47.7543 27.8039 48.1019 26.7968 46.833C25.8596 45.6531 25.8073 44.2311 25.8382 42.7885C25.9059 39.6017 27.4453 36.1583 29.236 33.5543C31.1798 30.7277 33.7833 29.1089 36.2431 26.8338C32.6877 27.088 29.2516 28.962 25.9819 30.2575C25.2938 30.5303 24.5992 30.8368 23.9073 31.0889C23.1696 31.3581 22.6809 31.1933 21.974 31.3165C20.3611 31.598 18.9755 32.2778 17.4064 31.194C14.4379 29.1438 17.412 24.9729 19.4559 23.6931C22.3026 21.9107 25.1988 20.4099 28.3351 19.1386C26.6372 17.2969 28.0871 14.6687 29.6522 13.3622C31.6323 11.709 34.1538 10.7617 36.5398 9.87672C38.4266 9.17677 40.2798 8.50474 42.24 8.08352C44.3007 7.64088 46.7102 6.96452 48.8011 7.02939C50.7621 7.09024 52.5009 6.74476 54.487 6.6895C56.1395 6.64356 57.7958 6.68331 59.4481 6.64047C63.8937 6.52561 68.3557 6.82546 72.7005 7.14517C69.2582 -2.92119 91.9327 0.187506 96.7702 1.50237C101.166 2.69743 106.204 4.08367 109.896 6.9192C111.461 8.12016 112.946 9.48562 114.335 10.8868C116.382 12.9541 117.516 15.6614 118.599 18.3335C121.347 16.9877 123.973 15.5211 126.979 14.8537C129.84 14.2189 132.77 13.3585 135.647 12.8789C137.835 12.5142 141.01 12.2668 142.851 13.8114C144.85 15.4891 145.892 18.0999 147.086 20.3357C152.818 14.8969 159.211 10.929 167.383 11.1928C175.381 11.4511 180.639 18.357 181.609 25.8403C182.677 34.0864 179.003 42.7026 174.024 49.0883C171.792 51.952 169.482 54.7178 166.477 56.8543C164.986 57.9133 163.414 59.0736 161.78 59.9005C160.965 60.3128 160.075 60.6852 159.219 61.0024C158.833 61.1457 158.436 61.2892 158.034 61.3865C156.888 61.6646 157.11 61.2933 156.684 62.2968C156.338 63.1117 156.381 64.5136 156.233 65.4078C156.063 66.4299 155.963 67.4661 155.716 68.4743C155.287 70.2218 154.842 71.9264 154.305 73.6331C153.29 76.8628 151.924 80.118 150.25 83.0642C151.669 83.6805 153.657 83.7427 155.174 83.9296C156.815 84.1314 158.459 84.5562 160.165 85.033C163.581 85.9883 166.635 86.7949 169.884 88.2252C173.257 89.71 176.264 91.9273 179.512 93.692C182.498 95.3148 185.517 97.3474 188.291 99.2954C188.951 99.7588 189.36 100.162 189.885 100.749C190.423 101.348 190.594 101.466 191.236 101.985C191.526 102.219 192.368 103.401 192.698 103.444C193.291 103.523 193.2 103.081 193.664 102.464C194.635 101.176 195.989 100.178 196.953 98.8568C197.757 97.7553 198.595 96.6402 199.454 95.693C201.534 93.4012 203.257 90.8607 204.735 88.1132C205.505 86.6826 206.315 85.3214 207.15 83.9714C207.982 82.6274 209.461 80.8534 211.118 80.9328C210.985 80.2485 210.561 80.1345 211.292 79.716C211.762 79.4464 212.678 79.881 213.04 80.1546C214.001 80.8798 214.042 82.2864 213.982 83.3432C213.826 86.0663 213.256 88.7543 212.462 91.3292C211.507 94.4246 210.311 97.1553 209.005 100.11C207.966 102.463 206.675 105.575 204.088 106.649C205.825 109.13 204.991 111.151 203.83 113.784C202.981 115.71 201.86 117.699 200.153 118.973C198.229 120.409 196.141 119.19 194.129 118.241C192.913 117.668 189.196 116.315 189.952 114.55C189.023 114.426 188.439 113.752 187.594 113.544C186.699 113.324 186.852 113.688 185.906 113.824C185.18 113.928 184.094 113.278 183.41 113.046C182.268 112.657 181.13 112.259 179.99 111.866C176.781 110.761 173.626 109.673 170.385 108.787C164.355 107.14 158.251 106.205 152.242 104.734C151.037 104.439 149.84 104.154 148.586 103.918C148.327 103.869 146.983 103.794 146.82 103.517C146.534 103.031 147.413 100.313 147.488 99.7588C147.984 96.122 147.822 92.1408 147.124 88.5455C146.834 87.0508 145.54 85.1155 145.551 83.6566C145.559 82.6779 146.426 81.6093 146.936 80.7227C148.195 78.5307 149.515 76.1624 150.448 73.8812C151.876 70.3915 152.751 66.4525 153.382 62.7151C153.711 60.7666 154.093 58.6544 154.183 56.6833C154.251 55.1808 154.128 53.605 154.346 52.0662C153.514 52.1452 152.338 52.576 151.589 52.1148C150.643 51.5328 150.389 49.8712 150.51 48.8788C147.271 49.4439 147.379 46.373 147.579 43.9713C141.726 43.9713 149.222 35.2741 150.158 33.4065C150.589 32.5479 150.576 33.5123 150.386 32.1844C150.303 31.6007 149.903 30.9537 149.678 30.4169C149.186 29.2453 148.654 28.0915 148.086 26.9547C146.886 24.5537 145.526 22.2339 144.043 19.997C142.707 20.9277 141.503 22.0294 140.388 23.2113C141.103 21.3401 143.29 19.0221 142.354 16.8974C141.488 14.9279 138.594 15.0645 136.884 15.4245C132.239 16.4038 127.785 17.8301 123.36 19.4815C124.731 20.2675 126.829 19.6603 128.191 19.0594C129.877 18.315 131.691 17.5341 133.508 17.1398C135.093 16.7959 137.175 16.9133 136.717 19.0483C136.346 20.7781 134.654 22.4441 133.537 23.7376C131.078 26.5872 127.993 28.7932 124.964 30.9975C121.707 33.367 118.569 35.9414 115.271 38.2423C109.309 42.4017 102.899 46.0166 96.74 49.8991C93.5394 51.9165 89.9127 53.5399 86.4415 55.0351C82.6232 56.6797 78.9623 58.4407 75.0009 59.7398C72.8009 60.4614 70.6203 61.0552 68.4585 61.8763C67.1036 62.3907 64.7439 63.4215 63.8486 61.894C62.0304 58.7915 68.6103 54.7113 70.4135 52.8145C71.6574 54.0226 65.5232 58.5243 66.0034 60.2832C66.3806 61.6655 67.8397 59.8806 68.5444 59.5039C69.6829 58.895 71.0314 58.5889 72.1758 57.8941C74.5229 56.4692 77.3057 54.8258 77.8416 51.88C77.4687 51.4866 77.4734 51.1233 77.8557 50.7902C78.0258 50.5879 78.1608 50.3657 78.2603 50.1233C78.4273 49.6603 78.4944 49.0807 78.5838 48.5897C78.848 47.1391 78.1847 45.7808 78.8047 44.361C75.1873 47.1018 71.7104 50.1978 68.2765 53.1648C65.1966 55.8262 61.9828 59.3112 60.8509 63.2825C60.7061 63.7913 60.4651 64.3685 60.4915 64.9055C60.5429 65.9598 60.6482 65.7324 61.4975 66.0713C62.347 66.4104 63.5839 66.3812 64.4973 66.4171C65.018 66.4373 67.3434 65.886 66.8811 67.0286C66.6146 67.6874 65.0026 67.6626 64.4254 67.7234C62.9767 67.8763 62.1912 67.7194 62.8775 69.2896C63.1851 69.9934 63.8084 70.4702 64.2973 71.0148C65.658 72.5303 66.3971 74.8546 67.4675 76.635C68.687 78.6633 70.0277 80.5921 71.4519 82.4812C72.0397 83.2605 72.8252 84.7254 73.6401 85.2816C74.4008 85.8009 73.5057 85.758 74.7695 85.547C75.3203 85.4553 75.8195 85.097 76.3464 84.9687C79.497 84.2012 82.7354 83.336 85.9935 82.3886C90.161 81.1767 94.5344 80.1434 98.5106 78.3984C102.073 76.8346 105.608 74.9731 109.207 73.3894C110.258 72.9273 111.308 72.6208 112.125 71.7702C113.111 70.7436 113.928 69.3996 114.837 68.2961C116.384 66.4189 117.809 64.5098 119.474 62.7309C120.714 61.4073 122.91 58.9468 124.658 58.4183C127.981 57.4148 126.202 62.475 125.773 63.7539C126.554 63.9312 126.964 62.9295 127.881 63.2176C128.978 63.5628 129.092 65.0222 129.229 65.9367C129.266 66.1804 128.936 66.6358 129.036 66.8531C129.07 66.9271 129.786 67.3505 129.924 67.5468C130.426 68.2597 130.327 69.1266 130.137 69.8954C129.154 73.8781 125.659 76.7861 123.089 79.7238C124.239 79.5063 125.092 78.8511 126.177 78.5262C127.196 78.2215 128.22 78.2374 129.247 78.15C130.322 78.0586 131.354 77.6562 132.454 77.6358C133.608 77.6144 134.713 77.943 135.858 78.0733Z" fill="black"/>
<path fill-rule="evenodd" clip-rule="evenodd" d="M14.3064 42.2519C13.6726 42.6662 13.494 43.0726 13.4721 44.0283C13.4634 44.4202 13.4904 45.8825 14.0382 45.8273C14.5522 45.7756 14.3064 42.7547 14.3064 42.2519ZM11.0325 44.6335C11.3278 41.5705 12.4484 38.4562 15.0846 36.5477C15.7365 36.0758 16.474 36.0925 17.1885 35.7948C17.6179 35.6159 18.2963 34.7843 18.7838 34.8827C20.5784 35.2457 18.5051 37.6302 18.2015 38.2574C17.2606 40.2008 17.3242 41.9083 17.3523 44.0048C17.3736 45.5981 17.7047 48.2841 16.9015 49.7263C16.0452 51.2619 14.1881 50.2646 13.1514 49.3558C11.8431 48.2083 10.855 46.3812 11.0325 44.6335Z" fill="black"/>
<path fill-rule="evenodd" clip-rule="evenodd" d="M42.5355 53.685C42.5355 55.3941 43.9227 54.237 43.8733 53.0213C43.8006 51.2315 42.4707 52.3336 42.5355 53.685ZM49.9104 44.2362C48.3922 45.6017 47.221 46.3678 46.9284 48.4675C46.7068 50.0578 46.927 51.633 46.9364 53.235C46.9523 55.9203 44.7838 58.7434 42.4503 55.6653C40.7482 53.4201 41.3587 49.8897 42.7468 47.6332C43.4751 46.4494 44.5149 45.2782 45.716 44.5405C46.6194 43.9852 49.1608 42.8927 49.9104 44.2362Z" fill="black"/>
<path fill-rule="evenodd" clip-rule="evenodd" d="M28.7067 85.6216C28.5307 86.0381 28.1174 87.7385 28.9606 87.354C29.7048 87.0142 29.2226 85.887 28.7067 85.6216ZM24.2519 80.3719C24.1218 79.7325 24.1748 75.7242 25.2789 76.0249C26.1461 76.2605 26.2894 78.3123 26.6426 79.0263C27.9582 81.6855 30.9778 83.3414 32.0191 86.086C33.1813 89.1509 29.6673 89.2462 27.8026 88.005C25.5948 86.5353 24.3174 82.9367 24.2519 80.3719Z" fill="black"/>
<path fill-rule="evenodd" clip-rule="evenodd" d="M21.5453 63.9368C22.0244 63.2898 22.0729 62.9442 21.7997 62.3719C21.4505 62.7517 21.5124 63.2945 21.5453 63.9368ZM21.892 66.8307C19.394 67.1104 19.269 62.5072 19.6967 60.9266C20.0374 59.6678 20.7698 58.3153 21.5238 57.2896C21.6761 57.0826 23.1202 55.2229 23.4033 55.2184C24.4897 55.2012 24.1913 56.4287 24.0739 56.8857C23.7048 58.3254 23.5586 59.5285 23.6579 61.1247C23.7645 62.8327 24.5733 66.8875 21.892 66.8307Z" fill="black"/>
<path fill-rule="evenodd" clip-rule="evenodd" d="M135.309 26.9648C131.737 29.9602 128.346 33.2031 124.462 35.8232C122.562 37.1055 120.575 38.2398 118.679 39.5429C117.713 40.2066 116.727 40.8009 115.656 41.2887C114.709 41.7197 114.091 41.7758 114.876 40.7528C115.401 40.0694 116.577 39.5932 117.293 39.1074C118.393 38.3592 119.432 37.5293 120.59 36.8656C122.63 35.6949 124.659 34.7497 126.54 33.314C128.209 32.0399 129.932 30.7961 131.525 29.442C132.209 28.8614 134.475 26.1958 135.309 26.9648Z" fill="black"/>
<path fill-rule="evenodd" clip-rule="evenodd" d="M135.381 37.7808C136.987 39.1548 132.968 42.919 132.052 43.7721C131.085 44.6719 130.021 45.4745 128.97 46.2715C128.6 46.5522 126.581 48.4308 126.069 48.2792C125.058 47.9799 126.385 46.761 126.73 46.4434C127.846 45.4141 128.987 44.4153 130.078 43.3583C131.062 42.406 132.128 41.524 133.08 40.5408C133.851 39.7443 134.499 38.3947 135.381 37.7808Z" fill="black"/>
<path fill-rule="evenodd" clip-rule="evenodd" d="M16.3772 93.168C15.9578 92.1962 15.2067 93.2751 15.5875 93.7604C15.9476 94.2198 16.3236 93.3547 16.3772 93.168ZM13.9181 91.249C14.1429 89.82 14.6625 89.0259 16.0031 90.2457C16.9242 91.0838 18.7769 93.4671 18.6011 94.7664C18.3703 96.4706 16.4933 95.987 15.5203 95.0959C14.5229 94.1825 14.0826 92.5161 13.9181 91.249Z" fill="black"/>
<path fill-rule="evenodd" clip-rule="evenodd" d="M16.8557 119.373C15.2135 119.248 13.8125 117.987 13.1151 116.51C12.5283 115.267 11.9729 113.264 14.0344 113.917C15.3779 114.343 20.5571 119.573 16.8557 119.373Z" fill="black"/>
<path fill-rule="evenodd" clip-rule="evenodd" d="M36.7576 111.272C35.4884 111.561 34.2332 110.726 33.4527 109.783C32.9672 109.196 31.8371 107.138 32.4065 106.291C33.2001 105.11 34.3984 107.484 34.8117 107.955C35.46 108.691 37.5802 110.099 36.7576 111.272Z" fill="black"/>
<path fill-rule="evenodd" clip-rule="evenodd" d="M37.9006 79.1385C36.9057 78.6769 35.9822 78.1211 35.5821 77.0185C35.3277 76.3164 35.1139 74.2107 36.2438 74.2203C37.5507 74.2319 40.5432 78.9277 37.9006 79.1385Z" fill="black"/>
<path fill-rule="evenodd" clip-rule="evenodd" d="M30.9261 57.2308C32.258 57.2067 32.5735 57.9413 32.7586 58.9967C32.8844 59.713 33.4945 62.1446 32.8609 62.6426C31.9555 63.3544 30.5152 61.7236 30.2241 61.0833C29.6241 59.7653 30.4537 58.4689 30.9261 57.2308Z" fill="black"/>
<path fill-rule="evenodd" clip-rule="evenodd" d="M53.8134 130.14C54.462 130.435 55.9374 131.089 55.3736 132.105C54.7841 133.167 53.0916 132.135 52.4594 131.671C52.1947 131.476 50.5131 130.205 50.5835 129.779C50.7317 128.872 53.0498 130.055 53.8134 130.14Z" fill="black"/>
<path fill-rule="evenodd" clip-rule="evenodd" d="M11.085 63.8268C11.5281 64.9365 12.027 68.749 9.69327 66.6903C8.98109 66.0619 8.8736 65.2772 9.11898 64.4145C9.47378 63.1644 9.99013 63.4123 11.085 63.8268Z" fill="black"/>
<path fill-rule="evenodd" clip-rule="evenodd" d="M134.758 49.6293C134.241 48.5734 135.517 47.8925 136.199 47.212C136.644 46.7675 138.516 44.357 139.13 44.4931C140.392 44.7732 135.379 49.1585 134.758 49.6293Z" fill="black"/>
<path fill-rule="evenodd" clip-rule="evenodd" d="M30.9093 126.104C32.127 125.909 32.4111 127.262 33.1956 127.851C33.532 128.104 34.6869 128.326 34.4546 128.863C33.8443 130.273 30.8496 127.052 30.9093 126.104Z" fill="black"/>
<path fill-rule="evenodd" clip-rule="evenodd" d="M41.192 94.1597C42.0289 93.8094 44.4447 95.6913 43.751 96.5043C42.7141 97.7207 41.251 94.8252 41.192 94.1597Z" fill="black"/>
<path fill-rule="evenodd" clip-rule="evenodd" d="M58.8343 121.387C58.2242 121.448 55.6495 120.639 56.6034 119.555C57.2732 118.794 59.0531 120.698 58.8343 121.387Z" fill="black"/>
<path fill-rule="evenodd" clip-rule="evenodd" d="M28.0022 116.188C27.3966 116.43 25.212 115.932 25.8988 114.983C26.5531 114.08 28.0031 115.438 28.0022 116.188Z" fill="black"/>
<path fill-rule="evenodd" clip-rule="evenodd" d="M45.8866 120.281C46.5948 120.207 47.1063 120.634 47.2279 121.357C46.3422 121.484 46.069 121.273 45.8866 120.281Z" fill="black"/>
<path fill-rule="evenodd" clip-rule="evenodd" d="M137.991 15.3114C138.29 15.3127 138.589 15.3143 138.886 15.3156C138.586 15.3141 138.289 15.3127 137.991 15.3114Z" fill="black"/>
<path fill-rule="evenodd" clip-rule="evenodd" d="M133.297 77.5728C132.849 77.5732 132.402 77.5741 131.955 77.5746C132.403 77.5737 132.85 77.5732 133.297 77.5728Z" fill="black"/>
<path fill-rule="evenodd" clip-rule="evenodd" d="M72.2972 4.69467C72.2766 5.1423 72.2561 5.58992 72.235 6.036C72.2552 5.588 72.2762 5.14113 72.2972 4.69467Z" fill="black"/>
<path fill-rule="evenodd" clip-rule="evenodd" d="M57.2879 6.56203C56.9155 6.58394 56.5426 6.60584 56.1702 6.62775C56.5426 6.60584 56.9155 6.58394 57.2879 6.56203Z" fill="black"/>
<path fill-rule="evenodd" clip-rule="evenodd" d="M66.4537 6.63289C66.1557 6.60763 65.8573 6.58215 65.5595 6.55688C65.8573 6.58215 66.1553 6.60763 66.4537 6.63289Z" fill="black"/>
<path fill-rule="evenodd" clip-rule="evenodd" d="M71.3719 6.98718C71.0739 7.09829 70.7759 7.16401 70.4777 6.98875C70.7759 6.9883 71.0739 6.98763 71.3719 6.98718Z" fill="black"/>
<path fill-rule="evenodd" clip-rule="evenodd" d="M44.7688 7.59932C44.3959 7.6751 44.0235 7.75089 43.6511 7.82601C44.024 7.75089 44.3964 7.6751 44.7688 7.59932Z" fill="black"/>
<path fill-rule="evenodd" clip-rule="evenodd" d="M24.3073 80.4799C24.3118 80.6292 24.316 80.7786 24.3201 80.927C24.3151 80.7772 24.3116 80.6286 24.3073 80.4799Z" fill="black"/>
<path fill-rule="evenodd" clip-rule="evenodd" d="M135.756 78.0945C135.457 78.0453 135.159 77.9962 134.862 77.947C135.159 77.9962 135.458 78.0453 135.756 78.0945Z" fill="black"/>
<path fill-rule="evenodd" clip-rule="evenodd" d="M53.9346 130.106C53.5619 130.034 53.1895 129.961 52.8168 129.888L53.9346 130.106Z" fill="black"/>
<path fill-rule="evenodd" clip-rule="evenodd" d="M129.171 65.9488C129.164 65.725 129.157 65.5012 129.151 65.2781C129.157 65.5019 129.164 65.7255 129.171 65.9488Z" fill="black"/>
<path fill-rule="evenodd" clip-rule="evenodd" d="M58.4057 6.63614C58.1822 6.60865 57.9584 6.58115 57.735 6.55365C57.9584 6.58115 58.1822 6.60865 58.4057 6.63614Z" fill="black"/>
<path fill-rule="evenodd" clip-rule="evenodd" d="M95.0687 1.10761C94.8452 1.03988 94.6214 0.972141 94.3981 0.904404C94.6216 0.972141 94.8452 1.03988 95.0687 1.10761Z" fill="black"/>
<path fill-rule="evenodd" clip-rule="evenodd" d="M121.672 151.892C121.821 151.901 121.971 151.91 122.119 151.919C121.969 151.91 121.82 151.901 121.672 151.892Z" fill="black"/>
<path fill-rule="evenodd" clip-rule="evenodd" d="M19.0601 31.8477C19.2845 31.8535 19.509 31.8595 19.7307 31.8656C19.5052 31.8595 19.2826 31.8535 19.0601 31.8477Z" fill="black"/>
<path fill-rule="evenodd" clip-rule="evenodd" d="M51.252 10.2822C50.7291 10.2831 50.2068 10.284 49.6871 10.2849C50.2111 10.284 50.7315 10.2831 51.252 10.2822Z" fill="black"/>
<path fill-rule="evenodd" clip-rule="evenodd" d="M129.496 136.376C129.197 136.371 128.899 136.366 128.602 136.362C128.902 136.366 129.199 136.371 129.496 136.376Z" fill="black"/>
<path fill-rule="evenodd" clip-rule="evenodd" d="M127.037 136.493C126.813 136.484 126.589 136.476 126.366 136.468C126.592 136.476 126.814 136.485 127.037 136.493Z" fill="black"/>
<path fill-rule="evenodd" clip-rule="evenodd" d="M119.308 140.393C119.319 140.766 119.33 141.139 119.342 141.51C119.331 141.136 119.319 140.765 119.308 140.393Z" fill="black"/>
<path fill-rule="evenodd" clip-rule="evenodd" d="M55.7231 91.1285C56.0211 91.1835 56.3195 91.238 56.6173 91.2926C56.3193 91.238 56.0211 91.1835 55.7231 91.1285Z" fill="black"/>
<path fill-rule="evenodd" clip-rule="evenodd" d="M102.223 32.3046C102.595 31.9876 102.967 32.0221 103.34 32.3011C102.968 32.3019 102.595 32.3033 102.223 32.3046Z" fill="black"/>
<path fill-rule="evenodd" clip-rule="evenodd" d="M88.234 43.5933C88.2447 43.4441 88.2552 43.295 88.2666 43.1461C88.2564 43.2955 88.2452 43.4444 88.234 43.5933Z" fill="black"/>
<path fill-rule="evenodd" clip-rule="evenodd" d="M54.6688 86.0757C55.1592 86.242 56.1458 86.7444 56.7174 86.6778C57.175 86.6243 57.5522 86.0681 57.9935 86.0688C59.1817 86.0704 58.9612 87.4439 58.3871 88.1812C56.8346 90.1757 53.3652 88.013 54.6688 86.0757Z" fill="black"/>
<path fill-rule="evenodd" clip-rule="evenodd" d="M59.5184 78.915C61.1387 79.3333 60.3316 82.8974 58.9695 83.1424C57.3657 83.4313 57.0863 80.5331 57.4031 79.4855C58.2284 79.976 57.7174 81.7255 58.7576 81.242C59.4191 80.9341 59.3185 79.511 59.5184 78.915Z" fill="black"/>
</g>
</svg>
