<svg width="6" height="24" viewBox="0 0 6 24" fill="none" xmlns="http://www.w3.org/2000/svg">
<path d="M6 21.2308C6 21.9652 5.68393 22.6696 5.12132 23.1889C4.55871 23.7082 3.79565 24 3 24C2.20435 24 1.44129 23.7082 0.878679 23.1889C0.31607 22.6696 0 21.9652 0 21.2308C0 20.4963 0.31607 19.792 0.878679 19.2726C1.44129 18.7533 2.20435 18.4615 3 18.4615C3.79565 18.4615 4.55871 18.7533 5.12132 19.2726C5.68393 19.792 6 20.4963 6 21.2308ZM6 12C6 12.7344 5.68393 13.4388 5.12132 13.9581C4.55871 14.4775 3.79565 14.7692 3 14.7692C2.20435 14.7692 1.44129 14.4775 0.878679 13.9581C0.31607 13.4388 0 12.7344 0 12C0 11.2656 0.31607 10.5612 0.878679 10.0419C1.44129 9.52253 2.20435 9.23077 3 9.23077C3.79565 9.23077 4.55871 9.52253 5.12132 10.0419C5.68393 10.5612 6 11.2656 6 12ZM6 2.76923C6 3.50368 5.68393 4.20804 5.12132 4.72737C4.55871 5.2467 3.79565 5.53846 3 5.53846C2.20435 5.53846 1.44129 5.2467 0.878679 4.72737C0.31607 4.20804 0 3.50368 0 2.76923C0 2.03479 0.31607 1.33042 0.878679 0.811089C1.44129 0.291757 2.20435 0 3 0C3.79565 0 4.55871 0.291757 5.12132 0.811089C5.68393 1.33042 6 2.03479 6 2.76923Z" fill="black"/>
</svg>
